<?xml version="1.0" encoding="UTF-8"?>
<svg width="240px" height="240px" viewBox="0 0 240 240" version="1.1" xmlns="http://www.w3.org/2000/svg" xmlns:xlink="http://www.w3.org/1999/xlink">
    <title>com_android_notes_b_s5_1x1_1_mc</title>
    <g id="com_android_notes" stroke="none" stroke-width="1" fill="none" fill-rule="evenodd">
        <path d="M102.839,64.7738036 L102.839773,64.8660482 L102.97,64.8320809 L103.96,67.834 L136.03,110.875 L137.03,110.537681 L137.03,109.718292 L137.026,109.713804 L137.027124,71.8100729 L137.028793,71.5134165 C137.036572,70.8445967 137.07149,70.3364082 137.132305,69.9254649 L137.159951,69.7551154 L137.159179,69.6691284 C137.208332,69.3903539 137.27095,69.1579043 137.346565,68.9477747 L137.405706,68.7939874 L137.528425,68.5226947 L137.561678,68.4564814 L137.595952,68.3904605 C137.925747,67.7646827 138.392577,67.258606 138.979485,66.8894399 L139.205171,66.7574538 L139.467435,66.624563 L139.584506,66.5721734 C140.101706,66.3508866 140.725152,66.2199662 141.88568,66.1881 L142.142742,66.1827909 L171.302681,66.1804472 L171.58625,66.1820374 C172.957689,66.1979226 173.645455,66.332571 174.208751,66.5747061 L174.319916,66.624563 L174.582181,66.7574538 L174.807866,66.8894399 C175.394774,67.258606 175.861604,67.7646827 176.191399,68.3904605 C176.518768,69.011637 176.711109,69.6283744 176.751835,71.0877434 L176.75769,71.3714565 L176.76,153.93951 L176.759317,154.250337 L176.757269,154.550289 L176.753853,154.839684 L176.735397,155.647733 L176.704604,156.372301 L176.661451,157.022031 L176.60591,157.605565 L176.573487,157.875211 L176.537957,158.131548 L176.457566,158.608623 L176.364711,159.045432 L176.339546,159.149356 L176.313601,159.251438 L176.202003,159.644055 L176.172146,159.738956 L176.141507,159.832827 L176.011107,160.200699 L175.868142,160.562879 L175.724998,160.892991 C175.180442,162.087872 174.419113,163.11211 173.436543,163.971712 L173.163081,164.202072 L172.859185,164.441068 L172.546443,164.669366 L172.465917,164.72505 L172.384198,164.780253 L172.042845,164.997004 L171.841067,165.115238 C171.358609,165.389744 170.790833,165.655766 170.057534,165.936825 L169.732894,166.058268 L169.092989,166.282818 L168.374686,166.517066 L167.569803,166.763412 L137.957956,175.35058 L137.796793,175.387333 C137.634979,175.414446 137.47196,175.412888 137.314492,175.384873 L137.159124,175.34812 L137.159889,175.440048 L137.032,175.394804 L137.03,175.406804 L136.029,172.773 L103.842,130.853 L102.905709,131.307582 L102.905709,132.191149 L102.97,132.470822 L102.967,132.470804 L102.97,132.473804 L102.968383,167.280138 L102.950991,167.988384 L102.937157,168.283697 C102.920846,168.581606 102.898613,168.849607 102.870572,169.093457 L102.840598,169.32947 L102.84,169.242804 L102.797132,169.516858 C102.735883,169.867555 102.658758,170.163356 102.566279,170.430856 L102.494048,170.626591 L102.361154,170.935677 L102.288843,171.085376 L102.21266,171.233763 C101.717968,172.17243 100.992028,172.909101 100.067035,173.411105 L99.92081,173.488414 L99.7732918,173.561794 L99.4687081,173.696653 L99.3213372,173.753494 C98.7709536,173.95561 98.1028162,174.088288 97.0696447,174.146543 L96.7786344,174.160581 L96.080705,174.17823 L95.6943697,174.180447 L70.5145708,174.180447 L70.1282355,174.17823 L69.4303061,174.160581 L69.1392958,174.146543 C68.1061244,174.088288 67.4379869,173.95561 66.8876033,173.753494 L66.7402324,173.696653 L66.4356488,173.561794 L66.2881306,173.488414 L66.1419051,173.411105 C65.3010025,172.954737 64.6246065,172.30443 64.1369059,171.48473 L63.9962808,171.233763 L63.8477868,170.935677 L63.7148921,170.626591 L63.6588796,170.477041 C63.4597077,169.918522 63.328962,169.240507 63.2715566,168.192063 L63.2577226,167.896751 L63.24,167.188504 L63.24,80.4215091 L63.2548376,79.7488964 L63.2666927,79.4716789 C63.3159611,78.4909864 63.4290309,77.8944294 63.6061216,77.3733514 L63.6560065,77.2328787 L63.7749858,76.9347314 L63.9010526,76.6592145 C64.2107387,76.0287261 64.6291612,75.4848984 65.1568046,75.0271016 L65.3896259,74.8361683 L65.5167878,74.739731 L65.7783563,74.5567162 L66.0608567,74.3839794 L66.2141837,74.3003895 L66.3778165,74.2180782 L66.7427627,74.0555702 L66.9474581,73.974513 C67.0894235,73.9203751 67.2427685,73.8659422 67.4097476,73.8106405 L67.6707237,73.7269647 L68.2607929,73.5539826 L68.5932679,73.4638156 L102.839,64.7738036 Z" id="主色" fill="#000000"></path>
    </g>
</svg>