<?xml version="1.0" encoding="UTF-8"?>
<svg width="240px" height="564px" viewBox="0 0 240 564" version="1.1" xmlns="http://www.w3.org/2000/svg" xmlns:xlink="http://www.w3.org/1999/xlink">
    <title>com_android_notes_b_s5_1x2_0_mc</title>
    <g id="com_android_notes" stroke="none" stroke-width="1" fill="none" fill-rule="evenodd">
        <path d="M102.839,226.773804 L102.839773,226.866048 L102.97,226.832081 L103.96,229.834 L136.03,272.875 L137.03,272.537681 L137.03,271.718292 L137.026,271.713804 L137.027124,233.810073 L137.028793,233.513416 C137.036572,232.844597 137.07149,232.336408 137.132305,231.925465 L137.159951,231.755115 L137.159179,231.669128 C137.208332,231.390354 137.27095,231.157904 137.346565,230.947775 L137.405706,230.793987 L137.528425,230.522695 L137.561678,230.456481 L137.595952,230.39046 C137.925747,229.764683 138.392577,229.258606 138.979485,228.88944 L139.205171,228.757454 L139.467435,228.624563 L139.584506,228.572173 C140.101706,228.350887 140.725152,228.219966 141.88568,228.1881 L142.142742,228.182791 L171.302681,228.180447 L171.58625,228.182037 C172.957689,228.197923 173.645455,228.332571 174.208751,228.574706 L174.319916,228.624563 L174.582181,228.757454 L174.807866,228.88944 C175.394774,229.258606 175.861604,229.764683 176.191399,230.39046 C176.518768,231.011637 176.711109,231.628374 176.751835,233.087743 L176.75769,233.371456 L176.76,315.93951 L176.759317,316.250337 L176.757269,316.550289 L176.753853,316.839684 L176.735397,317.647733 L176.704604,318.372301 L176.661451,319.022031 L176.60591,319.605565 L176.573487,319.875211 L176.537957,320.131548 L176.457566,320.608623 L176.364711,321.045432 L176.339546,321.149356 L176.313601,321.251438 L176.202003,321.644055 L176.172146,321.738956 L176.141507,321.832827 L176.011107,322.200699 L175.868142,322.562879 L175.724998,322.892991 C175.180442,324.087872 174.419113,325.11211 173.436543,325.971712 L173.163081,326.202072 L172.859185,326.441068 L172.546443,326.669366 L172.465917,326.72505 L172.384198,326.780253 L172.042845,326.997004 L171.841067,327.115238 C171.358609,327.389744 170.790833,327.655766 170.057534,327.936825 L169.732894,328.058268 L169.092989,328.282818 L168.374686,328.517066 L167.569803,328.763412 L137.957956,337.35058 L137.796793,337.387333 C137.634979,337.414446 137.47196,337.412888 137.314492,337.384873 L137.159124,337.34812 L137.159889,337.440048 L137.032,337.394804 L137.03,337.406804 L136.029,334.773 L103.842,292.853 L102.905709,293.307582 L102.905709,294.191149 L102.97,294.470822 L102.967,294.470804 L102.97,294.473804 L102.968383,329.280138 L102.950991,329.988384 L102.937157,330.283697 C102.920846,330.581606 102.898613,330.849607 102.870572,331.093457 L102.840598,331.32947 L102.84,331.242804 L102.797132,331.516858 C102.735883,331.867555 102.658758,332.163356 102.566279,332.430856 L102.494048,332.626591 L102.361154,332.935677 L102.288843,333.085376 L102.21266,333.233763 C101.717968,334.17243 100.992028,334.909101 100.067035,335.411105 L99.92081,335.488414 L99.7732918,335.561794 L99.4687081,335.696653 L99.3213372,335.753494 C98.7709536,335.95561 98.1028162,336.088288 97.0696447,336.146543 L96.7786344,336.160581 L96.080705,336.17823 L95.6943697,336.180447 L70.5145708,336.180447 L70.1282355,336.17823 L69.4303061,336.160581 L69.1392958,336.146543 C68.1061244,336.088288 67.4379869,335.95561 66.8876033,335.753494 L66.7402324,335.696653 L66.4356488,335.561794 L66.2881306,335.488414 L66.1419051,335.411105 C65.3010025,334.954737 64.6246065,334.30443 64.1369059,333.48473 L63.9962808,333.233763 L63.8477868,332.935677 L63.7148921,332.626591 L63.6588796,332.477041 C63.4597077,331.918522 63.328962,331.240507 63.2715566,330.192063 L63.2577226,329.896751 L63.24,329.188504 L63.24,242.421509 L63.2548376,241.748896 L63.2666927,241.471679 C63.3159611,240.490986 63.4290309,239.894429 63.6061216,239.373351 L63.6560065,239.232879 L63.7749858,238.934731 L63.9010526,238.659215 C64.2107387,238.028726 64.6291612,237.484898 65.1568046,237.027102 L65.3896259,236.836168 L65.5167878,236.739731 L65.7783563,236.556716 L66.0608567,236.383979 L66.2141837,236.300389 L66.3778165,236.218078 L66.7427627,236.05557 L66.9474581,235.974513 C67.0894235,235.920375 67.2427685,235.865942 67.4097476,235.810641 L67.6707237,235.726965 L68.2607929,235.553983 L68.5932679,235.463816 L102.839,226.773804 Z" id="主色" fill="#000000"></path>
    </g>
</svg>