<?xml version="1.0" encoding="UTF-8"?>
<svg width="564px" height="240px" viewBox="0 0 564 240" version="1.1" xmlns="http://www.w3.org/2000/svg" xmlns:xlink="http://www.w3.org/1999/xlink">
    <title>com_android_notes_b_s5_2x1_0_mc</title>
    <g id="com_android_notes" stroke="none" stroke-width="1" fill="none" fill-rule="evenodd">
        <path d="M264.839,64.7738036 L264.839773,64.8660482 L264.97,64.8320809 L265.96,67.834 L298.03,110.875 L299.03,110.537681 L299.03,109.718292 L299.026,109.713804 L299.027124,71.8100729 L299.028793,71.5134165 C299.036572,70.8445967 299.07149,70.3364082 299.132305,69.9254649 L299.159951,69.7551154 L299.159179,69.6691284 C299.208332,69.3903539 299.27095,69.1579043 299.346565,68.9477747 L299.405706,68.7939874 L299.528425,68.5226947 L299.561678,68.4564814 L299.595952,68.3904605 C299.925747,67.7646827 300.392577,67.258606 300.979485,66.8894399 L301.205171,66.7574538 L301.467435,66.624563 L301.584506,66.5721734 C302.101706,66.3508866 302.725152,66.2199662 303.88568,66.1881 L304.142742,66.1827909 L333.302681,66.1804472 L333.58625,66.1820374 C334.957689,66.1979226 335.645455,66.332571 336.208751,66.5747061 L336.319916,66.624563 L336.582181,66.7574538 L336.807866,66.8894399 C337.394774,67.258606 337.861604,67.7646827 338.191399,68.3904605 C338.518768,69.011637 338.711109,69.6283744 338.751835,71.0877434 L338.75769,71.3714565 L338.76,153.93951 L338.759317,154.250337 L338.757269,154.550289 L338.753853,154.839684 L338.735397,155.647733 L338.704604,156.372301 L338.661451,157.022031 L338.60591,157.605565 L338.573487,157.875211 L338.537957,158.131548 L338.457566,158.608623 L338.364711,159.045432 L338.339546,159.149356 L338.313601,159.251438 L338.202003,159.644055 L338.172146,159.738956 L338.141507,159.832827 L338.011107,160.200699 L337.868142,160.562879 L337.724998,160.892991 C337.180442,162.087872 336.419113,163.11211 335.436543,163.971712 L335.163081,164.202072 L334.859185,164.441068 L334.546443,164.669366 L334.465917,164.72505 L334.384198,164.780253 L334.042845,164.997004 L333.841067,165.115238 C333.358609,165.389744 332.790833,165.655766 332.057534,165.936825 L331.732894,166.058268 L331.092989,166.282818 L330.374686,166.517066 L329.569803,166.763412 L299.957956,175.35058 L299.796793,175.387333 C299.634979,175.414446 299.47196,175.412888 299.314492,175.384873 L299.159124,175.34812 L299.159889,175.440048 L299.032,175.394804 L299.03,175.406804 L298.029,172.773 L265.842,130.853 L264.905709,131.307582 L264.905709,132.191149 L264.97,132.470822 L264.967,132.470804 L264.97,132.473804 L264.968383,167.280138 L264.950991,167.988384 L264.937157,168.283697 C264.920846,168.581606 264.898613,168.849607 264.870572,169.093457 L264.840598,169.32947 L264.84,169.242804 L264.797132,169.516858 C264.735883,169.867555 264.658758,170.163356 264.566279,170.430856 L264.494048,170.626591 L264.361154,170.935677 L264.288843,171.085376 L264.21266,171.233763 C263.717968,172.17243 262.992028,172.909101 262.067035,173.411105 L261.92081,173.488414 L261.773292,173.561794 L261.468708,173.696653 L261.321337,173.753494 C260.770954,173.95561 260.102816,174.088288 259.069645,174.146543 L258.778634,174.160581 L258.080705,174.17823 L257.69437,174.180447 L232.514571,174.180447 L232.128236,174.17823 L231.430306,174.160581 L231.139296,174.146543 C230.106124,174.088288 229.437987,173.95561 228.887603,173.753494 L228.740232,173.696653 L228.435649,173.561794 L228.288131,173.488414 L228.141905,173.411105 C227.301002,172.954737 226.624607,172.30443 226.136906,171.48473 L225.996281,171.233763 L225.847787,170.935677 L225.714892,170.626591 L225.65888,170.477041 C225.459708,169.918522 225.328962,169.240507 225.271557,168.192063 L225.257723,167.896751 L225.24,167.188504 L225.24,80.4215091 L225.254838,79.7488964 L225.266693,79.4716789 C225.315961,78.4909864 225.429031,77.8944294 225.606122,77.3733514 L225.656007,77.2328787 L225.774986,76.9347314 L225.901053,76.6592145 C226.210739,76.0287261 226.629161,75.4848984 227.156805,75.0271016 L227.389626,74.8361683 L227.516788,74.739731 L227.778356,74.5567162 L228.060857,74.3839794 L228.214184,74.3003895 L228.377816,74.2180782 L228.742763,74.0555702 L228.947458,73.974513 C229.089424,73.9203751 229.242769,73.8659422 229.409748,73.8106405 L229.670724,73.7269647 L230.260793,73.5539826 L230.593268,73.4638156 L264.839,64.7738036 Z" id="主色" fill="#000000"></path>
    </g>
</svg>