<?xml version="1.0" encoding="UTF-8"?>
<svg width="564px" height="564px" viewBox="0 0 564 564" version="1.1" xmlns="http://www.w3.org/2000/svg" xmlns:xlink="http://www.w3.org/1999/xlink">
    <title>com_android_notes_b_s5_2x2_1_mc</title>
    <g id="com_android_notes" stroke="none" stroke-width="1" fill="none" fill-rule="evenodd">
        <path d="M253.292333,188.503222 L253.292947,188.65864 L253.514596,188.602106 L255.199596,193.711452 L309.783384,266.968378 L311.485404,266.394252 L311.485404,264.99963 L311.478333,264.990018 L311.480509,200.478834 L311.481867,200.126114 C311.491821,198.863032 311.556398,197.928225 311.67289,197.183373 L311.705946,196.984838 L311.706332,196.828875 C311.793383,196.336987 311.905131,195.929888 312.040682,195.561866 L312.124862,195.345376 L312.333733,194.883629 L312.390331,194.770932 L312.448666,194.658563 C313.031572,193.552507 313.866002,192.66616 314.919633,192.032322 L315.187588,191.879142 L315.633967,191.652958 L315.769229,191.591577 C316.676881,191.191714 317.761147,190.958135 319.849233,190.907519 L320.187394,190.90105 L369.8182,190.897061 L370.149852,190.898314 C372.631181,190.917467 373.830256,191.155988 374.819848,191.592245 L374.953595,191.652958 L375.399974,191.879142 L375.667929,192.032322 C376.72156,192.66616 377.55599,193.552507 378.138896,194.658563 C378.707229,195.736967 379.036457,196.80751 379.096619,199.400176 L379.102736,199.732297 L379.106667,340.265317 L379.105505,340.794354 C379.104472,341.025327 379.10275,341.250816 379.100339,341.471035 L379.096205,341.797437 L379.064791,343.172759 L379.012382,344.405992 L378.938934,345.51185 L378.844402,346.505041 L378.808199,346.813611 L378.769647,347.111842 L378.728745,347.400278 L378.591917,348.212272 L378.433876,348.955732 L378.391046,349.132613 L378.346887,349.30636 L378.156944,349.974605 L378.106128,350.13613 L378.053979,350.2959 L377.832036,350.922028 L377.588706,351.538467 L377.404042,351.969422 C376.454002,354.103107 375.102942,355.920733 373.342242,357.433895 L372.984638,357.732471 L372.467401,358.139248 L371.935108,358.527817 L371.79805,358.622593 L371.658963,358.71655 L371.077974,359.085467 L370.841997,359.225005 C369.962255,359.73476 368.91775,360.225344 367.532706,360.7483 L367.146391,360.891765 L366.057259,361.273956 L364.834693,361.672653 L363.464766,362.09194 L313.062928,376.708072 L312.867652,376.756018 C312.541044,376.821952 312.209988,376.818417 311.89381,376.751751 L311.706043,376.704226 L311.705656,376.860189 C311.632688,376.838575 311.560761,376.813521 311.490131,376.78511 L311.485404,376.803222 L309.781682,372.320418 L254.998758,300.971464 L253.405172,301.745174 L253.405172,303.24903 L253.514596,303.72504 L253.510333,303.724018 L253.515333,303.730018 L253.511844,362.971421 L253.482242,364.176875 L253.465859,364.543103 C253.434935,365.15777 253.389695,365.699018 253.330463,366.183394 L253.293248,366.467327 L253.292895,366.316626 C253.173891,367.163284 253.008097,367.830174 252.797506,368.419202 L252.704517,368.667172 L252.478327,369.193245 L252.355252,369.448037 L252.225588,369.700595 C251.383612,371.298231 250.148048,372.552065 248.573692,373.40649 L248.324813,373.538072 L248.073734,373.662966 L247.555326,373.892501 L247.375089,373.962957 C246.401365,374.330603 245.218195,374.568062 243.337659,374.665493 L242.976767,374.682118 L241.788877,374.712157 L241.131326,374.715931 L198.2748,374.715931 L197.617249,374.712157 L196.429359,374.682118 L196.068467,374.665493 C194.195277,374.568442 193.014016,374.332456 192.042458,373.96726 L191.8508,373.892501 L191.332392,373.662966 L191.081313,373.538072 L190.832434,373.40649 C189.363035,372.609026 188.188761,371.463634 187.354165,370.015522 L187.180538,369.700595 L186.927799,369.193245 L186.701609,368.667172 L186.632179,368.484269 C186.26989,367.496148 186.035892,366.295483 185.93988,364.38714 L185.923497,364.020912 L185.893333,362.815458 L185.893333,215.135727 L185.918587,213.990922 L185.933533,213.627106 C186.016132,211.857115 186.216803,210.81029 186.535971,209.89094 L186.601385,209.708593 L186.80389,209.201139 L186.950024,208.874566 C187.505755,207.693009 188.280486,206.686081 189.275277,205.852402 L189.55204,205.629329 L189.768472,205.46519 L190.213667,205.153694 L190.694488,204.859691 L190.866659,204.764565 L191.046198,204.670515 L191.23396,204.577323 L191.855106,204.30073 L192.084284,204.208803 C192.397989,204.086131 192.744989,203.962856 193.134381,203.836663 L193.434515,203.741435 L194.438824,203.447015 L195.004703,203.293548 L253.292333,188.503222 Z M306.871333,371.322018 L310.933809,376.470057 C310.814956,376.380016 310.703607,376.278272 310.6016,376.165427 L310.477315,376.016325 L306.871333,371.322018 Z" id="主色" fill="#000000"></path>
    </g>
</svg>