<?xml version="1.0" encoding="UTF-8"?>
<svg width="564px" height="564px" viewBox="0 0 564 564" version="1.1" xmlns="http://www.w3.org/2000/svg" xmlns:xlink="http://www.w3.org/1999/xlink">
    <title>com_android_bbkclock_b_s5_clock_minute_2x2_0</title>
    <g id="com_android_bbkclock_b_s5_clock_minute" stroke="none" stroke-width="1" fill="none" fill-rule="evenodd">
        <g id="编组" transform="translate(168.000000, 110.000000)" fill="#000000">
            <path d="M114,58 C176.960461,58 228,109.039539 228,172 C228,234.960461 176.960461,286 114,286 C51.0395385,286 0,234.960461 0,172 C0,109.039539 51.0395385,58 114,58 Z M114,124 C87.490332,124 66,145.490332 66,172 C66,198.509668 87.490332,220 114,220 C140.509668,220 162,198.509668 162,172 C162,145.490332 140.509668,124 114,124 Z" id="形状" opacity="0.3"></path>
            <path d="M114.021347,0 C117.873999,-7.07720614e-16 120.99719,3.12319119 120.99719,6.97584277 C120.99719,6.97677933 120.99719,6.9777159 120.997189,6.97865246 L120.960117,99.0213475 C120.958564,102.876005 117.833311,106 113.978653,106 C110.126001,106 107.00281,102.876809 107.00281,99.0241572 C107.00281,99.0232207 107.00281,99.0222841 107.002811,99.0213475 L107.039883,6.97865246 C107.041436,3.12399454 110.166689,7.0808923e-16 114.021347,0 Z" id="分针" transform="translate(114.000000, 53.000000) rotate(-360.000000) translate(-114.000000, -53.000000) "></path>
        </g>
    </g>
</svg>