<?xml version="1.0" encoding="UTF-8"?>
<svg width="240px" height="240px" viewBox="0 0 240 240" version="1.1" xmlns="http://www.w3.org/2000/svg" xmlns:xlink="http://www.w3.org/1999/xlink">
    <title>com_android_bbkclock_b_s5_clock_hour_1x2_0</title>
    <g id="com_android_bbkclock_b_s5_clock_hour" stroke="none" stroke-width="1" fill="none" fill-rule="evenodd">
        <path d="M118.460499,149.666667 L121.539501,149.666667 C124.13617,149.666667 125.189791,149.959067 126.216458,150.508135 C127.243125,151.057202 128.048859,151.862936 128.597926,152.889603 C129.146993,153.916269 129.439394,154.96989 129.439394,157.566559 L129.439394,183.120309 C129.439394,185.716979 129.146993,186.770599 128.597926,187.797266 C128.048859,188.823933 127.243125,189.629667 126.216458,190.178734 C125.189791,190.727801 124.13617,191.020202 121.539501,191.020202 L118.460499,191.020202 C115.86383,191.020202 114.810209,190.727801 113.783542,190.178734 C112.756875,189.629667 111.951141,188.823933 111.402074,187.797266 C110.853007,186.770599 110.560606,185.716979 110.560606,183.120309 L110.560606,157.566559 C110.560606,154.96989 110.853007,153.916269 111.402074,152.889603 C111.951141,151.862936 112.756875,151.057202 113.783542,150.508135 C114.810209,149.959067 115.86383,149.666667 118.460499,149.666667 Z" id="时针" fill="#4E4E4E"></path>
    </g>
</svg>