<?xml version="1.0" encoding="UTF-8"?>
<svg width="240px" height="240px" viewBox="0 0 240 240" version="1.1" xmlns="http://www.w3.org/2000/svg" xmlns:xlink="http://www.w3.org/1999/xlink">
    <title>com_android_bbkclock_b_s5_clock_hour_1x1_0</title>
    <g id="com_android_bbkclock_b_s5_clock_hour" stroke="none" stroke-width="1" fill="none" fill-rule="evenodd">
        <path d="M118.282213,153 L121.717787,153 C124.60844,153 125.778219,153.32489 126.91896,153.934964 C128.059701,154.545039 128.954961,155.440299 129.565036,156.58104 C130.17511,157.721781 130.5,158.89156 130.5,161.782213 L130.5,190.217787 C130.5,193.10844 130.17511,194.278219 129.565036,195.41896 C128.954961,196.559701 128.059701,197.454961 126.91896,198.065036 C125.778219,198.67511 124.60844,199 121.717787,199 L118.282213,199 C115.39156,199 114.221781,198.67511 113.08104,198.065036 C111.940299,197.454961 111.045039,196.559701 110.434964,195.41896 C109.82489,194.278219 109.5,193.10844 109.5,190.217787 L109.5,161.782213 C109.5,158.89156 109.82489,157.721781 110.434964,156.58104 C111.045039,155.440299 111.940299,154.545039 113.08104,153.934964 C114.221781,153.32489 115.39156,153 118.282213,153 Z" id="时针" fill="#4E4E4E"></path>
    </g>
</svg>