<?xml version="1.0" encoding="UTF-8"?>
<svg width="240px" height="240px" viewBox="0 0 240 240" version="1.1" xmlns="http://www.w3.org/2000/svg" xmlns:xlink="http://www.w3.org/1999/xlink">
    <title>com_android_bbkclock_b_s5_clock_minute_1x1_1</title>
    <g id="com_android_bbkclock_b_s5_clock_minute" stroke="none" stroke-width="1" fill="none" fill-rule="evenodd">
        <g id="编组" transform="translate(63.000000, 34.000000)" fill="#000000">
            <path d="M57,29 C88.4802307,29 114,54.5197693 114,86 C114,117.480231 88.4802307,143 57,143 C25.5197693,143 0,117.480231 0,86 C0,54.5197693 25.5197693,29 57,29 Z M57,62 C43.745166,62 33,72.745166 33,86 C33,99.254834 43.745166,110 57,110 C70.254834,110 81,99.254834 81,86 C81,72.745166 70.254834,62 57,62 Z" id="形状" opacity="0.3"></path>
            <path d="M57.0106735,0 C58.9369993,-3.53860307e-16 60.4985949,1.5615956 60.4985949,3.48792139 C60.4985949,3.48838967 60.4985948,3.48885795 60.4985946,3.48932623 L60.4800584,49.5106738 C60.4792822,51.4380027 58.9166556,53 56.9893265,53 C55.0630007,53 53.5014051,51.4384044 53.5014051,49.5120786 C53.5014051,49.5116103 53.5014052,49.5111421 53.5014054,49.5106738 L53.5199416,3.48932623 C53.5207178,1.56199727 55.0833444,3.54044615e-16 57.0106735,0 Z" id="分针" transform="translate(57.000000, 26.500000) rotate(-360.000000) translate(-57.000000, -26.500000) "></path>
        </g>
    </g>
</svg>