<?xml version="1.0" encoding="UTF-8"?>
<svg width="564px" height="564px" viewBox="0 0 564 564" version="1.1" xmlns="http://www.w3.org/2000/svg" xmlns:xlink="http://www.w3.org/1999/xlink">
    <title>com_android_bbkclock_b_s5_clock_dial_2x2_0</title>
    <g id="com_android_bbkclock_b_s5_clock_dial" stroke="none" stroke-width="1" fill="none" fill-rule="evenodd">
        <g id="背景色" transform="translate(24.675000, 24.675000)" fill="#CBCBCB">
            <path d="M61.5332448,1.14131982e-15 L453.116755,6.1133533e-15 C474.513205,-3.55203432e-15 482.272075,2.22781467 490.094297,6.41118489 C497.916519,10.5945551 504.055445,16.7334809 508.238815,24.5557031 C512.422185,32.3779253 514.65,40.136795 514.65,61.5332448 L514.65,453.116755 C514.65,474.513205 512.422185,482.272075 508.238815,490.094297 C504.055445,497.916519 497.916519,504.055445 490.094297,508.238815 C482.272075,512.422185 474.513205,514.65 453.116755,514.65 L61.5332448,514.65 C40.136795,514.65 32.3779253,512.422185 24.5557031,508.238815 C16.7334809,504.055445 10.5945551,497.916519 6.41118489,490.094297 C2.22781467,482.272075 -1.14462212e-15,474.513205 1.96999206e-15,453.116755 L5.28468105e-15,61.5332448 C-3.07055188e-15,40.136795 2.22781467,32.3779253 6.41118489,24.5557031 C10.5945551,16.7334809 16.7334809,10.5945551 24.5557031,6.41118489 C32.3779253,2.22781467 40.136795,-6.63139682e-16 61.5332448,1.14131982e-15 Z" id="背景"></path>
        </g>
    </g>
</svg>