<?xml version="1.0" encoding="UTF-8"?>
<svg width="564px" height="564px" viewBox="0 0 564 564" version="1.1" xmlns="http://www.w3.org/2000/svg" xmlns:xlink="http://www.w3.org/1999/xlink">
    <title>com_android_bbkclock_b_s5_clock_hour_2x2_0</title>
    <g id="com_android_bbkclock_b_s5_clock_hour" stroke="none" stroke-width="1" fill="none" fill-rule="evenodd">
        <path d="M278.564427,348 L285.435573,348 C291.216881,348 293.556438,348.649779 295.83792,349.869929 C298.119401,351.090079 299.909921,352.880599 301.130071,355.16208 C302.350221,357.443562 303,359.783119 303,365.564427 L303,422.435573 C303,428.216881 302.350221,430.556438 301.130071,432.83792 C299.909921,435.119401 298.119401,436.909921 295.83792,438.130071 C293.556438,439.350221 291.216881,440 285.435573,440 L278.564427,440 C272.783119,440 270.443562,439.350221 268.16208,438.130071 C265.880599,436.909921 264.090079,435.119401 262.869929,432.83792 C261.649779,430.556438 261,428.216881 261,422.435573 L261,365.564427 C261,359.783119 261.649779,357.443562 262.869929,355.16208 C264.090079,352.880599 265.880599,351.090079 268.16208,349.869929 C270.443562,348.649779 272.783119,348 278.564427,348 Z" id="时针" fill="#4E4E4E"></path>
    </g>
</svg>