<?xml version="1.0" encoding="UTF-8"?>
<svg width="240px" height="240px" viewBox="0 0 240 240" version="1.1" xmlns="http://www.w3.org/2000/svg" xmlns:xlink="http://www.w3.org/1999/xlink">
    <title>com_android_bbkclock_b_s5_clock_minute_1x2_0</title>
    <g id="com_android_bbkclock_b_s5_clock_minute" stroke="none" stroke-width="1" fill="none" fill-rule="evenodd">
        <g id="编组" transform="translate(68.757576, 42.686869)" fill="#000000">
            <path d="M51.2424242,26.0707071 C79.5428337,26.0707071 102.484848,49.0127219 102.484848,77.3131313 C102.484848,105.613541 79.5428337,128.555556 51.2424242,128.555556 C22.9420148,128.555556 0,105.613541 0,77.3131313 C0,49.0127219 22.9420148,26.0707071 51.2424242,26.0707071 Z M51.2424242,55.7373737 C39.3264624,55.7373737 29.6666667,65.3971694 29.6666667,77.3131313 C29.6666667,89.2290932 39.3264624,98.8888889 51.2424242,98.8888889 C63.1583861,98.8888889 72.8181818,89.2290932 72.8181818,77.3131313 C72.8181818,65.3971694 63.1583861,55.7373737 51.2424242,55.7373737 Z" id="形状" opacity="0.3"></path>
            <path d="M51.2520196,0 C52.983767,-3.18116842e-16 54.3876257,1.40385867 54.3876257,3.1356061 C54.3876257,3.13602707 54.3876256,3.13644805 54.3876254,3.13686903 L54.3709616,44.5095956 C54.3702638,46.2422449 52.9654783,47.6464646 51.2328289,47.6464646 C49.5010815,47.6464646 48.0972228,46.242606 48.0972228,44.5108586 C48.0972228,44.5104376 48.0972229,44.5100166 48.097223,44.5095956 L48.1138869,3.13686903 C48.1145847,1.40421977 49.5193702,3.18282533e-16 51.2520196,0 Z" id="分针" transform="translate(51.242424, 23.823232) rotate(-360.000000) translate(-51.242424, -23.823232) "></path>
        </g>
    </g>
</svg>