<?xml version="1.0" encoding="UTF-8"?>
<svg width="564px" height="564px" viewBox="0 0 564 564" version="1.1" xmlns="http://www.w3.org/2000/svg" xmlns:xlink="http://www.w3.org/1999/xlink">
    <title>com_android_mms_b_s5_2x2_0_mc</title>
    <g id="com_android_mms" stroke="none" stroke-width="1" fill="none" fill-rule="evenodd">
        <g id="编组" transform="translate(166.762626, 232.422608)" fill="#000000">
            <path d="M127.890804,0 L129.474278,0.00810194377 C129.730276,0.0108240651 129.982395,0.0142428218 130.230753,0.018374319 L130.230753,0.018374319 L131.676714,0.0518450276 L133.038069,0.103194549 C139.422607,0.395836494 143.040675,1.34207055 146.766522,3.33468289 C150.8863,5.53797225 154.129702,8.78138651 156.332983,12.9011794 C158.188167,16.3700846 159.136327,19.7455641 159.494458,25.3472792 L159.494458,25.3472792 L159.56446,26.6296934 L159.615809,27.9910562 C159.629903,28.4586304 159.641016,28.9403056 159.649279,29.4370244 L159.649279,29.4370244 L159.665644,30.9732549 L159.667061,84.2820054 L157.965633,85.9939887 L157.965633,31.7411586 C157.965633,21.295898 156.878065,17.5081941 154.835839,13.6895629 C152.793612,9.87093174 149.796728,6.87404766 145.978097,4.83182136 L145.978097,4.83182136 L145.582902,4.62396746 C145.451025,4.55582161 145.31891,4.48881635 145.186283,4.42295713 L145.186283,4.42295713 L144.786593,4.22882308 C141.304557,2.57621956 137.291218,1.70202657 127.926501,1.70202657 L73.509114,1.70202657 L75.4678666,0 L127.890804,0 Z" id="形状结合" fill-rule="nonzero"></path>
            <path d="M73.509114,1.70202657 L73.509114,55.9548566 C73.509114,66.4001173 74.5966825,70.1878212 76.6389088,74.0064523 C78.6811351,77.8250835 81.6780192,80.8219676 85.4966503,82.8641939 L85.4966503,82.8641939 L85.6941724,82.9689742 C89.447871,84.9435992 93.2830761,85.9939887 103.548246,85.9939887 L103.548246,85.9939887 L157.965114,85.9920266 L157.965633,104.595636 C157.965633,115.040896 156.878065,118.8286 154.835839,122.647231 C152.793612,126.465862 149.796728,129.462747 145.978097,131.504973 C142.159466,133.547199 138.371762,134.634768 127.926501,134.634768 L37.8403227,134.633542 C31.3694952,135.74569 25.3299476,138.27802 20.4370116,142.302875 L8.18923443,152.723433 C7.29418693,153.484849 6.17682896,153.900382 5.02444906,153.900382 C2.34520959,153.900382 0.155764218,151.700595 0.00795376344,148.928881 L0,148.629797 L8.09077925e-16,31.7411586 C-4.70097574e-16,21.295898 1.0875685,17.5081941 3.1297948,13.6895629 C5.17202109,9.87093174 8.16890518,6.87404766 11.9875363,4.83182136 C15.740329,2.82480587 19.4632517,1.73981271 29.5047628,1.70299577 L73.509114,1.70202657 Z" id="形状结合"></path>
            <path d="M144.786593,4.22882308 L145.186283,4.42295713 C145.31891,4.48881635 145.451025,4.55582161 145.582902,4.62396746 L145.978097,4.83182136 C149.796728,6.87404766 152.793612,9.87093174 154.835839,13.6895629 C156.878065,17.5081941 157.965633,21.295898 157.965633,31.7411586 L157.965114,85.9920266 L103.548246,85.9939887 C93.2830761,85.9939887 89.447871,84.9435992 85.6941724,82.9689742 L85.4966503,82.8641939 C81.6780192,80.8219676 78.6811351,77.8250835 76.6389088,74.0064523 C74.5966825,70.1878212 73.509114,66.4001173 73.509114,55.9548566 L73.509114,1.70202657 L128.441289,1.70292533 C137.439678,1.73467103 141.369039,2.60682333 144.786593,4.22882308 Z" id="形状结合" opacity="0.649999976"></path>
        </g>
    </g>
</svg>