<?xml version="1.0" encoding="UTF-8"?>
<svg width="564px" height="564px" viewBox="0 0 564 564" version="1.1" xmlns="http://www.w3.org/2000/svg" xmlns:xlink="http://www.w3.org/1999/xlink">
    <title>com_android_mms_b_s5_2x2_1_sc</title>
    <defs>
        <path d="M46.8348283,0 L38.8632431,18.6716928 C37.1922162,22.5862223 39.0109344,27.1142104 42.925464,28.7852373 C43.8818777,29.1935094 44.9110263,29.4039957 45.9509365,29.4040212 L58.6407475,29.4039263 L58.6402694,53.9320197 C58.6402694,61.5718276 59.229946,65.6019268 60.3558783,68.7106257 C62.7615153,74.6734248 67.5192763,79.43534 73.479596,81.8467488 L73.4991813,81.8545633 C76.6080153,82.9807302 80.6381593,83.5705326 88.2787823,83.5705326 L157.402828,83.569 L157.402828,100.360093 C157.402828,110.66605 156.329764,114.403239 154.314774,118.170943 C152.299784,121.938646 149.342868,124.895562 145.575165,126.910552 C141.807461,128.925542 138.070272,129.998606 127.764315,129.998606 L38.7340029,129.997523 C32.0263549,131.179405 25.8839185,134.006944 20.7359124,138.049688 L8.29575498,148.168042 C7.38880195,148.90567 6.25544171,149.308367 5.0864,149.308367 C2.34928811,149.308367 0.117132198,147.146394 0.00446221124,144.436977 L0,144.221967 L7.98287597e-16,29.6385129 C-4.63828083e-16,19.3325563 1.07306406,15.5953674 3.08805406,11.8276637 C5.10304405,8.05995996 8.05995996,5.10304405 11.8276637,3.08805406 C15.530407,1.10780527 19.2036786,0.0372822109 29.1112704,0.000956281567 L46.8348283,0 Z M145.575165,3.08805406 C149.342868,5.10304405 152.299784,8.05995996 154.314774,11.8276637 C154.801151,12.7371094 155.232648,13.6447772 155.60742,14.6434775 L155.679044,14.8393267 C153.267367,8.87834325 148.50466,4.12018641 142.540598,1.71453156 C143.626609,2.10797772 144.599865,2.56645786 145.575165,3.08805406 Z" id="path-1"></path>
    </defs>
    <g id="com_android_mms" stroke="none" stroke-width="1" fill="none" fill-rule="evenodd">
        <g id="辅色" transform="translate(240.835503, 231.911930)">
            <g id="矩形备份-3" transform="translate(78.700935, 74.650855) scale(-1, 1) translate(-78.700935, -74.650855) ">
                <mask id="mask-2" fill="white">
                    <use xlink:href="#path-1"></use>
                </mask>
                <use id="形状结合" fill="#4E4E4E" xlink:href="#path-1"></use>
            </g>
        </g>
    </g>
</svg>