<?xml version="1.0" encoding="UTF-8"?>
<svg width="564px" height="564px" viewBox="0 0 564 564" version="1.1" xmlns="http://www.w3.org/2000/svg" xmlns:xlink="http://www.w3.org/1999/xlink">
    <title>com_android_mms_b_s5_2x2_1_mc</title>
    <g id="com_android_mms" stroke="none" stroke-width="1" fill="none" fill-rule="evenodd">
        <g id="编组" transform="translate(166.762626, 185.483856)" fill="#000000">
            <g id="矩形">
                <path d="M161.006814,3.08805406 C164.761742,5.09621113 167.711371,8.03991675 169.725893,11.7893623 L169.732716,11.5041646 L187.831,53.903 L184.639919,46.4280737 L97.8084525,46.4280737 C84.8302204,46.4280737 74.2847116,56.8438002 74.0750992,69.77208 L74.0719192,70.164607 L74.0719192,129.997074 L143.195965,129.998606 L143.195965,129.998606 L38.7340029,129.997523 C32.0263549,131.179405 25.8839185,134.006944 20.7359124,138.049688 L8.29575498,148.168042 C7.38880195,148.90567 6.25544171,149.308367 5.0864,149.308367 C2.34928811,149.308367 0.117132198,147.146394 0.00446221124,144.436977 L0,144.221967 L-1.01538068e-15,29.6385129 C5.89965417e-16,19.3325563 1.07306406,15.5953674 3.08805406,11.8276637 C5.10304405,8.05995996 8.05995996,5.10304405 11.8276637,3.08805406 C15.530407,1.10780527 19.2036786,0.0372822109 29.1112704,0.000956281567 L143.195965,1.09629681e-14 C153.501922,-6.36980018e-15 157.239111,1.07306406 161.006814,3.08805406 Z M171.11,115.157 L171.053013,115.317881 C170.675032,116.331232 170.238855,117.250176 169.746424,118.170943 C167.731434,121.938646 164.774518,124.895562 161.006814,126.910552 C160.117935,127.38593 159.230754,127.808882 158.258615,128.177685 L158.014,128.266 L158.39966,128.106779 C164.036312,125.703562 168.553439,121.182471 170.951217,115.54338 L171.11,115.157 Z M147.372256,18.5712295 C143.537057,18.5712295 140.428013,21.689213 140.428013,25.5354405 C140.428013,29.3816681 143.537057,32.4996516 147.372256,32.4996516 C151.207455,32.4996516 154.316498,29.3816681 154.316498,25.5354405 C154.316498,21.689213 151.207455,18.5712295 147.372256,18.5712295 Z" id="形状结合"></path>
            </g>
            <path d="M184.639919,46.4280737 L192.611504,65.0997664 C194.282531,69.014296 192.463813,73.5422841 188.549284,75.213311 C187.59287,75.621583 186.563721,75.8320694 185.523811,75.8320949 L172.834,75.832 L172.834478,100.360093 C172.834478,107.999901 172.244801,112.03 171.118869,115.138699 C168.713232,121.101499 163.955471,125.863414 157.995151,128.274823 L157.975566,128.282637 C154.866732,129.408804 150.836588,129.998606 143.195965,129.998606 L74.0719192,129.997074 L74.0719192,70.164607 C74.0719192,57.0552816 84.6991272,46.4280737 97.8084525,46.4280737 L184.639919,46.4280737 Z" id="形状结合" opacity="0.65"></path>
            <path d="M184.643662,46.4329867 L187.179527,48.0411148 L194.1714,64.4187401 C196.213466,69.2024619 193.990929,74.7358624 189.207225,76.7779361 C188.184544,77.2144993 187.093811,77.4660077 185.985732,77.5220844 L185.509926,77.5341218 L174.533662,77.5341181 L174.534423,101.110005 L174.517642,102.613309 L174.483616,104.031076 L174.431861,105.368152 L174.361894,106.629383 L174.319929,107.233071 L174.221734,108.389621 C173.976677,110.943889 173.581134,113.004386 173.009538,114.827127 L172.832752,115.367073 L172.696307,115.754856 C170.11131,122.165264 164.994611,127.280363 158.525112,129.885944 C156.417859,130.64758 153.999236,131.146555 150.811339,131.425055 L150.061806,131.48543 L148.838635,131.56406 L148.199661,131.596512 L146.863994,131.647962 L145.447446,131.681834 L143.945311,131.698562 L76.9167383,131.698562 L74.0719192,129.998606 L74.0719192,129.995683 L143.886663,129.996781 L143.886663,129.996781 L145.273534,129.98221 L145.273534,129.98221 L146.577348,129.95315 L146.577348,129.95315 L147.802387,129.909686 L147.802387,129.909686 L148.95293,129.851902 L148.95293,129.851902 L150.03326,129.779884 L150.03326,129.779884 L151.047655,129.693717 C151.211464,129.678182 151.372704,129.66206 151.531465,129.645355 L152.454986,129.538124 C152.604184,129.519088 152.751081,129.499472 152.895766,129.479277 L153.738044,129.351173 C153.874237,129.328669 154.008396,129.30559 154.140611,129.281938 L154.911277,129.133153 C155.036069,129.107213 155.159096,129.080703 155.280445,129.053624 L155.989131,128.88435 C156.219126,128.825661 156.443127,128.764713 156.661846,128.701521 L157.302873,128.505224 L157.302873,128.505224 L157.916492,128.295543 L157.916492,128.295543 L158.506982,128.072564 L158.506982,128.072564 L159.078626,127.836372 C159.172567,127.79591 159.265901,127.754901 159.358718,127.713347 L159.910117,127.457494 L159.910117,127.457494 L160.45337,127.18864 L160.45337,127.18864 L160.992759,126.906871 C164.76494,124.889479 167.72537,121.929038 169.742754,118.156843 L170.024523,117.617452 L170.024523,117.617452 L170.293375,117.074197 L170.293375,117.074197 L170.549227,116.522795 C170.590781,116.429979 170.63179,116.336644 170.672252,116.242703 L170.908443,115.671057 L170.908443,115.671057 L171.131421,115.080564 L171.131421,115.080564 L171.341101,114.466943 L171.341101,114.466943 L171.537398,113.825914 C171.60059,113.607194 171.661537,113.383192 171.720226,113.153196 L171.8895,112.444508 C171.916578,112.323158 171.943088,112.200131 171.969028,112.075338 L172.117812,111.304669 C172.141465,111.172454 172.164544,111.038294 172.187047,110.902101 L172.315151,110.05982 C172.335346,109.915135 172.354962,109.768237 172.373997,109.619038 L172.481228,108.695514 C172.497933,108.536752 172.514055,108.375511 172.52959,108.211702 L172.615757,107.197302 L172.615757,107.197302 L172.687774,106.116969 L172.687774,106.116969 L172.745558,104.966421 C172.753997,104.768574 172.76184,104.567623 172.769085,104.363479 L172.805358,103.099583 C172.810202,102.88231 172.814444,102.661665 172.818082,102.437559 L172.832653,101.050683 L172.832653,101.050683 L172.833343,75.8320916 L185.509927,75.8320953 C186.551076,75.8320697 187.581451,75.621331 188.539004,75.2125696 C192.342914,73.588752 194.170132,69.2703526 192.744627,65.43428 L192.606039,65.0869632 L184.643662,46.4329867 Z" id="路径"></path>
        </g>
    </g>
</svg>