<?xml version="1.0" encoding="UTF-8"?>
<svg width="240px" height="240px" viewBox="0 0 240 240" version="1.1" xmlns="http://www.w3.org/2000/svg" xmlns:xlink="http://www.w3.org/1999/xlink">
    <title>com_android_mms_b_s5_1x1_1_mc</title>
    <g id="com_android_mms" stroke="none" stroke-width="1" fill="none" fill-rule="evenodd">
        <g id="编组" transform="translate(52.000000, 63.000000)" fill="#000000">
            <g id="矩形">
                <path d="M84.1122473,1.61120555e-15 C90.1745747,-9.36156823e-16 92.3729212,0.631214156 94.5892175,1.81650239 C96.7994417,2.99854325 98.5353417,4.73162633 99.7204097,6.93924382 L99.7242667,6.75909814 L110.407,31.785 L108.483,27.2781134 L57.4826667,27.2781134 C49.8755065,27.2781134 43.6892207,33.3615998 43.5234129,40.9289688 L43.52,41.2407801 L43.52,76.3771134 L84.1122473,76.3787176 L22.763044,76.3771339 C18.8175531,77.0713889 15.2047375,78.7347008 12.1775856,81.1133547 L4.87985162,87.0491879 C4.3463505,87.4830844 3.67966972,87.719964 2.992,87.719964 C1.3985796,87.719964 0.0960822162,86.4743745 0.0050791129,84.9037668 L0,84.727964 L-4.372532e-16,17.4344194 C2.54056701e-16,11.3720919 0.631214156,9.17374551 1.81650239,6.95744922 C3.00179062,4.74115292 4.74115292,3.00179062 6.95744922,1.81650239 C9.17374551,0.631214156 11.3720919,4.09260073e-16 17.4344194,-7.04371409e-16 L84.1122473,1.61120555e-15 Z M100.533673,67.6481049 C100.303388,68.2820439 100.035114,68.8510621 99.7301643,69.4212684 C98.5448761,71.6375646 96.8055137,73.376927 94.5892175,74.5622152 C94.0184081,74.8674874 93.4487894,75.1360064 92.8140424,75.3664545 C96.2052407,73.9954475 98.9353628,71.3307879 100.39194,67.9845926 L100.533673,67.6481049 Z M86.5866667,10.9112454 C84.3333449,10.9112454 82.5066667,12.7431695 82.5066667,15.0029624 C82.5066667,17.2627553 84.3333449,19.0946794 86.5866667,19.0946794 C88.8399884,19.0946794 90.6666667,17.2627553 90.6666667,15.0029624 C90.6666667,12.7431695 88.8399884,10.9112454 86.5866667,10.9112454 Z" id="形状结合"></path>
            </g>
            <path d="M108.483,27.2781134 L113.163192,38.2408621 C114.146152,40.5435252 113.076321,43.2070491 110.773658,44.1900092 C110.211061,44.4301708 109.605677,44.5539871 108.993963,44.5540022 L101.546,44.554 L101.546667,58.9442982 C101.546667,63.437019 101.199996,65.8075947 100.538053,67.6360284 C99.1209662,71.1501789 96.3146762,73.9556754 92.7994697,75.3720679 C90.972061,76.0325561 88.6016688,76.3787176 84.1122473,76.3787176 L43.52,76.3771134 L43.52,41.2407801 C43.52,33.5294122 49.7712988,27.2781134 57.4826667,27.2781134 L108.483,27.2781134 Z" id="形状结合" opacity="0.65"></path>
            <path d="M108.485,27.281 L109.974915,28.2258314 L114.082899,37.8482577 C115.282689,40.6588612 113.976866,43.9099271 111.166263,45.1097167 C110.5654,45.3662128 109.924553,45.5139827 109.273516,45.5469298 L108.993963,45.5540022 L102.545,45.554 L102.545448,59.4056561 L102.535588,60.2888999 L102.515596,61.1218875 L102.485189,61.9074662 L102.44408,62.6484833 L102.419424,63.0031711 L102.361731,63.6826846 C102.217751,65.183406 101.985355,66.3940201 101.649521,67.4649442 L101.545652,67.7821811 L101.465486,68.0100172 C99.9467042,71.7763558 96.9404542,74.7816546 93.139383,76.3125246 C91.9012942,76.7600124 90.4802634,77.0531774 88.6072557,77.2168062 L88.1668774,77.2522785 L87.4482188,77.298476 L87.0727978,77.3175427 L86.288044,77.3477713 L85.4557697,77.3676725 L84.5732094,77.3775009 L45.1914368,77.3775009 L43.52,76.3787176 L43.52,76.377 L84.5387517,76.3776451 L84.5387517,76.3776451 L85.3535896,76.3690842 L85.3535896,76.3690842 L86.1196289,76.3520104 L86.1196289,76.3520104 L86.8393845,76.3264735 L86.8393845,76.3264735 L87.5153715,76.2925236 L87.5153715,76.2925236 L88.150105,76.2502107 L88.150105,76.2502107 L88.7460999,76.1995847 C88.8423439,76.190457 88.9370785,76.1809851 89.0303563,76.1711699 L89.572959,76.108168 C89.6606186,76.0969839 89.7469262,76.0854587 89.831934,76.0735933 L90.3268033,75.998328 C90.4068217,75.9851063 90.4856453,75.9715465 90.5633263,75.9576497 L91.016121,75.8702334 C91.0894414,75.8549927 91.161724,75.8394172 91.2330214,75.8235077 L91.6494002,75.7240528 C91.7845312,75.6895712 91.9161399,75.6537624 92.0446456,75.6166347 L92.4212726,75.5013033 L92.4212726,75.5013033 L92.7817962,75.3781086 L92.7817962,75.3781086 L93.1287314,75.2471006 L93.1287314,75.2471006 L93.4645932,75.1083293 C93.5197871,75.0845566 93.5746245,75.0604625 93.6291576,75.036048 L93.953125,74.8857255 L93.953125,74.8857255 L94.2723066,74.7277645 L94.2723066,74.7277645 L94.5892175,74.5622152 C96.8055137,73.376927 98.5448761,71.6375646 99.7301643,69.4212684 L99.8957136,69.1043575 L99.8957136,69.1043575 L100.053675,68.7851759 L100.053675,68.7851759 L100.203997,68.4612085 C100.228412,68.4066754 100.252506,68.351838 100.276278,68.2966441 L100.41505,67.9607823 L100.41505,67.9607823 L100.546058,67.6138471 L100.546058,67.6138471 L100.669252,67.2533235 L100.669252,67.2533235 L100.784584,66.8766965 C100.821711,66.7481908 100.85752,66.6165821 100.892002,66.4814511 L100.991457,66.0650723 C101.007366,65.9937749 101.022942,65.9214923 101.038182,65.8481719 L101.125599,65.3953772 C101.139496,65.3176962 101.153055,65.2388726 101.166277,65.1588542 L101.241542,64.6639849 C101.253408,64.5789771 101.264933,64.4926695 101.276117,64.4050099 L101.339119,63.8624072 C101.348934,63.7691294 101.358406,63.6743948 101.367534,63.5781508 L101.41816,62.9821559 L101.41816,62.9821559 L101.460473,62.3474224 L101.460473,62.3474224 L101.494423,61.6714354 C101.499381,61.5551934 101.503989,61.4371277 101.508246,61.3171859 L101.529557,60.5746028 C101.532403,60.446947 101.534896,60.3173104 101.537033,60.1856405 L101.545594,59.3708026 L101.545594,59.3708026 L101.546,44.554 L108.993963,44.5540022 C109.605677,44.5539871 110.211061,44.4301708 110.773658,44.1900092 C113.008596,43.2359597 114.082154,40.6987493 113.244617,38.4449228 L113.163192,38.2408621 L108.485,27.281 Z" id="路径"></path>
        </g>
    </g>
</svg>