<?xml version="1.0" encoding="UTF-8"?>
<svg width="240px" height="240px" viewBox="0 0 240 240" version="1.1" xmlns="http://www.w3.org/2000/svg" xmlns:xlink="http://www.w3.org/1999/xlink">
    <title>com_android_mms_b_s5_1x1_1_sc</title>
    <defs>
        <path d="M27.517,0 L22.8368079,10.9627487 C21.8538478,13.2654118 22.9236785,15.9289357 25.2263416,16.9118958 C25.7889395,17.1520574 26.394323,17.2758737 27.006037,17.2758887 L34.454,17.2758866 L34.4533333,31.6661848 C34.4533333,36.1589055 34.8000038,38.5294813 35.4619475,40.357915 C36.8790338,43.8720655 39.6853238,46.677562 43.2005303,48.0939545 C45.027939,48.7544427 47.3983312,49.1006041 51.8877527,49.1006041 L92.479,49.099 L92.48,58.9442982 C92.48,65.0066256 91.8487858,67.2049721 90.6634976,69.4212684 C89.4782094,71.6375646 87.7388471,73.376927 85.5225508,74.5622152 C83.3062545,75.7475034 81.1079081,76.3787176 75.0455806,76.3787176 L22.763044,76.3771339 C18.8175531,77.0713889 15.2047375,78.7347008 12.1775856,81.1133547 L4.87985162,87.0491879 C4.3463505,87.4830844 3.67966972,87.719964 2.992,87.719964 C1.3985796,87.719964 0.0960822162,86.4743745 0.0050791129,84.9037668 L0,84.727964 L-4.372532e-16,17.4344194 C2.54056701e-16,11.3720919 0.631214156,9.17374551 1.81650239,6.95744922 C3.00179062,4.74115292 4.74115292,3.00179062 6.95744922,1.81650239 C9.17374551,0.631214156 11.3720919,9.36156823e-16 17.4344194,-1.61120555e-15 L27.517,0 Z M85.5225508,1.81650239 C87.7388471,3.00179062 89.4782094,4.74115292 90.6634976,6.95744922 C90.9728014,7.53579701 91.2443749,8.11292249 91.4768473,8.75780698 C90.0729568,5.26389883 87.2971382,2.46955634 83.8164272,1.04066138 L83.7151295,1.00060897 C84.3628649,1.23364334 84.9420922,1.50606975 85.5225508,1.81650239 Z" id="path-1"></path>
    </defs>
    <g id="com_android_mms" stroke="none" stroke-width="1" fill="none" fill-rule="evenodd">
        <g id="辅色" transform="translate(95.520000, 90.278113)">
            <g id="矩形备份-3" transform="translate(46.240000, 43.860943) scale(-1, 1) translate(-46.240000, -43.860943) ">
                <mask id="mask-2" fill="white">
                    <use xlink:href="#path-1"></use>
                </mask>
                <use id="形状结合" fill="#4E4E4E" xlink:href="#path-1"></use>
            </g>
        </g>
    </g>
</svg>