<?xml version="1.0" encoding="UTF-8"?>
<svg width="564px" height="564px" viewBox="0 0 564 564" version="1.1" xmlns="http://www.w3.org/2000/svg" xmlns:xlink="http://www.w3.org/1999/xlink">
    <title>com_android_mms_b_s5_2x2_0_sc</title>
    <g id="com_android_mms" stroke="none" stroke-width="1" fill="none" fill-rule="evenodd">
        <g id="辅色" transform="translate(240.271740, 185.483856)" fill="#4E4E4E">
            <path d="M84.456,132.930779 L84.4565195,78.679911 C84.4565195,68.2346504 83.368951,64.4469465 81.3267247,60.6283153 C79.2844984,56.8096841 76.2876143,53.8128001 72.4689831,51.7705738 L72.4689831,51.7705738 L72.0737884,51.5627199 C71.9419108,51.494574 71.8097957,51.4275687 71.6771689,51.3617095 L71.6771689,51.3617095 L71.2774791,51.1675755 C67.8599251,49.5455757 63.9305639,48.6734234 54.9321745,48.6416777 L54.9321745,48.6416777 L0,48.640779 L0.000969207475,29.5047628 C0.0377861487,19.4632517 1.1227793,15.740329 3.1297948,11.9875363 C5.17202109,8.16890518 8.16890518,5.17202109 11.9875363,3.1297948 L11.9875363,3.1297948 L12.3827311,2.9219409 C12.5146087,2.85379504 12.6467238,2.78678978 12.7793506,2.72093057 L12.7793506,2.72093057 L13.1790404,2.52679651 C16.6610765,0.874192994 20.6744156,-2.02097266e-15 30.039132,4.84095345e-15 L128.460871,0.000969207475 C137.445381,0.0339106812 141.371519,0.905973831 144.786593,2.52679651 L145.186283,2.72093057 C145.31891,2.78678978 145.451025,2.85379504 145.582902,2.9219409 L145.978097,3.1297948 C149.796728,5.17202109 152.793612,8.16890518 154.835839,11.9875363 C156.878065,15.8061675 157.965633,19.5938714 157.965633,30.039132 L157.965633,30.039132 L157.965633,146.927771 L157.95768,147.226854 C157.809869,149.998568 155.620424,152.198356 152.941184,152.198356 C151.788805,152.198356 150.671447,151.782823 149.776399,151.021407 L149.776399,151.021407 L137.528622,140.600848 C132.635686,136.575994 126.596138,134.043664 120.125311,132.931515 L120.125311,132.931515 L30.039132,132.932741 L30.039132,132.932741 L84.456,132.930779 Z" id="形状结合"></path>
        </g>
    </g>
</svg>