<?xml version="1.0" encoding="UTF-8"?>
<svg width="564px" height="564px" viewBox="0 0 564 564" version="1.1" xmlns="http://www.w3.org/2000/svg" xmlns:xlink="http://www.w3.org/1999/xlink">
    <title>com_android_bbkcalculator_b_s5_2x2_sc</title>
    <g id="com_android_bbkcalculator" stroke="none" stroke-width="1" fill="none" fill-rule="evenodd">
        <g id="辅色" transform="translate(325.050505, 331.858140)" fill="#4E4E4E">
            <path d="M55.253524,13.6162125 L2.6151629,13.6162125 C1.70581379,13.6162125 1.37606183,13.5215304 1.04361738,13.3437372 C0.711172938,13.1659439 0.450268592,12.9050396 0.272475358,12.5725951 C0.0946821234,12.2401507 0,11.9103987 0,11.0010496 L1.42108547e-14,2.6151629 C0,1.70581379 0.0946821234,1.37606183 0.272475358,1.04361738 C0.450268592,0.711172938 0.711172938,0.450268592 1.04361738,0.272475358 C1.37606183,0.0946821234 1.70581379,-1.0658141e-14 2.6151629,-8.8817842e-15 L55.253524,1.0658141e-14 C56.1628731,8.8817842e-15 56.492625,0.0946821234 56.8250695,0.272475358 C57.1575139,0.450268592 57.4184183,0.711172938 57.5962115,1.04361738 C57.7740047,1.37606183 57.8686869,1.70581379 57.8686869,2.6151629 L57.8686869,11.0010496 C57.8686869,11.9103987 57.7740047,12.2401507 57.5962115,12.5725951 C57.4184183,12.9050396 57.1575139,13.1659439 56.8250695,13.3437372 C56.492625,13.5215304 56.1628731,13.6162125 55.253524,13.6162125 Z M55.253524,40.8486376 L2.6151629,40.8486376 C1.70581379,40.8486376 1.37606183,40.7539554 1.04361738,40.5761622 C0.711172938,40.398369 0.450268592,40.1374646 0.272475358,39.8050202 C0.0946821234,39.4725757 0,39.1428238 0,38.2334747 L1.42108547e-14,29.8475879 C0,28.9382388 0.0946821234,28.6084869 0.272475358,28.2760424 C0.450268592,27.943598 0.711172938,27.6826936 1.04361738,27.5049004 C1.37606183,27.3271072 1.70581379,27.232425 2.6151629,27.232425 L55.253524,27.232425 C56.1628731,27.232425 56.492625,27.3271072 56.8250695,27.5049004 C57.1575139,27.6826936 57.4184183,27.943598 57.5962115,28.2760424 C57.7740047,28.6084869 57.8686869,28.9382388 57.8686869,29.8475879 L57.8686869,38.2334747 C57.8686869,39.1428238 57.7740047,39.4725757 57.5962115,39.8050202 C57.4184183,40.1374646 57.1575139,40.398369 56.8250695,40.5761622 C56.492625,40.7539554 56.1628731,40.8486376 55.253524,40.8486376 Z" id="形状结合"></path>
        </g>
    </g>
</svg>