<?xml version="1.0" encoding="UTF-8"?>
<svg width="564px" height="240px" viewBox="0 0 564 240" version="1.1" xmlns="http://www.w3.org/2000/svg" xmlns:xlink="http://www.w3.org/1999/xlink">
    <title>com_vivo_weather_b_s5_2x1_sc</title>
    <g id="com_vivo_weather" stroke="none" stroke-width="1" fill="none" fill-rule="evenodd">
        <g id="辅色" transform="translate(290.000000, 73.000000)" fill="#4E4E4E">
            <path d="M27.1887831,32.7681666 C27.6395159,32.7488375 28.094092,32.7396721 28.5508,32.7396721 C34.2683634,32.7396721 39.6517915,34.1761384 44.3626572,36.7092567 C40.1211758,43.4900192 32.5872691,48 24,48 C10.745166,48 0,37.254834 0,24 C0,16.3415495 3.58712373,9.52091674 9.17286209,5.12661067 C17.8208625,12.098715 24.2381646,21.7251831 27.1887831,32.7681666 Z" id="形状结合" opacity="0.100000001"></path>
            <path d="M24,0 C37.254834,0 48,10.745166 48,24 C48,28.6675649 46.6675673,33.0239234 44.3623173,36.7094604 C39.6516891,34.176111 34.268309,32.7396721 28.5508,32.7396721 C28.094092,32.7396721 27.6395159,32.7488375 27.1887831,32.7681666 C24.2380872,21.7248932 17.8205256,12.0982096 9.17367386,5.12588333 C13.2552785,1.91524294 18.4039748,0 24,0 Z" id="路径"></path>
        </g>
    </g>
</svg>