<?xml version="1.0" encoding="UTF-8"?>
<svg width="240px" height="240px" viewBox="0 0 240 240" version="1.1" xmlns="http://www.w3.org/2000/svg" xmlns:xlink="http://www.w3.org/1999/xlink">
    <title>com_vivo_newsreader_b_s5_1x1_mc</title>
    <g id="com_vivo_newsreader" stroke="none" stroke-width="1" fill="none" fill-rule="evenodd">
        <path d="M145.848606,56.8866653 C152.612278,59.2039315 155.49043,60.3822468 161.114807,64.5256233 C165.282774,67.5960884 168.697719,74.1547114 171.359642,84.2014923 L170.20237,158.916607 C170.20237,169.351775 155.101447,173.273918 144.756409,174.506908 L116.955,184.20004 L102.766266,185.191779 L116.955,184.200472 L105.38799,185.265478 C97.4755017,185.993783 89.5388386,184.223077 82.6918032,180.21039 L82.1927613,179.912781 C80.8598295,179.104003 79.5275678,178.300488 78.1959763,177.502239 C75.0722558,175.629661 71.9426336,173.178013 68.8071096,170.147295 C65.2100862,166.670503 63.1337197,161.919981 63.0170754,156.930478 L63.0118803,156.489634 L63,96.2280094 L63.0133404,96.2270038 L63,95.6751226 L63,79.8852333 C63,70.0894931 70.3243932,61.8562846 80.030361,60.664867 L80.3739055,60.6257498 L86.4664129,59.9819712 L124.770345,55.9641999 C124.762009,55.964531 124.753673,55.9648629 124.745336,55.9651953 L131.981062,55.471018 C138.411775,55.4505846 143.03429,55.9224671 145.848606,56.8866653 Z M91,148.439657 C91,148.7203 91.0147676,149.000749 91.0442415,149.27984 L91.0947226,149.74998 C91.5493364,153.899619 92.2739625,157.910208 96.4108658,157.600891 L99.2680511,158.916607 L143.463478,155.674561 C147.449072,155.253654 152.112149,148.16024 152.237297,144.180412 L152.237297,93.0738564 L148.995996,91.8703267 L148.995,91.6193819 L148.994126,91.5638246 C148.987295,91.3856428 148.974507,91.2077107 148.955778,91.030327 C148.500612,86.7193751 144.701222,83.5712804 140.408202,83.8921709 L140.16,83.9145489 L98.1600002,88.3490608 C94.1743283,88.7698825 91.129156,92.0700053 91.0040038,96.0499007 L91,96.3048386 L91,145.402472 L91,145.403682 L91,148.439657 Z" id="形状结合" fill="#000000"></path>
    </g>
</svg>