<?xml version="1.0" encoding="UTF-8"?>
<svg width="564px" height="240px" viewBox="0 0 564 240" version="1.1" xmlns="http://www.w3.org/2000/svg" xmlns:xlink="http://www.w3.org/1999/xlink">
    <title>com_vivo_email_b_s5_2x1_mc</title>
    <g id="com_vivo_email" stroke="none" stroke-width="1" fill="none" fill-rule="evenodd">
        <g id="主色" transform="translate(215.000000, 70.973116)" fill="#000000">
            <path d="M3.3225982,0.611445712 L3.04339175,0.912200301 L53.1221117,49.2847663 L53.3981695,49.5461271 C60.6275885,56.2543858 71.8717834,56.1672656 78.9969225,49.2847663 L78.9969225,49.2847663 L130.027269,-0.00689558424 L130.027269,-0.00689558424 L130.144278,0.0967954049 C131.06338,0.923531413 131.830572,1.90624332 132.432302,3.03138048 C133.455242,4.94411365 134,6.84135551 134,12.0733341 L134,85.9804334 C134,91.212412 133.455242,93.1096538 132.432302,95.022387 C131.409361,96.9351202 129.908236,98.4362443 127.995503,99.4591852 C126.08277,100.482126 124.185528,101.026884 118.95355,101.026884 L15.0464504,101.026884 C9.81447178,101.026884 7.91722992,100.482126 6.00449675,99.4591852 C4.09176358,98.4362443 2.59063939,96.9351202 1.5676985,95.022387 C0.544757601,93.1096538 2.34305651e-15,91.212412 -4.03259963e-15,85.9804334 L-5.0157107e-16,12.0733341 C2.91427236e-16,6.84135551 0.544757601,4.94411365 1.5676985,3.03138048 C2.04908245,2.13127075 2.63636166,1.32231319 3.3225982,0.611445712 Z" id="形状结合" opacity="0.9"></path>
            <path d="M79.752044,48.5538118 L130.539207,97.6121055 C128.417032,99.7226197 125.492217,101.026884 122.262774,101.026884 L11.7372263,101.026884 C8.52660958,101.026884 5.61707875,99.7377819 3.49798864,97.6489331 L53.347044,49.4968118 L53.3981695,49.5461271 C60.5336999,56.1672656 71.5804036,56.1683823 78.7172533,49.5494773 L78.9969225,49.2847663 L79.752044,48.5538118 Z" id="形状结合"></path>
        </g>
    </g>
</svg>