<?xml version="1.0" encoding="UTF-8"?>
<svg width="564px" height="564px" viewBox="0 0 564 564" version="1.1" xmlns="http://www.w3.org/2000/svg" xmlns:xlink="http://www.w3.org/1999/xlink">
    <title>com_bbk_appstore_b_s5_2x2_mc</title>
    <g id="com_bbk_appstore" stroke="none" stroke-width="1" fill="none" fill-rule="evenodd">
        <g id="主色" transform="translate(197.398990, 188.888889)" fill="#000000">
            <path d="M49.4272543,33.7 C49.4272543,53.5527958 65.5211252,69.6466667 85.373921,69.6466667 C104.990374,69.6466667 120.936868,53.9337023 121.313766,34.4074094 L121.320588,33.7 L121.320588,6.732 C121.320588,3.01401906 124.334607,1.71941342e-14 128.052588,0 L164.015254,0 C167.733235,2.05196402e-16 170.747254,3.01401906 170.747254,6.732 L170.747254,33.7 L170.747254,33.7 C170.747254,80.85039 132.524311,119.073333 85.373921,119.073333 C38.2235309,119.073333 0,80.85039 0,33.7 L0,6.732 C-1.34349976e-15,3.01401906 3.01401906,-1.09337482e-15 6.732,0 L42.6952543,0 C46.4132353,-1.57116044e-15 49.4272543,3.01401906 49.4272543,6.732 L49.4272543,33.7 L49.4272543,33.7 Z" id="路径"></path>
        </g>
    </g>
</svg>