<?xml version="1.0" encoding="UTF-8"?>
<svg width="240px" height="564px" viewBox="0 0 240 564" version="1.1" xmlns="http://www.w3.org/2000/svg" xmlns:xlink="http://www.w3.org/1999/xlink">
    <title>com_vivo_vhome_b_s5_1x2_sc</title>
    <g id="com_vivo_vhome" stroke="none" stroke-width="1" fill="none" fill-rule="evenodd">
        <g id="辅色" transform="translate(68.480752, 253.700000)" fill="#4E4E4E">
            <path d="M0.00372096961,33.9048726 C0.858846528,37.918008 2.8451951,41.7386456 5.96289872,44.8563492 C14.5544331,53.4478836 28.4840627,53.4478836 37.0755971,44.8563492 C37.4613551,44.4705911 37.8308766,44.0732599 38.1839571,43.6649071 L38.5315497,43.2529008 C42.0412778,38.9886713 48.3433156,38.3770271 52.6075451,41.8867553 C56.8717746,45.3964834 57.4834188,51.6985212 53.9736906,55.9627507 C53.3087791,56.770601 52.6124127,57.5553478 51.8854749,58.3156184 C47.770286,62.2562595 42.6388291,64.9626456 36.8380197,65.8814036 C19.9279783,68.559691 3.06793981,53.3029409 0.000868697775,33.938216 C-0.000893678072,33.9270888 5.68434189e-14,33.9159743 0.00372096961,33.9048726 Z" id="路径" fill-rule="nonzero"></path>
            <path d="M90.5692479,7.10542736e-15 C101.587329,7.10542736e-15 110.519248,8.954305 110.519248,20 C110.519248,27.5055747 106.395173,34.0455059 100.294824,37.4666086 C100.748886,37.1440303 101.182651,36.77916 101.590014,36.3717969 C105.495257,32.466554 105.495257,26.1349042 101.590014,22.2296613 C98.9944204,19.634068 95.2471777,18.6998177 91.786847,19.6773571 L91.4909834,19.7658339 C86.2244044,21.4286599 80.6070118,18.5072408 78.9441859,13.2406618 C77.2813599,7.97408282 80.202779,2.35669021 85.469358,0.693864257 C85.6704807,0.630363427 85.8719966,0.569057258 86.0738729,0.509940099 C87.5183622,0.176289722 89.0232692,7.10542736e-15 90.5692479,7.10542736e-15 Z" id="形状结合"></path>
        </g>
    </g>
</svg>