<?xml version="1.0" encoding="UTF-8"?>
<svg width="564px" height="564px" viewBox="0 0 564 564" version="1.1" xmlns="http://www.w3.org/2000/svg" xmlns:xlink="http://www.w3.org/1999/xlink">
    <title>com_android_bbksoundrecorder_b_s5_2x2_mc</title>
    <g id="com_android_bbksoundrecorder" stroke="none" stroke-width="1" fill="none" fill-rule="evenodd">
        <g id="主色" transform="translate(248.459596, 204.207071)" fill="#000000">
            <path d="M17.020202,34.040404 C20.1585698,34.040404 23.095826,34.885415 25.6173374,36.3608038 C28.1388488,37.8361926 30.2446155,39.9419593 31.7200043,42.4634707 C33.1953931,44.9849821 34.040404,47.9222383 34.040404,51.0606061 L34.040404,105.525253 C34.040404,108.66362 33.1953931,111.600876 31.7200043,114.122388 C30.2446155,116.643899 28.1388488,118.749666 25.6173374,120.225055 C23.095826,121.700444 20.1585698,122.545455 17.020202,122.545455 C13.8818342,122.545455 10.9445781,121.700444 8.42306666,120.225055 C5.90155525,118.749666 3.79578859,116.643899 2.32039977,114.122388 C0.845010961,111.600876 1.97144665e-15,108.66362 -1.27726388e-17,105.525253 L1.01184275e-17,51.0606061 C-1.56177124e-15,47.9222383 0.845010961,44.9849821 2.32039977,42.4634707 C3.79578859,39.9419593 5.90155525,37.8361926 8.42306666,36.3608038 C10.9445781,34.885415 13.8818342,34.040404 17.020202,34.040404 Z" id="形状结合"></path>
            <path d="M71.4848485,-3.71105091e-18 C74.6232163,-5.7279776e-16 77.5604724,0.845010961 80.0819838,2.32039977 C82.6034953,3.79578859 84.7092619,5.90155525 86.1846507,8.42306666 C87.6600395,10.9445781 88.5050505,13.8818342 88.5050505,17.020202 L88.5050505,139.565657 C88.5050505,142.704024 87.6600395,145.641281 86.1846507,148.162792 C84.7092619,150.684303 82.6034953,152.79007 80.0819838,154.265459 C77.5604724,155.740848 74.6232163,156.585859 71.4848485,156.585859 C68.3464807,156.585859 65.4092245,155.740848 62.8877131,154.265459 C60.3662017,152.79007 58.2604351,150.684303 56.7850462,148.162792 C55.3096574,145.641281 54.4646465,142.704024 54.4646465,139.565657 L54.4646465,17.020202 C54.4646465,13.8818342 55.3096574,10.9445781 56.7850462,8.42306666 C58.2604351,5.90155525 60.3662017,3.79578859 62.8877131,2.32039977 C65.4092245,0.845010961 68.3464807,5.7279776e-16 71.4848485,-3.71105091e-18 Z" id="矩形"></path>
            <path d="M125.949495,34.040404 C129.087863,34.040404 132.025119,34.885415 134.54663,36.3608038 C137.068142,37.8361926 139.173908,39.9419593 140.649297,42.4634707 C142.124686,44.9849821 142.969697,47.9222383 142.969697,51.0606061 L142.969697,105.525253 C142.969697,108.66362 142.124686,111.600876 140.649297,114.122388 C139.173908,116.643899 137.068142,118.749666 134.54663,120.225055 C132.025119,121.700444 129.087863,122.545455 125.949495,122.545455 C122.811127,122.545455 119.873871,121.700444 117.35236,120.225055 C114.830848,118.749666 112.725082,116.643899 111.249693,114.122388 C109.774304,111.600876 108.929293,108.66362 108.929293,105.525253 L108.929293,51.0606061 C108.929293,47.9222383 109.774304,44.9849821 111.249693,42.4634707 C112.725082,39.9419593 114.830848,37.8361926 117.35236,36.3608038 C119.873871,34.885415 122.811127,34.040404 125.949495,34.040404 Z" id="矩形备份-38"></path>
        </g>
    </g>
</svg>