<?xml version="1.0" encoding="UTF-8"?>
<svg width="564px" height="564px" viewBox="0 0 564 564" version="1.1" xmlns="http://www.w3.org/2000/svg" xmlns:xlink="http://www.w3.org/1999/xlink">
    <title>com_vivo_vhome_b_s5_2x2_sc</title>
    <g id="com_vivo_vhome" stroke="none" stroke-width="1" fill="none" fill-rule="evenodd">
        <g id="辅色" transform="translate(194.813199, 234.332018)" fill="#4E4E4E">
            <path d="M0.00633316545,57.7069938 C1.46177414,64.537457 4.84257954,71.0402835 10.1489741,76.3466979 C24.7719392,90.9697177 48.4804501,90.9697177 63.1034153,76.3466979 C63.7599832,75.6901275 64.3889162,75.0138592 64.9898663,74.3188318 L65.581476,73.6175862 C71.5551042,66.3597543 82.2812999,65.3187197 89.5391046,71.2923702 C96.7969093,77.2660207 97.83794,87.9922565 91.8643118,95.2500883 C90.732619,96.6250711 89.5473894,97.9607309 88.3101264,99.2547316 C81.3059919,105.961808 72.5721485,110.568149 62.6990538,112.131899 C33.9178216,116.690415 5.22169554,90.7230214 0.00147854116,57.7637452 C-0.00152105813,57.7448064 0,57.7258893 0.00633316545,57.7069938 Z" id="路径" fill-rule="nonzero"></path>
            <path d="M154.15069,0 C172.903686,0 188.105993,15.240465 188.105993,34.0405313 C188.105993,46.8179304 181.083753,57.9510808 170.697204,63.7728703 C171.473062,63.2231348 172.213236,62.600787 172.908256,61.9057646 C179.555058,55.2589374 179.555058,44.4823012 172.908256,37.835474 C168.490503,33.4177053 162.112621,31.8275865 156.223068,33.4913844 L155.719502,33.6419744 C146.755678,36.4721484 137.194763,31.4998155 134.364599,22.5359582 C131.534436,13.5721008 136.50675,4.01114935 145.470574,1.1809754 C145.812043,1.07316244 146.154178,0.969066413 146.496923,0.868677767 C148.956647,0.300210712 151.518697,0 154.15069,0 Z" id="形状结合"></path>
        </g>
    </g>
</svg>