<?xml version="1.0" encoding="UTF-8"?>
<svg width="564px" height="564px" viewBox="0 0 564 564" version="1.1" xmlns="http://www.w3.org/2000/svg" xmlns:xlink="http://www.w3.org/1999/xlink">
    <title>com_vivo_minigamecenter_b_s5_2x2_mc</title>
    <defs>
        <path d="M61.5332448,-2.48601674e-15 L460.466755,2.48601674e-15 C481.863205,-1.44444732e-15 489.622075,2.22781467 497.444297,6.41118489 C505.266519,10.5945551 511.405445,16.7334809 515.588815,24.5557031 C519.772185,32.3779253 522,40.136795 522,61.5332448 L522,460.466755 C522,481.863205 519.772185,489.622075 515.588815,497.444297 C511.405445,505.266519 505.266519,511.405445 497.444297,515.588815 C489.622075,519.772185 481.863205,522 460.466755,522 L61.5332448,522 C40.136795,522 32.3779253,519.772185 24.5557031,515.588815 C16.7334809,511.405445 10.5945551,505.266519 6.41118489,497.444297 C2.22781467,489.622075 9.62964878e-16,481.863205 -1.65734449e-15,460.466755 L1.65734449e-15,61.5332448 C-9.62964878e-16,40.136795 2.22781467,32.3779253 6.41118489,24.5557031 C10.5945551,16.7334809 16.7334809,10.5945551 24.5557031,6.41118489 C32.3779253,2.22781467 40.136795,1.44444732e-15 61.5332448,-2.48601674e-15 Z" id="path-1"></path>
    </defs>
    <g id="com_vivo_minigamecenter" stroke="none" stroke-width="1" fill="none" fill-rule="evenodd">
        <g id="主色" transform="translate(21.000000, 21.000000)">
            <mask id="mask-2" fill="white">
                <use xlink:href="#path-1"></use>
            </mask>
            <g id="矩形备份-20"></g>
            <g id="编组-2" mask="url(#mask-2)">
                <g transform="translate(-50.197515, 140.953572)" id="编组-3">
                    <g id="黄色icon" transform="translate(245.563505, 248.339945) rotate(-22.000000) translate(-245.563505, -248.339945) translate(58.374173, 56.126086)" fill="#000000">
                        <g id="编组备份" transform="translate(187.189332, 192.213859) rotate(30.000000) translate(-187.189332, -192.213859) translate(55.181757, 46.479022)">
                            <g id="Mask-Copy备份-5" transform="translate(0.000000, -0.000000)">
                                <g id="编组" transform="translate(0.000000, -0.000000)">
                                    <path d="M138.696763,2.48284948 C139.083486,2.8157724 139.444815,3.17710175 139.777738,3.56382517 L183.164845,53.9623079 C186.661514,58.0240408 192.398746,59.3295798 197.30865,57.1808094 L249.65168,34.273406 C254.839141,32.0031657 260.884802,34.3680401 263.155042,39.5555009 C263.722305,40.8516873 264.015151,42.2512541 264.015151,43.6661346 L264.015151,226.779158 C264.015151,262.506743 235.05222,291.469674 199.324634,291.469674 L65.9110926,291.469674 C29.5094013,291.469674 6.41266508e-15,261.960273 0,225.558582 L0,43.6661346 C-7.79888181e-15,38.0036492 4.59035132,33.4132979 10.2528366,33.4132979 C11.667717,33.4132979 13.0672839,33.706143 14.3634703,34.273406 L66.7065,57.1808094 C71.6164041,59.3295798 77.3536361,58.0240408 80.8503056,53.9623079 L124.237412,3.56382517 C127.931748,-0.727517342 134.40542,-1.21148664 138.696763,2.48284948 Z M215.563093,116.673073 L215.348728,116.820389 L179.973755,142.038489 L83.4126579,143.630327 L45.3628263,119.04268 C44.1647841,118.26851 42.7687064,117.85669 41.3422968,117.85669 C37.3328886,117.85669 34.0674382,121.041952 33.9384239,125.019998 L33.9344643,125.264522 L33.9344643,207.297804 C33.9344643,220.1112 44.2179005,230.52277 56.981978,230.72972 L57.3695195,230.73286 L203.621603,230.73286 C216.434998,230.73286 226.846568,220.449423 227.053518,207.685346 L227.056658,207.297804 L227.056658,122.852398 C227.056658,121.310793 226.575706,119.807592 225.680835,118.552301 C223.356486,115.291794 218.87594,114.479663 215.563093,116.673073 Z M172.469579,173.596682 C180.736839,168.823577 191.308144,171.65615 196.081249,179.92341 C200.854354,188.190671 198.021782,198.761976 189.754521,203.535081 C181.487261,208.308186 170.915956,205.475613 166.142851,197.208353 C161.369745,188.941092 164.202318,178.369787 172.469579,173.596682 Z M75.069264,172.805259 C83.3365245,168.032154 93.9078295,170.864726 98.6809346,179.131987 C103.45404,187.399247 100.621467,197.970552 92.3542065,202.743657 C84.086946,207.516763 73.515641,204.68419 68.742536,196.416929 C63.9694309,188.149669 66.8020035,177.578364 75.069264,172.805259 Z" id="形状结合"></path>
                                </g>
                            </g>
                        </g>
                    </g>
                </g>
            </g>
        </g>
    </g>
</svg>