<?xml version="1.0" encoding="UTF-8"?>
<svg width="564px" height="240px" viewBox="0 0 564 240" version="1.1" xmlns="http://www.w3.org/2000/svg" xmlns:xlink="http://www.w3.org/1999/xlink">
    <title>com_vivo_minigamecenter_b_s5_2x1_mc</title>
    <defs>
        <path d="M61.5332448,-2.48601674e-15 L460.466755,1.45059527e-14 C481.863205,-8.42837627e-15 489.622075,2.22781467 497.444297,6.41118489 C505.266519,10.5945551 511.405445,16.7334809 515.588815,24.5557031 C519.772185,32.3779253 522,40.136795 522,61.5332448 L522,136.466755 C522,157.863205 519.772185,165.622075 515.588815,173.444297 C511.405445,181.266519 505.266519,187.405445 497.444297,191.588815 C489.622075,195.772185 481.863205,198 460.466755,198 L61.5332448,198 C40.136795,198 32.3779253,195.772185 24.5557031,191.588815 C16.7334809,187.405445 10.5945551,181.266519 6.41118489,173.444297 C2.22781467,165.622075 9.62964878e-16,157.863205 -1.65734449e-15,136.466755 L1.65734449e-15,61.5332448 C-9.62964878e-16,40.136795 2.22781467,32.3779253 6.41118489,24.5557031 C10.5945551,16.7334809 16.7334809,10.5945551 24.5557031,6.41118489 C32.3779253,2.22781467 40.136795,1.44444732e-15 61.5332448,-2.48601674e-15 Z" id="path-1"></path>
    </defs>
    <g id="com_vivo_minigamecenter" stroke="none" stroke-width="1" fill="none" fill-rule="evenodd">
        <g id="主色" transform="translate(21.000000, 21.000000)">
            <mask id="mask-2" fill="white">
                <use xlink:href="#path-1"></use>
            </mask>
            <g id="蒙版"></g>
            <g id="编组-2" mask="url(#mask-2)">
                <g transform="translate(123.865129, 1.422297)" id="黄色icon">
                    <g transform="translate(135.707933, 137.242302) rotate(-22.000000) translate(-135.707933, -137.242302) translate(32.259836, 31.017456)">
                        <g id="编组备份" transform="translate(103.448097, 106.224846) rotate(30.000000) translate(-103.448097, -106.224846) translate(30.495583, 25.686113)" fill="#000000">
                            <g id="Mask-Copy备份-5" transform="translate(-0.000000, -0.000000)">
                                <g id="编组" transform="translate(-0.000000, 0.000000)">
                                    <path d="M76.6492194,1.37211908 C76.8629378,1.55610522 77.0626224,1.75578986 77.2466086,1.96950824 L101.224009,29.8216678 C103.156405,32.0663392 106.327022,32.7878308 109.040426,31.6003368 L137.967218,18.9408157 C140.83401,17.6861927 144.175077,18.9931142 145.4297,21.8599065 C145.743192,22.5762295 145.905029,23.3496845 145.905029,24.1316024 L145.905029,125.326973 C145.905029,145.071425 129.898988,161.077466 110.154536,161.077466 L36.4250304,161.077466 C16.3080416,161.077466 -2.75444219e-12,144.769424 -2.75690581e-12,124.652435 L-2.75690581e-12,24.1316024 C-2.76134327e-12,21.002293 2.53680647,18.4654866 5.66611585,18.4654866 C6.44803373,18.4654866 7.22148876,18.6273241 7.93781173,18.9408157 L36.8646035,31.6003368 C39.5780072,32.7878308 42.7486245,32.0663392 44.6810199,29.8216678 L68.6584207,1.96950824 C70.7000544,-0.402054348 74.2776568,-0.669514585 76.6492194,1.37211908 Z M119.190407,64.4378978 L119.010073,64.5594852 L99.4604889,78.4959873 L46.0970754,79.3756987 L25.0692602,65.7876096 C24.4071755,65.3597732 23.6356488,65.1321855 22.8473594,65.1321855 C20.6548995,65.1321855 18.8649802,66.8556666 18.7585135,69.0217168 L18.7535034,69.2260415 L18.7535034,114.56082 C18.7535034,121.609865 24.3850661,127.343588 31.3945049,127.508302 L31.7046253,127.511942 L112.529208,127.511942 C119.578253,127.511942 125.311976,121.88038 125.47669,114.870941 L125.48033,114.56082 L125.48033,67.8930083 C125.48033,67.0410569 125.214538,66.2103297 124.719997,65.5166073 C123.449884,63.7349422 121.014763,63.2761514 119.190407,64.4378978 Z M95.3133897,95.9362709 C99.882199,93.2984676 105.724313,94.8638573 108.362116,99.4326666 C110.999919,104.001476 109.43453,109.84359 104.86572,112.481393 C100.296911,115.119196 94.4547972,113.553807 91.8169939,108.984997 C89.1791906,104.416188 90.7445803,98.5740742 95.3133897,95.9362709 Z M41.4861918,95.4988996 C46.0550011,92.8610963 51.897115,94.426486 54.5349183,98.9952953 C57.1727216,103.564105 55.6073319,109.406218 51.0385225,112.044022 C46.4697132,114.681825 40.6275994,113.116435 37.9897961,108.547626 C35.3519928,103.978817 36.9173824,98.1367029 41.4861918,95.4988996 Z" id="形状结合"></path>
                                </g>
                            </g>
                        </g>
                    </g>
                </g>
            </g>
        </g>
    </g>
</svg>