<?xml version="1.0" encoding="UTF-8"?>
<svg width="240px" height="564px" viewBox="0 0 240 564" version="1.1" xmlns="http://www.w3.org/2000/svg" xmlns:xlink="http://www.w3.org/1999/xlink">
    <title>com_vivo_childrenmode_b_s5_1x2_mc</title>
    <g id="com_vivo_childrenmode" stroke="none" stroke-width="1" fill="none" fill-rule="evenodd">
        <g id="主色" transform="translate(67.000000, 260.000000)" fill="#000000" fill-rule="nonzero">
            <path d="M44.2960905,15.0196868 L44.0202145,15.2729374 L43.7374717,15.5478688 L28.8994135,30.4054055 L9.4492003,25.1550845 C2.65251941,23.3203663 -1.38079229,16.3057992 0.435140909,9.4782091 C2.22036464,2.76608125 9.01077125,-1.26268611 15.6997336,0.357982328 L16.0036897,0.435550188 L53,10.421 L89.9963103,0.435550188 L90.3002664,0.357982328 C96.9892287,-1.26268611 103.779635,2.76608125 105.564859,9.4782091 C107.380792,16.3057992 103.347481,23.3203663 96.5507997,25.1550845 L96.5507997,25.1550845 L77.1005865,30.4054055 L62.2625283,15.5478688 L61.9797855,15.2729374 L61.7039095,15.0196868 C59.2866655,12.863513 56.1925734,11.7146369 53,11.731 L53,11.731 C49.8074266,11.7146369 46.7133345,12.863513 44.2960905,15.0196868 Z" id="形状结合" opacity="0.699999988"></path>
            <path d="M52.6054332,10.7393562 L53.0004946,10.7356366 L53.0004946,44.4999323 L24.6478725,72.8932786 C19.4379482,78.1101718 11.1391904,78.366461 5.62541246,73.6062133 L5.36498014,73.3757428 L5.10889887,73.1376874 L4.85824053,72.8927944 L4.58878423,72.6154917 C-0.430061327,67.3078571 -0.518746638,59.0021059 4.37123818,53.5871226 L4.6117361,53.3273881 L4.85872344,53.0737881 L43.0379304,14.843512 C45.6303222,12.2476526 49.0608842,10.8148774 52.6054332,10.7393562 L52.6054332,10.7393562 Z M53.395556,10.7393562 L53.0004946,10.7356366 L53.0004946,44.4999323 L81.3531167,72.8932786 C86.563041,78.1101718 94.8617988,78.366461 100.375577,73.6062133 L100.636009,73.3757428 L100.89209,73.1376874 L101.142749,72.8927944 L101.412205,72.6154917 C106.43105,67.3078571 106.519736,59.0021059 101.629751,53.5871226 L101.389253,53.3273881 L101.142266,53.0737881 L62.9630587,14.843512 C60.370667,12.2476526 56.940105,10.8148774 53.395556,10.7393562 L53.395556,10.7393562 Z" id="形状结合"></path>
        </g>
    </g>
</svg>