<?xml version="1.0" encoding="UTF-8"?>
<svg width="564px" height="240px" viewBox="0 0 564 240" version="1.1" xmlns="http://www.w3.org/2000/svg" xmlns:xlink="http://www.w3.org/1999/xlink">
    <title>com_bbk_appstore_b_s5_2x1_sc</title>
    <g id="com_bbk_appstore" stroke="none" stroke-width="1" fill="none" fill-rule="evenodd">
        <g id="辅色" transform="translate(233.160345, 162.960000)" fill="#4E4E4E" fill-rule="nonzero">
            <path d="M2.77011539,13.0906077 L3.59159789,10.7933702 L8.42497164,10.7933702 L9.22734989,13.0906077 L11.9974653,13.0906077 L7.03036182,0.109392265 L4.94799922,0.109392265 L0,13.0906077 L2.77011539,13.0906077 Z M7.71811461,8.66022099 L4.33666341,8.66022099 L6.05604537,3.93812155 L7.71811461,8.66022099 Z M16.3341287,13.0906077 L16.3341287,8.20441989 L18.9514101,8.20441989 C21.7788383,8.20441989 23.4409075,6.36298343 23.4409075,4.15690608 C23.4409075,1.95082873 21.7788383,0.109392265 18.9514101,0.109392265 L13.6786388,0.109392265 L13.6786388,13.0906077 L16.3341287,13.0906077 Z M18.8176804,5.92541436 L16.3341287,5.92541436 L16.3341287,2.37016575 L18.8176804,2.37016575 C20.0212478,2.37016575 20.7854176,3.09944751 20.7854176,4.15690608 C20.7854176,5.21436464 20.0212478,5.92541436 18.8176804,5.92541436 Z M28.331594,13.0906077 L28.331594,8.20441989 L30.9488754,8.20441989 C33.7763035,8.20441989 35.4383728,6.36298343 35.4383728,4.15690608 C35.4383728,1.95082873 33.7763035,0.109392265 30.9488754,0.109392265 L25.676104,0.109392265 L25.676104,13.0906077 L28.331594,13.0906077 Z M30.8151457,5.92541436 L28.331594,5.92541436 L28.331594,2.37016575 L30.8151457,2.37016575 C32.0187131,2.37016575 32.7828828,3.09944751 32.7828828,4.15690608 C32.7828828,5.21436464 32.0187131,5.92541436 30.8151457,5.92541436 Z M45.8501858,13.2 C48.7158224,13.2 50.8937062,11.7779006 50.8937062,9.26187845 C50.8937062,8.09502762 50.5689341,7.16519337 49.8429728,6.52707182 C49.2507412,5.9801105 48.4865715,5.67016575 47.2447956,5.50607735 L45.6209349,5.26906077 C45.0478075,5.1961326 44.6466184,5.01381215 44.379159,4.77679558 C44.0925953,4.52154696 43.9970741,4.19337017 43.9970741,3.84696133 C43.9970741,2.95359116 44.6657227,2.20607735 46.0794367,2.20607735 C46.9773362,2.20607735 48.0280696,2.31546961 48.8686564,3.09944751 L50.5498298,1.51325967 C49.384471,0.437569061 48.0280696,0 46.1558537,0 C43.2138001,0 41.4180012,1.62265193 41.4180012,3.93812155 C41.4180012,5.0320442 41.7427733,5.88895028 42.3923176,6.49060773 C43.0036534,7.0558011 43.8251359,7.40220994 45.0287033,7.56629834 L46.6525641,7.80331492 C47.3403168,7.89447514 47.6077763,8.0038674 47.8752357,8.24088398 C48.1617993,8.51436464 48.295529,8.87900552 48.295529,9.31657459 C48.295529,10.3558011 47.4549423,10.9392265 45.86929,10.9392265 C44.6275142,10.9392265 43.4621553,10.6657459 42.6024643,9.84530387 L40.8830823,11.4861878 C42.2203794,12.780663 43.7869274,13.2 45.8501858,13.2 Z M58.5927166,13.0906077 L58.5927166,2.37016575 L62.146106,2.37016575 L62.146106,0.109392265 L52.3838373,0.109392265 L52.3838373,2.37016575 L55.9372267,2.37016575 L55.9372267,13.0906077 L58.5927166,13.0906077 Z M68.488715,13.2 C70.0552631,13.2 71.2015177,12.7077348 72.1185214,11.8325967 C73.4749227,10.5381215 73.5131312,9.07955801 73.5131312,6.6 C73.5131312,4.12044199 73.4749227,2.66187845 72.1185214,1.36740331 C71.2015177,0.492265193 70.0552631,0 68.488715,0 C66.922167,0 65.7568081,0.492265193 64.8398044,1.36740331 C63.4834031,2.66187845 63.4642988,4.12044199 63.4642988,6.6 C63.4642988,9.07955801 63.4834031,10.5381215 64.8398044,11.8325967 C65.7568081,12.7077348 66.922167,13.2 68.488715,13.2 Z M68.488715,10.9392265 C67.7627538,10.9392265 67.1705222,10.6475138 66.7693331,10.2281768 C66.2910194,9.7014733 66.1315815,9.1240502 66.1204274,6.86787109 L66.1197888,6.6 C66.1197888,4.12044199 66.2726227,3.50055249 66.7693331,2.95359116 C67.1705222,2.53425414 67.7627538,2.26077348 68.488715,2.26077348 C69.2146763,2.26077348 69.8069079,2.53425414 70.1889928,2.95359116 C70.6857031,3.50055249 70.8576413,4.12044199 70.8576413,6.6 C70.8576413,9.07955801 70.6857031,9.68121547 70.1889928,10.2281768 C69.8069079,10.6475138 69.2146763,10.9392265 68.488715,10.9392265 Z M78.8814238,13.0906077 L78.8814238,7.91270718 L80.7918482,7.91270718 L83.4473382,13.0906077 L86.5231215,13.0906077 L83.4855466,7.49337017 C84.8037395,7.03756906 85.9690984,5.90718232 85.9690984,4.0839779 C85.9690984,1.91436464 84.3261334,0.109392265 81.556018,0.109392265 L76.2259339,0.109392265 L76.2259339,13.0906077 L78.8814238,13.0906077 Z M81.3840798,5.79779006 L78.8814238,5.79779006 L78.8814238,2.37016575 L81.3840798,2.37016575 C82.5494387,2.37016575 83.3136084,3.08121547 83.3136084,4.0839779 C83.3136084,5.08674033 82.5494387,5.79779006 81.3840798,5.79779006 Z M97.68,13.0906077 L97.68,10.8298343 L91.3755995,10.8298343 L91.3755995,7.67569061 L96.743892,7.67569061 L96.743892,5.41491713 L91.3755995,5.41491713 L91.3755995,2.37016575 L97.68,2.37016575 L97.68,0.109392265 L88.7201095,0.109392265 L88.7201095,13.0906077 L97.68,13.0906077 Z" id="APPSTOrE"></path>
        </g>
    </g>
</svg>