<?xml version="1.0" encoding="UTF-8"?>
<svg width="240px" height="240px" viewBox="0 0 240 240" version="1.1" xmlns="http://www.w3.org/2000/svg" xmlns:xlink="http://www.w3.org/1999/xlink">
    <title>com_vivo_space_b_s5_1x1_mc</title>
    <g id="com_vivo_space" stroke="none" stroke-width="1" fill="none" fill-rule="evenodd">
        <g id="主色" transform="translate(41.307692, 98.423077)" fill="#000000">
            <path d="M144.373456,33.8874787 L130.633596,33.8874787 C122.909709,33.8874787 122.223006,27.7697816 122.223006,25.9005752 C122.223006,24.0313689 122.909709,17.9136717 130.633596,17.9136717 L144.373456,17.9136717 C152.097343,17.9136717 152.784351,24.0313689 152.784351,25.9005752 C152.784351,27.7697816 152.097343,33.8874787 144.373456,33.8874787 M144.373456,11.1860603 L130.633596,11.1860603 C116.354315,11.1860603 115.08428,22.4569593 115.08428,25.9005752 C115.08428,29.3444856 116.354315,40.6153846 130.633596,40.6153846 L144.373456,40.6153846 C158.653042,40.6153846 159.923077,29.3444856 159.923077,25.9005752 C159.923077,22.4569593 158.653042,11.1860603 144.373456,11.1860603 M112.326886,11.8760204 L107.873682,11.8760204 C105.966343,11.8760204 105.573287,12.1905489 104.837185,13.2445727 C104.101998,14.2988911 91.3641402,33.0804833 91.3641402,33.0804833 C90.957668,33.6580024 90.5268013,33.8915428 89.9904288,33.8915428 C89.4543611,33.8915428 89.0234944,33.6580024 88.6170222,33.0804833 C88.6170222,33.0804833 75.8788594,14.2988911 75.1433672,13.2445727 C74.4072652,12.1905489 74.0148198,11.8760204 72.1074801,11.8760204 L67.6539715,11.8760204 C66.6291004,11.8760204 66.1601174,12.6499725 66.8044354,13.5950305 C67.4487533,14.5400885 82.0180233,35.9056443 82.0180233,35.9056443 C84.3787945,39.2594369 86.111409,40.6153257 89.9904288,40.6153257 C93.8694485,40.6153257 95.602368,39.2594369 97.9634441,35.9056443 C97.9634441,35.9056443 112.532409,14.5400885 113.176422,13.5950305 C113.82074,12.6499725 113.352062,11.8760204 112.326886,11.8760204 M53.1787116,13.6985481 C53.1787116,12.3933137 53.7144743,11.8761676 55.065621,11.8761676 L58.4317477,11.8761676 C59.7825894,11.8761676 60.3183522,12.3933137 60.3183522,13.6985481 L60.3183522,38.792798 C60.3183522,40.0980324 59.7825894,40.6151785 58.4317477,40.6151785 L55.065621,40.6151785 C53.7144743,40.6151785 53.1787116,40.0980324 53.1787116,38.792798 L53.1787116,13.6985481 Z M52.8719821,6.01804488 C51.7748425,4.95871996 51.7748425,4.11879929 52.8719821,3.05917987 L55.2162871,0.794751381 C56.3137316,-0.264868038 57.1836981,-0.264868038 58.2802278,0.794456878 L60.6251426,3.05917987 C61.7216724,4.11879929 61.7216724,4.95871996 60.6251426,6.01804488 L58.2802278,8.28247337 C57.1836981,9.34209279 56.3137316,9.34209279 55.2162871,8.28247337 L52.8719821,6.01804488 Z M45.8433972,11.8760204 L41.3901935,11.8760204 C39.4825489,11.8760204 39.0897985,12.1905489 38.3540015,13.2445727 C37.6185093,14.2988911 24.8800415,33.0804833 24.8800415,33.0804833 C24.4738742,33.6580024 24.0430076,33.8915428 23.506635,33.8915428 C22.9702624,33.8915428 22.5397007,33.6580024 22.1332284,33.0804833 C22.1332284,33.0804833 9.39506559,14.2988911 8.65957345,13.2445727 C7.92408131,12.1905489 7.53072108,11.8760204 5.62338138,11.8760204 L1.17017771,11.8760204 C0.0254689649,11.8760204 -0.323981282,12.6499725 0.320641599,13.5950305 C0.96495955,14.5400885 15.5339246,35.9056443 15.5339246,35.9056443 C17.8946958,39.2594369 19.6276153,40.6153257 23.506635,40.6153257 C27.3856547,40.6153257 29.1185742,39.2594369 31.4796504,35.9056443 C31.4796504,35.9056443 46.0486154,14.5400885 46.6929333,13.5950305 C47.3369463,12.6499725 46.987801,11.8760204 45.8433972,11.8760204" id="形状结合"></path>
        </g>
    </g>
</svg>