<?xml version="1.0" encoding="UTF-8"?>
<svg width="564px" height="564px" viewBox="0 0 564 564" version="1.1" xmlns="http://www.w3.org/2000/svg" xmlns:xlink="http://www.w3.org/1999/xlink">
    <title>com_vivo_upslide_b_s5_2x2_sc</title>
    <defs>
        <path d="M61.5332448,-2.48601674e-15 L460.466755,2.48601674e-15 C481.863205,-1.44444732e-15 489.622075,2.22781467 497.444297,6.41118489 C505.266519,10.5945551 511.405445,16.7334809 515.588815,24.5557031 C519.772185,32.3779253 522,40.136795 522,61.5332448 L522,460.466755 C522,481.863205 519.772185,489.622075 515.588815,497.444297 C511.405445,505.266519 505.266519,511.405445 497.444297,515.588815 C489.622075,519.772185 481.863205,522 460.466755,522 L61.5332448,522 C40.136795,522 32.3779253,519.772185 24.5557031,515.588815 C16.7334809,511.405445 10.5945551,505.266519 6.41118489,497.444297 C2.22781467,489.622075 9.62964878e-16,481.863205 -1.65734449e-15,460.466755 L1.65734449e-15,61.5332448 C-9.62964878e-16,40.136795 2.22781467,32.3779253 6.41118489,24.5557031 C10.5945551,16.7334809 16.7334809,10.5945551 24.5557031,6.41118489 C32.3779253,2.22781467 40.136795,1.44444732e-15 61.5332448,-2.48601674e-15 Z" id="path-1"></path>
    </defs>
    <g id="com_vivo_upslide" stroke="none" stroke-width="1" fill="none" fill-rule="evenodd">
        <g id="辅色" transform="translate(21.000000, 21.000000)">
            <mask id="mask-2" fill="white">
                <use xlink:href="#path-1"></use>
            </mask>
            <g id="蒙版"></g>
            <g id="编组备份-3" mask="url(#mask-2)" fill="#4E4E4E" fill-rule="nonzero">
                <g transform="translate(134.223554, 53.337894)">
                    <path d="M493.641742,198.534558 L471.38505,198.053027 L471.385084,386.565247 L471.38102,387.10153 C471.20291,399.131956 464.705282,410.213612 454.268305,416.245875 L289.187708,511.656906 L299.895843,531.18783 L465.399486,435.533121 L465.949067,435.211284 C483.118604,425.020387 493.641742,406.534923 493.641742,386.565246 L493.641742,198.534558 Z" id="路径"></path>
                    <path d="M478.520847,205.345375 L486.504756,205.517852 L486.504756,386.565269 C486.504756,404.016002 477.309464,420.168906 462.324099,429.063459 L461.810255,429.364364 L302.644094,521.354476 L298.799637,514.343576 L457.839662,422.425033 C470.451646,415.13568 478.301983,401.746986 478.517518,387.180721 L478.521973,386.59164 L478.520847,205.345375 Z" id="路径"></path>
                    <path d="M22.256,206.972608 L22.2570313,386.565246 C22.2570313,398.631427 28.5949442,409.805455 38.9119606,415.974242 L38.9119606,415.974242 L39.3738069,416.245873 L201.32335,509.847619 L190.615438,529.379886 L28.2426088,435.533109 C10.9654825,425.547443 0.235323194,407.181582 0.00400331621,387.202553 L0.00400331621,387.202553 L0.000186300387,386.56525 L0,206.972608 L22.256,206.972608 Z" id="形状结合"></path>
                    <path d="M218.575949,7.5763185 C235.842862,-2.40344425 257.083395,-2.52988399 274.462051,7.23208245 L274.462051,7.23208245 L275.066156,7.57631247 L440.447098,103.160843 L429.737566,122.692873 L263.934964,26.8635524 C253.513252,20.8401119 240.70037,20.7395706 230.215571,26.5752912 L230.215571,26.5752912 L229.707139,26.8635598 L74.2953292,116.685 L63.1613292,97.4 Z" id="形状结合"></path>
                </g>
            </g>
        </g>
    </g>
</svg>