<?xml version="1.0" encoding="UTF-8"?>
<svg width="240px" height="564px" viewBox="0 0 240 564" version="1.1" xmlns="http://www.w3.org/2000/svg" xmlns:xlink="http://www.w3.org/1999/xlink">
    <title>com_android_filemanager_b_s5_1x2_sc</title>
    <g id="com_android_filemanager" stroke="none" stroke-width="1" fill="none" fill-rule="evenodd">
        <g id="辅色" transform="translate(49.999881, 216.967381)" fill="#4E4E4E">
            <path d="M55,59.0316193 L128.628586,59.0326193 C133.922081,59.0326193 138.464875,62.802923 139.440244,68.0057824 L140.524541,73.7896972 C141.409422,78.5098775 145.52475,81.9345117 150.327141,81.947084 L168.999874,81.996 L169.000119,264.499374 C169.000119,282.30546 167.457238,290.666789 164.528389,297.479782 L164.306129,297.987977 C164.193702,298.240746 164.079332,298.491616 163.963027,298.741002 L163.725007,299.243815 C163.364021,299.995379 162.985253,300.735864 162.588934,301.476916 C158.405564,309.299138 152.266638,315.438064 144.444416,319.621434 L143.950337,319.883044 L143.703121,320.011895 L143.703121,320.011895 L143.207857,320.265676 C135.850362,323.991279 127.915578,325.987968 108.138034,326.031879 L32.5333638,326.032619 C15.1156142,326.032619 6.73514929,324.556302 0.00100473407,321.750537 L0,59.0326193 L55.000119,59.0326193 L55,59.0316193 Z" id="形状结合"></path>
            <path d="M36.0000264,0 L36.000119,59.0326193 L0.000119035309,59.032 L0.000873852765,52.2242313 L0.0128133688,50.3315521 L0.0286541035,49.1163364 L0.0507997215,47.937313 L0.0958001642,46.2346439 L0.133628709,45.1421118 L0.177698713,44.0825803 L0.227992053,43.0551376 L0.284490609,42.0588717 C0.294423129,41.8953748 0.304613446,41.7331389 0.31506118,41.572145 L0.380833581,40.6209344 L0.452765894,39.6986207 L0.530839997,38.8042921 L0.61503777,37.9370366 L0.705341089,37.0959423 L0.801731835,36.2800972 L0.904191886,35.4885894 L1.01270312,34.720507 L1.12724741,33.9749381 C1.14683988,33.8525021 1.16668297,33.7309662 1.1867763,33.6103113 L1.31033621,32.8968027 L1.43988388,32.2035278 L1.57540118,31.5295746 L1.71687,30.8740312 C1.74094309,30.7662575 1.76526341,30.6592128 1.78983057,30.5528782 L1.94019268,29.9232396 C1.96574572,29.8196694 1.99154485,29.7167712 2.0175897,29.6145261 L2.17680434,29.0087405 L2.34189801,28.417717 L2.51285258,27.8405436 L2.68964994,27.2763085 L2.87227197,26.7240997 C2.90319335,26.6330164 2.93435668,26.5423962 2.96576157,26.4522202 L3.15708661,25.9163409 L3.45490482,25.1305117 L3.66064429,24.6172888 L3.87211782,24.1115325 L4.20003984,23.3649033 L4.42576923,22.873824 C4.46386385,22.792359 4.50219475,22.7110722 4.54076155,22.6299444 L4.76899055,22.1571745 C5.03838868,21.6073976 5.31873374,21.0633039 5.60990581,20.5188595 C9.27035476,13.674415 14.6419148,8.30285498 21.4863593,4.64240603 L21.9530808,4.39548428 L22.4204749,4.15388234 C26.157231,2.24613755 30.0390502,0.848698936 36.0000264,0 Z" id="形状结合" opacity="0.600000024"></path>
        </g>
    </g>
</svg>