<?xml version="1.0" encoding="UTF-8"?>
<svg width="240px" height="564px" viewBox="0 0 240 564" version="1.1" xmlns="http://www.w3.org/2000/svg" xmlns:xlink="http://www.w3.org/1999/xlink">
    <title>com_vivo_upslide_b_s5_1x2_mc</title>
    <g id="com_vivo_upslide" stroke="none" stroke-width="1" fill="none" fill-rule="evenodd">
        <g id="主色" transform="translate(55.914069, 233.660209)" fill="#000000" fill-rule="nonzero">
            <path d="M108.531,0 L120.171811,6.72098923 L120.485202,6.90669542 C125.147021,9.74109128 128.043931,14.7586862 128.16768,20.2131376 L128.171811,20.5773957 L128.171811,34.018 L116.171,34.252 L116.171,25.195 L70.085,51.803 L70.085,105.018 L77.927,100.491 L83.725,111 L72.0859307,117.720989 L71.6756999,117.949903 C69.6120362,119.062165 67.3642954,119.689832 65.0928767,119.832903 L64.6383247,119.855056 L64.2700872,119.863524 L63.9017741,119.863524 C61.3597784,119.8343 58.8231874,119.199952 56.515821,117.960481 L56.0859307,117.720989 L44.445,110.999 L50.243,100.491 L58.085,105.018 L58.085,51.803 L12,25.195 L12,34.252 L0,34.018 L0,20.5773957 L0.00418132222,20.2131376 C0.127930794,14.7586862 3.0248406,9.74109128 7.68665928,6.90669542 L8.00005081,6.72098923 L19.639,0 L25.842,10.276 L18,14.803 L64.085,41.411 L110.171,14.803 L102.329,10.276 L108.531,0 Z" id="路径"></path>
        </g>
    </g>
</svg>