<?xml version="1.0" encoding="UTF-8"?>
<svg width="564px" height="564px" viewBox="0 0 564 564" version="1.1" xmlns="http://www.w3.org/2000/svg" xmlns:xlink="http://www.w3.org/1999/xlink">
    <title>com_vivo_translator_b_s5_2x2_mc</title>
    <g id="com_vivo_translator" stroke="none" stroke-width="1" fill="none" fill-rule="evenodd">
        <g id="主色" transform="translate(167.340793, 188.888889)" fill="#000000" fill-rule="nonzero">
            <path d="M24.5055063,116.692557 L9.09052447,130.9592 C7.35021061,132.569869 6.360839,134.833612 6.360839,137.204888 L6.36870151,137.574038 C6.56198696,142.10278 10.2946252,145.714989 14.87094,145.714989 L35.0280962,145.713354 L34.6945021,145.662359 C50.5495005,147.954792 62.5150139,161.471039 62.801038,177.593311 L62.8062772,178.184297 C62.8062772,183.896604 67.4370165,188.527343 73.149323,188.527343 C78.8616294,188.527343 83.4923687,183.896604 83.4923687,178.184297 L83.4862726,177.369992 C83.1046907,151.897435 64.8504211,130.44924 40.3161854,125.640069 L39.8039649,125.542712 L38.5012745,120.717929 C38.1425968,119.390097 37.4666158,118.168095 36.5316096,117.157829 C33.3391743,113.708431 27.9549044,113.500121 24.5055063,116.692557 Z" id="路径" transform="translate(44.926604, 151.477723) scale(-1, -1) rotate(11.000000) translate(-44.926604, -151.477723) "></path>
            <path d="M82.8208235,105.525253 L82.8208235,73.1868687 L104.947086,73.1868687 L104.947086,76.5909091 L123.669308,76.5909091 L123.669308,18.7222222 L82.8208235,18.7222222 L82.8208235,0 L65.8006214,0 L65.8006214,18.7222222 L24.9521366,18.7222222 L24.9521366,76.5909091 L43.6743588,76.5909091 L43.6743588,73.1868687 L65.8006214,73.1868687 L65.8006214,105.525253 L82.8208235,105.525253 Z M65.8006214,56.1666667 L43.6743588,56.1666667 L43.6743588,35.7424242 L65.8006214,35.7424242 L65.8006214,56.1666667 Z M104.947086,56.1666667 L82.8208235,56.1666667 L82.8208235,35.7424242 L104.947086,35.7424242 L104.947086,56.1666667 Z" id="中"></path>
        </g>
    </g>
</svg>