<?xml version="1.0" encoding="UTF-8"?>
<svg width="240px" height="564px" viewBox="0 0 240 564" version="1.1" xmlns="http://www.w3.org/2000/svg" xmlns:xlink="http://www.w3.org/1999/xlink">
    <title>com_android_camera_packet_camerapacketactivity_b_s5_1x2_mc</title>
    <defs>
        <path d="M61.5332448,-2.48601674e-15 L136.466755,2.48601674e-15 C157.863205,-1.44444732e-15 165.622075,2.22781467 173.444297,6.41118489 C181.266519,10.5945551 187.405445,16.7334809 191.588815,24.5557031 C195.772185,32.3779253 198,40.136795 198,61.5332448 L198,460.466755 C198,481.863205 195.772185,489.622075 191.588815,497.444297 C187.405445,505.266519 181.266519,511.405445 173.444297,515.588815 C165.622075,519.772185 157.863205,522 136.466755,522 L61.5332448,522 C40.136795,522 32.3779253,519.772185 24.5557031,515.588815 C16.7334809,511.405445 10.5945551,505.266519 6.41118489,497.444297 C2.22781467,489.622075 9.62964878e-16,481.863205 -1.65734449e-15,460.466755 L1.65734449e-15,61.5332448 C-9.62964878e-16,40.136795 2.22781467,32.3779253 6.41118489,24.5557031 C10.5945551,16.7334809 16.7334809,10.5945551 24.5557031,6.41118489 C32.3779253,2.22781467 40.136795,1.44444732e-15 61.5332448,-2.48601674e-15 Z" id="path-1"></path>
        <path d="M225.232712,11.9222482 L407.0828,339.576574 C413.291346,350.763024 409.26493,364.869438 398.089547,371.084133 C394.650756,372.996464 390.781816,374 386.84798,374 L23.1478026,374 C10.3636243,374 0,363.626112 0,350.829273 C0,346.891542 1.00254292,343.018771 2.91298254,339.576574 L184.763071,11.9222482 C190.971617,0.735798337 205.064076,-3.29460584 216.239458,2.92008855 C220.018107,5.02141684 223.133462,8.13985731 225.232712,11.9222482 Z" id="path-3"></path>
        <linearGradient x1="0%" y1="60.8883395%" x2="86.5334444%" y2="60.8883395%" id="linearGradient-5">
            <stop stop-color="#FFF0CF" offset="0%"></stop>
            <stop stop-color="#FFDEA8" offset="100%"></stop>
        </linearGradient>
        <linearGradient x1="0%" y1="60.8883395%" x2="86.5334444%" y2="60.8883395%" id="linearGradient-6">
            <stop stop-color="#000000" offset="0%"></stop>
            <stop stop-color="#000000" offset="100%"></stop>
        </linearGradient>
        <linearGradient x1="65.4015783%" y1="72.6357345%" x2="48.6386016%" y2="56.0071132%" id="linearGradient-7">
            <stop stop-color="#E5B75C" offset="0%"></stop>
            <stop stop-color="#FFE299" offset="100%"></stop>
        </linearGradient>
        <linearGradient x1="65.4015783%" y1="72.6357345%" x2="48.6386016%" y2="56.0071132%" id="linearGradient-8">
            <stop stop-color="#000000" offset="0%"></stop>
            <stop stop-color="#000000" offset="100%"></stop>
        </linearGradient>
        <linearGradient x1="37.9828272%" y1="9.50951659%" x2="65.4015783%" y2="100%" id="linearGradient-9">
            <stop stop-color="#FFF9F0" offset="0%"></stop>
            <stop stop-color="#FFFCF5" offset="100%"></stop>
        </linearGradient>
        <linearGradient x1="37.9828272%" y1="9.50951659%" x2="65.4015783%" y2="100%" id="linearGradient-10">
            <stop stop-color="#000000" offset="0%"></stop>
            <stop stop-color="#000000" offset="100%"></stop>
        </linearGradient>
    </defs>
    <g id="com_android_camera_packet_camerapacketactivity" stroke="none" stroke-width="1" fill="none" fill-rule="evenodd">
        <g id="主色" transform="translate(21.000000, 21.000000)">
            <mask id="mask-2" fill="white">
                <use xlink:href="#path-1"></use>
            </mask>
            <g id="蒙版"></g>
            <g id="编组-48" mask="url(#mask-2)">
                <g transform="translate(-106.000000, 150.000000)">
                    <mask id="mask-4" fill="white">
                        <use xlink:href="#path-3"></use>
                    </mask>
                    <use id="三角形" stroke="none" fill-opacity="0" fill="#000000" fill-rule="evenodd" xlink:href="#path-3"></use>
                    <polygon id="路径-23" stroke="none" fill="url(#linearGradient-6)" fill-rule="evenodd" opacity="0.7" mask="url(#mask-4)" points="204.997891 265.818756 426.188006 374.514905 -16.1922227 374.514905"></polygon>
                    <polygon id="路径-22" stroke="none" fill="url(#linearGradient-8)" fill-rule="evenodd" opacity="0.95" mask="url(#mask-4)" points="-16.1922227 374 204.997891 265.818756 204.997891 -24.5364985"></polygon>
                    <polygon id="路径-21" stroke="none" fill="url(#linearGradient-10)" fill-rule="evenodd" opacity="0.82" mask="url(#mask-4)" points="204.997891 -24.5364985 204.997891 265.818756 426.188006 374"></polygon>
                </g>
            </g>
        </g>
    </g>
</svg>