<?xml version="1.0" encoding="UTF-8"?>
<svg width="564px" height="564px" viewBox="0 0 564 564" version="1.1" xmlns="http://www.w3.org/2000/svg" xmlns:xlink="http://www.w3.org/1999/xlink">
    <title>com_vivo_moodcube_b_s5_2x2_sc</title>
    <defs>
        <path d="M61.5332448,-2.48601674e-15 L460.466755,2.48601674e-15 C481.863205,-1.44444732e-15 489.622075,2.22781467 497.444297,6.41118489 C505.266519,10.5945551 511.405445,16.7334809 515.588815,24.5557031 C519.772185,32.3779253 522,40.136795 522,61.5332448 L522,460.466755 C522,481.863205 519.772185,489.622075 515.588815,497.444297 C511.405445,505.266519 505.266519,511.405445 497.444297,515.588815 C489.622075,519.772185 481.863205,522 460.466755,522 L61.5332448,522 C40.136795,522 32.3779253,519.772185 24.5557031,515.588815 C16.7334809,511.405445 10.5945551,505.266519 6.41118489,497.444297 C2.22781467,489.622075 9.62964878e-16,481.863205 -1.65734449e-15,460.466755 L1.65734449e-15,61.5332448 C-9.62964878e-16,40.136795 2.22781467,32.3779253 6.41118489,24.5557031 C10.5945551,16.7334809 16.7334809,10.5945551 24.5557031,6.41118489 C32.3779253,2.22781467 40.136795,1.44444732e-15 61.5332448,-2.48601674e-15 Z" id="path-1"></path>
        <path d="M255.191457,4.50146076 L460.076168,122.950635 C470.439828,128.942135 476.822601,140.00486 476.822601,151.97582 L476.822601,388.952077 C476.822601,400.923036 470.439828,411.985761 460.076168,417.977262 L255.191457,536.426435 C244.809727,542.428383 232.012873,542.428383 221.631144,536.426435 L16.7464324,417.977262 C6.38277309,411.985761 0,400.923036 0,388.952077 L0,151.97582 C0,140.00486 6.38277309,128.942135 16.7464324,122.950635 L221.631144,4.50146076 C232.012873,-1.50048692 244.809727,-1.50048692 255.191457,4.50146076 Z" id="path-3"></path>
    </defs>
    <g id="com_vivo_moodcube" stroke="none" stroke-width="1" fill="none" fill-rule="evenodd">
        <g id="辅色" transform="translate(21.000000, 20.999831)">
            <mask id="mask-2" fill="white">
                <use xlink:href="#path-1"></use>
            </mask>
            <g id="背景"></g>
            <g mask="url(#mask-2)">
                <g transform="translate(134.882054, 52.863807)">
                    <mask id="mask-4" fill="white">
                        <use xlink:href="#path-3"></use>
                    </mask>
                    <g id="蒙版" stroke="none" fill="none"></g>
                    <path d="M476.823317,141.772998 L476.822601,331.989367 C476.822601,340.01448 472.521486,347.423999 465.55277,351.403875 L465.55277,351.403875 L358.042068,412.803898 L358.042068,200.995919 L474.06458,134.219687 C475.422808,136.532868 476.364833,139.089516 476.823317,141.772998 Z" id="形状结合" stroke="none" fill="#4E4E4E" fill-rule="evenodd" opacity="0.85" mask="url(#mask-4)"></path>
                    <path d="M227.23573,1.24592231 C234.151705,-2.74286338 242.669847,-2.74104597 249.584119,1.25069051 L249.584119,1.25069051 L454.008314,119.268598 L454.008598,119.275785 L465.963745,126.178103 C469.43515,128.182324 472.237646,131.039524 474.168368,134.398331 L357.953682,203.10097 L116.982314,64.8345419 Z" id="形状结合" stroke="none" fill="#4E4E4E" fill-rule="evenodd" opacity="0.8" mask="url(#mask-4)"></path>
                    <path d="M357.865296,203.10097 L435.969831,157.027967 L247.427518,52.7535743 C241.796099,49.6390862 234.956125,49.6512079 229.335781,52.7856362 L161.709251,90.5004954 L161.709251,90.5004954 L357.865296,203.10097 Z" id="路径" stroke="none" fill="#4E4E4E" fill-rule="nonzero" opacity="0.800000012" mask="url(#mask-4)"></path>
                    <polygon id="路径" stroke="none" fill="#4E4E4E" fill-rule="nonzero" mask="url(#mask-4)" points="357.865296 361.662167 435.969831 320.023696 435.969831 157.027967 358.003514 203.10097"></polygon>
                </g>
            </g>
        </g>
    </g>
</svg>