<?xml version="1.0" encoding="UTF-8"?>
<svg width="240px" height="240px" viewBox="0 0 240 240" version="1.1" xmlns="http://www.w3.org/2000/svg" xmlns:xlink="http://www.w3.org/1999/xlink">
    <title>com_vivo_wallet_b_s5_1x1_sc</title>
    <g id="com_vivo_wallet" stroke="none" stroke-width="1" fill="none" fill-rule="evenodd">
        <g id="辅色" transform="translate(61.997333, 58.001297)" fill="#4E4E4E">
            <path d="M122.877059,110.405333 C126.190867,110.405333 127.726165,111.946156 128.428376,113.489758 L128.547081,113.770101 L128.547081,113.770101 L128.648689,114.048451 C128.67985,114.140674 128.708371,114.232223 128.734463,114.322754 L128.805665,114.590955 C128.816388,114.635033 128.826556,114.67877 128.836196,114.722126 L128.887908,114.977322 L128.887908,114.977322 L128.928205,115.221281 L128.928205,115.221281 L128.95835,115.451949 L128.95835,115.451949 L128.987296,115.768534 L128.987296,115.768534 L129.002143,116.124952 L129.002143,116.124952 L129.000459,116.361862 L129.000459,116.361862 L128.986778,116.6429 L128.986778,116.6429 L128.968797,116.854522 L128.968797,116.854522 L128.942169,117.08302 L128.942169,117.08302 L128.90556,117.32622 C128.898552,117.367857 128.891073,117.410017 128.883094,117.452654 L128.829007,117.713834 C128.818919,117.758197 128.808276,117.802946 128.797051,117.848037 L128.722481,118.122308 C128.216754,119.834417 126.836884,121.889437 123.173441,121.994501 L122.877059,121.998703 L117.464387,121.998703 C113.748984,121.998703 112.269324,120.06171 111.692871,118.355552 L111.607099,118.081243 C111.581007,117.99071 111.557344,117.901193 111.535898,117.813036 L111.478006,117.552984 C111.469397,117.510436 111.461289,117.468313 111.453656,117.426658 L111.41336,117.182691 L111.41336,117.182691 L111.383215,116.952015 L111.383215,116.952015 L111.361959,116.736684 L111.361959,116.736684 L111.34398,116.446954 L111.34398,116.446954 L111.339423,116.278974 L111.339423,116.278974 L111.341106,116.042071 L111.341106,116.042071 L111.348622,115.859847 L111.348622,115.859847 L111.36278,115.657488 L111.36278,115.657488 L111.384918,115.437167 L111.384918,115.437167 L111.416369,115.201055 L111.416369,115.201055 L111.45847,114.951327 C111.466449,114.908692 111.474927,114.865579 111.483932,114.822035 L111.544512,114.555955 C111.555738,114.510866 111.567546,114.465436 111.579965,114.41971 L111.662029,114.142167 C111.677002,114.095439 111.692641,114.048506 111.708975,114.001413 L111.815528,113.717296 C112.449834,112.14808 113.900686,110.503241 117.168011,110.409535 L117.464387,110.405333 L122.877059,110.405333 Z M94.408644,110.677136 C95.1022221,110.677136 95.2873042,110.782712 95.5397511,111.125537 L100.912403,119.030409 L100.912403,119.030409 C101.072528,119.257916 101.242264,119.349917 101.453442,119.349917 C101.634555,119.349917 101.785132,119.282325 101.925294,119.119743 L102.011373,119.00568 L102.011373,119.00568 L107.302164,111.216262 L107.302164,111.216262 C107.569838,110.832981 107.722363,110.697922 108.335222,110.679411 L108.49836,110.677136 L110.252652,110.677136 C110.65651,110.677136 110.84114,110.982026 110.587318,111.354321 L104.594327,120.143351 L104.594327,120.143351 C103.664206,121.464542 102.981541,121.99868 101.453442,121.99868 C100.001748,121.99868 99.3131665,121.516621 98.4505782,120.335658 L98.1599362,119.919183 L98.1599362,119.919183 L92.3195658,111.354321 L92.3195658,111.354321 C92.0838737,111.008618 92.2263391,110.721035 92.5711483,110.681716 L92.6542315,110.677136 L94.408644,110.677136 Z M89.0212343,110.677194 C89.553384,110.677194 89.7644421,110.880918 89.7644421,111.395101 L89.7644421,121.280715 C89.7644421,121.794898 89.553384,121.998622 89.0212343,121.998622 L87.6951843,121.998622 C87.1629145,121.998622 86.9518564,121.794898 86.9518564,121.280715 L86.9518564,111.395101 C86.9518564,110.880918 87.1629145,110.677194 87.6951843,110.677194 L89.0212343,110.677194 Z M68.2179384,110.677136 C68.9115165,110.677136 69.0969057,110.782712 69.3492109,111.125537 L74.7218176,119.030409 L74.7218176,119.030409 C74.881943,119.257916 75.0515582,119.349917 75.2628565,119.349917 C75.4439694,119.349917 75.5945461,119.282325 75.7346333,119.119743 L75.8081354,119.024158 L75.8081354,119.024158 L81.1118191,111.216262 L81.1118191,111.216262 C81.3793817,110.832981 81.5317957,110.697922 82.144733,110.679411 L82.3078947,110.677136 L84.0621871,110.677136 C84.480811,110.677136 84.6293077,110.940026 84.4452576,111.275662 L84.3793338,111.380016 L84.3793338,111.380016 L78.4037414,120.143351 L78.4037414,120.143351 C77.4736205,121.464542 76.7909552,121.99868 75.2628565,121.99868 C73.8111628,121.99868 73.1224727,121.516621 72.2598735,120.335658 L71.924799,119.854019 L71.924799,119.854019 L66.1289804,111.354321 L66.1289804,111.354321 C65.8931767,111.008618 65.9950322,110.721035 66.3718385,110.681716 L66.4636461,110.677136 L68.2179384,110.677136 Z M122.877059,113.055604 L117.464387,113.055604 C115.097809,113.055604 114.408255,114.513507 114.218654,115.507923 L114.185249,115.713218 L114.185249,115.713218 L114.164575,115.900124 L114.164575,115.900124 L114.151804,116.136811 L114.151804,116.136811 L114.151804,116.269138 L114.151804,116.269138 L114.158675,116.425834 L114.158675,116.425834 L114.175025,116.608499 C114.281578,117.546755 114.820112,119.234411 117.217188,119.342825 L117.464387,119.348316 L122.877059,119.348316 C125.159116,119.348316 125.881865,117.99269 126.100611,117.004228 L126.141354,116.791313 L126.141354,116.791313 L126.168078,116.594688 L126.168078,116.594688 L126.183356,116.418553 L126.183356,116.418553 L126.189762,116.26711 L126.189762,116.26711 L126.187507,116.064438 L126.187507,116.064438 L126.168078,115.809232 L126.168078,115.809232 L126.141354,115.612607 L126.141354,115.612607 L126.100611,115.399693 C125.881865,114.41123 125.159116,113.055604 122.877059,113.055604 Z M88.9615446,106.311671 L89.8852989,107.203835 C90.3172652,107.621261 90.3172652,107.952138 89.8852989,108.369448 L88.9615446,109.261496 C88.5295784,109.678922 88.1868643,109.678922 87.7545377,109.261496 L86.8310236,108.369448 C86.3988171,107.952138 86.3988171,107.621261 86.8310236,107.203835 L87.7545377,106.311787 C88.1868643,105.894361 88.5295784,105.894361 88.9615446,106.311671 Z M13.8056213,0 L102.199713,0 L103.033007,0.0103444143 C103.166504,0.0129265113 103.297366,0.0159365539 103.425682,0.0193729395 L104.165732,0.0450945475 L104.848915,0.080971461 L105.170505,0.102694118 L105.170505,0.102694118 L105.77633,0.153659754 L106.335878,0.214588381 L106.853386,0.285403074 C108.015153,0.46211127 108.868189,0.718927442 109.65467,1.05145401 L109.988365,1.1985879 L110.318146,1.35491553 C112.128951,2.23985923 113.550081,3.53847815 114.51851,5.193179 C114.577203,5.2934639 114.634233,5.39369958 114.689586,5.49453122 L114.8506,5.79945922 C115.214497,6.51814055 115.495541,7.29763847 115.68892,8.35925317 L115.766415,8.83214854 L115.833092,9.34345996 L115.888866,9.89705858 L115.933652,10.4968155 L115.951899,10.8152131 L115.951899,10.8152131 L115.980047,11.4914659 L115.989928,11.850289 L116.001248,12.6117478 L116.000667,13.998 L116.002667,13.9987033 L116.004132,18.0072304 L115.336923,17.9994251 L115.336923,17.9994251 L0.667982532,17.9994275 L0.667982532,17.9994275 L0,18.0072304 L0,18.0072304 L0.00266699492,13.0153513 L0.00833591518,12.2235549 C0.0121105185,11.9697891 0.0177654083,11.7259745 0.0252865541,11.4914659 L0.0534347289,10.8152131 L0.0926962568,10.1909253 L0.116468221,9.89705858 L0.116468221,9.89705858 L0.172241936,9.34345996 L0.238918547,8.83214854 L0.316413871,8.35925317 C0.509792651,7.29763847 0.790836764,6.51814055 1.15473376,5.79945922 L1.31574821,5.49453122 L1.48682373,5.193179 L1.48682373,5.193179 C2.45525269,3.53847815 3.87638282,2.23985923 5.68718753,1.35491553 L6.0169692,1.1985879 L6.350664,1.05145401 C7.13714545,0.718927442 7.99018091,0.46211127 9.15194793,0.285403074 L9.66945608,0.214588381 L10.2290044,0.153659754 L10.8348293,0.102694118 L11.4911671,0.0617683989 L11.8396022,0.0450945475 L11.8396022,0.0450945475 L12.5796525,0.0193729395 L12.9723267,0.0103444143 L13.8056213,0 Z" id="形状"></path>
        </g>
    </g>
</svg>