<?xml version="1.0" encoding="UTF-8"?>
<svg width="564px" height="240px" viewBox="0 0 564 240" version="1.1" xmlns="http://www.w3.org/2000/svg" xmlns:xlink="http://www.w3.org/1999/xlink">
    <title>com_vivo_vhome_b_s5_2x1_mc</title>
    <g id="com_vivo_vhome" stroke="none" stroke-width="1" fill="none" fill-rule="evenodd">
        <path d="M332.472641,127.905764 C336.377884,124.000521 338.106838,117.119427 334.201595,113.214184 C331.606002,110.618591 327.859209,108.112661 324.398878,109.0902 L322.503849,109.45149 C317.23727,111.114316 313.17366,109.851954 311.510834,104.585375 C309.848008,99.3187958 310.964246,94.9140619 316.230825,93.251236 L316.554625,92.2099401 L316.575273,92.2039017 C326.995484,89.1605359 338.372783,91.9474074 346.212901,99.7875257 C357.92863,111.503254 357.92863,130.498204 346.212901,142.213933 C334.497173,153.929661 315.502223,153.929661 303.786495,142.213933 L267.556349,105.443651 C258.964815,96.8521164 245.035185,96.8521164 236.443651,105.443651 C230.965422,110.921879 228.980282,118.570435 230.48823,125.621581 L230.484473,125.604873 C230.775117,126.968874 230.972314,128.196207 231.718132,130.048603 C233.166646,133.646288 235.656363,138.123605 237.714409,140.18165 C243.442098,145.90934 257.312211,149.187329 279.324745,150.015618 C281.753282,149.525666 282.781599,149.509334 282.409695,149.966623 L282.366227,150.015618 L282.366227,150.015618 L282.354673,150.027698 C282.138633,150.253466 281.919896,150.477074 281.698485,150.698485 C265.296465,167.100505 238.703535,167.100505 222.301515,150.698485 C205.899495,134.296465 205.899495,107.703535 222.301515,91.3015152 C238.377135,75.2258951 264.242102,74.9059903 280.707338,90.3418007 L281.203387,90.8143752 L281.698485,91.3015152 L317.928932,128.071068 L318.129269,128.267003 C321.652525,131.601781 327.007161,131.885574 330.842121,129.118382 L330.775576,129.166609 C331.229638,128.84403 332.065278,128.313127 332.472641,127.905764 Z" id="主色" fill="#000000"></path>
    </g>
</svg>