<?xml version="1.0" encoding="UTF-8"?>
<svg width="564px" height="564px" viewBox="0 0 564 564" version="1.1" xmlns="http://www.w3.org/2000/svg" xmlns:xlink="http://www.w3.org/1999/xlink">
    <title>com_vivo_wallet_b_s5_2x2_sc</title>
    <g id="com_vivo_wallet" stroke="none" stroke-width="1" fill="none" fill-rule="evenodd">
        <path d="M314.929754,460.355718 L307.798774,460.355718 C303.79008,460.355718 303.433681,457.041965 303.433681,456.029478 C303.433681,455.016991 303.79008,451.703239 307.798774,451.703239 L314.929754,451.703239 C318.938448,451.703239 319.295005,455.016991 319.295005,456.029478 C319.295005,457.041965 318.938448,460.355718 314.929754,460.355718 M314.929754,448.059116 L307.798774,448.059116 C300.387834,448.059116 299.728686,454.164186 299.728686,456.029478 C299.728686,457.89493 300.387834,464 307.798774,464 L314.929754,464 C322.340852,464 323,457.89493 323,456.029478 C323,454.164186 322.340852,448.059116 314.929754,448.059116 M298.2976,448.432844 L295.986389,448.432844 C294.996481,448.432844 294.792485,448.603214 294.410449,449.174144 C294.028887,449.745233 287.417945,459.918595 287.417945,459.918595 C287.206986,460.231418 286.983366,460.357919 286.704989,460.357919 C286.42677,460.357919 286.203151,460.231418 285.992192,459.918595 C285.992192,459.918595 279.381092,449.745233 278.999371,449.174144 C278.617335,448.603214 278.413656,448.432844 277.423747,448.432844 L275.112379,448.432844 C274.580471,448.432844 274.337069,448.852068 274.67147,449.363975 C275.005871,449.875881 282.567315,461.448891 282.567315,461.448891 C283.792554,463.265528 284.69178,463.999968 286.704989,463.999968 C288.718199,463.999968 289.617583,463.265528 290.84298,461.448891 C290.84298,461.448891 298.404266,449.875881 298.738509,449.363975 C299.072909,448.852068 298.829666,448.432844 298.2976,448.432844 M267.599726,449.420047 C267.599726,448.713045 267.877786,448.432924 268.579031,448.432924 L270.326049,448.432924 C271.027135,448.432924 271.305196,448.713045 271.305196,449.420047 L271.305196,463.012766 C271.305196,463.719768 271.027135,463.999888 270.326049,463.999888 L268.579031,463.999888 C267.877786,463.999888 267.599726,463.719768 267.599726,463.012766 L267.599726,449.420047 Z M267.440533,445.259774 C266.871118,444.685973 266.871118,444.231016 267.440533,443.657056 L268.657226,442.43049 C269.2268,441.85653 269.678312,441.85653 270.24741,442.430331 L271.46442,443.657056 C272.033518,444.231016 272.033518,444.685973 271.46442,445.259774 L270.24741,446.48634 C269.678312,447.0603 269.2268,447.0603 268.657226,446.48634 L267.440533,445.259774 Z M263.792701,448.432844 L261.481491,448.432844 C260.491424,448.432844 260.287587,448.603214 259.905708,449.174144 C259.523988,449.745233 252.91273,459.918595 252.91273,459.918595 C252.701929,460.231418 252.478309,460.357919 252.199932,460.357919 C251.921555,460.357919 251.698094,460.231418 251.487135,459.918595 C251.487135,459.918595 244.876035,449.745233 244.494314,449.174144 C244.112594,448.603214 243.908441,448.432844 242.918532,448.432844 L240.607322,448.432844 C240.013218,448.432844 239.831854,448.852068 240.166413,449.363975 C240.500814,449.875881 248.062099,461.448891 248.062099,461.448891 C249.287338,463.265528 250.186723,463.999968 252.199932,463.999968 C254.213142,463.999968 255.112526,463.265528 256.337923,461.448891 C256.337923,461.448891 263.899209,449.875881 264.23361,449.363975 C264.567852,448.852068 264.386646,448.432844 263.792701,448.432844" id="形状结合备份-3" fill="#4E4E4E"></path>
    </g>
</svg>