<?xml version="1.0" encoding="UTF-8"?>
<svg width="564px" height="564px" viewBox="0 0 564 564" version="1.1" xmlns="http://www.w3.org/2000/svg" xmlns:xlink="http://www.w3.org/1999/xlink">
    <title>com_bbk_iqoo_feedback_b_s5_2x2_mc</title>
    <g id="com_bbk_iqoo_feedback" stroke="none" stroke-width="1" fill="none" fill-rule="evenodd">
        <g id="主色" transform="translate(165.060606, 178.675750)" fill="#000000">
            <path d="M117.439394,0 C164.414787,0 204.167576,30.652137 217.451399,72.879026 C227.418634,75.0695535 234.878788,83.9536611 234.878788,94.580181 L234.878788,111.493975 C234.878788,123.764783 224.931332,133.712238 212.660524,133.712238 L202.527483,133.712238 C198.325188,133.712238 196.801334,133.274692 195.265038,132.453072 C193.728741,131.631452 192.523047,130.425757 191.701427,128.889461 C190.879807,127.353165 190.44226,125.829311 190.44226,121.627016 L190.44226,103.82362 C190.44226,63.8592371 157.757764,31.4617032 117.439394,31.4617032 C77.1210241,31.4617032 44.4365274,63.8592371 44.4365274,103.82362 C44.4365274,143.788004 77.1210241,176.185538 117.439394,176.185538 L127.100844,176.185538 C135.788753,176.185538 142.831695,183.22848 142.831695,191.916389 L142.831695,198.219968 C142.831695,203.426507 138.610962,207.647241 133.404423,207.647241 L117.439394,207.647241 C69.83857,207.647241 29.6539532,176.173464 16.9109273,133.075476 C7.20425252,130.696675 1.20936852e-14,121.936647 0,111.493975 L0,111.493975 L0,94.580181 C1.23066002e-14,83.9536611 7.46015394,75.0695535 17.4288976,72.8794224 C30.7112117,30.652137 70.4640013,0 117.439394,0 Z" id="形状结合"></path>
        </g>
    </g>
</svg>