<?xml version="1.0" encoding="UTF-8"?>
<svg width="564px" height="240px" viewBox="0 0 564 240" version="1.1" xmlns="http://www.w3.org/2000/svg" xmlns:xlink="http://www.w3.org/1999/xlink">
    <title>com_vivo_wallet_b_s5_2x1_sc</title>
    <g id="com_vivo_wallet" stroke="none" stroke-width="1" fill="none" fill-rule="evenodd">
        <g id="编组-11备份" transform="translate(103.000000, 166.000000)" fill="#4E4E4E">
            <path d="M62.2910004,15.0183144 L56.362836,15.0183144 C53.0303075,15.0183144 52.7340242,12.3070623 52.7340242,11.478664 C52.7340242,10.6502657 53.0303075,7.93901361 56.362836,7.93901361 L62.2910004,7.93901361 C65.6235289,7.93901361 65.9199437,10.6502657 65.9199437,11.478664 C65.9199437,12.3070623 65.6235289,15.0183144 62.2910004,15.0183144 M62.2910004,4.95745854 L56.362836,4.95745854 C50.2019341,4.95745854 49.653968,9.95251607 49.653968,11.478664 C49.653968,13.0049425 50.2019341,18 56.362836,18 L62.2910004,18 C68.4520339,18 69,13.0049425 69,11.478664 C69,9.95251607 68.4520339,4.95745854 62.2910004,4.95745854 M48.4642697,5.2632363 L46.5429019,5.2632363 C45.719966,5.2632363 45.5503794,5.40262961 45.2327827,5.86975383 C44.9155807,6.33700857 39.4197373,14.6606688 39.4197373,14.6606688 C39.2443618,14.9166147 39.0584612,15.0201156 38.8270392,15.0201156 C38.5957489,15.0201156 38.4098483,14.9166147 38.2344728,14.6606688 C38.2344728,14.6606688 32.7384978,6.33700857 32.4211642,5.86975383 C32.1035675,5.40262961 31.934244,5.2632363 31.1113081,5.2632363 L29.1898088,5.2632363 C28.7476205,5.2632363 28.5452743,5.60623782 28.8232701,6.02507035 C29.1012659,6.44390288 35.3872856,15.9127287 35.3872856,15.9127287 C36.4058579,17.3990686 37.1534074,17.9999739 38.8270392,17.9999739 C40.5006711,17.9999739 41.2483521,17.3990686 42.267056,15.9127287 C42.267056,15.9127287 48.5529442,6.44390288 48.8308084,6.02507035 C49.1088042,5.60623782 48.9065895,5.2632363 48.4642697,5.2632363 M22.9443503,6.07094746 C22.9443503,5.49249131 23.1755091,5.26330156 23.7584714,5.26330156 L25.2108118,5.26330156 C25.7936425,5.26330156 26.0248013,5.49249131 26.0248013,6.07094746 L26.0248013,17.1922627 C26.0248013,17.7707189 25.7936425,17.9999086 25.2108118,17.9999086 L23.7584714,17.9999086 C23.1755091,17.9999086 22.9443503,17.7707189 22.9443503,17.1922627 L22.9443503,6.07094746 Z M22.8120096,2.66708807 C22.3386406,2.19761453 22.3386406,1.82537696 22.8120096,1.3557729 L23.8234774,0.352219362 C24.296978,-0.117384699 24.6723315,-0.117384699 25.1454374,0.352088844 L26.1571683,1.3557729 C26.6302742,1.82537696 26.6302742,2.19761453 26.1571683,2.66708807 L25.1454374,3.67064161 C24.6723315,4.14024567 24.296978,4.14024567 23.8234774,3.67064161 L22.8120096,2.66708807 Z M19.7794744,5.2632363 L17.8581066,5.2632363 C17.0350391,5.2632363 16.8655841,5.40262961 16.548119,5.86975383 C16.2307854,6.33700857 10.7346788,14.6606688 10.7346788,14.6606688 C10.5594349,14.9166147 10.3735343,15.0201156 10.1421124,15.0201156 C9.91069042,15.0201156 9.72492136,14.9166147 9.54954589,14.6606688 C9.54954589,14.6606688 4.05357087,6.33700857 3.73623732,5.86975383 C3.41890377,5.40262961 3.24918558,5.2632363 2.42624969,5.2632363 L0.504881871,5.2632363 C0.0109887742,5.2632363 -0.139784132,5.60623782 0.138343201,6.02507035 C0.416338969,6.44390288 6.70222719,15.9127287 6.70222719,15.9127287 C7.72079947,17.3990686 8.46848047,17.9999739 10.1421124,17.9999739 C11.8157442,17.9999739 12.5634252,17.3990686 13.5821291,15.9127287 C13.5821291,15.9127287 19.8680173,6.44390288 20.1460131,6.02507035 C20.4238773,5.60623782 20.2732359,5.2632363 19.7794744,5.2632363" id="形状结合备份-3"></path>
        </g>
    </g>
</svg>