<?xml version="1.0" encoding="UTF-8"?>
<svg width="564px" height="564px" viewBox="0 0 564 564" version="1.1" xmlns="http://www.w3.org/2000/svg" xmlns:xlink="http://www.w3.org/1999/xlink">
    <title>com_bbk_cloud_b_s5_2x2_mc</title>
    <g id="com_bbk_cloud" stroke="none" stroke-width="1" fill="none" fill-rule="evenodd">
        <path d="M296.085221,272.287062 C295.189794,247.695573 274.971739,228.03452 250.161616,228.03452 C224.781622,228.03452 204.207071,248.609148 204.207071,273.989237 C204.207071,298.223995 222.966578,318.077219 246.756441,319.819705 L246.757576,305.253311 C246.757576,303.844985 247.89925,302.703311 249.307576,302.703311 C250.199789,302.703311 251.027114,303.169629 251.489103,303.932918 L283.561443,356.922199 C284.290676,358.127023 283.905133,359.694886 282.700309,360.424119 C282.302061,360.665163 281.845429,360.792592 281.379915,360.792592 L246.757576,360.792592 L246.756648,360.727034 C200.394889,358.938726 163.358586,320.789144 163.358586,273.989237 C163.358586,226.049068 202.221626,187.185882 250.161616,187.185882 C282.641138,187.185882 310.954238,205.024524 325.83798,231.438838 L325.844091,231.43723 L328.692828,233.137196 L336.96418,233.1406 L338.005597,233.149036 C339.95082,233.180575 341.874603,233.300309 343.773121,233.504414 L343.772559,271.502517 C342.578092,271.172978 341.348295,270.928013 340.08995,270.774508 L339.140945,270.676635 L338.617308,270.636245 L336.964646,272.287211 L296.085221,272.287062 Z" id="主色" fill="#000000"></path>
    </g>
</svg>