<?xml version="1.0" encoding="UTF-8"?>
<svg width="240px" height="564px" viewBox="0 0 240 564" version="1.1" xmlns="http://www.w3.org/2000/svg" xmlns:xlink="http://www.w3.org/1999/xlink">
    <title>com_vivo_minigamecenter_b_s5_1x2_mc</title>
    <defs>
        <path d="M61.5332448,-2.48601674e-15 L136.466755,2.48601674e-15 C157.863205,-1.44444732e-15 165.622075,2.22781467 173.444297,6.41118489 C181.266519,10.5945551 187.405445,16.7334809 191.588815,24.5557031 C195.772185,32.3779253 198,40.136795 198,61.5332448 L198,460.466755 C198,481.863205 195.772185,489.622075 191.588815,497.444297 C187.405445,505.266519 181.266519,511.405445 173.444297,515.588815 C165.622075,519.772185 157.863205,522 136.466755,522 L61.5332448,522 C40.136795,522 32.3779253,519.772185 24.5557031,515.588815 C16.7334809,511.405445 10.5945551,505.266519 6.41118489,497.444297 C2.22781467,489.622075 9.62964878e-16,481.863205 -1.65734449e-15,460.466755 L1.65734449e-15,61.5332448 C-9.62964878e-16,40.136795 2.22781467,32.3779253 6.41118489,24.5557031 C10.5945551,16.7334809 16.7334809,10.5945551 24.5557031,6.41118489 C32.3779253,2.22781467 40.136795,1.44444732e-15 61.5332448,-2.48601674e-15 Z" id="path-1"></path>
    </defs>
    <g id="com_vivo_minigamecenter" stroke="none" stroke-width="1" fill="none" fill-rule="evenodd">
        <g id="主色" transform="translate(21.000000, 21.000000)">
            <mask id="mask-2" fill="white">
                <use xlink:href="#path-1"></use>
            </mask>
            <g id="矩形"></g>
            <g id="编组-6" mask="url(#mask-2)">
                <g transform="translate(-92.944124, 239.486127)" id="编组-21">
                    <g transform="translate(0.000000, -0.000000)">
                        <g id="黄色icon" transform="translate(157.939270, 159.788684) rotate(-22.000000) translate(-157.939270, -159.788684) translate(37.577730, 36.080256)" fill="#000000">
                            <g id="编组备份" transform="translate(120.361540, 123.708429) rotate(30.000000) translate(-120.361540, -123.708429) translate(35.597666, 29.800685)">
                                <g id="Mask-Copy备份-5" transform="translate(-0.000000, 0.000000)">
                                    <g id="编组" transform="translate(-0.000000, 0.000000)">
                                        <path d="M88.5457624,1.40235276 C88.7665827,1.59220519 88.9727935,1.798416 89.1626459,2.01923625 L118.060215,35.6304385 C120.039008,37.932002 123.288617,38.6717513 126.068668,37.4535031 L161.398397,21.9716383 C164.33283,20.685738 167.754087,22.0221386 169.039987,24.9565724 C169.36167,25.6906541 169.527748,26.48343 169.527748,27.2849009 L169.527748,151.213793 C169.527748,171.428351 153.140611,187.815488 132.926053,187.815488 L37.2922931,187.815488 C16.6963283,187.815488 -2.15269226e-11,171.119159 -2.15294449e-11,150.523195 L-2.15294449e-11,27.2849009 C-2.153339e-11,24.0810841 2.59720663,21.4838775 5.80102337,21.4838775 C6.60249423,21.4838775 7.39527011,21.6499559 8.12935181,21.9716383 L43.4590804,37.4535031 C46.2391317,38.6717513 49.4887408,37.932002 51.4675331,35.6304385 L80.3651024,2.01923625 C82.4537816,-0.410138319 86.1163879,-0.686326464 88.5457624,1.40235276 Z M139.348499,74.7673804 L139.16978,74.8882506 L115.563616,91.738551 L53.5604114,92.7620247 L28.2580082,76.3903931 C27.5797085,75.9515069 26.7890193,75.7180113 25.9811137,75.7180113 C23.7364523,75.7180113 21.9039159,77.4825277 21.7949143,79.7001505 L21.7897848,79.9093401 L21.7897848,135.505207 C21.7897848,142.725076 27.5602102,148.59719 34.7406818,148.761169 L35.0492668,148.764689 L132.536711,148.764689 C139.75658,148.764689 145.628694,142.994264 145.792673,135.813792 L145.796193,135.505207 L145.796193,78.2996437 C145.796193,77.426526 145.523523,76.5752047 145.016258,75.8645595 C143.713425,74.0393761 141.216195,73.5721231 139.348499,74.7673804 Z M110.74508,112.028923 C116.053603,108.960051 122.841583,110.781257 125.90646,116.0967 C128.971335,121.412144 127.152501,128.208976 121.843981,131.27785 C116.535459,134.346722 109.747479,132.525516 106.682601,127.210073 C103.617726,121.894629 105.43656,115.097797 110.74508,112.028923 Z M48.2030029,111.520076 C53.5115251,108.451205 60.299505,110.27241 63.3643828,115.587853 C66.4292574,120.903298 64.6104237,127.70013 59.3019033,130.769004 C53.9933811,133.837875 47.2054012,132.01667 44.1405234,126.701227 C41.0756487,121.385782 42.8944825,114.588951 48.2030029,111.520076 Z" id="形状结合"></path>
                                    </g>
                                </g>
                            </g>
                        </g>
                    </g>
                </g>
            </g>
        </g>
    </g>
</svg>