<?xml version="1.0" encoding="UTF-8"?>
<svg width="564px" height="564px" viewBox="0 0 564 564" version="1.1" xmlns="http://www.w3.org/2000/svg" xmlns:xlink="http://www.w3.org/1999/xlink">
    <title>com_android_camera_packet_camerapacketactivity_b_s5_2x2_sc</title>
    <g id="com_android_camera_packet_camerapacketactivity" stroke="none" stroke-width="1" fill="none" fill-rule="evenodd">
        <g id="辅色" transform="translate(113.000000, 259.000000)" fill="#4E4E4E">
            <path d="M11.9851154,36.3722304 L11.9851154,0.992614476 L0,0.992614476 L0,47.0073855 L48.8623935,47.0073855 L48.8623935,36.3722304 L11.9851154,36.3722304 Z M139.558434,10.9896603 L139.558434,0.992614476 L87.4338202,0.992614476 L87.4338202,47.0073855 L139.558434,47.0073855 L139.558434,37.0103397 L99.1352642,37.0103397 L99.1352642,28.5731167 L138.210995,28.5731167 L138.210995,18.9305761 L99.1352642,18.9305761 L99.1352642,10.9896603 L139.558434,10.9896603 Z M237.588215,48 C241.70145,48 243.545313,45.94387 243.545313,43.4623338 L243.545313,0.992614476 L231.914787,0.992614476 L231.914787,32.7562777 L196.526784,3.11964549 C194.044659,0.992614476 192.413549,0 188.371232,0 C184.116161,0 182.20138,2.05612999 182.20138,5.31757755 L182.20138,47.0073855 L193.831906,47.0073855 L193.831906,15.5982275 L228.86532,45.1639586 C231.276527,47.1491876 233.191308,48 237.588215,48 Z M310.980302,48 C298.073255,48 289.066689,46.4401773 283.74785,45.0221566 L283.74785,34.8124077 L285.25115,35.1275009 C290.816139,36.2577829 300.31551,37.7902511 311.760398,37.7902511 L313.72982,37.777997 C324.114291,37.6419117 325.376624,36.3735682 325.376624,34.0324963 C325.376624,31.6218612 323.178171,30.8419498 319.27769,30.2747415 L299.775283,27.5096012 L298.235903,27.2707511 C289.768747,25.8808714 282.825918,23.3277779 282.825918,13.8966027 C282.825918,4.94909189 288.340656,0.136654324 308.952961,0.00286764969 L309.845616,0 C321.334307,0 330.269955,1.06351551 335.446958,2.12703102 L335.446958,12.3367799 L334.346796,12.149097 C329.170645,11.2914781 320.980627,10.2845416 310.965822,10.2137115 L308.465289,10.2132934 C296.896057,10.2751062 295.449294,11.155096 295.449294,13.6129985 C295.449294,15.9527326 298.073255,16.5908419 301.690065,17.1580502 L321.830732,19.9940916 C332.255655,21.4830133 338,24.8862629 338,33.8906942 C338,43.6041359 331.688312,48 310.980302,48 Z" id="LENS"></path>
        </g>
    </g>
</svg>