<?xml version="1.0" encoding="UTF-8"?>
<svg width="240px" height="240px" viewBox="0 0 240 240" version="1.1" xmlns="http://www.w3.org/2000/svg" xmlns:xlink="http://www.w3.org/1999/xlink">
    <title>com_bbk_cloud_b_s5_1x1_mc</title>
    <g id="com_bbk_cloud" stroke="none" stroke-width="1" fill="none" fill-rule="evenodd">
        <path d="M101,64 C120.083126,64 136.718273,74.4810465 145.462949,90.0006491 L145.466261,89.9992109 L147.14,90.998 L151.999726,91 L152.611597,91.0049569 C153.754488,91.0234869 154.884782,91.0938349 156.000231,91.2137538 L155.999901,113.538965 C155.298107,113.34535 154.575556,113.201424 153.836232,113.111234 L153.278656,113.053731 L152.971,113.03 L152,114 C151.990386,113.999687 151.990392,114.000021 151.990399,114.000355 L127.981847,114.000607 C127.456105,99.5519245 115.577101,88 101,88 C86.0883118,88 74,100.088312 74,115 C74,129.239134 85.0224759,140.90383 99.0004168,141.927079 L99,133.375117 C99,132.54669 99.6715729,131.875117 100.5,131.875117 C101.02483,131.875117 101.511492,132.149421 101.78325,132.598413 L120.621995,163.723296 C121.050957,164.432015 120.824168,165.354288 120.115449,165.78325 C119.881185,165.925041 119.612577,166 119.338745,166 L99,166 L99.000269,165.961514 C71.7606352,164.911236 50,142.496852 50,115 C50,86.8334778 72.8334778,64 101,64 Z" id="主色" fill="#000000"></path>
    </g>
</svg>