<?xml version="1.0" encoding="UTF-8"?>
<svg width="240px" height="240px" viewBox="0 0 240 240" version="1.1" xmlns="http://www.w3.org/2000/svg" xmlns:xlink="http://www.w3.org/1999/xlink">
    <title>com_vivo_gallery_b_s5_1x1_sc</title>
    <g id="com_vivo_gallery" stroke="none" stroke-width="1" fill="none" fill-rule="evenodd">
        <g id="辅色" transform="translate(110.739153, 59.280000)" fill="#4E4E4E">
            <path d="M43.5904808,38.8412991 C44.8804635,39.7050266 45.9886507,40.8132139 46.8523782,42.1031965 L72.176388,79.9247696 C75.4211882,84.7708997 74.1230538,91.3298946 69.2769237,94.5746947 C67.5385892,95.738623 65.4937104,96.36 63.4016933,96.36 L52.6629071,96.3604975 C53.3117889,93.1853969 52.7999224,89.7660773 50.9643353,86.7902013 L50.9643353,86.7902013 L25.1788466,44.9855901 L27.1093151,42.1031965 C30.7597152,36.6513002 38.1385845,35.190899 43.5904808,38.8412991 Z" id="形状结合"></path>
            <path d="M25.178,44.9865901 L50.9643353,86.7902013 C52.7999224,89.7660773 53.3117889,93.1853969 52.6629071,96.3604975 L10.56,96.36 C4.72787304,96.36 2.68229883e-13,91.632127 2.64677169e-13,85.8 C2.62900812e-13,83.7079829 0.621376974,81.6631041 1.78530526,79.9247696 L25.178,44.9865901 Z" id="形状结合" opacity="0.100000001"></path>
            <path d="M60.0808466,19.8 C65.5484657,19.8 69.9808466,15.367619 69.9808466,9.9 C69.9808466,4.43238098 65.5484657,0 60.0808466,0 C54.6132276,0 50.1808466,4.43238098 50.1808466,9.9 C50.1808466,15.367619 54.6132276,19.8 60.0808466,19.8 Z" id="太阳"></path>
        </g>
    </g>
</svg>