<?xml version="1.0" encoding="UTF-8"?>
<svg width="564px" height="240px" viewBox="0 0 564 240" version="1.1" xmlns="http://www.w3.org/2000/svg" xmlns:xlink="http://www.w3.org/1999/xlink">
    <title>com_android_dialer_b_s5_2x1_mc</title>
    <g id="com_android_dialer" stroke="none" stroke-width="1" fill="none" fill-rule="evenodd">
        <path d="M314.462685,144.692404 L318.631905,150.861594 L318.631905,150.861594 L321.013043,154.377797 L321.013043,154.377797 L324.130429,159.006814 L324.130429,159.006814 L325.54889,161.124258 L325.54889,161.124258 C327.375847,163.413849 327.025934,166.753605 324.750216,168.597683 C324.397464,168.883528 324.009467,169.122894 323.595704,169.30982 L323.324657,169.43117 L323.324657,169.43117 L322.811657,169.654062 L322.811657,169.654062 C294.264848,181.780926 260.465851,170.92709 244.524687,143.316184 C228.982698,116.396669 235.722424,82.7408218 259.030316,63.7802265 L259.818358,63.1507958 L259.818358,63.1507958 L260.28779,62.8075746 C263.27365,60.6771213 267.421242,61.3705656 269.551695,64.3564259 C269.692997,64.5544622 269.823257,64.7600379 269.941913,64.9722079 L270.111124,65.2952908 L270.111124,65.2952908 L278.317895,82.1352657 C279.620583,84.8109074 279.041655,88.0102259 276.912996,90.0597225 L276.708904,90.2484431 L276.708904,90.2484431 L276.062615,90.8349569 L275.512876,91.3553269 C274.874086,91.9723797 274.244771,92.6240049 273.629878,93.3073823 L273.106474,93.9008447 C272.93326,94.1012137 272.761338,94.3041089 272.590825,94.5094646 L272.083625,95.1328473 C264.961394,104.066809 260.590757,117.326201 267.828232,129.861876 C275.986942,143.993176 292.325936,145.808831 304.214113,142.681155 L304.951215,142.479305 C305.073061,142.444613 305.194396,142.409401 305.315205,142.373678 L305.758123,142.238689 L305.758123,142.238689 L306.11937,142.111207 C306.169092,142.092992 306.222009,142.073427 306.27812,142.052512 C309.288445,140.930445 312.675328,142.022864 314.462685,144.692404 Z" id="主色" fill="#000000"></path>
    </g>
</svg>