<?xml version="1.0" encoding="UTF-8"?>
<svg width="564px" height="564px" viewBox="0 0 564 564" version="1.1" xmlns="http://www.w3.org/2000/svg" xmlns:xlink="http://www.w3.org/1999/xlink">
    <title>com_android_dialer_b_s5_2x2_mc</title>
    <g id="com_android_dialer" stroke="none" stroke-width="1" fill="none" fill-rule="evenodd">
        <path d="M337.752146,324.526497 L344.848242,335.026622 L344.848242,335.026622 L348.900987,341.011293 L348.900987,341.011293 L354.20684,348.890004 L354.20684,348.890004 L356.62109,352.493949 L356.62109,352.493949 C359.730608,356.390895 359.13505,362.075247 355.261732,365.213918 C354.661341,365.700434 354.000961,366.10784 353.296728,366.425993 L352.835401,366.632535 L352.835401,366.632535 L351.962265,367.011902 L351.962265,367.011902 C303.375019,387.652147 245.848444,369.178629 218.716261,322.184134 C192.263481,276.366404 203.734631,219.083259 243.405134,186.811822 L244.746397,185.740514 L244.746397,185.740514 L245.54538,185.156343 C250.627375,181.530255 257.686659,182.710515 261.312734,187.792529 C261.553232,188.129592 261.774938,188.479487 261.976893,188.840606 L262.264893,189.390502 L262.264893,189.390502 L276.232983,218.052586 C278.450184,222.6066 277.464836,228.051925 273.841816,231.540222 L273.494448,231.86143 L273.494448,231.86143 L272.39445,232.859692 L271.458783,233.745375 C270.37155,234.795616 269.300444,235.904699 268.253883,237.067826 L267.363038,238.077914 C267.068225,238.418948 266.775611,238.764281 266.485394,239.113802 L265.622129,240.174816 C253.499948,255.380656 246.061035,277.948493 258.379365,299.284545 C272.265654,323.336392 300.074951,326.426687 320.30887,321.103298 L321.563431,320.759744 C321.770816,320.700697 321.977331,320.640766 322.18295,320.579964 L322.936804,320.350209 L322.936804,320.350209 L323.551655,320.133232 C323.636283,320.102229 323.726348,320.068929 323.821851,320.033331 C328.945484,318.123543 334.710028,319.982869 337.752146,324.526497 Z" id="主色" fill="#000000"></path>
    </g>
</svg>