<?xml version="1.0" encoding="UTF-8"?>
<svg width="240px" height="240px" viewBox="0 0 240 240" version="1.1" xmlns="http://www.w3.org/2000/svg" xmlns:xlink="http://www.w3.org/1999/xlink">
    <title>com_vivo_vivoconsole_b_s5_1x1_bg</title>
    <g id="com_vivo_vivoconsole" stroke="none" stroke-width="1" fill="none" fill-rule="evenodd">
        <g id="背景色" transform="translate(21.000000, 21.000000)" fill="#CBCBCB">
            <path d="M60.8620847,0.000740230262 L137.137915,0.000740230262 L137.137915,0.000740230262 L139.097955,0.0118284418 L139.097955,0.0118284418 L140.361073,0.0265911305 L140.361073,0.0265911305 L142.192306,0.0597528791 L142.192306,0.0597528791 L143.37195,0.0891836267 L143.37195,0.0891836267 L144.519547,0.124454924 L144.519547,0.124454924 L145.635863,0.165551528 L145.635863,0.165551528 L146.721666,0.212458196 L146.721666,0.212458196 L148.294836,0.293678728 L148.294836,0.293678728 L149.803666,0.387886166 L149.803666,0.387886166 L150.775086,0.45788067 L150.775086,0.45788067 L151.719828,0.533609026 L151.719828,0.533609026 L153.088598,0.657919191 L153.088598,0.657919191 L153.97,0.747915493 L153.97,0.747915493 L154.82741,0.8435923 L154.82741,0.8435923 L155.661593,0.944934369 L155.661593,0.944934369 L156.473316,1.05192646 L156.473316,1.05192646 L157.263347,1.16455332 L157.263347,1.16455332 L158.032453,1.28279972 L158.032453,1.28279972 L158.781401,1.40665042 C158.904589,1.42775838 159.026968,1.44909921 159.148556,1.47067261 L159.868704,1.60290116 L159.868704,1.60290116 L160.570612,1.7406959 L160.570612,1.7406959 L161.255047,1.88404158 L161.255047,1.88404158 L161.922775,2.03292297 L161.922775,2.03292297 L162.574564,2.18732481 L162.574564,2.18732481 L163.21118,2.34723187 L163.21118,2.34723187 L163.833391,2.51262891 L163.833391,2.51262891 L164.441963,2.68350068 C164.542298,2.71243469 164.642096,2.74159617 164.741375,2.77098482 L165.621261,3.04160744 L165.621261,3.04160744 L166.193521,3.22881195 L166.193521,3.22881195 L166.755211,3.42143022 L166.755211,3.42143022 L167.307097,3.61944702 L167.307097,3.61944702 L167.849947,3.82284709 L167.849947,3.82284709 L168.384529,4.03161519 L168.384529,4.03161519 L168.911608,4.24573609 L168.911608,4.24573609 L169.689839,4.57692059 L169.689839,4.57692059 L170.20152,4.80435678 L170.20152,4.80435678 L170.960247,5.15544278 L170.960247,5.15544278 L171.710725,5.51840108 L171.710725,5.51840108 L172.207738,5.7669436 L172.207738,5.7669436 L172.703002,6.0207246 L172.703002,6.0207246 L173.197284,6.27972883 L173.197284,6.27972883 L173.444297,6.41118489 C181.080276,10.4949511 187.112161,16.4422597 191.286681,23.9998394 L191.720271,24.8027156 L191.720271,24.8027156 L191.979275,25.2969977 L191.979275,25.2969977 L192.233056,25.7922619 L192.233056,25.7922619 L192.603901,26.5386775 L192.603901,26.5386775 L192.844557,27.0397527 L192.844557,27.0397527 L193.195643,27.7984805 L193.195643,27.7984805 L193.423079,28.3101608 L193.423079,28.3101608 L193.645201,28.8274255 L193.645201,28.8274255 L193.968385,29.6154711 L193.968385,29.6154711 L194.177153,30.1500526 L194.177153,30.1500526 L194.380553,30.692903 L194.380553,30.692903 L194.57857,31.2447895 L194.57857,31.2447895 L194.771188,31.8064791 L194.771188,31.8064791 L194.958393,32.3787388 L194.958393,32.3787388 L195.140168,32.9623358 C195.170011,33.0605893 195.199627,33.1593472 195.229015,33.2586254 L195.402619,33.8606664 L195.402619,33.8606664 L195.570755,34.4759621 L195.570755,34.4759621 L195.733409,35.1052797 L195.733409,35.1052797 L195.890565,35.7493862 C195.916299,35.8580123 195.941803,35.9672866 195.967077,36.077225 L196.115958,36.7449531 L196.115958,36.7449531 L196.259304,37.4293876 L196.259304,37.4293876 L196.397099,38.1312958 L196.397099,38.1312958 L196.529327,38.8514445 L196.529327,38.8514445 L196.655975,39.5906008 L196.655975,39.5906008 L196.777025,40.3495318 L196.777025,40.3495318 L196.892464,41.1290046 L196.892464,41.1290046 L197.002275,41.9297861 L197.002275,41.9297861 L197.106444,42.7526435 L197.106444,42.7526435 L197.252085,44.0299996 L197.252085,44.0299996 L197.342081,44.9114023 L197.342081,44.9114023 L197.426381,45.8175655 L197.426381,45.8175655 L197.542119,47.2249141 L197.542119,47.2249141 L197.612114,48.1963343 L197.612114,48.1963343 L197.676359,49.1951996 L197.676359,49.1951996 L197.73484,50.2222771 L197.73484,50.2222771 L197.787542,51.2783338 L197.787542,51.2783338 L197.834448,52.3641368 L197.834448,52.3641368 L197.875545,53.4804531 L197.875545,53.4804531 L197.926263,55.2138179 L197.926263,55.2138179 L197.952768,56.4097732 L197.952768,56.4097732 L197.973409,57.6389266 L197.973409,57.6389266 L197.988172,58.9020449 L197.988172,58.9020449 L197.99704,60.1998953 L197.99704,60.1998953 L198,61.5332448 L198,61.5332448 L198,137.137915 L198,137.137915 L197.988172,139.097955 L197.988172,139.097955 L197.973409,140.361073 L197.973409,140.361073 L197.940247,142.192306 L197.940247,142.192306 L197.910816,143.37195 L197.910816,143.37195 L197.875545,144.519547 L197.875545,144.519547 L197.834448,145.635863 L197.834448,145.635863 L197.787542,146.721666 L197.787542,146.721666 L197.706321,148.294836 L197.706321,148.294836 L197.612114,149.803666 L197.612114,149.803666 L197.542119,150.775086 L197.542119,150.775086 L197.466391,151.719828 L197.466391,151.719828 L197.342081,153.088598 L197.342081,153.088598 L197.252085,153.97 L197.252085,153.97 L197.156408,154.82741 L197.156408,154.82741 L197.055066,155.661593 L197.055066,155.661593 L196.948074,156.473316 L196.948074,156.473316 L196.835447,157.263347 L196.835447,157.263347 L196.7172,158.032453 L196.7172,158.032453 L196.59335,158.781401 C196.572242,158.904589 196.550901,159.026968 196.529327,159.148556 L196.397099,159.868704 L196.397099,159.868704 L196.259304,160.570612 L196.259304,160.570612 L196.115958,161.255047 L196.115958,161.255047 L195.967077,161.922775 L195.967077,161.922775 L195.812675,162.574564 L195.812675,162.574564 L195.652768,163.21118 L195.652768,163.21118 L195.487371,163.833391 L195.487371,163.833391 L195.316499,164.441963 C195.287565,164.542298 195.258404,164.642096 195.229015,164.741375 L194.958393,165.621261 L194.958393,165.621261 L194.771188,166.193521 L194.771188,166.193521 L194.57857,166.755211 L194.57857,166.755211 L194.380553,167.307097 L194.380553,167.307097 L194.177153,167.849947 L194.177153,167.849947 L193.968385,168.384529 L193.968385,168.384529 L193.754264,168.911608 L193.754264,168.911608 L193.423079,169.689839 L193.423079,169.689839 L193.195643,170.20152 L193.195643,170.20152 L192.844557,170.960247 L192.844557,170.960247 L192.481599,171.710725 L192.481599,171.710725 L192.233056,172.207738 L192.233056,172.207738 L191.979275,172.703002 L191.979275,172.703002 L191.720271,173.197284 L191.720271,173.197284 L191.588815,173.444297 C187.505049,181.080276 181.55774,187.112161 174.000161,191.286681 L173.197284,191.720271 L173.197284,191.720271 L172.703002,191.979275 L172.703002,191.979275 L172.207738,192.233056 L172.207738,192.233056 L171.461323,192.603901 L171.461323,192.603901 L170.960247,192.844557 L170.960247,192.844557 L170.20152,193.195643 L170.20152,193.195643 L169.689839,193.423079 L169.689839,193.423079 L169.172574,193.645201 L169.172574,193.645201 L168.384529,193.968385 L168.384529,193.968385 L167.849947,194.177153 L167.849947,194.177153 L167.307097,194.380553 L167.307097,194.380553 L166.755211,194.57857 L166.755211,194.57857 L166.193521,194.771188 L166.193521,194.771188 L165.621261,194.958393 L165.621261,194.958393 L165.037664,195.140168 C164.939411,195.170011 164.840653,195.199627 164.741375,195.229015 L164.139334,195.402619 L164.139334,195.402619 L163.524038,195.570755 L163.524038,195.570755 L162.89472,195.733409 L162.89472,195.733409 L162.250614,195.890565 C162.141988,195.916299 162.032713,195.941803 161.922775,195.967077 L161.255047,196.115958 L161.255047,196.115958 L160.570612,196.259304 L160.570612,196.259304 L159.868704,196.397099 L159.868704,196.397099 L159.148556,196.529327 L159.148556,196.529327 L158.409399,196.655975 L158.409399,196.655975 L157.650468,196.777025 L157.650468,196.777025 L156.870995,196.892464 L156.870995,196.892464 L156.070214,197.002275 L156.070214,197.002275 L155.247357,197.106444 L155.247357,197.106444 L153.97,197.252085 L153.97,197.252085 L153.088598,197.342081 L153.088598,197.342081 L152.182435,197.426381 L152.182435,197.426381 L150.775086,197.542119 L150.775086,197.542119 L149.803666,197.612114 L149.803666,197.612114 L148.8048,197.676359 L148.8048,197.676359 L147.777723,197.73484 L147.777723,197.73484 L146.721666,197.787542 L146.721666,197.787542 L145.635863,197.834448 L145.635863,197.834448 L144.519547,197.875545 L144.519547,197.875545 L142.786182,197.926263 L142.786182,197.926263 L141.590227,197.952768 L141.590227,197.952768 L140.361073,197.973409 L140.361073,197.973409 L139.097955,197.988172 L139.097955,197.988172 L137.800105,197.99704 L137.800105,197.99704 L136.466755,198 L136.466755,198 L60.8620847,198 L60.8620847,198 L58.9020449,197.988172 L58.9020449,197.988172 L57.6389266,197.973409 L57.6389266,197.973409 L55.8076937,197.940247 L55.8076937,197.940247 L54.6280497,197.910816 L54.6280497,197.910816 L53.4804531,197.875545 L53.4804531,197.875545 L52.3641368,197.834448 L52.3641368,197.834448 L51.2783338,197.787542 L51.2783338,197.787542 L49.7051639,197.706321 L49.7051639,197.706321 L48.1963343,197.612114 L48.1963343,197.612114 L47.2249141,197.542119 L47.2249141,197.542119 L46.280172,197.466391 L46.280172,197.466391 L44.9114023,197.342081 L44.9114023,197.342081 L44.0299996,197.252085 L44.0299996,197.252085 L43.1725903,197.156408 L43.1725903,197.156408 L42.3384074,197.055066 L42.3384074,197.055066 L41.5266838,196.948074 L41.5266838,196.948074 L40.7366526,196.835447 L40.7366526,196.835447 L39.9675465,196.7172 L39.9675465,196.7172 L39.2185987,196.59335 C39.0954113,196.572242 38.9730319,196.550901 38.8514445,196.529327 L38.1312958,196.397099 L38.1312958,196.397099 L37.4293876,196.259304 L37.4293876,196.259304 L36.7449531,196.115958 L36.7449531,196.115958 L36.077225,195.967077 L36.077225,195.967077 L35.4254364,195.812675 L35.4254364,195.812675 L34.7888203,195.652768 L34.7888203,195.652768 L34.1666095,195.487371 L34.1666095,195.487371 L33.558037,195.316499 C33.4577022,195.287565 33.3579036,195.258404 33.2586254,195.229015 L32.3787388,194.958393 L32.3787388,194.958393 L31.8064791,194.771188 L31.8064791,194.771188 L31.2447895,194.57857 L31.2447895,194.57857 L30.692903,194.380553 L30.692903,194.380553 L30.1500526,194.177153 L30.1500526,194.177153 L29.6154711,193.968385 L29.6154711,193.968385 L29.0883917,193.754264 L29.0883917,193.754264 L28.3101608,193.423079 L28.3101608,193.423079 L27.7984805,193.195643 L27.7984805,193.195643 L27.0397527,192.844557 L27.0397527,192.844557 L26.2892752,192.481599 L26.2892752,192.481599 L25.7922619,192.233056 L25.7922619,192.233056 L25.2969977,191.979275 L25.2969977,191.979275 L24.8027156,191.720271 L24.8027156,191.720271 L24.5557031,191.588815 C16.9197243,187.505049 10.8878392,181.55774 6.71331915,174.000161 L6.27972883,173.197284 L6.27972883,173.197284 L6.0207246,172.703002 L6.0207246,172.703002 L5.7669436,172.207738 L5.7669436,172.207738 L5.39609901,171.461323 L5.39609901,171.461323 L5.15544278,170.960247 L5.15544278,170.960247 L4.80435678,170.20152 L4.80435678,170.20152 L4.57692059,169.689839 L4.57692059,169.689839 L4.35479908,169.172574 L4.35479908,169.172574 L4.03161519,168.384529 L4.03161519,168.384529 L3.82284709,167.849947 L3.82284709,167.849947 L3.61944702,167.307097 L3.61944702,167.307097 L3.42143022,166.755211 L3.42143022,166.755211 L3.22881195,166.193521 L3.22881195,166.193521 L3.04160744,165.621261 L3.04160744,165.621261 L2.85983193,165.037664 C2.82998928,164.939411 2.80037347,164.840653 2.77098482,164.741375 L2.5973814,164.139334 L2.5973814,164.139334 L2.4292451,163.524038 L2.4292451,163.524038 L2.26659114,162.89472 L2.26659114,162.89472 L2.10943479,162.250614 C2.08370104,162.141988 2.05819699,162.032713 2.03292297,161.922775 L1.88404158,161.255047 L1.88404158,161.255047 L1.7406959,160.570612 L1.7406959,160.570612 L1.60290116,159.868704 L1.60290116,159.868704 L1.47067261,159.148556 L1.47067261,159.148556 L1.34402549,158.409399 L1.34402549,158.409399 L1.22297503,157.650468 L1.22297503,157.650468 L1.1075365,156.870995 L1.1075365,156.870995 L0.997725113,156.070214 L0.997725113,156.070214 L0.893556129,155.247357 L0.893556129,155.247357 L0.747915493,153.97 L0.747915493,153.97 L0.657919191,153.088598 L0.657919191,153.088598 L0.573618635,152.182435 L0.573618635,152.182435 L0.45788067,150.775086 L0.45788067,150.775086 L0.387886166,149.803666 L0.387886166,149.803666 L0.323640758,148.8048 L0.323640758,148.8048 L0.265159687,147.777723 L0.265159687,147.777723 L0.212458196,146.721666 L0.212458196,146.721666 L0.165551528,145.635863 L0.165551528,145.635863 L0.124454924,144.519547 L0.124454924,144.519547 L0.0737372316,142.786182 L0.0737372316,142.786182 L0.0472324746,141.590227 L0.0472324746,141.590227 L0.0265911305,140.361073 L0.0265911305,140.361073 L0.0118284418,139.097955 L0.0118284418,139.097955 L0.00295965085,137.800105 L0.00295965085,137.800105 L-1.65734449e-15,136.466755 L-1.65734449e-15,136.466755 L-1.65734449e-15,60.8620847 L-1.65734449e-15,60.8620847 L0.0118284418,58.9020449 L0.0118284418,58.9020449 L0.0265911305,57.6389266 L0.0265911305,57.6389266 L0.0597528791,55.8076937 L0.0597528791,55.8076937 L0.0891836267,54.6280497 L0.0891836267,54.6280497 L0.124454924,53.4804531 L0.124454924,53.4804531 L0.165551528,52.3641368 L0.165551528,52.3641368 L0.212458196,51.2783338 L0.212458196,51.2783338 L0.293678728,49.7051639 L0.293678728,49.7051639 L0.387886166,48.1963343 L0.387886166,48.1963343 L0.45788067,47.2249141 L0.45788067,47.2249141 L0.533609026,46.280172 L0.533609026,46.280172 L0.657919191,44.9114023 L0.657919191,44.9114023 L0.747915493,44.0299996 L0.747915493,44.0299996 L0.8435923,43.1725903 L0.8435923,43.1725903 L0.944934369,42.3384074 L0.944934369,42.3384074 L1.05192646,41.5266838 L1.05192646,41.5266838 L1.16455332,40.7366526 L1.16455332,40.7366526 L1.28279972,39.9675465 L1.28279972,39.9675465 L1.40665042,39.2185987 C1.42775838,39.0954113 1.44909921,38.9730319 1.47067261,38.8514445 L1.60290116,38.1312958 L1.60290116,38.1312958 L1.7406959,37.4293876 L1.7406959,37.4293876 L1.88404158,36.7449531 L1.88404158,36.7449531 L2.03292297,36.077225 L2.03292297,36.077225 L2.18732481,35.4254364 L2.18732481,35.4254364 L2.34723187,34.7888203 L2.34723187,34.7888203 L2.51262891,34.1666095 L2.51262891,34.1666095 L2.68350068,33.558037 C2.71243469,33.4577022 2.74159617,33.3579036 2.77098482,33.2586254 L3.04160744,32.3787388 L3.04160744,32.3787388 L3.22881195,31.8064791 L3.22881195,31.8064791 L3.42143022,31.2447895 L3.42143022,31.2447895 L3.61944702,30.692903 L3.61944702,30.692903 L3.82284709,30.1500526 L3.82284709,30.1500526 L4.03161519,29.6154711 L4.03161519,29.6154711 L4.24573609,29.0883917 L4.24573609,29.0883917 L4.57692059,28.3101608 L4.57692059,28.3101608 L4.80435678,27.7984805 L4.80435678,27.7984805 L5.15544278,27.0397527 L5.15544278,27.0397527 L5.51840108,26.2892752 L5.51840108,26.2892752 L5.7669436,25.7922619 L5.7669436,25.7922619 L6.0207246,25.2969977 L6.0207246,25.2969977 L6.27972883,24.8027156 L6.27972883,24.8027156 L6.41118489,24.5557031 C10.4949511,16.9197243 16.4422597,10.8878392 23.9998394,6.71331915 L24.8027156,6.27972883 L24.8027156,6.27972883 L25.2969977,6.0207246 L25.2969977,6.0207246 L25.7922619,5.7669436 L25.7922619,5.7669436 L26.5386775,5.39609901 L26.5386775,5.39609901 L27.0397527,5.15544278 L27.0397527,5.15544278 L27.7984805,4.80435678 L27.7984805,4.80435678 L28.3101608,4.57692059 L28.3101608,4.57692059 L28.8274255,4.35479908 L28.8274255,4.35479908 L29.6154711,4.03161519 L29.6154711,4.03161519 L30.1500526,3.82284709 L30.1500526,3.82284709 L30.692903,3.61944702 L30.692903,3.61944702 L31.2447895,3.42143022 L31.2447895,3.42143022 L31.8064791,3.22881195 L31.8064791,3.22881195 L32.3787388,3.04160744 L32.3787388,3.04160744 L32.9623358,2.85983193 C33.0605893,2.82998928 33.1593472,2.80037347 33.2586254,2.77098482 L33.8606664,2.5973814 L33.8606664,2.5973814 L34.4759621,2.4292451 L34.4759621,2.4292451 L35.1052797,2.26659114 L35.1052797,2.26659114 L35.7493862,2.10943479 C35.8580123,2.08370104 35.9672866,2.05819699 36.077225,2.03292297 L36.7449531,1.88404158 L36.7449531,1.88404158 L37.4293876,1.7406959 L37.4293876,1.7406959 L38.1312958,1.60290116 L38.1312958,1.60290116 L38.8514445,1.47067261 L38.8514445,1.47067261 L39.5906008,1.34402549 L39.5906008,1.34402549 L40.3495318,1.22297503 L40.3495318,1.22297503 L41.1290046,1.1075365 L41.1290046,1.1075365 L41.9297861,0.997725113 L41.9297861,0.997725113 L42.7526435,0.893556129 L42.7526435,0.893556129 L44.0299996,0.747915493 L44.0299996,0.747915493 L44.9114023,0.657919191 L44.9114023,0.657919191 L45.8175655,0.573618635 L45.8175655,0.573618635 L47.2249141,0.45788067 L47.2249141,0.45788067 L48.1963343,0.387886166 L48.1963343,0.387886166 L49.1951996,0.323640758 L49.1951996,0.323640758 L50.2222771,0.265159687 L50.2222771,0.265159687 L51.2783338,0.212458196 L51.2783338,0.212458196 L52.3641368,0.165551528 L52.3641368,0.165551528 L53.4804531,0.124454924 L53.4804531,0.124454924 L55.2138179,0.0737372316 L55.2138179,0.0737372316 L56.4097732,0.0472324746 L56.4097732,0.0472324746 L57.6389266,0.0265911305 L57.6389266,0.0265911305 L58.9020449,0.0118284418 L58.9020449,0.0118284418 L60.1998953,0.00295965085 C60.4191407,0.000740230262 60.6398651,0.000740230262 60.8620847,0.000740230262 L60.8620847,0.000740230262 Z" id="蒙版"></path>
        </g>
    </g>
</svg>