<?xml version="1.0" encoding="UTF-8"?>
<svg width="240px" height="240px" viewBox="0 0 240 240" version="1.1" xmlns="http://www.w3.org/2000/svg" xmlns:xlink="http://www.w3.org/1999/xlink">
    <title>com_vivo_minigamecenter_b_s5_1x1_mc</title>
    <defs>
        <path d="M61.5332448,-2.48601674e-15 L136.466755,2.48601674e-15 C157.863205,-1.44444732e-15 165.622075,2.22781467 173.444297,6.41118489 C181.266519,10.5945551 187.405445,16.7334809 191.588815,24.5557031 C195.772185,32.3779253 198,40.136795 198,61.5332448 L198,136.466755 C198,157.863205 195.772185,165.622075 191.588815,173.444297 C187.405445,181.266519 181.266519,187.405445 173.444297,191.588815 C165.622075,195.772185 157.863205,198 136.466755,198 L61.5332448,198 C40.136795,198 32.3779253,195.772185 24.5557031,191.588815 C16.7334809,187.405445 10.5945551,181.266519 6.41118489,173.444297 C2.22781467,165.622075 9.62964878e-16,157.863205 -1.65734449e-15,136.466755 L1.65734449e-15,61.5332448 C-9.62964878e-16,40.136795 2.22781467,32.3779253 6.41118489,24.5557031 C10.5945551,16.7334809 16.7334809,10.5945551 24.5557031,6.41118489 C32.3779253,2.22781467 40.136795,1.44444732e-15 61.5332448,-2.48601674e-15 Z" id="path-1"></path>
    </defs>
    <g id="com_vivo_minigamecenter" stroke="none" stroke-width="1" fill="none" fill-rule="evenodd">
        <g id="主色" transform="translate(21.000000, 21.000000)">
            <mask id="mask-2" fill="white">
                <use xlink:href="#path-1"></use>
            </mask>
            <g id="蒙版"></g>
            <path d="M110.098934,77.4988966 C110.257652,77.6797179 110.40265,77.8721361 110.532718,78.074547 L127.483405,104.453096 C128.849501,106.579006 131.442597,107.565049 133.876076,106.883956 L159.818678,99.6230238 C162.389722,98.9034285 165.057313,100.404324 165.776908,102.975368 C165.955807,103.617793 166.001605,104.290479 165.908761,104.951099 L153.892929,190.448191 C151.548493,207.129717 136.124904,218.752225 119.443378,216.407789 L57.1514143,207.653225 C40.1551425,205.264555 28.3133416,189.549954 30.7020119,172.553682 L42.6377505,87.6264887 C43.0093215,84.9826241 45.4538149,83.1405662 48.0976794,83.5121372 C48.7582996,83.6049813 49.3925533,83.8335525 49.9605306,84.183468 L72.8967761,98.3138745 C75.048252,99.6393411 77.8126855,99.4062492 79.7118414,97.7392408 L103.276802,77.0547946 C105.283317,75.2935502 108.33769,75.4923815 110.098934,77.4988966 Z M53.1593745,127.763215 L53.1275857,127.952269 L47.7445814,166.254335 C46.9087575,172.201531 50.9733053,177.707374 56.862444,178.690165 L57.1488134,178.734172 L125.435206,188.331199 C131.382402,189.167023 136.888245,185.102475 137.871036,179.213336 L137.915043,178.926967 L143.45633,139.49866 C143.55749,138.77887 143.431569,138.045452 143.096118,137.400625 C142.236569,135.748342 140.240903,135.070888 138.563996,135.827424 L138.385613,135.913989 L120.213919,145.367246 L75.0242325,139.774173 L58.8718649,125.797162 C58.3632892,125.35708 57.7384717,125.073188 57.0724685,124.979587 C55.22591,124.72007 53.5139571,125.955086 53.1593745,127.763215 Z M114.639312,159.609624 C118.812579,157.923514 123.562542,159.939754 125.248652,164.113021 C126.934761,168.286288 124.918521,173.036251 120.745254,174.722361 C116.571987,176.40847 111.822024,174.39223 110.135915,170.218963 C108.449805,166.045696 110.466045,161.295733 114.639312,159.609624 Z M79.8235157,157.352113 C81.509625,161.52538 79.4933853,166.275344 75.3201182,167.961453 C71.1468511,169.647562 66.396888,167.631323 64.7107786,163.458056 C63.0246692,159.284788 65.040909,154.534825 69.2141761,152.848716 C73.3874432,151.162607 78.1374063,153.178846 79.8235157,157.352113 Z" id="形状结合" fill="#000000" fill-rule="nonzero" mask="url(#mask-2)"></path>
        </g>
    </g>
</svg>