<?xml version="1.0" encoding="UTF-8"?>
<svg width="564px" height="564px" viewBox="0 0 564 564" version="1.1" xmlns="http://www.w3.org/2000/svg" xmlns:xlink="http://www.w3.org/1999/xlink">
    <title>com_vivo_vivoconsole_b_s5_2x2_mc</title>
    <defs>
        <path d="M61.5332448,-2.48601674e-15 L460.466755,2.48601674e-15 C481.863205,-1.44444732e-15 489.622075,2.22781467 497.444297,6.41118489 C505.266519,10.5945551 511.405445,16.7334809 515.588815,24.5557031 C519.772185,32.3779253 522,40.136795 522,61.5332448 L522,460.466755 C522,481.863205 519.772185,489.622075 515.588815,497.444297 C511.405445,505.266519 505.266519,511.405445 497.444297,515.588815 C489.622075,519.772185 481.863205,522 460.466755,522 L61.5332448,522 C40.136795,522 32.3779253,519.772185 24.5557031,515.588815 C16.7334809,511.405445 10.5945551,505.266519 6.41118489,497.444297 C2.22781467,489.622075 9.62964878e-16,481.863205 -1.65734449e-15,460.466755 L1.65734449e-15,61.5332448 C-9.62964878e-16,40.136795 2.22781467,32.3779253 6.41118489,24.5557031 C10.5945551,16.7334809 16.7334809,10.5945551 24.5557031,6.41118489 C32.3779253,2.22781467 40.136795,1.44444732e-15 61.5332448,-2.48601674e-15 Z" id="path-1"></path>
    </defs>
    <g id="com_vivo_vivoconsole" stroke="none" stroke-width="1" fill="none" fill-rule="evenodd">
        <g id="主色" transform="translate(21.000000, 21.000000)">
            <mask id="mask-2" fill="white">
                <use xlink:href="#path-1"></use>
            </mask>
            <g id="背景"></g>
            <path d="M373.312785,594.479371 C367.250827,594.479371 361.186941,592.911361 355.753533,589.774376 L151.365594,471.770745 C140.499891,465.497418 133.806342,453.903831 133.806342,441.357177 L133.806342,205.349914 C133.806342,199.527439 135.247846,193.910214 137.878866,188.934696 C140.268993,184.41473 143.640787,180.424343 147.80533,177.290748 L148.850331,176.534118 C149.661443,175.969257 150.500289,175.435931 151.365594,174.936346 L355.753533,56.932715 C366.619236,50.6593879 380.006334,50.6593879 390.872037,56.932715 L550.114923,148.872494 L597.744094,176.512453 C602.047419,179.502402 605.571939,183.379243 608.127981,187.814452 L608.746705,188.934696 L373.312785,324.649137 L373.312785,456.041002 L372.818326,456.035441 C369.192764,455.953877 365.58288,454.975108 362.333605,453.099135 L362.333605,453.099135 L266.439561,397.73459 L266.084404,397.525086 C259.500075,393.557574 255.460408,386.425444 255.460408,378.718123 L255.460408,378.718123 L255.460408,267.988968 L255.466652,267.464353 C255.54562,264.147824 256.371624,260.949539 257.824259,258.078045 L257.824259,258.078045 L182.931173,214.907283 C180.666411,219.234208 179.426617,224.109749 179.426617,229.161819 L179.426617,229.161819 L179.426617,417.545272 C179.426617,428.528203 185.285937,438.676852 194.797431,444.168325 L194.797431,444.168325 L357.941933,538.360006 C362.69769,541.105748 368.005238,542.47862 373.312785,542.47862 L373.312785,542.47862 L373.312785,594.479371 Z" id="形状结合" fill="#000000" mask="url(#mask-2)"></path>
            <path d="M608.746705,188.934696 C611.461721,193.95451 612.819229,199.42625 612.819229,205.349914 L612.819229,441.357177 C612.819229,453.903831 606.12568,465.497418 595.259977,471.770745 L390.872037,589.774376 C385.439186,592.91104 379.375986,594.479371 373.312785,594.479371 L373.312785,320.771275 L605.95823,187.064399 L608.746705,188.934696 Z" id="形状" fill="#000000" opacity="0.95" mask="url(#mask-2)"></path>
            <path d="M373.312785,542.47862 C368.005238,542.47862 362.69769,541.105748 357.941933,538.360006 L194.797431,444.168325 C185.285937,438.676852 179.426617,428.528203 179.426617,417.545272 L179.426617,229.161819 C179.426617,224.109749 180.666411,219.234208 182.931173,214.907283 L257.824259,258.078045 C256.29517,261.100671 255.460408,264.48539 255.460408,267.988968 L255.460408,267.988968 L255.460408,378.718123 C255.460408,386.563074 259.645637,393.812109 266.439561,397.73459 L266.439561,397.73459 L362.333605,453.099135 C365.730574,455.06038 369.52168,456.041002 373.312785,456.041002 L373.312785,456.041002 L373.312785,542.47862 Z" id="形状结合" fill="#000000" opacity="0.75" mask="url(#mask-2)"></path>
        </g>
    </g>
</svg>