<?xml version="1.0" encoding="UTF-8"?>
<svg width="564px" height="564px" viewBox="0 0 564 564" version="1.1" xmlns="http://www.w3.org/2000/svg" xmlns:xlink="http://www.w3.org/1999/xlink">
    <title>com_vivo_weather_b_s5_2x2_mc</title>
    <g id="com_vivo_weather" stroke="none" stroke-width="1" fill="none" fill-rule="evenodd">
        <g id="主色" transform="translate(164.550000, 191.229167)" fill="#000000">
            <path d="M90.4508,0 C132.308409,0 167.525295,28.4367282 177.842,67.0478911 C178.609622,67.0150579 179.383098,66.9994672 180.1602,66.9994672 C211.688921,66.9994672 237.248,92.6632962 237.248,124.321234 C237.248,155.979171 211.688921,181.643 180.1602,181.643 C179.414424,181.643 178.671989,181.628641 177.933153,181.600183 L177.933376,181.643 L92.12027,181.643 L92.1210157,181.628227 C91.5765124,181.638061 91.0308313,181.643 90.4840128,181.643 C40.5294154,181.643 0,140.427197 0,90.4648436 C0,40.5024901 40.4962026,0 90.4508,0 Z" id="形状结合"></path>
        </g>
    </g>
</svg>