<?xml version="1.0" encoding="UTF-8"?>
<svg width="564px" height="564px" viewBox="0 0 564 564" version="1.1" xmlns="http://www.w3.org/2000/svg" xmlns:xlink="http://www.w3.org/1999/xlink">
    <title>com_bbk_theme_b_s5_2x2_sc</title>
    <g id="com_bbk_theme" stroke="none" stroke-width="1" fill="none" fill-rule="evenodd">
        <g id="编组-17" transform="translate(204.207071, 180.378788)" fill="#4E4E4E">
            <path d="M0,0 L153.181818,0 L153.181818,79.7878408 C153.181818,82.8190045 152.866211,83.9181777 152.273567,85.0263259 C151.680923,86.134474 150.811242,87.0041552 149.703094,87.5967993 C148.594945,88.1894434 147.495772,88.5050505 144.464609,88.5050505 L8.71720968,88.5050505 C5.68604596,88.5050505 4.58687276,88.1894434 3.47872461,87.5967993 C2.37057646,87.0041552 1.50089531,86.134474 0.908251193,85.0263259 C0.315607078,83.9181777 1.29265299e-15,82.8190045 -2.22476578e-15,79.7878408 L0,0 L0,0 Z" id="矩形" transform="translate(76.590909, 44.252525) scale(1, -1) translate(-76.590909, -44.252525) "></path>
        </g>
    </g>
</svg>