<?xml version="1.0" encoding="UTF-8"?>
<svg width="240px" height="564px" viewBox="0 0 240 564" version="1.1" xmlns="http://www.w3.org/2000/svg" xmlns:xlink="http://www.w3.org/1999/xlink">
    <title>com_kaixinkan_ugc_video_b_s5_1x2_mc</title>
    <g id="com_kaixinkan_ugc_video" stroke="none" stroke-width="1" fill="none" fill-rule="evenodd">
        <g id="主色" transform="translate(70.000000, 223.000000)" fill="#000000">
            <path d="M1.35269578,25.2012042 C1.59190152,25.2002972 1.82710179,25.2625984 2.03449198,25.3818021 L19.0677027,35.1721477 C21.5767134,36.6142764 23.1323895,39.2791487 23.1545998,42.1730002 L23.7153038,115.229015 C14.0755748,118.114961 3.92150906,112.639938 1.03556309,103.000209 C0.534631045,101.32698 0.276897902,99.5904141 0.270275635,97.8438217 L1.63472675e-05,26.5641801 C-0.0028269537,25.8142726 0.602788257,25.2040475 1.35269578,25.2012042 Z M102.277268,48.0822178 C109.566345,54.9116618 109.938951,66.3569841 103.109507,73.6460606 C101.901659,74.9351987 100.511455,76.0404194 98.9831835,76.9265128 L36.9986477,112.865222 C36.3498937,113.241371 35.5190461,113.02038 35.1428978,112.371626 C35.0229197,112.164696 34.9597334,111.929745 34.9597334,111.690549 L34.9597334,92.1335767 C34.9597334,89.2394916 36.4950676,86.5626442 38.9931391,85.1013545 L102.277268,48.0822178 Z M26.7043346,0.484389599 C28.3895363,0.883693843 30.0090513,1.52169888 31.5137986,2.37906939 L93.7486032,37.8390338 C94.400173,38.2102833 94.6274175,39.0394421 94.256168,39.6910119 C94.1364943,39.9010478 93.9629182,40.0753272 93.7533679,40.1958491 L76.7139584,49.995987 C74.2191262,51.4308782 71.1523351,51.4429966 68.646241,50.0278666 L4.81807699,13.9856622 C7.13352666,4.21366557 16.932338,-1.83106008 26.7043346,0.484389599 Z" id="形状"></path>
        </g>
    </g>
</svg>