<?xml version="1.0" encoding="UTF-8"?>
<svg width="564px" height="564px" viewBox="0 0 564 564" version="1.1" xmlns="http://www.w3.org/2000/svg" xmlns:xlink="http://www.w3.org/1999/xlink">
    <title>com_bbk_appstore_b_s5_2x2_sc</title>
    <g id="com_bbk_appstore" stroke="none" stroke-width="1" fill="none" fill-rule="evenodd">
        <g id="辅色" transform="translate(199.373921, 355.618788)" fill="#4E4E4E" fill-rule="nonzero">
            <path d="M4.71479236,22.2804788 L6.11297216,18.3705341 L14.3394719,18.3705341 L15.7051359,22.2804788 L20.4199283,22.2804788 L11.9658178,0.186187845 L8.42159463,0.186187845 L0,22.2804788 L4.71479236,22.2804788 Z M13.136387,14.7398711 L7.38108873,14.7398711 L10.3075116,6.70276243 L13.136387,14.7398711 Z M27.801017,22.2804788 L27.801017,13.9640884 L32.2556829,13.9640884 C37.0680227,13.9640884 39.8968981,10.8299263 39.8968981,7.07513812 C39.8968981,3.32034991 37.0680227,0.186187845 32.2556829,0.186187845 L23.2813195,0.186187845 L23.2813195,22.2804788 L27.801017,22.2804788 Z M32.0280722,10.085175 L27.801017,10.085175 L27.801017,4.03406998 L32.0280722,4.03406998 C34.0765682,4.03406998 35.3772006,5.27532228 35.3772006,7.07513812 C35.3772006,8.87495396 34.0765682,10.085175 32.0280722,10.085175 Z M48.2209453,22.2804788 L48.2209453,13.9640884 L52.6756112,13.9640884 C57.487951,13.9640884 60.3168264,10.8299263 60.3168264,7.07513812 C60.3168264,3.32034991 57.487951,0.186187845 52.6756112,0.186187845 L43.7012478,0.186187845 L43.7012478,22.2804788 L48.2209453,22.2804788 Z M52.4480005,10.085175 L48.2209453,10.085175 L48.2209453,4.03406998 L52.4480005,4.03406998 C54.4964965,4.03406998 55.7971289,5.27532228 55.7971289,7.07513812 C55.7971289,8.87495396 54.4964965,10.085175 52.4480005,10.085175 Z M78.0379425,22.4666667 C82.9153139,22.4666667 86.6221162,20.0462247 86.6221162,15.7639042 C86.6221162,13.7779006 86.0693474,12.1953039 84.8337467,11.1092081 C83.8257566,10.1782689 82.5251242,9.65073665 80.4115966,9.37145488 L77.6477528,8.96804788 C76.6722785,8.84392265 75.9894465,8.53360958 75.5342252,8.13020258 C75.046488,7.69576427 74.883909,7.13720074 74.883909,6.54760589 C74.883909,5.02707182 76.0219623,3.75478821 78.4281322,3.75478821 C79.9563753,3.75478821 81.7447448,3.94097606 83.1754404,5.27532228 L86.0368316,2.57559853 C84.0533672,0.744751381 81.7447448,0 78.5581954,0 C73.5507608,0 70.4942747,2.76178637 70.4942747,6.70276243 C70.4942747,8.56464088 71.0470435,10.0231123 72.152581,11.0471455 C73.1930869,12.009116 74.5912667,12.5987109 76.6397627,12.8779926 L79.4036065,13.2813996 C80.5741756,13.4365562 81.029397,13.622744 81.4846183,14.026151 C81.9723554,14.4916206 82.1999661,15.1122468 82.1999661,15.8569982 C82.1999661,17.6257827 80.7692705,18.6187845 78.0704583,18.6187845 C75.9569307,18.6187845 73.9734663,18.1533149 72.5102549,16.7569061 L69.5838321,19.5497238 C71.8599387,21.7529466 74.5262351,22.4666667 78.0379425,22.4666667 Z M99.7259874,22.2804788 L99.7259874,4.03406998 L105.773928,4.03406998 L105.773928,0.186187845 L89.1583493,0.186187845 L89.1583493,4.03406998 L95.2062898,4.03406998 L95.2062898,22.2804788 L99.7259874,22.2804788 Z M116.569177,22.4666667 C119.235473,22.4666667 121.186422,21.6288214 122.74718,20.1393186 C125.055803,17.9360958 125.120834,15.4535912 125.120834,11.2333333 C125.120834,7.01307551 125.055803,4.5305709 122.74718,2.32734807 C121.186422,0.837845304 119.235473,0 116.569177,0 C113.90288,0 111.919416,0.837845304 110.358657,2.32734807 C108.050035,4.5305709 108.017519,7.01307551 108.017519,11.2333333 C108.017519,15.4535912 108.050035,17.9360958 110.358657,20.1393186 C111.919416,21.6288214 113.90288,22.4666667 116.569177,22.4666667 Z M116.569177,18.6187845 C115.333576,18.6187845 114.325586,18.1222836 113.642754,17.4085635 C112.828654,16.5121035 112.557288,15.5293178 112.538303,11.6892553 L112.537216,11.2333333 C112.537216,7.01307551 112.797343,5.95801105 113.642754,5.02707182 C114.325586,4.31335175 115.333576,3.84788214 116.569177,3.84788214 C117.804777,3.84788214 118.812767,4.31335175 119.463084,5.02707182 C120.308495,5.95801105 120.601137,7.01307551 120.601137,11.2333333 C120.601137,15.4535912 120.308495,16.4776243 119.463084,17.4085635 C118.812767,18.1222836 117.804777,18.6187845 116.569177,18.6187845 Z M134.257777,22.2804788 L134.257777,13.4675875 L137.509358,13.4675875 L142.029055,22.2804788 L147.264101,22.2804788 L142.094087,12.7538674 C144.337678,11.9780847 146.321142,10.0541436 146.321142,6.95101289 C146.321142,3.25828729 143.524783,0.186187845 138.80999,0.186187845 L129.738079,0.186187845 L129.738079,22.2804788 L134.257777,22.2804788 Z M138.517348,9.8679558 L134.257777,9.8679558 L134.257777,4.03406998 L138.517348,4.03406998 C140.500812,4.03406998 141.801445,5.24429098 141.801445,6.95101289 C141.801445,8.65773481 140.500812,9.8679558 138.517348,9.8679558 Z M166.253333,22.2804788 L166.253333,18.4325967 L155.523116,18.4325967 L155.523116,13.0641805 L164.660059,13.0641805 L164.660059,9.21629834 L155.523116,9.21629834 L155.523116,4.03406998 L166.253333,4.03406998 L166.253333,0.186187845 L151.003419,0.186187845 L151.003419,22.2804788 L166.253333,22.2804788 Z" id="APPSTOrE"></path>
        </g>
    </g>
</svg>