<?xml version="1.0" encoding="UTF-8"?>
<svg width="564px" height="240px" viewBox="0 0 564 240" version="1.1" xmlns="http://www.w3.org/2000/svg" xmlns:xlink="http://www.w3.org/1999/xlink">
    <title>com_vivo_game_b_s5_2x1_mc</title>
    <g id="com_vivo_game" stroke="none" stroke-width="1" fill="none" fill-rule="evenodd">
        <path d="M284.658122,62.5493192 C286.250723,63.2343428 287.519742,64.5079722 288.202285,66.1063605 L305.613203,106.878605 L345.718599,91.5246975 C346.620352,91.134467 347.640988,91.0440596 348.624347,91.2987344 C350.96322,91.904466 352.395879,94.2487562 351.903192,96.5973006 L351.856223,96.7985744 L348.39,110.279 L335.36,110.28 L335.36,129.26 L343.509,129.259 L332.27252,172.963064 C331.758058,174.90543 330.391118,176.599323 328.407771,177.452417 C327.567816,177.813706 326.663493,178 325.749649,178 L238.250351,178 C235.297188,178 232.787109,176.096039 231.872284,173.444472 L231.799842,173.222051 L231.725,172.963 L231.73443,172.987488 L231.71068,172.903512 L212.143777,96.7985744 C211.522995,94.3841349 212.969955,91.9217726 215.375653,91.2987344 C216.28776,91.0625128 217.231937,91.1231773 218.08357,91.4446111 L218.24099,91.5074438 L258.386797,106.878605 L275.797715,66.1063605 C277.265755,62.6684861 281.232695,61.0759444 284.658122,62.5493192 Z M322.74,110 C314.380802,110 309.84,113.125761 309.84,119.8 C309.84,126.469749 314.36126,129.54 322.74,129.54 C325.748407,129.54 328.378268,129.241706 330.025675,128.720027 L332.12,128.056824 L332.131429,111.339287 L331.96,111.299256 L329.665454,110.744124 C327.792995,110.291109 325.401331,110 322.74,110 Z" id="形状结合" fill="#000000"></path>
    </g>
</svg>