<?xml version="1.0" encoding="UTF-8"?>
<svg width="240px" height="564px" viewBox="0 0 240 564" version="1.1" xmlns="http://www.w3.org/2000/svg" xmlns:xlink="http://www.w3.org/1999/xlink">
    <title>com_vivo_space_b_s5_1x2_mc</title>
    <g id="com_vivo_space" stroke="none" stroke-width="1" fill="none" fill-rule="evenodd">
        <g id="主色" transform="translate(46.000000, 261.000000)" fill="#000000">
            <path d="M135.415218,31.7053304 L122.527904,31.7053304 C115.283277,31.7053304 114.639183,25.9815759 114.639183,24.2327351 C114.639183,22.4838943 115.283277,16.7601399 122.527904,16.7601399 L135.415218,16.7601399 C142.659845,16.7601399 143.304225,22.4838943 143.304225,24.2327351 C143.304225,25.9815759 142.659845,31.7053304 135.415218,31.7053304 M135.415218,10.4657458 L122.527904,10.4657458 C109.134639,10.4657458 107.943409,21.0108673 107.943409,24.2327351 C107.943409,27.4548785 109.134639,38 122.527904,38 L135.415218,38 C148.808769,38 150,27.4548785 150,24.2327351 C150,21.0108673 148.808769,10.4657458 135.415218,10.4657458 M105.357108,11.1112766 L101.180222,11.1112766 C99.3912305,11.1112766 99.0225639,11.4055514 98.3321363,12.3917025 C97.6425668,13.3781292 85.695081,30.9503007 85.695081,30.9503007 C85.31383,31.4906311 84.9096982,31.7091328 84.4066071,31.7091328 C83.9038019,31.7091328 83.4996701,31.4906311 83.1184191,30.9503007 C83.1184191,30.9503007 71.1706473,13.3781292 70.4807918,12.3917025 C69.7903642,11.4055514 69.4222696,11.1112766 67.6332786,11.1112766 L63.456106,11.1112766 C62.4948272,11.1112766 62.0549442,11.835391 62.6592828,12.719593 C63.2636214,13.603795 76.9288818,33.5935384 76.9288818,33.5935384 C79.1431694,36.7313671 80.7682769,37.9999449 84.4066071,37.9999449 C88.0449372,37.9999449 89.6703307,36.7313671 91.8849043,33.5935384 C91.8849043,33.5935384 105.549879,13.603795 106.153931,12.719593 C106.75827,11.835391 106.318673,11.1112766 105.357108,11.1112766 M49.8790224,12.8164446 C49.8790224,11.5952594 50.3815416,11.1114144 51.6488508,11.1114144 L54.8061126,11.1114144 C56.0731358,11.1114144 56.575655,11.5952594 56.575655,12.8164446 L56.575655,36.2947769 C56.575655,37.5159621 56.0731358,37.9998071 54.8061126,37.9998071 L51.6488508,37.9998071 C50.3815416,37.9998071 49.8790224,37.5159621 49.8790224,36.2947769 L49.8790224,12.8164446 Z M49.5913252,5.63051926 C48.5622621,4.63940845 48.5622621,3.85357358 49.5913252,2.86218723 L51.7901682,0.743574209 C52.8195174,-0.247812142 53.6355032,-0.247812142 54.6639943,0.74329867 L56.8634094,2.86218723 C57.8919005,3.85357358 57.8919005,4.63940845 56.8634094,5.63051926 L54.6639943,7.74913228 C53.6355032,8.74051863 52.8195174,8.74051863 51.7901682,7.74913228 L49.5913252,5.63051926 Z M42.9988574,11.1112766 L38.8219708,11.1112766 C37.0326938,11.1112766 36.6643132,11.4055514 35.9741716,12.3917025 C35.2843161,13.3781292 23.3362583,30.9503007 23.3362583,30.9503007 C22.9552933,31.4906311 22.5511615,31.7091328 22.0480703,31.7091328 C21.5449792,31.7091328 21.1411334,31.4906311 20.7598824,30.9503007 C20.7598824,30.9503007 8.81211059,13.3781292 8.12225504,12.3917025 C7.4323995,11.4055514 7.0634469,11.1112766 5.27445584,11.1112766 L1.09756928,11.1112766 C0.0238886395,11.1112766 -0.303878547,11.835391 0.300746089,12.719593 C0.905084715,13.603795 14.5700591,33.5935384 14.5700591,33.5935384 C16.7843467,36.7313671 18.4097402,37.9999449 22.0480703,37.9999449 C25.6864005,37.9999449 27.311794,36.7313671 29.5263676,33.5935384 C29.5263676,33.5935384 43.191342,13.603795 43.7956806,12.719593 C44.3997332,11.835391 44.072252,11.1112766 42.9988574,11.1112766" id="形状结合"></path>
        </g>
    </g>
</svg>