<?xml version="1.0" encoding="UTF-8"?>
<svg width="564px" height="240px" viewBox="0 0 564 240" version="1.1" xmlns="http://www.w3.org/2000/svg" xmlns:xlink="http://www.w3.org/1999/xlink">
    <title>com_vivo_browser_b_s5_2x1_sc</title>
    <g id="com_vivo_browser" stroke="none" stroke-width="1" fill="none" fill-rule="evenodd">
        <g id="辅色" transform="translate(217.412408, 55.000000)" fill="#4E4E4E">
            <path d="M64.8044161,0 C84.0976555,0 101.421718,8.45649208 113.293266,21.8756244 C110.783413,22.3383535 108.108099,22.9569983 105.291017,23.7248861 L103.980845,24.0898687 C100.680681,25.0286966 97.1966254,26.1648542 93.5650769,27.4880912 L92.1046775,28.0273393 C91.3706309,28.3019278 90.6308787,28.5839448 89.8857121,28.8733083 L88.3882459,29.4618064 L88.3882459,29.4618064 L86.876859,30.0697494 L86.876859,30.0697494 L85.3520688,30.6969915 C85.096849,30.8031321 84.8410922,30.9100706 84.5848094,31.0178042 L83.0408851,31.6737217 L83.0408851,31.6737217 L81.4848519,32.3485738 C81.2245327,32.4626189 80.9637306,32.5774469 80.7024562,32.6930548 L79.1292301,33.3960355 C78.8661101,33.5147505 78.6025395,33.6342393 78.3385291,33.7544988 L76.7492749,34.4852802 L76.7492749,34.4852802 L75.1499823,35.2344131 C74.8826257,35.3607898 74.6148725,35.4879251 74.3467334,35.6158159 L72.7333538,36.3922028 L72.7333538,36.3922028 L71.1112301,37.1865767 L71.1112301,37.1865767 L69.4808798,37.998792 C67.8465888,38.8198793 66.2007344,39.6675098 64.5456462,40.5410277 L62.8875663,41.4231503 L62.8875663,41.4231503 L61.2238482,42.3223853 C60.6683933,42.6249661 60.1120849,42.9303748 59.5550094,43.2385869 L57.8815677,44.1716093 C57.3230442,44.485404 56.7638398,44.801978 56.2040408,45.1213067 L54.5229462,46.0875335 L54.5229462,46.0875335 L52.9056236,47.0309035 C52.6373064,47.1885435 52.3696124,47.3463848 52.1025488,47.5044201 L50.5077886,48.4549045 C50.2432752,48.6136879 49.9794065,48.7726513 49.7161898,48.9317876 L48.1447713,49.8886235 C47.6236116,50.2082227 47.1051176,50.528457 46.5893469,50.8492698 L45.0502628,51.8133875 L45.0502628,51.8133875 L43.5278653,52.7806375 C43.2755422,52.942088 43.0239288,53.1036549 42.7730323,53.2653311 L41.2763142,54.2366437 C41.0283142,54.398729 40.7810456,54.5609094 40.5345156,54.7231779 L39.0642561,55.6977902 C38.5771623,56.0229758 38.0930805,56.3484574 37.6120684,56.6741784 L36.1782991,57.6520035 C35.7034842,57.978147 35.2317967,58.3044734 34.7632943,58.6309263 L33.3674004,59.6106078 L33.3674004,59.6106078 L31.9909638,60.5907088 C31.5354329,60.9174414 31.0832027,61.2441874 30.6343307,61.5708903 L29.2978475,62.5508133 L29.2978475,62.5508133 L27.9818604,63.5301385 L27.9818604,63.5301385 L26.6867159,64.508527 L26.6867159,64.508527 L25.4127602,65.4856396 C24.9916782,65.8110935 24.5741854,66.1362782 24.1603396,66.4611373 L22.9298005,67.4346809 C20.2875875,69.5416637 17.8018951,71.632499 15.4885748,73.6916667 L14.4331857,74.6397466 C14.2593467,74.7973664 14.086542,74.9547846 13.9147789,75.1119942 L12.8967575,76.0526926 C12.7291897,76.2090397 12.5626779,76.3651641 12.3972293,76.5210587 L11.4173547,77.4536125 C11.0950213,77.7635071 10.7769986,78.072426 10.4633443,78.3803129 L9.53554433,79.3008206 C9.38311444,79.4537036 9.23179109,79.6063145 9.08158149,79.7586462 L8.19374658,80.6692292 C7.75656933,81.1227889 7.32954569,81.5737084 6.91287045,82.0217971 L6.09337558,82.9141434 C5.15353042,83.9506787 4.27073368,84.9711092 3.44746008,85.9730118 C1.21248858,79.393112 0,72.3385793 0,65 C0,29.1014913 29.0139254,0 64.8044161,0 Z" id="路径"></path>
        </g>
    </g>
</svg>