<?xml version="1.0" encoding="UTF-8"?>
<svg width="240px" height="240px" viewBox="0 0 240 240" version="1.1" xmlns="http://www.w3.org/2000/svg" xmlns:xlink="http://www.w3.org/1999/xlink">
    <title>com_vivo_minigamecenter_b_s5_1x1_sc</title>
    <defs>
        <path d="M61.5332448,-2.48601674e-15 L136.466755,2.48601674e-15 C157.863205,-1.44444732e-15 165.622075,2.22781467 173.444297,6.41118489 C181.266519,10.5945551 187.405445,16.7334809 191.588815,24.5557031 C195.772185,32.3779253 198,40.136795 198,61.5332448 L198,136.466755 C198,157.863205 195.772185,165.622075 191.588815,173.444297 C187.405445,181.266519 181.266519,187.405445 173.444297,191.588815 C165.622075,195.772185 157.863205,198 136.466755,198 L61.5332448,198 C40.136795,198 32.3779253,195.772185 24.5557031,191.588815 C16.7334809,187.405445 10.5945551,181.266519 6.41118489,173.444297 C2.22781467,165.622075 9.62964878e-16,157.863205 -1.65734449e-15,136.466755 L1.65734449e-15,61.5332448 C-9.62964878e-16,40.136795 2.22781467,32.3779253 6.41118489,24.5557031 C10.5945551,16.7334809 16.7334809,10.5945551 24.5557031,6.41118489 C32.3779253,2.22781467 40.136795,1.44444732e-15 61.5332448,-2.48601674e-15 Z" id="path-1"></path>
    </defs>
    <g id="com_vivo_minigamecenter" stroke="none" stroke-width="1" fill="none" fill-rule="evenodd">
        <g id="辅色" transform="translate(21.000000, 21.000000)">
            <mask id="mask-2" fill="white">
                <use xlink:href="#path-1"></use>
            </mask>
            <g id="蒙版"></g>
            <path d="M172.594318,127.873369 C172.936634,128.104264 173.227455,128.403511 173.448483,128.75228 L182.374074,142.836374 C183.211316,144.157496 184.812432,144.777896 186.321252,144.365824 L205.042869,139.252787 C206.636982,138.817421 208.2822,139.756771 208.717566,141.350884 C208.7568,141.494541 208.785254,141.640926 208.802692,141.78882 L211.075208,161.062578 C211.258355,162.615896 212.433369,163.868019 213.971928,164.149395 L230.374058,167.149065 C231.999593,167.446348 233.076354,169.005099 232.779071,170.630634 C232.704789,171.036805 232.547244,171.423205 232.316349,171.765521 L202.434055,216.067844 C196.603655,224.711768 184.869897,226.992579 176.225973,221.162179 L149.200971,202.932851 C151.493534,199.441864 153.10028,195.425171 153.802761,191.047384 L153.892929,190.448191 L154.627971,185.213528 L187.177248,207.168752 C190.243394,209.236894 194.382724,208.487793 196.536732,205.515962 L196.671497,205.323257 L210.452179,184.892555 C210.703755,184.519579 210.832701,184.077408 210.821048,183.627669 C210.791594,182.490953 209.88984,181.581953 208.77299,181.524675 L208.603932,181.52255 L195.929966,181.850954 L172.308224,166.478235 L167.114925,154.320137 C166.951408,153.937325 166.680846,153.609863 166.335741,153.377087 C165.388945,152.738465 164.118425,152.949661 163.425438,153.835489 L163.334604,153.960449 L157.884971,162.038528 L161.028971,139.668528 L168.440584,128.680773 C169.364648,127.310793 171.224338,126.949306 172.594318,127.873369 Z M27.1718768,123.371532 C27.5339778,123.609967 27.8428098,123.920766 28.0789396,124.284374 L35.8118524,136.191411 L33.4098524,153.286411 L31.7964506,150.802351 C31.5391715,150.406176 31.1647028,150.100136 30.7252354,149.926886 C29.611956,149.488002 28.360269,149.989907 27.8488865,151.050814 L27.7809628,151.206133 L22.8986567,163.590636 L-1.65077609,180.114832 L-15.5325867,180.146236 C-15.9696713,180.147225 -16.397176,180.274384 -16.7637469,180.512438 C-17.7713385,181.166775 -18.0877584,182.485164 -17.5114319,183.519268 L-17.4311795,183.652461 L-3.74061975,204.734075 C-1.62467022,207.992351 2.6862718,208.965987 5.98799006,206.973904 L6.19300438,206.845532 L33.0358035,189.415368 C35.6143607,195.250079 39.9527053,200.209456 45.4742702,203.528368 L18.5244765,221.028691 C9.16965907,227.10378 -3.3387519,224.445036 -9.41384137,215.090218 L-39.7699279,168.345944 C-40.7149418,166.89075 -40.3013593,164.944997 -38.8461655,163.999984 C-38.4825574,163.763854 -38.0740118,163.605537 -37.646236,163.534997 L-20.3716537,160.686392 C-18.7512557,160.419186 -17.4947347,159.126189 -17.2739945,157.49881 L-14.5350237,137.30609 C-14.3018052,135.586715 -12.7189155,134.381948 -10.9995408,134.615166 C-10.8445957,134.636183 -10.6914358,134.668739 -10.5413381,134.71256 L9.01966935,140.423505 C10.5961372,140.883764 12.2884219,140.261784 13.191602,138.890159 L22.820137,124.267675 C23.7743739,122.818512 25.7227141,122.417295 27.1718768,123.371532 Z M166.817073,173.872076 C169.596177,174.06641 171.691548,176.476858 171.497214,179.255962 C171.30288,182.035066 168.892432,184.130437 166.113328,183.936103 C163.334224,183.741769 161.238853,181.331321 161.433187,178.552217 C161.627521,175.773113 164.037969,173.677742 166.817073,173.872076 Z M30.795487,171.892778 L30.7020119,172.553682 C30.273184,175.604951 30.3029971,178.614912 30.7389373,181.513878 C29.3234834,182.155458 27.6396834,182.170326 26.1471025,181.409818 C23.5407435,180.081812 22.5044339,176.892379 23.8324401,174.28602 C25.1332649,171.733008 28.2200977,170.686431 30.795487,171.892778 Z M187.716622,108.994497 C191.582615,108.994497 194.716622,112.128504 194.716622,115.994497 C194.716622,119.860491 191.582615,122.994497 187.716622,122.994497 C183.850628,122.994497 180.716622,119.860491 180.716622,115.994497 C180.716622,112.128504 183.850628,108.994497 187.716622,108.994497 Z M19.1553638,96.3207187 C23.021357,96.3207187 26.1553638,99.4547255 26.1553638,103.320719 C26.1553638,107.186712 23.021357,110.320719 19.1553638,110.320719 C15.2893706,110.320719 12.1553638,107.186712 12.1553638,103.320719 C12.1553638,99.4547255 15.2893706,96.3207187 19.1553638,96.3207187 Z" id="形状" fill="#4E4E4E" fill-rule="nonzero" mask="url(#mask-2)"></path>
            <path d="M135.677901,42.5440553 L127.953133,42.5440553 C123.61064,42.5440553 123.224564,38.9827998 123.224564,37.8946907 C123.224564,36.8065817 123.61064,33.2453262 127.953133,33.2453262 L135.677901,33.2453262 C140.020394,33.2453262 140.406641,36.8065817 140.406641,37.8946907 C140.406641,38.9827998 140.020394,42.5440553 135.677901,42.5440553 M135.677901,29.3290252 L127.953133,29.3290252 C119.925093,29.3290252 119.211059,35.8900809 119.211059,37.8946907 C119.211059,39.899472 119.925093,46.4605278 127.953133,46.4605278 L135.677901,46.4605278 C143.706112,46.4605278 144.420146,39.899472 144.420146,37.8946907 C144.420146,35.8900809 143.706112,29.3290252 135.677901,29.3290252 M117.660807,29.7306672 L115.157145,29.7306672 C114.084808,29.7306672 113.863826,29.9137616 113.449978,30.5273337 C113.036644,31.1410773 105.875217,42.0742843 105.875217,42.0742843 C105.646692,42.4104718 105.404452,42.5464211 105.102894,42.5464211 C104.801509,42.5464211 104.559268,42.4104718 104.330743,42.0742843 C104.330743,42.0742843 97.1691446,31.1410773 96.7556392,30.5273337 C96.3417909,29.9137616 96.1211518,29.7306672 95.048815,29.7306672 L92.5449813,29.7306672 C91.9687824,29.7306672 91.7051127,30.1812029 92.0673585,30.7313435 C92.4296044,31.281484 100.620681,43.718877 100.620681,43.718877 C101.947944,45.6711987 102.922048,46.4604935 105.102894,46.4604935 C107.283741,46.4604935 108.258016,45.6711987 109.585451,43.718877 C109.585451,43.718877 117.776356,31.281484 118.13843,30.7313435 C118.500676,30.1812029 118.237178,29.7306672 117.660807,29.7306672 M84.4067589,30.7916035 C84.4067589,30.0317958 84.7079733,29.7307529 85.4676095,29.7307529 L87.3600998,29.7307529 C88.1195646,29.7307529 88.4207789,30.0317958 88.4207789,30.7916035 L88.4207789,45.3995572 C88.4207789,46.1593648 88.1195646,46.4604077 87.3600998,46.4604077 L85.4676095,46.4604077 C84.7079733,46.4604077 84.4067589,46.1593648 84.4067589,45.3995572 L84.4067589,30.7916035 Z M84.2343107,26.3206017 C83.6174813,25.7039437 83.6174813,25.2150061 84.2343107,24.5981767 L85.5523164,23.2799996 C86.1693173,22.6631702 86.6584263,22.6631702 87.2749128,23.2798281 L88.5932614,24.5981767 C89.209748,25.2150061 89.209748,25.7039437 88.5932614,26.3206017 L87.2749128,27.6387788 C86.6584263,28.2556083 86.1693173,28.2556083 85.5523164,27.6387788 L84.2343107,26.3206017 Z M80.282728,29.7306672 L77.7790658,29.7306672 C76.7065575,29.7306672 76.485747,29.9137616 76.0720701,30.5273337 C75.6585647,31.1410773 68.4967946,42.0742843 68.4967946,42.0742843 C68.2684408,42.4104718 68.0262007,42.5464211 67.7246435,42.5464211 C67.4230862,42.5464211 67.1810176,42.4104718 66.9524924,42.0742843 C66.9524924,42.0742843 59.7908937,31.1410773 59.3773883,30.5273337 C58.9638829,29.9137616 58.7427295,29.7306672 57.6703926,29.7306672 L55.1667304,29.7306672 C54.5231569,29.7306672 54.3266903,30.1812029 54.6891076,30.7313435 C55.0513535,31.281484 63.2422583,43.718877 63.2422583,43.718877 C64.5695216,45.6711987 65.5437966,46.4604935 67.7246435,46.4604935 C69.9054903,46.4604935 70.8797654,45.6711987 72.2072001,43.718877 C72.2072001,43.718877 80.3981049,31.281484 80.7603508,30.7313435 C81.1224252,30.1812029 80.9261301,29.7306672 80.282728,29.7306672" id="形状结合" fill="#4E4E4E" mask="url(#mask-2)"></path>
            <path d="M139.556262,86.240539 C143.422255,86.240539 146.556262,83.1065323 146.556262,79.240539 C146.556262,75.3745458 143.422255,72.240539 139.556262,72.240539 C135.690269,72.240539 132.556262,75.3745458 132.556262,79.240539 C132.556262,83.1065323 135.690269,86.240539 139.556262,86.240539 Z" id="椭圆形备份-35" fill="#4E4E4E" fill-rule="nonzero" mask="url(#mask-2)"></path>
        </g>
    </g>
</svg>