<?xml version="1.0" encoding="UTF-8"?>
<svg width="564px" height="240px" viewBox="0 0 564 240" version="1.1" xmlns="http://www.w3.org/2000/svg" xmlns:xlink="http://www.w3.org/1999/xlink">
    <title>com_vivo_newsreader_b_s5_2x1_mc</title>
    <g id="com_vivo_newsreader" stroke="none" stroke-width="1" fill="none" fill-rule="evenodd">
        <path d="M307.848606,56.8866653 C314.612278,59.2039315 317.49043,60.3822468 323.114807,64.5256233 C327.282774,67.5960884 330.697719,74.1547114 333.359642,84.2014923 L332.20237,158.916607 C332.20237,169.351775 317.101447,173.273918 306.756409,174.506908 L278.955,184.20004 L264.766266,185.191779 L278.955,184.200472 L267.38799,185.265478 C259.475502,185.993783 251.538839,184.223077 244.691803,180.21039 L244.192761,179.912781 C242.85983,179.104003 241.527568,178.300488 240.195976,177.502239 C237.072256,175.629661 233.942634,173.178013 230.80711,170.147295 C227.210086,166.670503 225.13372,161.919981 225.017075,156.930478 L225.01188,156.489634 L225,96.2280094 L225.01334,96.2270038 L225,95.6751226 L225,79.8852333 C225,70.0894931 232.324393,61.8562846 242.030361,60.664867 L242.373905,60.6257498 L248.466413,59.9819712 L286.770345,55.9641999 C286.762009,55.964531 286.753673,55.9648629 286.745336,55.9651953 L293.981062,55.471018 C300.411775,55.4505846 305.03429,55.9224671 307.848606,56.8866653 Z M253,148.439657 C253,148.7203 253.014768,149.000749 253.044242,149.27984 L253.094723,149.74998 C253.549336,153.899619 254.273962,157.910208 258.410866,157.600891 L261.268051,158.916607 L305.463478,155.674561 C309.449072,155.253654 314.112149,148.16024 314.237297,144.180412 L314.237297,93.0738564 L310.995996,91.8703267 L310.995,91.6193819 L310.994126,91.5638246 C310.987295,91.3856428 310.974507,91.2077107 310.955778,91.030327 C310.500612,86.7193751 306.701222,83.5712804 302.408202,83.8921709 L302.16,83.9145489 L260.16,88.3490608 C256.174328,88.7698825 253.129156,92.0700053 253.004004,96.0499007 L253,96.3048386 L253,145.402472 L253,145.403682 L253,148.439657 Z" id="形状结合" fill="#000000"></path>
    </g>
</svg>