<?xml version="1.0" encoding="UTF-8"?>
<svg width="240px" height="240px" viewBox="0 0 240 240" version="1.1" xmlns="http://www.w3.org/2000/svg" xmlns:xlink="http://www.w3.org/1999/xlink">
    <title>com_android_camera_packet_camerapacketactivity_b_s5_1x1_sc</title>
    <g id="com_android_camera_packet_camerapacketactivity" stroke="none" stroke-width="1" fill="none" fill-rule="evenodd">
        <g id="辅色" transform="translate(43.000000, 108.399708)" fill="#4E4E4E" fill-rule="nonzero">
            <path d="M5.54528354,16.809309 L5.54528354,0.458733578 L0,0.458733578 L0,21.7243116 L24.0552972,21.7243116 L24.0552972,16.809309 L5.54528354,16.809309 Z M66.5276933,5.07883605 L66.5276933,0.458733578 L41.6868304,0.458733578 L41.6868304,21.7243116 L66.5276933,21.7243116 L66.5276933,17.1042091 L47.1008646,17.1042091 L47.1008646,13.2049737 L65.9042591,13.2049737 L65.9042591,8.74870467 L47.1008646,8.74870467 L47.1008646,5.07883605 L66.5276933,5.07883605 Z M112.607998,22.1830452 C114.511113,22.1830452 115.364234,21.2328113 115.364234,20.0859774 L115.364234,0.458733578 L109.983012,0.458733578 L109.983012,15.1382081 L94.3334611,1.4417341 C93.1850296,0.458733578 92.430346,0 90.5600433,0 C88.5913036,0 87.7053707,0.950233841 87.7053707,2.45750131 L87.7053707,21.7243116 L93.0865926,21.7243116 L93.0865926,7.20867052 L108.572082,20.8723778 C109.687701,21.789845 110.573634,22.1830452 112.607998,22.1830452 Z M141.498503,22.1830452 C135.526659,22.1830452 131.359493,21.4621781 128.898569,20.8068444 L128.898569,16.0884419 L129.594117,16.2340613 C132.16893,16.7564174 136.564108,17.4646427 141.859438,17.4646427 L142.770652,17.4589795 C147.575348,17.3960881 148.159406,16.8099272 148.159406,15.7280084 C148.159406,14.6139411 147.142223,14.2535076 145.337545,13.9913741 L136.314155,12.7134735 L135.601913,12.6030897 C131.684322,11.9607612 128.472008,10.7808573 128.472008,6.4222701 C128.472008,2.28720685 131.023572,0.063154355 140.560491,0.00132527505 L140.973506,0 C146.289103,0 150.423456,0.491500262 152.818756,0.983000525 L152.818756,5.70140304 L152.309732,5.61466599 C149.914826,5.21832018 146.125462,4.75296773 141.491803,4.72023381 L140.334855,4.7200406 C134.981992,4.7486072 134.312603,5.15529164 134.312603,6.29120336 C134.312603,7.37250394 135.526659,7.66740409 137.200088,7.92953757 L146.518789,9.24020493 C151.342201,9.9283053 154,11.5011061 154,15.662475 C154,20.1515108 151.079703,22.1830452 141.498503,22.1830452 Z" id="LENS"></path>
        </g>
    </g>
</svg>