<?xml version="1.0" encoding="UTF-8"?>
<svg width="240px" height="240px" viewBox="0 0 240 240" version="1.1" xmlns="http://www.w3.org/2000/svg" xmlns:xlink="http://www.w3.org/1999/xlink">
    <title>com_iqoo_secure_b_s5_1x1_bg</title>
    <g id="com_iqoo_secure" stroke="none" stroke-width="1" fill="none" fill-rule="evenodd">
        <g id="背景色" transform="translate(21.000000, 21.000000)" fill="#CBCBCB">
            <path d="M61.5332448,-2.48601674e-15 L136.466755,2.48601674e-15 C157.863205,-1.44444732e-15 165.622075,2.22781467 173.444297,6.41118489 C181.266519,10.5945551 187.405445,16.7334809 191.588815,24.5557031 C195.772185,32.3779253 198,40.136795 198,61.5332448 L198,136.466755 C198,157.863205 195.772185,165.622075 191.588815,173.444297 C187.405445,181.266519 181.266519,187.405445 173.444297,191.588815 C165.622075,195.772185 157.863205,198 136.466755,198 L61.5332448,198 C40.136795,198 32.3779253,195.772185 24.5557031,191.588815 C16.7334809,187.405445 10.5945551,181.266519 6.41118489,173.444297 C2.22781467,165.622075 9.62964878e-16,157.863205 -1.65734449e-15,136.466755 L1.65734449e-15,61.5332448 C-9.62964878e-16,40.136795 2.22781467,32.3779253 6.41118489,24.5557031 C10.5945551,16.7334809 16.7334809,10.5945551 24.5557031,6.41118489 C32.3779253,2.22781467 40.136795,1.44444732e-15 61.5332448,-2.48601674e-15 Z" id="蒙版"></path>
        </g>
    </g>
</svg>