<?xml version="1.0" encoding="UTF-8"?>
<svg width="564px" height="240px" viewBox="0 0 564 240" version="1.1" xmlns="http://www.w3.org/2000/svg" xmlns:xlink="http://www.w3.org/1999/xlink">
    <title>com_bbk_cloud_b_s5_2x1_mc</title>
    <g id="com_bbk_cloud" stroke="none" stroke-width="1" fill="none" fill-rule="evenodd">
        <path d="M263,64 C282.083126,64 298.718273,74.4810465 307.462949,90.0006491 L307.466261,89.9992109 L309.14,90.998 L313.999726,91 L314.611597,91.0049569 C315.754488,91.0234869 316.884782,91.0938349 318.000231,91.2137538 L317.999901,113.538965 C317.298107,113.34535 316.575556,113.201424 315.836232,113.111234 L315.278656,113.053731 L314.971,113.03 L314,114 C313.990386,113.999687 313.990392,114.000021 313.990399,114.000355 L289.981847,114.000607 C289.456105,99.5519245 277.577101,88 263,88 C248.088312,88 236,100.088312 236,115 C236,129.239134 247.022476,140.90383 261.000417,141.927079 L261,133.375117 C261,132.54669 261.671573,131.875117 262.5,131.875117 C263.02483,131.875117 263.511492,132.149421 263.78325,132.598413 L282.621995,163.723296 C283.050957,164.432015 282.824168,165.354288 282.115449,165.78325 C281.881185,165.925041 281.612577,166 281.338745,166 L261,166 L261.000269,165.961514 C233.760635,164.911236 212,142.496852 212,115 C212,86.8334778 234.833478,64 263,64 Z" id="主色" fill="#000000"></path>
    </g>
</svg>