<?xml version="1.0" encoding="UTF-8"?>
<svg width="240px" height="240px" viewBox="0 0 240 240" version="1.1" xmlns="http://www.w3.org/2000/svg" xmlns:xlink="http://www.w3.org/1999/xlink">
    <title>com_bbk_iqoo_feedback_b_s5_1x1_mc</title>
    <g id="com_bbk_iqoo_feedback" stroke="none" stroke-width="1" fill="none" fill-rule="evenodd">
        <g id="主色" transform="translate(51.000000, 59.000000)" fill="#000000">
            <path d="M69,0 C96.5998055,0 119.956058,18.0092261 127.760779,42.8190246 C133.616783,44.1058694 138,49.3256599 138,55.5692056 L138,65.506552 C138,72.716107 132.155501,78.5606061 124.945946,78.5606061 L119.000846,78.5606061 C116.528908,78.5606061 115.632523,78.303226 114.72882,77.8199199 C113.825116,77.3366139 113.115884,76.6273819 112.632578,75.7236782 C112.149272,74.8199745 111.891892,73.92359 111.891892,71.4516516 L111.891892,61 L111.891892,61 C111.891892,37.5195302 92.6885378,18.4848485 69,18.4848485 C45.3114622,18.4848485 26.1081081,37.5195302 26.1081081,61 C26.1081081,84.4804698 45.3114622,103.515152 69,103.515152 L74.6764947,103.515152 C79.7809446,103.515152 83.9189189,107.653126 83.9189189,112.757576 L83.9189189,116.454545 C83.9189189,119.517215 81.4361343,122 78.3734644,122 L69,122 L69,122 C41.0325496,122 17.4224585,103.507792 9.9356358,78.1859405 C4.23279509,76.7888866 -6.04686369e-15,71.6420304 0,65.506552 L0,65.506552 L0,55.5692056 C0,49.3256599 4.38321688,44.1058694 10.2403237,42.8191611 C18.0439423,18.0092261 41.4001945,0 69,0 Z" id="形状结合"></path>
        </g>
    </g>
</svg>