<?xml version="1.0" encoding="UTF-8"?>
<svg width="240px" height="564px" viewBox="0 0 240 564" version="1.1" xmlns="http://www.w3.org/2000/svg" xmlns:xlink="http://www.w3.org/1999/xlink">
    <title>com_bbk_cloud_b_s5_1x2_mc</title>
    <g id="com_bbk_cloud" stroke="none" stroke-width="1" fill="none" fill-rule="evenodd">
        <path d="M101,226 C120.083126,226 136.718273,236.481047 145.462949,252.000649 L145.466261,251.999211 L147.14,252.998 L151.999726,253 L152.611597,253.004957 C153.754488,253.023487 154.884782,253.093835 156.000231,253.213754 L155.999901,275.538965 C155.298107,275.34535 154.575556,275.201424 153.836232,275.111234 L153.278656,275.053731 L152.971,275.03 L152,276 C151.990386,275.999687 151.990392,276.000021 151.990399,276.000355 L127.981847,276.000607 C127.456105,261.551925 115.577101,250 101,250 C86.0883118,250 74,262.088312 74,277 C74,291.239134 85.0224759,302.90383 99.0004168,303.927079 L99,295.375117 C99,294.54669 99.6715729,293.875117 100.5,293.875117 C101.02483,293.875117 101.511492,294.149421 101.78325,294.598413 L120.621995,325.723296 C121.050957,326.432015 120.824168,327.354288 120.115449,327.78325 C119.881185,327.925041 119.612577,328 119.338745,328 L99,328 L99.000269,327.961514 C71.7606352,326.911236 50,304.496852 50,277 C50,248.833478 72.8334778,226 101,226 Z" id="主色" fill="#000000"></path>
    </g>
</svg>