<?xml version="1.0" encoding="UTF-8"?>
<svg width="564px" height="240px" viewBox="0 0 564 240" version="1.1" xmlns="http://www.w3.org/2000/svg" xmlns:xlink="http://www.w3.org/1999/xlink">
    <title>com_vivo_game_b_s5_2x1_sc</title>
    <defs>
        <path d="M140,0 L140,33.279 L126.36,33.28 L126.36,52.26 L140,52.259 L140,111 L0,111 L0,0 L140,0 Z M113.74,33 C105.380802,33 100.84,36.1257614 100.84,42.8 C100.84,49.4697491 105.36126,52.54 113.74,52.54 C116.748407,52.54 119.378268,52.2417056 121.025675,51.7200267 L123.12,51.0568238 L123.131429,34.3392866 L122.96,34.2992558 L120.665454,33.7441237 C118.792995,33.2911094 116.401331,33 113.74,33 Z" id="path-1"></path>
    </defs>
    <g id="com_vivo_game" stroke="none" stroke-width="1" fill="none" fill-rule="evenodd">
        <g id="编组-3" transform="translate(107.000000, 77.000000)">
            <g id="辅色" transform="translate(102.000000, 0.000000)">
                <mask id="mask-2" fill="white">
                    <use xlink:href="#path-1"></use>
                </mask>
                <g id="形状结合"></g>
                <path d="M136.710044,14.52841 C136.159261,14.7681184 135.653087,15.1198144 135.227195,15.5731593 L135.227195,15.5731593 L104.479633,48.3026952 L96.6116027,29.8781884 L96.6132031,29.8786046 Z M9.13960265,14.4661884 L9.24098977,14.5074438 L49.3867969,29.8786046 L41.5191085,48.3026952 L10.7728053,15.5731593 C10.3084349,15.0788555 9.74862027,14.7053979 9.13960265,14.4661884 Z" id="形状结合" fill="#4E4E4E" mask="url(#mask-2)"></path>
                <path d="M123.281062,95.9357713 C122.876873,97.3313131 121.5936,98.3512372 120.072973,98.3512372 C119.771053,98.3512372 119.478489,98.3110297 119.200309,98.2356587 L73,81.8115194 L104.480869,48.3016686 L122.970004,91.6021303 C123.508882,92.864082 123.633518,94.1989041 123.404819,95.4549066 L123.292168,95.8922799 L123.281062,95.9357713 Z" id="形状结合" fill="#4E4E4E" opacity="0.15" mask="url(#mask-2)"></path>
                <path d="M41.5184661,48.3036988 L72.9988166,81.8115194 L26.798508,98.2356587 C26.6710086,98.2702037 26.5404878,98.297362 26.4074294,98.3166478 L26.3701192,98.3218402 L26.3701192,98.3218402 L26.150451,98.3437771 L26.150451,98.3437771 L25.9258437,98.3512372 L25.9258437,98.3512372 C25.8535813,98.3512372 25.7818549,98.3489339 25.7107335,98.3443965 C25.5216,98.3323325 25.336705,98.3044594 25.1573855,98.2620812 L24.9788723,98.2145903 C24.9394055,98.2029004 24.900243,98.1904984 24.8613996,98.1773992 C24.8342511,98.1682446 24.8072653,98.1587513 24.7804403,98.1489227 C24.5209121,98.0538463 24.2762762,97.9272731 24.0512839,97.773855 C23.8974154,97.6689619 23.7527939,97.5515556 23.6188032,97.423072 L23.618896,97.423082 C23.5827221,97.3884738 23.5474118,97.3530723 23.5129009,97.3168962 L23.5128679,97.3167554 C23.4036858,97.2024114 23.3024761,97.0801684 23.2101746,96.9510735 C23.0327813,96.7027291 22.8879738,96.428405 22.7827717,96.1351077 L22.7404661,96.0086988 L22.7177551,95.9357713 L22.7078324,95.8922799 L22.5929898,95.4450218 C22.5239207,95.0578168 22.4878774,94.6591751 22.4878774,94.252115 C22.4878774,93.3412513 22.6722879,92.4398161 23.0299963,91.6021303 L41.5184661,48.3036988 Z" id="形状结合" fill="#4E4E4E" opacity="0.15" mask="url(#mask-2)"></path>
                <path d="M73,81.8115194 L119.20214,98.2361545 C119.479773,98.311206 119.771715,98.3512372 120.072973,98.3512372 C121.531107,98.3512372 122.770996,97.4134216 123.22665,96.1062759 L123.27252,95.9630636 C122.758058,97.9054304 121.391118,99.599323 119.407771,100.452417 C118.567816,100.813706 117.663493,101 116.749649,101 L29.2503511,101 C26.1190281,101 23.485863,98.8593824 22.7243844,95.956667 C23.1346898,97.341414 24.4127653,98.3512372 25.9258437,98.3512372 C26.1517869,98.3512372 26.37249,98.3287196 26.5858465,98.2857985 L26.7966761,98.2361545 L73,81.8115194 Z" id="路径" fill="#4E4E4E" opacity="0.5" mask="url(#mask-2)"></path>
            </g>
            <g id="编组-2" transform="translate(0.000000, 35.714286)" fill="#4E4E4E" fill-rule="nonzero">
                <g id="编组-5">
                    <path d="M17.32,13.54 C17.6,13.54 17.9,13.36 17.9,12.92 L17.9,6.68 L14.48,6.68 L14.48,9.98 C13.76,10.22 12.06,10.54 8.96,10.54 C5.56,10.54 3.54,9.62 3.54,6.7 C3.54,3.86 5.7,3.02 10.12,3.02 C13.6,3.02 16.44,3.52 17.38,3.7 L17.38,0.74 C16.44,0.5 14.04,9.09494702e-13 10.12,9.09494702e-13 C3.54,9.09494702e-13 0,1.84 0,6.7 C0,11.5 2.9,13.54 8.66,13.54 C12.32,13.54 13.82,12.82 14.82,12.46 L16.64,13.34 C16.86,13.44 17.08,13.54 17.32,13.54 Z" id="路径"></path>
                    <path d="M35.62,1.13686838e-13 C37.42,1.13686838e-13 38.1,0.66 38.76,1.74 L38.76,1.74 L45.74,13.26 L42,13.26 L40.46,10.6 L30.76,10.6 L29.2,13.26 L25.48,13.26 L32.5,1.74 C33.16,0.66 33.8,1.13686838e-13 35.62,1.13686838e-13 Z M35.62,3.2 C35.28,3.2 35.02,3.36 34.8,3.7 L34.8,3.7 L32.48,7.7 L38.76,7.7 L36.42,3.7 C36.2,3.34 35.94,3.2 35.62,3.2 Z" id="形状结合"></path>
                    <path d="M57.04,13.26 L57.04,4.4 L61.82,9.72 C62.36,10.32 62.86,10.68 63.58,10.68 C64.36,10.68 64.86,10.28 65.36,9.72 L70.1,4.36 L70.1,13.26 L73.46,13.26 L73.46,1.54 C73.46,0.58 72.9,0 71.5,0 C70.08,0 69.6,0.4 69.02,1.06 L63.58,7.06 L58.16,1.06 C57.56,0.4 57.1,0 55.66,0 C54.26,0 53.72,0.58 53.72,1.54 L53.72,13.26 L57.04,13.26 Z" id="路径"></path>
                    <polygon id="路径" points="98.1 13.26 98.1 10.44 86.7 10.44 86.7 8.06 97.72 8.06 97.72 5.34 86.7 5.34 86.7 3.1 98.1 3.1 98.1 0.28 83.4 0.28 83.4 13.26"></polygon>
                    <path d="M215.74,13.54 C218.66,13.54 220.92,13.24 222.12,12.86 L222.12,9.9 C220.74,10.28 218.26,10.54 215.88,10.54 C211,10.54 209.42,9.5 209.42,6.8 C209.42,4.08 211,3.02 215.88,3.02 C218.22,3.02 220.64,3.36 221.96,3.64 L221.96,0.66 C220.72,0.36 218.56,9.09494702e-13 215.74,9.09494702e-13 C208.84,9.09494702e-13 205.84,2.08 205.84,6.8 C205.84,11.52 208.84,13.54 215.74,13.54 Z" id="路径"></path>
                    <polygon id="路径" points="246.06 13.26 246.06 10.44 234.66 10.44 234.66 8.06 245.68 8.06 245.68 5.34 234.66 5.34 234.66 3.1 246.06 3.1 246.06 0.28 231.36 0.28 231.36 13.26"></polygon>
                    <path d="M271.34,13.54 C272.5,13.54 273.02,12.96 273.02,12.26 L273.02,0.28 L269.74,0.28 L269.74,9.24 L259.76,0.88 C259.06,0.28 258.6,9.09494702e-13 257.46,9.09494702e-13 C256.26,9.09494702e-13 255.72,0.58 255.72,1.5 L255.72,13.26 L259,13.26 L259,4.4 L268.88,12.74 C269.56,13.3 270.1,13.54 271.34,13.54 Z" id="路径"></path>
                    <polygon id="路径" points="292.18 13.26 292.18 3.3 299.14 3.3 299.14 0.28 281.84 0.28 281.84 3.3 288.8 3.3 288.8 13.26"></polygon>
                    <polygon id="路径" points="322.66 13.26 322.66 10.44 311.26 10.44 311.26 8.06 322.28 8.06 322.28 5.34 311.26 5.34 311.26 3.1 322.66 3.1 322.66 0.28 307.96 0.28 307.96 13.26"></polygon>
                    <path d="M342.52,0.28 C345.62,0.28 347.72,1.82 347.72,4.64 C347.72,7.02 346.22,8.48 343.88,8.86 L343.88,8.86 L349.06,13.26 L344.48,13.26 L339.48,8.98 L335.7,8.98 L335.7,13.26 L332.32,13.26 L332.32,0.28 Z M342.36,3.14 L335.7,3.14 L335.7,6.12 L342.36,6.12 C343.6,6.12 344.22,5.58 344.22,4.64 C344.22,3.7 343.6,3.14 342.36,3.14 L342.36,3.14 Z" id="形状结合"></path>
                </g>
            </g>
        </g>
    </g>
</svg>