<?xml version="1.0" encoding="UTF-8"?>
<svg width="564px" height="564px" viewBox="0 0 564 564" version="1.1" xmlns="http://www.w3.org/2000/svg" xmlns:xlink="http://www.w3.org/1999/xlink">
    <title>com_android_camera_b_s5_2x2_mc</title>
    <g id="com_android_camera" stroke="none" stroke-width="1" fill="none" fill-rule="evenodd">
        <g id="主色" transform="translate(166.762626, 166.762626)" fill="#000000" fill-rule="nonzero">
            <path d="M115.737374,0 C179.65736,0 231.474747,51.8173872 231.474747,115.737374 C231.474747,179.65736 179.65736,231.474747 115.737374,231.474747 C51.8173872,231.474747 0,179.65736 0,115.737374 C0,51.8173872 51.8173872,0 115.737374,0 Z M115.737374,34.040404 C70.6173833,34.040404 34.040404,70.6173833 34.040404,115.737374 C34.040404,160.857364 70.6173833,197.434343 115.737374,197.434343 C160.857364,197.434343 197.434343,160.857364 197.434343,115.737374 C197.434343,70.6173833 160.857364,34.040404 115.737374,34.040404 Z M147.416734,17.5822751 L147.055659,17.6899377 L139.713419,26.5043181 L141.492759,27.0483169 L141.855016,26.939228 L143.610104,24.8073053 L147.80765,26.0908944 L148.0571,28.8336505 L148.29659,29.1284567 L150.100804,29.6800603 L149.000343,18.2860756 L148.76104,17.9932705 L147.416734,17.5822751 Z M86.3873286,17.7171954 C85.4601966,17.3743384 84.4133801,17.3643514 83.254792,17.6801394 C82.1904999,17.9702258 81.3543675,18.4635668 80.7556115,19.1619198 C80.1603379,19.8562109 79.8011879,20.6725006 79.6807288,21.602889 C79.5623382,22.5173003 79.6536826,23.4712787 79.9526139,24.4623722 C80.2536633,25.4604882 80.7026474,26.3169472 81.3000295,27.02889 C81.9079549,27.7533981 82.6584422,28.2595502 83.545452,28.5426961 C84.4370372,28.8273024 85.426193,28.8194955 86.5067053,28.524988 C87.676357,28.2061844 88.5600232,27.6714961 89.1461392,26.9168028 C89.657748,26.2580464 89.9532715,25.4644553 90.0331869,24.5441278 L90.0331869,24.5441278 L90.0785646,23.6875 L88.1046875,24.2255055 L88.0480579,24.7466697 L87.9907154,25.0296631 C87.8963731,25.3944026 87.7305557,25.7085924 87.4940672,25.9697252 C87.1410093,26.3595748 86.6491373,26.6424006 86.0104727,26.8164768 C85.3750928,26.9896578 84.7901986,26.9835476 84.2477149,26.8016715 C83.7000457,26.6180569 83.2229073,26.2843597 82.8121021,25.7948791 C82.3928763,25.2953653 82.0701584,24.6738716 81.8450755,23.9276195 C81.622951,23.1911753 81.5522905,22.5098301 81.6302778,21.881871 C81.7065634,21.2676143 81.9236513,20.7479904 82.2823139,20.3151881 C82.6368399,19.8873775 83.1257508,19.58753 83.7589546,19.4149422 C84.400046,19.2402045 84.969549,19.2280331 85.4724401,19.3730465 C85.897815,19.4957074 86.2953448,19.7475301 86.6672217,20.1344354 L86.6672217,20.1344354 L86.8619811,20.3519834 L87.2049563,20.453177 L88.9595649,19.974936 L88.4562477,19.2732793 L88.2048041,18.9701574 C87.6872973,18.3909808 87.0819864,17.9740825 86.3873286,17.7171954 Z M96.1339796,15.0752114 L94.7496084,15.3192267 L94.476766,15.5790794 L91.9364271,26.7660571 L93.7688009,26.4429602 L94.0419989,26.181524 L94.6399198,23.4826984 L98.9633635,22.7223451 L100.428073,25.0533608 L100.775422,25.2075038 L102.633411,24.8798901 L96.4801323,15.2273745 L96.1339796,15.0752114 Z M131.856283,14.4034305 L129.983589,25.0239756 L131.91129,25.3638814 L132.658992,21.1213731 L134.761622,21.4934237 L136.343127,25.9696004 L136.605004,26.1915097 L138.643559,26.550962 L136.801499,21.5596709 L137.066111,21.506334 L137.364047,21.4139726 L137.651959,21.2945445 C138.022202,21.1205723 138.338302,20.8875378 138.605232,20.59396 C139.005475,20.1537614 139.263075,19.6029256 139.378352,18.9491556 C139.489295,18.3199696 139.430692,17.734381 139.200037,17.200489 C138.969961,16.6679387 138.590406,16.2248578 138.068359,15.8752411 C137.658949,15.6010572 137.177513,15.3960377 136.625642,15.2590578 L136.625642,15.2590578 L136.214568,15.1720687 L131.856283,14.4034305 Z M115.613645,13.3638607 L113.456806,13.4698431 L113.154134,13.6920564 L110.217086,21.6522837 L106.328494,14.021295 L106.008483,13.8358375 L103.861425,13.9413393 L104.462808,24.7114772 L106.41762,24.615422 L106.029064,17.6775569 L109.422877,24.267918 L109.742213,24.4520587 L111.002698,24.3901211 L111.304714,24.1696738 L113.863632,17.346183 L114.260811,24.2300245 L116.215028,24.1339985 L115.613645,13.3638607 Z M120.011836,13.3464464 L119.231815,24.1040302 L127.151869,24.6383634 L127.280216,22.8682821 L121.311966,22.4655752 L121.515987,19.6518639 L126.811571,20.0105896 L126.940907,18.2268702 L121.645849,17.8684395 L121.834363,15.2604333 L127.702386,15.6577411 L127.831721,13.8740217 L120.011836,13.3464464 Z M147.29506,20.3486699 L147.635243,24.1677138 L144.844762,23.3155298 L147.29506,20.3486699 Z M95.8960031,17.837735 L97.9364908,21.0872555 L95.0627137,21.5937389 L95.8960031,17.837735 Z M133.473276,16.5036841 L135.737459,16.9035749 L136.007275,16.9595282 C136.523651,17.0840174 136.900844,17.2836389 137.145286,17.5518394 C137.415061,17.8478339 137.510219,18.1888165 137.436524,18.606759 C137.354209,19.0735936 137.136342,19.3936137 136.771758,19.5950096 L136.771758,19.5950096 L136.600183,19.6758816 C136.241404,19.8183472 135.788544,19.8447147 135.236035,19.7472925 L135.236035,19.7472925 L132.970853,19.3462324 L133.473276,16.5036841 Z" id="形状结合"></path>
        </g>
    </g>
</svg>