<?xml version="1.0" encoding="UTF-8"?>
<svg width="564px" height="240px" viewBox="0 0 564 240" version="1.1" xmlns="http://www.w3.org/2000/svg" xmlns:xlink="http://www.w3.org/1999/xlink">
    <title>com_vivo_minigamecenter_b_s5_2x1_sc</title>
    <defs>
        <path d="M61.5332448,-2.48601674e-15 L460.466755,1.45059527e-14 C481.863205,-8.42837627e-15 489.622075,2.22781467 497.444297,6.41118489 C505.266519,10.5945551 511.405445,16.7334809 515.588815,24.5557031 C519.772185,32.3779253 522,40.136795 522,61.5332448 L522,136.466755 C522,157.863205 519.772185,165.622075 515.588815,173.444297 C511.405445,181.266519 505.266519,187.405445 497.444297,191.588815 C489.622075,195.772185 481.863205,198 460.466755,198 L61.5332448,198 C40.136795,198 32.3779253,195.772185 24.5557031,191.588815 C16.7334809,187.405445 10.5945551,181.266519 6.41118489,173.444297 C2.22781467,165.622075 9.62964878e-16,157.863205 -1.65734449e-15,136.466755 L1.65734449e-15,61.5332448 C-9.62964878e-16,40.136795 2.22781467,32.3779253 6.41118489,24.5557031 C10.5945551,16.7334809 16.7334809,10.5945551 24.5557031,6.41118489 C32.3779253,2.22781467 40.136795,1.44444732e-15 61.5332448,-2.48601674e-15 Z" id="path-1"></path>
    </defs>
    <g id="com_vivo_minigamecenter" stroke="none" stroke-width="1" fill="none" fill-rule="evenodd">
        <g id="编组-2" transform="translate(21.000000, 21.000000)">
            <path d="M440.677901,41.7312535 L432.953133,41.7312535 C428.61064,41.7312535 428.224564,38.169998 428.224564,37.0818889 C428.224564,35.9937799 428.61064,32.4325244 432.953133,32.4325244 L440.677901,32.4325244 C445.020394,32.4325244 445.406641,35.9937799 445.406641,37.0818889 C445.406641,38.169998 445.020394,41.7312535 440.677901,41.7312535 M440.677901,28.5162234 L432.953133,28.5162234 C424.925093,28.5162234 424.211059,35.0772791 424.211059,37.0818889 C424.211059,39.0866702 424.925093,45.647726 432.953133,45.647726 L440.677901,45.647726 C448.706112,45.647726 449.420146,39.0866702 449.420146,37.0818889 C449.420146,35.0772791 448.706112,28.5162234 440.677901,28.5162234" id="Fill-1" fill="#4E4E4E"></path>
            <path d="M422.660807,28.9178654 L420.157145,28.9178654 C419.084808,28.9178654 418.863826,29.1009598 418.449978,29.7145319 C418.036644,30.3282755 410.875217,41.2614825 410.875217,41.2614825 C410.646692,41.59767 410.404452,41.7336193 410.102894,41.7336193 C409.801509,41.7336193 409.559268,41.59767 409.330743,41.2614825 C409.330743,41.2614825 402.169145,30.3282755 401.755639,29.7145319 C401.341791,29.1009598 401.121152,28.9178654 400.048815,28.9178654 L397.544981,28.9178654 C396.968782,28.9178654 396.705113,29.3684011 397.067359,29.9185417 C397.429604,30.4686822 405.620681,42.9060752 405.620681,42.9060752 C406.947944,44.8583969 407.922048,45.6476917 410.102894,45.6476917 C412.283741,45.6476917 413.258016,44.8583969 414.585451,42.9060752 C414.585451,42.9060752 422.776356,30.4686822 423.13843,29.9185417 C423.500676,29.3684011 423.237178,28.9178654 422.660807,28.9178654" id="Fill-4" fill="#4E4E4E"></path>
            <path d="M389.406759,29.9788017 C389.406759,29.218994 389.707973,28.9179511 390.46761,28.9179511 L392.3601,28.9179511 C393.119565,28.9179511 393.420779,29.218994 393.420779,29.9788017 L393.420779,44.5867554 C393.420779,45.346563 393.119565,45.647606 392.3601,45.647606 L390.46761,45.647606 C389.707973,45.647606 389.406759,45.346563 389.406759,44.5867554 L389.406759,29.9788017 Z" id="Fill-6" fill="#4E4E4E"></path>
            <path d="M389.234311,25.5077999 C388.617481,24.8911419 388.617481,24.4022043 389.234311,23.7853749 L390.552316,22.4671978 C391.169317,21.8503684 391.658426,21.8503684 392.274913,22.4670263 L393.593261,23.7853749 C394.209748,24.4022043 394.209748,24.8911419 393.593261,25.5077999 L392.274913,26.825977 C391.658426,27.4428065 391.169317,27.4428065 390.552316,26.825977 L389.234311,25.5077999 Z" id="Fill-8" fill="#4E4E4E"></path>
            <path d="M385.282728,28.9178654 L382.779066,28.9178654 C381.706557,28.9178654 381.485747,29.1009598 381.07207,29.7145319 C380.658565,30.3282755 373.496795,41.2614825 373.496795,41.2614825 C373.268441,41.59767 373.026201,41.7336193 372.724643,41.7336193 C372.423086,41.7336193 372.181018,41.59767 371.952492,41.2614825 C371.952492,41.2614825 364.790894,30.3282755 364.377388,29.7145319 C363.963883,29.1009598 363.742729,28.9178654 362.670393,28.9178654 L360.16673,28.9178654 C359.523157,28.9178654 359.32669,29.3684011 359.689108,29.9185417 C360.051353,30.4686822 368.242258,42.9060752 368.242258,42.9060752 C369.569522,44.8583969 370.543797,45.6476917 372.724643,45.6476917 C374.90549,45.6476917 375.879765,44.8583969 377.2072,42.9060752 C377.2072,42.9060752 385.398105,30.4686822 385.760351,29.9185417 C386.122425,29.3684011 385.92613,28.9178654 385.282728,28.9178654" id="Fill-11" fill="#4E4E4E"></path>
            <mask id="mask-2" fill="white">
                <use xlink:href="#path-1"></use>
            </mask>
            <g id="蒙版"></g>
            <path d="M431,131 C439.284271,131 446,124.284271 446,116 C446,107.715729 439.284271,101 431,101 C422.715729,101 416,107.715729 416,116 C416,124.284271 422.715729,131 431,131 Z" id="椭圆形备份-36" fill="#4E4E4E" fill-rule="nonzero" opacity="0.8" mask="url(#mask-2)"></path>
            <path d="M117,91 C125.284271,91 132,84.2842713 132,76 C132,67.7157288 125.284271,61 117,61 C108.715729,61 102,67.7157288 102,76 C102,84.2842713 108.715729,91 117,91 Z" id="椭圆形备份-38" fill="#4E4E4E" fill-rule="nonzero" opacity="0.8" mask="url(#mask-2)"></path>
            <path d="M165.178893,107.236349 C165.613414,107.522471 165.984012,107.89543 166.267368,108.33176 L185.914063,138.586604 L183.032063,159.098604 L170.728381,140.153331 C170.419646,139.677921 169.970284,139.310674 169.442923,139.102774 C168.099354,138.573103 166.587792,139.185319 165.980872,140.473377 L165.909796,140.637871 L160.051029,155.499274 L130.591709,175.328308 L113.933537,175.365994 C113.409035,175.367181 112.896029,175.519771 112.456144,175.805436 C111.241193,176.594434 110.863681,178.188011 111.56902,179.431593 L111.655225,179.573464 L128.083897,204.8714 C130.628807,208.790218 135.819695,209.954991 139.785224,207.542842 L140.004246,207.405148 L180.998395,180.782454 C181.750585,188.605051 185.018502,195.834968 190.080606,201.514687 L154.802012,224.42494 C143.576231,231.715047 128.566138,228.524553 121.276031,217.298772 L84.848727,161.205644 C83.7147103,159.459411 84.2110094,157.124508 85.957242,155.990491 C86.3935716,155.707135 86.8838264,155.517155 87.3971573,155.432506 L108.126656,152.014181 C110.071134,151.693534 111.578959,150.141938 111.843847,148.189083 L115.130612,123.957819 C115.410474,121.894569 117.309942,120.448848 119.373192,120.72871 C119.559126,120.753931 119.742918,120.792997 119.923035,120.845583 L143.396244,127.698717 C145.288005,128.251027 147.318747,127.504651 148.402563,125.858702 L159.956805,108.31172 C161.101889,106.572725 163.439898,106.091265 165.178893,107.236349 Z M142.410095,183.218779 C145.537726,184.812387 146.781298,188.639706 145.18769,191.767337 C143.594083,194.894968 139.766763,196.13854 136.639132,194.544932 C133.511502,192.951325 132.26793,189.124005 133.861537,185.996374 C135.455145,182.868743 139.282465,181.625172 142.410095,183.218779 Z M169.720127,165.55614 C172.847757,167.149747 174.091329,170.977067 172.497721,174.104698 C170.904114,177.232329 167.076794,178.4759 163.949164,176.882293 C160.821533,175.288685 159.577961,171.461365 161.171569,168.333735 C162.765176,165.206104 166.592496,163.962532 169.720127,165.55614 Z" id="形状结合" fill="#4E4E4E" mask="url(#mask-2)"></path>
            <path d="M350.709842,114.192355 C351.120622,114.469429 351.469607,114.828525 351.73484,115.247048 L362.44555,132.14796 C363.45024,133.733307 365.37158,134.477787 367.182163,133.983301 L389.648103,127.847657 C391.561039,127.325218 393.5353,128.452437 394.057739,130.365373 C394.10482,130.537761 394.138965,130.713424 394.159891,130.890896 L396.88691,154.019406 C397.106687,155.883387 398.516703,157.385935 400.362975,157.723587 L420.045531,161.323191 C421.996172,161.67993 423.288285,163.550431 422.931546,165.501073 C422.842408,165.988478 422.653354,166.452158 422.37628,166.862937 L386.517527,220.025725 C379.521047,230.398434 365.440537,233.135407 355.067828,226.138927 L322.254013,204.006808 C323.892852,200.681107 325.038142,197.041809 325.58229,193.16999 L325.58229,193.16999 L327.195504,181.683146 L368.209358,209.346815 C371.897432,211.834452 376.879422,210.925395 379.459032,207.338129 L379.602457,207.132221 L396.139276,182.615378 C396.441166,182.167807 396.595902,181.637202 396.581918,181.097515 C396.546352,179.72493 395.450902,178.629032 394.09909,178.572754 L393.921379,178.571372 L378.71262,178.965457 L350.366529,160.518194 L344.134571,145.928476 C343.93835,145.469103 343.613676,145.076148 343.19955,144.796816 C342.057436,144.026451 340.522768,144.286592 339.69416,145.363691 L339.598186,145.496851 L330.356504,159.198146 L334.129504,132.352146 L345.725362,115.16124 C346.834238,113.517264 349.065866,113.083479 350.709842,114.192355 Z M372.030696,188.334884 C375.365621,188.568085 377.880065,191.460623 377.646865,194.795548 C377.413664,198.130473 374.521127,200.644917 371.186202,200.411716 C367.851277,200.178516 365.336832,197.285978 365.570033,193.951053 C365.803234,190.616128 368.695771,188.101684 372.030696,188.334884 Z M343.777149,169.390804 C347.112074,169.624004 349.626518,172.516542 349.393317,175.851467 C349.160117,179.186392 346.267579,181.700836 342.932654,181.467636 C339.597729,181.234435 337.083285,178.341897 337.316485,175.006972 C337.549686,171.672047 340.442224,169.157603 343.777149,169.390804 Z" id="形状结合" fill="#4E4E4E" mask="url(#mask-2)"></path>
            <path d="M232,65 C237.522847,65 242,60.5228475 242,55 C242,49.4771525 237.522847,45 232,45 C226.477152,45 222,49.4771525 222,55 C222,60.5228475 226.477152,65 232,65 Z" id="椭圆形备份-35" fill="#4E4E4E" fill-rule="nonzero" mask="url(#mask-2)"></path>
        </g>
    </g>
</svg>