<?xml version="1.0" encoding="UTF-8"?>
<svg width="240px" height="564px" viewBox="0 0 240 564" version="1.1" xmlns="http://www.w3.org/2000/svg" xmlns:xlink="http://www.w3.org/1999/xlink">
    <title>com_android_camera_packet_camerapacketactivity_b_s5_1x2_sc</title>
    <g id="com_android_camera_packet_camerapacketactivity" stroke="none" stroke-width="1" fill="none" fill-rule="evenodd">
        <g id="辅色" transform="translate(39.975000, 270.750000)" fill="#4E4E4E">
            <path d="M5.746,17.442 L5.746,0.476 L0,0.476 L0,22.542 L24.926,22.542 L24.926,17.442 L5.746,17.442 Z M68.9357222,5.27 L68.9357222,0.476 L43.1957222,0.476 L43.1957222,22.542 L68.9357222,22.542 L68.9357222,17.748 L48.8057222,17.748 L48.8057222,13.702 L68.2897222,13.702 L68.2897222,9.078 L48.8057222,9.078 L48.8057222,5.27 L68.9357222,5.27 Z M117.433944,23.018 C119.405944,23.018 120.289944,22.032 120.289944,20.842 L120.289944,0.476 L114.713944,0.476 L114.713944,15.708 L98.4979444,1.496 C97.3079444,0.476 96.5259444,0 94.5879444,0 C92.5479444,0 91.6299444,0.986 91.6299444,2.55 L91.6299444,22.542 L97.2059444,22.542 L97.2059444,7.48 L113.251944,21.658 C114.407944,22.61 115.325944,23.018 117.433944,23.018 Z M147.370167,23.018 C141.182167,23.018 136.864167,22.27 134.314167,21.59 L134.314167,16.694 L135.034891,16.8451003 C137.702902,17.3871176 142.257167,18.122 147.744167,18.122 L148.688363,18.1161236 C153.666969,18.0508651 154.272167,17.4426415 154.272167,16.32 C154.272167,15.164 153.218167,14.79 151.348167,14.518 L141.998167,13.192 L141.260145,13.0774614 C137.200753,12.4109562 133.872167,11.1866415 133.872167,6.664 C133.872167,2.37329577 136.516087,0.0655314422 146.398202,0.00137515751 L146.826167,0 C152.334167,0 156.618167,0.51 159.100167,1.02 L159.100167,5.916 L158.572718,5.82599822 C156.091126,5.41473422 152.164602,4.93186622 147.363224,4.89790022 L146.164399,4.89769974 C140.617785,4.92734156 139.924167,5.34933333 139.924167,6.528 C139.924167,7.65 141.182167,7.956 142.916167,8.228 L152.572167,9.588 C157.570167,10.302 160.324167,11.934 160.324167,16.252 C160.324167,20.91 157.298167,23.018 147.370167,23.018 Z" id="LENS"></path>
        </g>
    </g>
</svg>