<?xml version="1.0" encoding="UTF-8"?>
<svg width="564px" height="564px" viewBox="0 0 564 564" version="1.1" xmlns="http://www.w3.org/2000/svg" xmlns:xlink="http://www.w3.org/1999/xlink">
    <title>com_vivo_space_b_s5_2x2_mc</title>
    <g id="com_vivo_space" stroke="none" stroke-width="1" fill="none" fill-rule="evenodd">
        <g id="主色" transform="translate(150.400000, 244.400000)" fill="#000000">
            <path d="M237.60857,55.8806449 L214.99563,55.8806449 C202.283724,55.8806449 201.153553,45.7925276 201.153553,42.7101957 C201.153553,39.6278638 202.283724,29.5397465 214.99563,29.5397465 L237.60857,29.5397465 C250.320476,29.5397465 251.451148,39.6278638 251.451148,42.7101957 C251.451148,45.7925276 250.320476,55.8806449 237.60857,55.8806449 M237.60857,18.445877 L214.99563,18.445877 C191.494914,18.445877 189.404701,37.0316536 189.404701,42.7101957 C189.404701,48.3892234 191.494914,66.975 214.99563,66.975 L237.60857,66.975 C261.109787,66.975 263.2,48.3892234 263.2,42.7101957 C263.2,37.0316536 261.109787,18.445877 237.60857,18.445877 M184.866606,19.5836251 L177.537562,19.5836251 C174.398479,19.5836251 173.751592,20.1022844 172.540122,21.8403757 C171.330157,23.5789527 150.366302,54.549905 150.366302,54.549905 C149.697334,55.5022373 148.988217,55.8873466 148.10546,55.8873466 C147.223204,55.8873466 146.514088,55.5022373 145.845119,54.549905 C145.845119,54.549905 124.880762,23.5789527 123.670296,21.8403757 C122.458826,20.1022844 121.812942,19.5836251 118.673859,19.5836251 L111.344314,19.5836251 C109.65759,19.5836251 108.885742,20.8598766 109.946155,22.4182826 C111.006568,23.9766886 134.984545,59.2086115 134.984545,59.2086115 C138.869881,64.7390346 141.721403,66.9749029 148.10546,66.9749029 C154.489517,66.9749029 157.34154,64.7390346 161.227379,59.2086115 C161.227379,59.2086115 185.204854,23.9766886 186.264765,22.4182826 C187.325178,20.8598766 186.553831,19.5836251 184.866606,19.5836251 M87.521058,22.5889837 C87.521058,20.4366448 88.4028116,19.5838679 90.6265169,19.5838679 L96.1664589,19.5838679 C98.3896623,19.5838679 99.2714159,20.4366448 99.2714159,22.5889837 L99.2714159,63.9695443 C99.2714159,66.1218832 98.3896623,66.9746601 96.1664589,66.9746601 L90.6265169,66.9746601 C88.4028116,66.9746601 87.521058,66.1218832 87.521058,63.9695443 L87.521058,22.5889837 Z M87.0162453,9.9237902 C85.2105825,8.1769574 85.2105825,6.79192343 87.0162453,5.04460499 L90.8744819,1.31054954 C92.6806465,-0.4367689 94.1124297,-0.4367689 95.9170887,1.31006391 L99.776329,5.04460499 C101.580988,6.79192343 101.580988,8.1769574 99.776329,9.9237902 L95.9170887,13.6578457 C94.1124297,15.4051641 92.6806465,15.4051641 90.8744819,13.6578457 L87.0162453,9.9237902 Z M75.4486618,19.5836251 L68.1196182,19.5836251 C64.9800333,19.5836251 64.3336482,20.1022844 63.1226798,21.8403757 C61.9122133,23.5789527 40.9473546,54.549905 40.9473546,54.549905 C40.278888,55.5022373 39.5697714,55.8873466 38.6870141,55.8873466 C37.8042568,55.8873466 37.095642,55.5022373 36.4266736,54.549905 C36.4266736,54.549905 15.4623167,23.5789527 14.2518502,21.8403757 C13.0413836,20.1022844 12.3939948,19.5836251 9.25491185,19.5836251 L1.92586824,19.5836251 C0.0419165994,19.5836251 -0.533205558,20.8598766 0.527709137,22.4182826 C1.58812198,23.9766886 25.565597,59.2086115 25.565597,59.2086115 C29.4509336,64.7390346 32.3029574,66.9749029 38.6870141,66.9749029 C45.0710708,66.9749029 47.9230945,64.7390346 51.808933,59.2086115 C51.808933,59.2086115 75.786408,23.9766886 76.8468209,22.4182826 C77.9067319,20.8598766 77.3321116,19.5836251 75.4486618,19.5836251" id="形状结合"></path>
        </g>
    </g>
</svg>