<?xml version="1.0" encoding="UTF-8"?>
<svg width="240px" height="564px" viewBox="0 0 240 564" version="1.1" xmlns="http://www.w3.org/2000/svg" xmlns:xlink="http://www.w3.org/1999/xlink">
    <title>com_android_settings_b_s5_1x2_sc</title>
    <defs>
        <path d="M61.5332448,-2.48601674e-15 L136.466755,2.48601674e-15 C157.863205,-1.44444732e-15 165.622075,2.22781467 173.444297,6.41118489 C181.266519,10.5945551 187.405445,16.7334809 191.588815,24.5557031 C195.772185,32.3779253 198,40.136795 198,61.5332448 L198,376.466755 C198,397.863205 195.772185,405.622075 191.588815,413.444297 C187.405445,421.266519 181.266519,427.405445 173.444297,431.588815 C165.622075,435.772185 157.863205,438 136.466755,438 L61.5332448,438 C40.136795,438 32.3779253,435.772185 24.5557031,431.588815 C16.7334809,427.405445 10.5945551,421.266519 6.41118489,413.444297 C2.22781467,405.622075 9.62964878e-16,397.863205 -1.65734449e-15,376.466755 L1.65734449e-15,61.5332448 C-9.62964878e-16,40.136795 2.22781467,32.3779253 6.41118489,24.5557031 C10.5945551,16.7334809 16.7334809,10.5945551 24.5557031,6.41118489 C32.3779253,2.22781467 40.136795,1.44444732e-15 61.5332448,-2.48601674e-15 Z" id="path-1"></path>
    </defs>
    <g id="com_android_settings" stroke="none" stroke-width="1" fill="none" fill-rule="evenodd">
        <g id="辅色" transform="translate(21.000000, 63.000000)">
            <mask id="mask-2" fill="white">
                <use xlink:href="#path-1"></use>
            </mask>
            <g id="蒙版"></g>
            <path d="M150.119374,175.55678 C173.856768,175.55678 193.099728,194.799741 193.099728,218.537135 C193.099728,242.27453 173.856768,261.51749 150.119374,261.51749 C126.381979,261.51749 107.139019,242.27453 107.139019,218.537135 C107.139019,194.799741 126.381979,175.55678 150.119374,175.55678 Z M150.119374,197.842495 C138.690039,197.842495 129.424733,207.107801 129.424733,218.537135 C129.424733,229.96647 138.690039,239.231776 150.119374,239.231776 C161.548708,239.231776 170.814014,229.96647 170.814014,218.537135 C170.814014,207.107801 161.548708,197.842495 150.119374,197.842495 Z" id="形状结合" fill="#4E4E4E" mask="url(#mask-2)"></path>
        </g>
    </g>
</svg>