<?xml version="1.0" encoding="UTF-8"?>
<svg width="240px" height="564px" viewBox="0 0 240 564" version="1.1" xmlns="http://www.w3.org/2000/svg" xmlns:xlink="http://www.w3.org/1999/xlink">
    <title>com_vivo_newsreader_b_s5_1x2_mc</title>
    <g id="com_vivo_newsreader" stroke="none" stroke-width="1" fill="none" fill-rule="evenodd">
        <path d="M145.848606,218.886665 C152.612278,221.203931 155.49043,222.382247 161.114807,226.525623 C165.282774,229.596088 168.697719,236.154711 171.359642,246.201492 L170.20237,320.916607 C170.20237,331.351775 155.101447,335.273918 144.756409,336.506908 L116.955,346.20004 L102.766266,347.191779 L116.955,346.200472 L105.38799,347.265478 C97.4755017,347.993783 89.5388386,346.223077 82.6918032,342.21039 L82.1927613,341.912781 C80.8598295,341.104003 79.5275678,340.300488 78.1959763,339.502239 C75.0722558,337.629661 71.9426336,335.178013 68.8071096,332.147295 C65.2100862,328.670503 63.1337197,323.919981 63.0170754,318.930478 L63.0118803,318.489634 L63,258.228009 L63.0133404,258.227004 L63,257.675123 L63,241.885233 C63,232.089493 70.3243932,223.856285 80.030361,222.664867 L80.3739055,222.62575 L86.4664129,221.981971 L124.770345,217.9642 C124.762009,217.964531 124.753673,217.964863 124.745336,217.965195 L131.981062,217.471018 C138.411775,217.450585 143.03429,217.922467 145.848606,218.886665 Z M91,310.439657 C91,310.7203 91.0147676,311.000749 91.0442415,311.27984 L91.0947226,311.74998 C91.5493364,315.899619 92.2739625,319.910208 96.4108658,319.600891 L99.2680511,320.916607 L143.463478,317.674561 C147.449072,317.253654 152.112149,310.16024 152.237297,306.180412 L152.237297,255.073856 L148.995996,253.870327 L148.995,253.619382 L148.994126,253.563825 C148.987295,253.385643 148.974507,253.207711 148.955778,253.030327 C148.500612,248.719375 144.701222,245.57128 140.408202,245.892171 L140.16,245.914549 L98.1600002,250.349061 C94.1743283,250.769882 91.129156,254.070005 91.0040038,258.049901 L91,258.304839 L91,307.402472 L91,307.403682 L91,310.439657 Z" id="形状结合" fill="#000000"></path>
    </g>
</svg>