<?xml version="1.0" encoding="UTF-8"?>
<svg width="240px" height="564px" viewBox="0 0 240 564" version="1.1" xmlns="http://www.w3.org/2000/svg" xmlns:xlink="http://www.w3.org/1999/xlink">
    <title>com_vivo_vhome_b_s5_1x2_mc</title>
    <g id="com_vivo_vhome" stroke="none" stroke-width="1" fill="none" fill-rule="evenodd">
        <path d="M170.472641,289.905764 C174.377884,286.000521 176.106838,279.119427 172.201595,275.214184 C169.606002,272.618591 165.859209,270.112661 162.398878,271.0902 L160.503849,271.45149 C155.23727,273.114316 151.17366,271.851954 149.510834,266.585375 C147.848008,261.318796 148.964246,256.914062 154.230825,255.251236 L154.554625,254.20994 L154.575273,254.203902 C164.995484,251.160536 176.372783,253.947407 184.212901,261.787526 C195.92863,273.503254 195.92863,292.498204 184.212901,304.213933 C172.497173,315.929661 153.502223,315.929661 141.786495,304.213933 L105.556349,267.443651 C96.9648148,258.852116 83.0351852,258.852116 74.4436508,267.443651 C68.9654223,272.921879 66.980282,280.570435 68.4882299,287.621581 L68.4844731,287.604873 C68.7751167,288.968874 68.9723136,290.196207 69.7181325,292.048603 C71.166646,295.646288 73.6563634,300.123605 75.7144089,302.18165 C81.4420985,307.90934 95.3122106,311.187329 117.324745,312.015618 C119.753282,311.525666 120.781599,311.509334 120.409695,311.966623 L120.366227,312.015618 L120.366227,312.015618 L120.354673,312.027698 C120.138633,312.253466 119.919896,312.477074 119.698485,312.698485 C103.296465,329.100505 76.7035354,329.100505 60.3015152,312.698485 C43.8994949,296.296465 43.8994949,269.703535 60.3015152,253.301515 C76.3771352,237.225895 102.242102,236.90599 118.707338,252.341801 L119.203387,252.814375 L119.698485,253.301515 L155.928932,290.071068 L156.129269,290.267003 C159.652525,293.601781 165.007161,293.885574 168.842121,291.118382 L168.775576,291.166609 C169.229638,290.84403 170.065278,290.313127 170.472641,289.905764 Z" id="主色" fill="#000000"></path>
    </g>
</svg>