<?xml version="1.0" encoding="UTF-8"?>
<svg width="564px" height="240px" viewBox="0 0 564 240" version="1.1" xmlns="http://www.w3.org/2000/svg" xmlns:xlink="http://www.w3.org/1999/xlink">
    <title>com_vivo_vivoconsole_b_s5_2x1_mc</title>
    <g id="com_vivo_vivoconsole" stroke="none" stroke-width="1" fill="none" fill-rule="evenodd">
        <g id="主色" transform="translate(217.697614, 47.208605)" fill="#000000">
            <path d="M64.3023862,145.58279 C62.6748793,145.58279 61.046855,145.161813 59.5881005,144.319601 L4.71428571,112.638189 C1.79707556,110.953937 0,107.841311 0,104.472807 L0,41.1099832 C0,39.5467751 0.387013167,38.0386722 1.09338606,36.7028537 C1.73508436,35.489341 2.64033925,34.4180086 3.75843058,33.5767064 L4.03899109,33.3735678 C4.25675754,33.2219149 4.48196971,33.0787285 4.71428571,32.9446008 L59.5881005,1.26318905 C62.5053107,-0.421063017 66.0994618,-0.421063017 69.0166719,1.26318905 L111.77,25.9470226 L124.557419,33.3677512 C125.712771,34.1704877 126.659029,35.2113352 127.345272,36.4020923 L127.511386,36.7028537 L64.3023862,73.1392332 L64.3023862,108.415481 L63.9972719,108.407586 C63.0825637,108.360217 62.176423,108.099684 61.3559577,107.625988 L61.3559577,107.625988 L35.6079581,92.7603734 L35.3925548,92.6298163 C33.696645,91.5518287 32.6615295,89.6781119 32.6615295,87.6570094 L32.6615295,87.6570094 L32.6615295,57.9257804 L32.6697715,57.6137016 C32.7135913,56.7851177 32.9310366,55.9874537 33.2956547,55.2665271 L33.2956547,55.2665271 L64.3023862,73.1392332 L13.1889182,43.6748836 C12.5809165,44.8362435 12.2480736,46.1449073 12.2480736,47.5009632 L12.2480736,47.5009632 L12.2480736,98.0818266 C12.2480736,101.029268 13.8205147,103.752816 16.3730736,105.226536 L16.3730736,105.226536 L60.1773862,130.516968 C61.4538149,131.253914 62.8783589,131.622344 64.3028857,131.622258 L64.3028857,131.622258 L64.3023862,145.58279 Z" id="形状结合"></path>
            <path d="M127.511386,36.7028537 C128.24031,38.0505647 128.604772,39.5196079 128.604772,41.1099832 L128.604772,104.472807 C128.604772,107.841311 126.807697,110.953937 123.890487,112.638189 L69.0166719,144.319601 C67.5580669,145.161727 65.9302266,145.58279 64.3023862,145.58279 L64.3023862,72.0981114 L126.76274,36.2007196 L127.511386,36.7028537 Z" id="形状" opacity="0.95"></path>
            <path d="M64.3028857,131.622258 C62.8783589,131.622344 61.4538149,131.253914 60.1773862,130.516968 L16.3730736,105.226536 C13.8205147,103.752816 12.2480736,101.029268 12.2480736,98.0818266 L12.2480736,47.5009632 C12.2480736,46.1449073 12.5809165,44.8362435 13.1889182,43.6748836 L64.3023862,73.1392332 L33.2956547,55.2665271 C32.8854593,56.0775695 32.6615295,56.9857328 32.6615295,57.9257804 L32.6615295,57.9257804 L32.6615295,87.6570094 C32.6615295,89.7623245 33.7847017,91.7077159 35.6079581,92.7603734 L35.6079581,92.7603734 L61.3559577,107.625988 C62.2675858,108.152317 63.284986,108.415481 64.3023862,108.415481 L64.3023862,108.415481 L64.3028857,131.622258 Z" id="形状结合" opacity="0.75"></path>
        </g>
    </g>
</svg>