<?xml version="1.0" encoding="UTF-8"?>
<svg width="564px" height="564px" viewBox="0 0 564 564" version="1.1" xmlns="http://www.w3.org/2000/svg" xmlns:xlink="http://www.w3.org/1999/xlink">
    <title>com_kaixinkan_ugc_video_b_s5_2x2_mc</title>
    <g id="com_kaixinkan_ugc_video" stroke="none" stroke-width="1" fill="none" fill-rule="evenodd">
        <g id="主色" transform="translate(197.399001, 182.064383)" fill="#000000">
            <path d="M2.29955396,42.9073753 C2.70620372,42.9058335 3.10604417,43.0117454 3.45860749,43.2143917 L32.4617883,59.8848344 C36.7271065,62.3364532 39.3717558,66.8667362 39.4095133,71.7862838 L40.3639152,196.138536 C23.9569019,201.050474 6.6744768,191.731875 1.76253845,175.324861 C0.909941986,172.476991 0.471274971,169.521321 0.460003739,166.548586 L-1.08232394e-06,45.2244344 C-0.00483469396,43.9495916 1.02471116,42.912209 2.29955396,42.9073753 Z M174.077966,81.8533307 C186.484121,93.4771824 187.118304,112.957352 175.494452,125.363507 C173.438671,127.557647 171.072515,129.438755 168.471367,130.946904 L62.968316,192.117701 C61.8654341,192.757153 60.4529933,192.381469 59.8135411,191.278588 C59.6095783,190.926807 59.5021616,190.52739 59.5021616,190.120757 L59.5021616,156.820193 C59.5021616,151.900249 62.1122297,147.349608 66.3589513,144.865416 L174.077966,81.8533307 Z M45.4513061,0.840865464 C48.3195535,1.52048935 51.0760006,2.60638682 53.637111,4.06564875 L159.566169,64.4215967 C160.673838,65.0527209 161.060153,66.4622909 160.429029,67.5699595 C160.225584,67.9270206 159.930505,68.2232955 159.574269,68.4281827 L130.560565,85.1152808 C126.319351,87.5545959 121.105806,87.5751973 116.845446,85.1694762 L8.20045352,23.8203042 C12.1413956,7.1881685 28.8191704,-3.10007666 45.4513061,0.840865464 Z" id="形状"></path>
        </g>
    </g>
</svg>