<?xml version="1.0" encoding="UTF-8"?>
<svg width="564px" height="564px" viewBox="0 0 564 564" version="1.1" xmlns="http://www.w3.org/2000/svg" xmlns:xlink="http://www.w3.org/1999/xlink">
    <title>com_android_settings_b_s5_2x2_mc</title>
    <defs>
        <path d="M61.5332448,-2.48601674e-15 L460.466755,2.48601674e-15 C481.863205,-1.44444732e-15 489.622075,2.22781467 497.444297,6.41118489 C505.266519,10.5945551 511.405445,16.7334809 515.588815,24.5557031 C519.772185,32.3779253 522,40.136795 522,61.5332448 L522,460.466755 C522,481.863205 519.772185,489.622075 515.588815,497.444297 C511.405445,505.266519 505.266519,511.405445 497.444297,515.588815 C489.622075,519.772185 481.863205,522 460.466755,522 L61.5332448,522 C40.136795,522 32.3779253,519.772185 24.5557031,515.588815 C16.7334809,511.405445 10.5945551,505.266519 6.41118489,497.444297 C2.22781467,489.622075 9.62964878e-16,481.863205 -1.65734449e-15,460.466755 L1.65734449e-15,61.5332448 C-9.62964878e-16,40.136795 2.22781467,32.3779253 6.41118489,24.5557031 C10.5945551,16.7334809 16.7334809,10.5945551 24.5557031,6.41118489 C32.3779253,2.22781467 40.136795,1.44444732e-15 61.5332448,-2.48601674e-15 Z" id="path-1"></path>
        <linearGradient x1="17.0740812%" y1="12.5400329%" x2="85.803604%" y2="95.2254249%" id="linearGradient-3">
            <stop stop-color="#FFFFFF" stop-opacity="0.747869318" offset="0%"></stop>
            <stop stop-color="#FFFFFF" stop-opacity="0.497459572" offset="100%"></stop>
        </linearGradient>
        <linearGradient x1="17.0740812%" y1="12.5400329%" x2="85.803604%" y2="95.2254249%" id="linearGradient-4">
            <stop stop-color="#000000" stop-opacity="0.747869318" offset="0%"></stop>
            <stop stop-color="#000000" stop-opacity="0.497459572" offset="100%"></stop>
        </linearGradient>
    </defs>
    <g id="com_android_settings" stroke="none" stroke-width="1" fill="none" fill-rule="evenodd">
        <g id="主色" transform="translate(21.000000, 21.000000)">
            <mask id="mask-2" fill="white">
                <use xlink:href="#path-1"></use>
            </mask>
            <g id="蒙版"></g>
            <g id="编组-15备份-2" mask="url(#mask-2)">
                <g transform="translate(67.662109, 33.624617)">
                    <path d="M194.427187,573.547234 L161.433778,582.861024 C137.953395,589.489359 113.545456,575.828075 106.917121,552.347691 C105.971463,548.997768 105.425045,545.547817 105.289236,542.069627 L103.951653,507.812911 C101.646658,448.779916 83.0472439,391.536805 50.2132999,342.423267 L31.1598353,313.922791 C17.6000768,293.639887 23.0502626,266.204989 43.333166,252.645231 C46.2269079,250.710673 49.3391535,249.124905 52.6051421,247.920923 L84.7718788,236.062898 C140.203311,215.628519 188.897209,180.250331 225.460713,133.846477 L246.678433,106.918424 C261.778424,87.754565 289.554763,84.46015 308.718622,99.5601416 C311.452711,101.714443 313.922603,104.184335 316.076904,106.918424 L337.294623,133.846477 C373.858127,180.250331 422.552025,215.628519 477.983457,236.062898 L510.150194,247.920923 C533.042261,256.35991 544.758796,281.758748 536.319809,304.650814 C535.115827,307.916803 533.530058,311.029049 531.595501,313.922791 L512.542036,342.423267 C479.708092,391.536805 461.108678,448.779916 458.803684,507.812911 L457.4661,542.069627 C456.514184,566.449066 435.979062,585.440826 411.599623,584.48891 C408.121432,584.353101 404.671481,583.806682 401.321558,582.861024 L368.328149,573.547234 C311.472152,557.497216 251.283184,557.497216 194.427187,573.547234 Z" id="星形" fill-opacity="0.7" fill="#000000" transform="translate(281.377668, 330.486634) scale(1, -1) translate(-281.377668, -330.486634) "></path>
                    <path d="M194.427187,510.666666 L161.433778,519.980456 C137.953395,526.60879 113.545456,512.947506 106.917121,489.467123 C105.971463,486.117199 105.425045,482.667249 105.289236,479.189058 L103.951653,444.932342 C101.646658,385.899347 83.0472439,328.656237 50.2132999,279.542699 L31.1598353,251.042222 C17.6000768,230.759318 23.0502626,203.32442 43.333166,189.764662 C46.2269079,187.830104 49.3391535,186.244336 52.6051421,185.040354 L84.7718788,173.182329 C140.203311,152.74795 188.897209,117.369762 225.460713,70.9659081 L246.678433,44.0378547 C261.778424,24.8739962 289.554763,21.5795811 308.718622,36.6795728 C311.452711,38.8338738 313.922603,41.3037658 316.076904,44.0378547 L337.294623,70.9659081 C373.858127,117.369762 422.552025,152.74795 477.983457,173.182329 L510.150194,185.040354 C533.042261,193.479341 544.758796,218.878179 536.319809,241.770246 C535.115827,245.036234 533.530058,248.14848 531.595501,251.042222 L512.542036,279.542699 C479.708092,328.656237 461.108678,385.899347 458.803684,444.932342 L457.4661,479.189058 C456.514184,503.568498 435.979062,522.560258 411.599623,521.608341 C408.121432,521.472532 404.671481,520.926114 401.321558,519.980456 L368.328149,510.666666 C311.472152,494.616647 251.283184,494.616647 194.427187,510.666666 Z" id="星形" fill="url(#linearGradient-4)"></path>
                    <path d="M459.542346,165.725452 L459.66868,167.290663 C463.540394,213.687223 477.486767,258.649027 500.490958,299.04656 C477.227842,339.89871 463.227839,385.417681 459.541885,432.367847 C419.793211,449.896429 384.045943,475.328473 354.469769,507.087346 C306.396151,495.809816 256.359094,495.809823 208.285071,507.087158 C178.709393,475.328473 142.962126,449.896429 103.21299,432.367246 C99.5274977,385.417681 85.5274945,339.89871 62.2649489,299.04714 C85.5272657,258.194732 99.5274676,212.675401 103.213451,165.724851 C142.961736,148.196441 178.708693,122.764724 208.284698,91.0062861 C256.359428,102.282953 306.396845,102.282882 354.471176,91.0053271 C384.046644,122.764724 419.7936,148.196441 459.542346,165.725452 Z" id="形状结合" fill="#000000"></path>
                </g>
            </g>
        </g>
    </g>
</svg>