<?xml version="1.0" encoding="UTF-8"?>
<svg width="240px" height="564px" viewBox="0 0 240 564" version="1.1" xmlns="http://www.w3.org/2000/svg" xmlns:xlink="http://www.w3.org/1999/xlink">
    <title>com_vivo_minigamecenter_b_s5_1x2_sc</title>
    <defs>
        <path d="M61.5332448,-2.48601674e-15 L136.466755,2.48601674e-15 C157.863205,-1.44444732e-15 165.622075,2.22781467 173.444297,6.41118489 C181.266519,10.5945551 187.405445,16.7334809 191.588815,24.5557031 C195.772185,32.3779253 198,40.136795 198,61.5332448 L198,460.466755 C198,481.863205 195.772185,489.622075 191.588815,497.444297 C187.405445,505.266519 181.266519,511.405445 173.444297,515.588815 C165.622075,519.772185 157.863205,522 136.466755,522 L61.5332448,522 C40.136795,522 32.3779253,519.772185 24.5557031,515.588815 C16.7334809,511.405445 10.5945551,505.266519 6.41118489,497.444297 C2.22781467,489.622075 9.62964878e-16,481.863205 -1.65734449e-15,460.466755 L1.65734449e-15,61.5332448 C-9.62964878e-16,40.136795 2.22781467,32.3779253 6.41118489,24.5557031 C10.5945551,16.7334809 16.7334809,10.5945551 24.5557031,6.41118489 C32.3779253,2.22781467 40.136795,1.44444732e-15 61.5332448,-2.48601674e-15 Z" id="path-1"></path>
        <path d="M191.815466,19.0498097 C192.220772,19.2513856 192.580141,19.5343997 192.871108,19.8811612 L257.293628,96.6569309 C264.665825,105.442773 263.519839,118.541451 254.733997,125.913647 L199.907,171.918 L194.082,138.885 L232.615244,106.55319 C235.730321,103.939331 236.194271,99.3383097 233.708788,96.1597746 L233.542507,95.9545307 L203.753038,60.4528241 C203.435865,60.0748323 203.008965,59.8048645 202.531503,59.6803373 C201.313618,59.3626995 200.069952,60.0488512 199.676708,61.2250911 L199.63031,61.3812508 L193.795994,83.7511537 L185.612,90.849 L184.739629,85.8976988 C184.617852,85.2070659 184.372009,84.545069 184.014826,83.9434763 L183.854968,83.6894417 C182.079045,81.0228827 178.477701,80.3008801 175.811142,82.0768038 L175.811142,82.0768038 L143.706549,103.458407 C141.18028,105.140898 137.851583,104.976676 135.503191,103.053692 L135.503191,103.053692 L119.139,89.653 L127.435853,87.2061172 C129.081465,86.7204412 130.219671,85.22059 130.244567,83.5049851 L130.755131,48.320613 C130.781506,46.5030599 132.276305,45.051023 134.093858,45.0773977 C134.253554,45.0797151 134.41287,45.0936534 134.570543,45.1191022 L169.309044,50.7259964 C171.002908,50.9993909 172.677621,50.1389228 173.441676,48.6026481 L187.402843,20.5311254 C188.212301,18.9035591 190.1879,18.2403515 191.815466,19.0498097 Z M60.5582782,0.83639178 C60.6890364,0.9489093 60.8111865,1.07105932 60.923704,1.20181753 L81.5140451,25.1301455 C82.6927322,26.4999145 84.627266,26.9401856 86.282641,26.2154069 L111.766353,15.0577826 C113.514746,14.2922776 115.552662,15.0890655 116.318167,16.8374582 C116.509519,17.2745008 116.608306,17.7464303 116.608306,18.2235276 L116.608,87.581 L101.208117,74.97113 C101.057908,74.8481314 100.901667,74.7327896 100.739993,74.6255252 L100.493484,74.470739 C100.424279,74.429668 100.354566,74.3902016 100.284389,74.3523286 L100.284745,53.3500055 C100.284745,52.8302042 100.122522,52.3233615 99.8206993,51.9001636 C99.0533373,50.8242138 97.5893269,50.539646 96.480503,51.2225474 L96.3379745,51.3171226 L79.4895086,63.3333642 L36.8411005,64.0367466 L18.840465,52.3996641 C18.4365544,52.1385433 17.9658238,51.9996339 17.4848582,51.9996339 C16.161003,51.9996339 15.07778,53.0299027 14.9932404,54.3323892 L14.9879292,54.4965629 L14.9879292,94.6254175 C14.9879292,98.9056912 18.3923078,102.39083 22.6410527,102.520821 L22.8870911,102.524579 L77.099,102.524 L69.9222012,114.61739 C68.4186943,117.150831 65.4807253,118.443214 62.6125005,117.861477 L62.3519868,117.803412 L24.8705985,108.691694 C24.0918096,108.502371 23.2822385,108.476479 22.4929438,108.615653 C19.3378002,109.17199 17.2310512,112.18074 17.7873882,115.335883 L17.7873882,115.335883 L20.2452143,129.27599 C8.89877396,128.278435 2.00458318e-11,118.751352 2.00444106e-11,107.145849 L2.00444106e-11,18.2235276 C2.00446209e-11,16.3148959 1.54725168,14.7676442 3.45588334,14.7676442 C3.93298065,14.7676442 4.40491009,14.8664306 4.84195273,15.0577826 L30.3256647,26.2154069 C31.9810397,26.9401856 33.9155734,26.4999145 35.0942606,25.1301455 L55.6846017,1.20181753 C56.9295208,-0.244920626 59.1115401,-0.408527309 60.5582782,0.83639178 Z M214.405501,91.3296993 C218.687069,92.8880625 220.894662,97.6222619 219.336299,101.90383 C217.777936,106.185397 213.043736,108.392991 208.762169,106.834628 C204.480601,105.276264 202.273007,100.542065 203.831371,96.2604972 C205.389734,91.9789295 210.123933,89.7713361 214.405501,91.3296993 Z M82.6323394,80.1398926 C84.7586357,83.8227458 83.496797,88.531992 79.8139438,90.6582882 C76.1310906,92.7845845 71.4218445,91.5227458 69.2955482,87.8398926 C67.1692519,84.1570394 68.4310906,79.4477933 72.1139438,77.321497 C75.796797,75.1952007 80.5060431,76.4570394 82.6323394,80.1398926 Z M44.1382032,79.467975 C46.2644994,83.1508282 45.0026608,87.8600743 41.3198076,89.9863706 C37.6369544,92.1126669 32.9277082,90.8508282 30.8014119,87.167975 C28.6751157,83.4851218 29.9369544,78.7758757 33.6198076,76.6495794 C37.3026608,74.5232831 42.0119069,75.7851218 44.1382032,79.467975 Z" id="path-3"></path>
    </defs>
    <g id="com_vivo_minigamecenter" stroke="none" stroke-width="1" fill="none" fill-rule="evenodd">
        <g id="辅色" transform="translate(21.000000, 21.000000)">
            <g id="Group-2备份-5" transform="translate(54.000000, 74.000000)" fill="#4E4E4E">
                <path d="M81.1690631,19.7266992 L73.4442947,19.7266992 C69.1018019,19.7266992 68.7157264,16.1654437 68.7157264,15.0773347 C68.7157264,13.9892256 69.1018019,10.4279701 73.4442947,10.4279701 L81.1690631,10.4279701 C85.5115558,10.4279701 85.8978028,13.9892256 85.8978028,15.0773347 C85.8978028,16.1654437 85.5115558,19.7266992 81.1690631,19.7266992 M81.1690631,6.51166907 L73.4442947,6.51166907 C65.4162548,6.51166907 64.7022207,13.0727248 64.7022207,15.0773347 C64.7022207,17.082116 65.4162548,23.6431717 73.4442947,23.6431717 L81.1690631,23.6431717 C89.1972745,23.6431717 89.9113085,17.082116 89.9113085,15.0773347 C89.9113085,13.0727248 89.1972745,6.51166907 81.1690631,6.51166907 M63.1519697,6.91331108 L60.6483074,6.91331108 C59.5759706,6.91331108 59.3549886,7.09640553 58.9411403,7.70997764 C58.5278063,8.32372119 51.3663791,19.2569282 51.3663791,19.2569282 C51.1378539,19.5931157 50.8956138,19.729065 50.5940566,19.729065 C50.2926708,19.729065 50.0504307,19.5931157 49.8219055,19.2569282 C49.8219055,19.2569282 42.6603068,8.32372119 42.2468014,7.70997764 C41.8329531,7.09640553 41.612314,6.91331108 40.5399772,6.91331108 L38.0361435,6.91331108 C37.4599446,6.91331108 37.1962749,7.36384685 37.5585207,7.91398737 C37.9207666,8.46412789 46.1118429,20.9015209 46.1118429,20.9015209 C47.4391061,22.8538426 48.4132097,23.6431374 50.5940566,23.6431374 C52.7749034,23.6431374 53.7491785,22.8538426 55.0766132,20.9015209 C55.0766132,20.9015209 63.267518,8.46412789 63.6295924,7.91398737 C63.9918383,7.36384685 63.72834,6.91331108 63.1519697,6.91331108 M29.8979212,7.97424738 C29.8979212,7.21443972 30.1991355,6.9133968 30.9587717,6.9133968 L32.851262,6.9133968 C33.6107268,6.9133968 33.9119411,7.21443972 33.9119411,7.97424738 L33.9119411,22.5822011 C33.9119411,23.3420087 33.6107268,23.6430517 32.851262,23.6430517 L30.9587717,23.6430517 C30.1991355,23.6430517 29.8979212,23.3420087 29.8979212,22.5822011 L29.8979212,7.97424738 Z M29.7254729,3.50324562 C29.1086435,2.88658764 29.1086435,2.39765004 29.7254729,1.78082063 L31.0434786,0.462643491 C31.6604795,-0.154185921 32.1495885,-0.154185921 32.7660751,0.462472054 L34.0844236,1.78082063 C34.7009102,2.39765004 34.7009102,2.88658764 34.0844236,3.50324562 L32.7660751,4.82142276 C32.1495885,5.43825217 31.6604795,5.43825217 31.0434786,4.82142276 L29.7254729,3.50324562 Z M25.7738902,6.91331108 L23.270228,6.91331108 C22.1977197,6.91331108 21.9769092,7.09640553 21.5632323,7.70997764 C21.1497269,8.32372119 13.9879568,19.2569282 13.9879568,19.2569282 C13.7596031,19.5931157 13.5173629,19.729065 13.2158057,19.729065 C12.9142485,19.729065 12.6721798,19.5931157 12.4436546,19.2569282 C12.4436546,19.2569282 5.28205596,8.32372119 4.86855052,7.70997764 C4.45504509,7.09640553 4.23389169,6.91331108 3.16155484,6.91331108 L0.657892604,6.91331108 C0.0143190589,6.91331108 -0.182147452,7.36384685 0.180269829,7.91398737 C0.542515674,8.46412789 8.73342053,20.9015209 8.73342053,20.9015209 C10.0606838,22.8538426 11.0349588,23.6431374 13.2158057,23.6431374 C15.3966525,23.6431374 16.3709276,22.8538426 17.6983623,20.9015209 C17.6983623,20.9015209 25.8892671,8.46412789 26.251513,7.91398737 C26.6135874,7.36384685 26.4172923,6.91331108 25.7738902,6.91331108" id="形状结合"></path>
            </g>
            <g id="联系人备份">
                <mask id="mask-2" fill="white">
                    <use xlink:href="#path-1"></use>
                </mask>
                <g id="矩形"></g>
                <g id="编组-6" mask="url(#mask-2)">
                    <g transform="translate(-75.028358, 138.865070)" id="编组-21">
                        <path d="M196.969514,26 C204.149216,26 209.969514,20.1797017 209.969514,13 C209.969514,5.82029825 204.149216,0 196.969514,0 C189.789813,0 183.969514,5.82029825 183.969514,13 C183.969514,20.1797017 189.789813,26 196.969514,26 Z" id="椭圆形备份-35" fill="#4E4E4E" fill-rule="nonzero" opacity="0.6"></path>
                        <path d="M221.07777,147.070584 C228.257472,147.070584 234.07777,141.250286 234.07777,134.070584 C234.07777,126.890882 228.257472,121.070584 221.07777,121.070584 C213.898068,121.070584 208.07777,126.890882 208.07777,134.070584 C208.07777,141.250286 213.898068,147.070584 221.07777,147.070584 Z" id="椭圆形备份-36" fill="#4E4E4E" fill-rule="nonzero" opacity="0.6"></path>
                        <g id="粉色icon" opacity="0.96" transform="translate(182.178759, 189.707536) rotate(-12.000000) translate(-182.178759, -189.707536) translate(25.683861, 49.726712)">
                            <g id="Mask-Copy备份-5" transform="translate(156.494899, 139.980824) rotate(30.000000) translate(-156.494899, -139.980824) translate(25.418607, 54.021824)">
                                <mask id="mask-4" fill="white">
                                    <use xlink:href="#path-3"></use>
                                </mask>
                                <use id="形状结合" fill="#4E4E4E" xlink:href="#path-3"></use>
                            </g>
                        </g>
                        <g id="紫色icon" opacity="0.9" transform="translate(221.659646, 216.851325) rotate(-52.000000) translate(-221.659646, -216.851325) translate(131.708536, 124.425224)">
                            <g id="编组备份" transform="translate(89.951111, 92.426101) rotate(30.000000) translate(-89.951111, -92.426101) translate(26.577318, 22.290509)">
                                <g id="Mask-Copy备份-5" transform="translate(0.000000, 0.000000)"></g>
                            </g>
                        </g>
                    </g>
                </g>
                <path d="M187,238 C203.568542,238 217,224.568542 217,208 C217,191.431458 203.568542,178 187,178 C170.431458,178 157,191.431458 157,208 C157,224.568542 170.431458,238 187,238 Z" id="椭圆形备份-36" fill="#4E4E4E" fill-rule="nonzero" opacity="0.7" mask="url(#mask-2)"></path>
            </g>
            <path d="M44,211.806227 C51.1797017,211.806227 57,205.985929 57,198.806227 C57,191.626525 51.1797017,185.806227 44,185.806227 C36.8202982,185.806227 31,191.626525 31,198.806227 C31,205.985929 36.8202982,211.806227 44,211.806227 Z" id="椭圆形备份-36" fill="#4E4E4E" fill-rule="nonzero" opacity="0.8"></path>
        </g>
    </g>
</svg>