<?xml version="1.0" encoding="UTF-8"?>
<svg width="240px" height="564px" viewBox="0 0 240 564" version="1.1" xmlns="http://www.w3.org/2000/svg" xmlns:xlink="http://www.w3.org/1999/xlink">
    <title>com_bbk_cloud_b_s5_1x2_sc</title>
    <g id="com_bbk_cloud" stroke="none" stroke-width="1" fill="none" fill-rule="evenodd">
        <path d="M152,252 C172.98682,252 190,269.01318 190,290 C190,310.98682 172.98682,328 152,328 L147.999034,328 L148,336.624883 C148,337.45331 147.328427,338.124883 146.5,338.124883 C145.97517,338.124883 145.488508,337.850579 145.21675,337.401587 L126.378005,306.276704 C125.949043,305.567985 126.175832,304.645712 126.884551,304.21675 C127.118815,304.074959 127.387423,304 127.661255,304 L152,304 C159.731986,304 166,297.731986 166,290 C166,282.3725 159.900248,276.169673 152.312645,276.003422 L152,276 C151.822763,267.289361 149.471604,259.11409 145.461574,251.998209 L152,252 Z" id="辅色" fill="#4E4E4E"></path>
    </g>
</svg>