<?xml version="1.0" encoding="UTF-8"?>
<svg width="564px" height="564px" viewBox="0 0 564 564" version="1.1" xmlns="http://www.w3.org/2000/svg" xmlns:xlink="http://www.w3.org/1999/xlink">
    <title>com_vivo_wallet_b_s5_2x2_mc</title>
    <defs>
        <path d="M23,61 L217,61 C226.941125,61 235,69.0588745 235,79 L235,115 L235,115 L5,115 L5,79 C5,69.0588745 13.0588745,61 23,61 Z" id="path-1"></path>
        <filter x="-0.2%" y="-0.9%" width="100.4%" height="101.9%" filterUnits="objectBoundingBox" id="filter-2">
            <feOffset dx="0" dy="1" in="SourceAlpha" result="shadowOffsetInner1"></feOffset>
            <feComposite in="shadowOffsetInner1" in2="SourceAlpha" operator="arithmetic" k2="-1" k3="1" result="shadowInnerInner1"></feComposite>
            <feColorMatrix values="0 0 0 0 0.772452777   0 0 0 0 1   0 0 0 0 0.57101753  0 0 0 0 0" type="matrix" in="shadowInnerInner1"></feColorMatrix>
        </filter>
        <path d="M28,0 L212,0 C221.941125,-1.82615513e-15 230,8.0588745 230,18 L230,50 L230,50 L10,50 L10,18 C10,8.0588745 18.0588745,1.82615513e-15 28,0 Z" id="path-3"></path>
        <filter x="-0.2%" y="-1.0%" width="100.5%" height="102.0%" filterUnits="objectBoundingBox" id="filter-4">
            <feOffset dx="0" dy="1" in="SourceAlpha" result="shadowOffsetInner1"></feOffset>
            <feComposite in="shadowOffsetInner1" in2="SourceAlpha" operator="arithmetic" k2="-1" k3="1" result="shadowInnerInner1"></feComposite>
            <feColorMatrix values="0 0 0 0 1   0 0 0 0 0.902032568   0 0 0 0 0.647846799  0 0 0 1 0" type="matrix" in="shadowInnerInner1"></feColorMatrix>
        </filter>
    </defs>
    <g id="com_vivo_wallet" stroke="none" stroke-width="1" fill="none" fill-rule="evenodd">
        <g id="主色" transform="translate(162.000000, 136.000000)">
            <path d="M18,128 L222,128 C231.941125,128 240,136.058875 240,146 L240,195 L240,195 L0,195 L0,146 C-1.21743675e-15,136.058875 8.0588745,128 18,128 Z" id="矩形" fill="#000000"></path>
            <g id="矩形备份-4" opacity="0.5">
                <use fill="#000000" fill-rule="evenodd" xlink:href="#path-1"></use>
                <use fill="black" fill-opacity="1" filter="url(#filter-2)" xlink:href="#path-1"></use>
            </g>
            <g id="矩形备份-5" opacity="0.15">
                <use fill="#000000" fill-rule="evenodd" xlink:href="#path-3"></use>
                <use fill="black" fill-opacity="1" filter="url(#filter-4)" xlink:href="#path-3"></use>
            </g>
        </g>
    </g>
</svg>