<?xml version="1.0" encoding="UTF-8"?>
<svg width="564px" height="564px" viewBox="0 0 564 564" version="1.1" xmlns="http://www.w3.org/2000/svg" xmlns:xlink="http://www.w3.org/1999/xlink">
    <title>com_vivo_childrenmode_b_s5_2x2_mc</title>
    <g id="com_vivo_childrenmode" stroke="none" stroke-width="1" fill="none" fill-rule="evenodd">
        <g id="主色" transform="translate(192.000000, 245.000000)" fill="#000000" fill-rule="nonzero">
            <path d="M153.16971,0.651114971 C164.583169,-2.21663347 176.214412,4.64883377 179.261081,16.1252648 C182.344742,27.741035 175.495722,39.6749089 163.954188,42.7963125 L163.954188,42.7963125 L130.925524,51.7286769 L105.728822,26.4515689 L105.248692,25.9838285 L104.913403,25.6729608 C100.788188,21.9261763 95.4768875,19.9285745 89.9984627,19.9581722 L90,19.958 L89.5323911,19.9605933 C84.2205779,20.044151 79.0939489,22.0332273 75.0865967,25.6729608 L74.7513076,25.9838285 L74.2711783,26.4515689 L49.0744757,51.7286769 L16.0458118,42.7963125 C4.50427825,39.6749089 -2.34474163,27.741035 0.738918525,16.1252648 C3.78558808,4.64883377 15.416831,-2.21663347 26.8302901,0.651114971 L27.1760768,0.74100097 L90,17.729 L152.823923,0.74100097 Z" id="形状结合" opacity="0.699999988"></path>
            <path d="M89.3299809,18.2708528 L90.0008399,18.2645246 L90.0008399,75.707677 L41.8548779,124.01324 C33.0078365,132.888734 18.9156063,133.324758 9.55258719,125.226155 L9.11034364,124.834056 L8.67548865,124.429053 L8.24984241,124.012416 L7.7922751,123.540642 C-0.730292819,114.51077 -0.880890517,100.380206 7.42285729,91.1677021 L7.83124997,90.725816 L8.25066245,90.2943668 L73.0832781,25.2532477 C77.4854528,20.8369154 83.3109354,18.3993369 89.3299809,18.2708528 L89.3299809,18.2708528 Z M90.6716988,18.2708528 L90.0008399,18.2645246 L90.0008399,75.707677 L138.146802,124.01324 C146.993843,132.888734 161.086073,133.324758 170.449093,125.226155 L170.891336,124.834056 L171.326191,124.429053 L171.751837,124.012416 L172.209405,123.540642 C180.731973,114.51077 180.88257,100.380206 172.578822,91.1677021 L172.17043,90.725816 L171.751017,90.2943668 L106.918402,25.2532477 C102.516227,20.8369154 96.6907444,18.3993369 90.6716988,18.2708528 L90.6716988,18.2708528 Z" id="形状结合"></path>
        </g>
    </g>
</svg>