<?xml version="1.0" encoding="UTF-8"?>
<svg width="564px" height="564px" viewBox="0 0 564 564" version="1.1" xmlns="http://www.w3.org/2000/svg" xmlns:xlink="http://www.w3.org/1999/xlink">
    <title>com_vivo_health_b_s5_2x2_sc</title>
    <g id="com_vivo_health" stroke="none" stroke-width="1" fill="none" fill-rule="evenodd">
        <g id="辅色" transform="translate(327.631626, 274.712613) rotate(-45.000000) translate(-327.631626, -274.712613) translate(243.381626, 208.333825)" fill="#4E4E4E">
            <path d="M-45.9545455,66.3787879 C-45.9545455,103.03878 -16.2357498,132.757576 20.4242424,132.757576 L20.4242424,132.757576 L20.3454545,132.757576 C-16.2710244,132.757576 -45.9545455,103.074055 -45.9545455,66.4575758 Z M102.2,-3.6588823e-12 C138.816479,-3.65664019e-12 168.5,29.6835211 168.5,66.3 L168.5,66.4575758 C168.5,103.074055 138.816479,132.757576 102.2,132.757576 L20.4242424,132.757576 C57.0842347,132.757576 86.8030303,103.03878 86.8030303,66.3787879 L86.8030303,66.3787879 L86.803,0 L102.2,-3.6588823e-12 Z M40.848,0 L40.8484848,66.3787879 L40.8420174,66.8978611 C40.566618,77.9379826 31.5307016,86.8030303 20.4242424,86.8030303 C9.14424481,86.8030303 3.99325017e-12,77.6587855 3.99325017e-12,66.3787879 L3.99325017e-12,66.3787879 L0,0 L40.848,0 Z" id="形状结合"></path>
        </g>
    </g>
</svg>