<?xml version="1.0" encoding="UTF-8"?>
<svg width="564px" height="564px" viewBox="0 0 564 564" version="1.1" xmlns="http://www.w3.org/2000/svg" xmlns:xlink="http://www.w3.org/1999/xlink">
    <title>com_bbk_cloud_b_s5_2x2_sc</title>
    <g id="com_bbk_cloud" stroke="none" stroke-width="1" fill="none" fill-rule="evenodd">
        <path d="M336.964646,231.438573 C372.684639,231.438573 401.641414,260.395457 401.641414,296.115583 C401.641414,331.835709 372.684639,360.792592 336.964646,360.792592 L330.156204,360.792573 L330.156566,375.483235 C330.156566,376.891562 329.014892,378.033235 327.606566,378.033235 C326.714353,378.033235 325.887027,377.566918 325.425038,376.803629 L293.352699,323.814348 C292.623466,322.609523 293.009009,321.04166 294.213833,320.312427 C294.61208,320.071384 295.068713,319.943954 295.534226,319.943954 L336.964646,319.943954 C350.124644,319.943954 360.792929,309.275629 360.792929,296.115583 C360.792929,283.133375 350.411028,272.575999 337.496775,272.293035 L336.964646,272.287211 L336.948293,272.2872 C336.663188,257.462509 332.661625,243.547908 325.836605,231.436398 L336.964646,231.438573 Z" id="辅色" fill="#4E4E4E"></path>
    </g>
</svg>