<?xml version="1.0" encoding="UTF-8"?>
<svg width="240px" height="564px" viewBox="0 0 240 564" version="1.1" xmlns="http://www.w3.org/2000/svg" xmlns:xlink="http://www.w3.org/1999/xlink">
    <title>com_chaozh_ireader_b_s5_1x2_mc</title>
    <g id="com_chaozh_ireader" stroke="none" stroke-width="1" fill="none" fill-rule="evenodd">
        <g id="主色" transform="translate(48.919783, 167.020021)" fill="#000000">
            <path d="M117.734818,4.26325641e-14 C128.043071,4.45268822e-14 136.399562,8.3564907 136.399562,18.6647444 L136.399562,18.6647444 L136.399562,183.997243 C136.399562,192.317228 135.533279,195.334256 133.90658,198.375918 C132.279882,201.41758 129.892767,203.804694 126.851105,205.431393 C123.809443,207.058091 120.792416,207.924374 112.472431,207.924374 L112.472431,207.924374 L31.5869433,207.924374 C17.8127137,207.924374 6.09774888,216.741135 1.77771526,229.038989 L0,229.039 L0.000452777233,36.9254977 C0.000452777233,24.3225434 1.29126565,19.6286694 3.71822731,15.019503 L3.83282269,14.8034806 C6.33372669,10.1230443 10.0040688,6.44876517 14.6818211,3.94284471 L14.6818211,3.94284471 L15.1137459,3.71485504 C19.6528539,1.35593397 24.3936908,0.100060478 36.7997169,0.0867599535 L36.7997169,0.0867599535 L117.714807,1.07266437e-05 L117.714807,1.07266437e-05 Z" id="形状结合"></path>
        </g>
    </g>
</svg>