<?xml version="1.0" encoding="UTF-8"?>
<svg width="564px" height="240px" viewBox="0 0 564 240" version="1.1" xmlns="http://www.w3.org/2000/svg" xmlns:xlink="http://www.w3.org/1999/xlink">
    <title>com_android_bbkcalculator_b_s5_2x1_mc</title>
    <g id="com_android_bbkcalculator" stroke="none" stroke-width="1" fill="none" fill-rule="evenodd">
        <g id="主色" transform="translate(115.000000, 88.000000)" fill="#000000">
            <circle id="椭圆形备份" cx="302" cy="32" r="32"></circle>
            <path d="M122,64 C139.673112,64 154,49.673112 154,32 C154,14.326888 139.673112,0 122,0 C104.326888,0 90,14.326888 90,32 C90,49.673112 104.326888,64 122,64 Z M32,64 C49.673112,64 64,49.673112 64,32 C64,14.326888 49.673112,0 32,0 C14.326888,0 0,14.326888 0,32 C0,49.673112 14.326888,64 32,64 Z M212,64 C229.673112,64 244,49.673112 244,32 C244,14.326888 229.673112,0 212,0 C194.326888,0 180,14.326888 180,32 C180,49.673112 194.326888,64 212,64 Z" id="形状结合" opacity="0.05"></path>
            <path d="M227.175692,20.3056339 C227.553931,20.6838733 227.651707,20.8604146 227.716034,21.0726455 C227.78036,21.2848764 227.78036,21.5019202 227.716034,21.7141511 C227.651707,21.926382 227.553931,22.1029233 227.175692,22.4811626 L217.656854,32 L227.175692,41.5188374 C227.553931,41.8970767 227.651707,42.073618 227.716034,42.2858489 C227.78036,42.4980798 227.78036,42.7151236 227.716034,42.9273545 C227.651707,43.1395854 227.553931,43.3161267 227.175692,43.6943661 L223.694366,47.1756916 C223.316127,47.553931 223.139585,47.6517071 222.927355,47.7160336 C222.715124,47.78036 222.49808,47.78036 222.285849,47.7160336 C222.073618,47.6517071 221.897077,47.553931 221.518837,47.1756916 L211.999293,37.6561471 L202.481163,47.1756916 C202.102923,47.553931 201.926382,47.6517071 201.714151,47.7160336 C201.50192,47.78036 201.284876,47.78036 201.072645,47.7160336 C200.860415,47.6517071 200.683873,47.553931 200.305634,47.1756916 L196.824308,43.6943661 C196.446069,43.3161267 196.348293,43.1395854 196.283966,42.9273545 C196.21964,42.7151236 196.21964,42.4980798 196.283966,42.2858489 C196.348293,42.073618 196.446069,41.8970767 196.824308,41.5188374 L206.342439,31.9992929 L196.824308,22.4811626 C196.446069,22.1029233 196.348293,21.926382 196.283966,21.7141511 C196.21964,21.5019202 196.21964,21.2848764 196.283966,21.0726455 C196.348293,20.8604146 196.446069,20.6838733 196.824308,20.3056339 L200.305634,16.8243084 C200.683873,16.446069 200.860415,16.3482929 201.072645,16.2839664 C201.284876,16.21964 201.50192,16.21964 201.714151,16.2839664 C201.926382,16.3482929 202.102923,16.446069 202.481163,16.8243084 L212.000707,26.3424386 L221.518837,16.8243084 C221.897077,16.446069 222.073618,16.3482929 222.285849,16.2839664 C222.49808,16.21964 222.715124,16.21964 222.927355,16.2839664 C223.139585,16.3482929 223.316127,16.446069 223.694366,16.8243084 L227.175692,20.3056339 Z M139.461669,36 L104.538331,36 C104.00342,36 103.809448,35.9443046 103.613893,35.8397204 C103.418337,35.7351361 103.264864,35.581663 103.16028,35.3861074 C103.055695,35.1905519 103,34.9965801 103,34.4616689 L103,29.5383311 C103,29.0034199 103.055695,28.8094481 103.16028,28.6138926 C103.264864,28.418337 103.418337,28.2648639 103.613893,28.1602796 C103.809448,28.0556954 104.00342,28 104.538331,28 L139.461669,28 C139.99658,28 140.190552,28.0556954 140.386107,28.1602796 C140.581663,28.2648639 140.735136,28.418337 140.83972,28.6138926 C140.944305,28.8094481 141,29.0034199 141,29.5383311 L141,34.4616689 C141,34.9965801 140.944305,35.1905519 140.83972,35.3861074 C140.735136,35.581663 140.581663,35.7351361 140.386107,35.8397204 C140.190552,35.9443046 139.99658,36 139.461669,36 Z M34.4616689,13 C34.9965801,13 35.1905519,13.0556954 35.3861074,13.1602796 C35.581663,13.2648639 35.7351361,13.418337 35.8397204,13.6138926 C35.9443046,13.8094481 36,14.0034199 36,14.5383311 L36,28 L49.4616689,28 C49.9965801,28 50.1905519,28.0556954 50.3861074,28.1602796 C50.581663,28.2648639 50.7351361,28.418337 50.8397204,28.6138926 C50.9443046,28.8094481 51,29.0034199 51,29.5383311 L51,34.4616689 C51,34.9965801 50.9443046,35.1905519 50.8397204,35.3861074 C50.7351361,35.581663 50.581663,35.7351361 50.3861074,35.8397204 C50.1905519,35.9443046 49.9965801,36 49.4616689,36 L35.999,36 L36,49.4616689 C36,49.9965801 35.9443046,50.1905519 35.8397204,50.3861074 C35.7351361,50.581663 35.581663,50.7351361 35.3861074,50.8397204 C35.1905519,50.9443046 34.9965801,51 34.4616689,51 L29.5383311,51 C29.0034199,51 28.8094481,50.9443046 28.6138926,50.8397204 C28.418337,50.7351361 28.2648639,50.581663 28.1602796,50.3861074 C28.0556954,50.1905519 28,49.9965801 28,49.4616689 L27.999,36 L14.5383311,36 C14.0034199,36 13.8094481,35.9443046 13.6138926,35.8397204 C13.418337,35.7351361 13.2648639,35.581663 13.1602796,35.3861074 C13.0556954,35.1905519 13,34.9965801 13,34.4616689 L13,29.5383311 C13,29.0034199 13.0556954,28.8094481 13.1602796,28.6138926 C13.2648639,28.418337 13.418337,28.2648639 13.6138926,28.1602796 C13.8094481,28.0556954 14.0034199,28 14.5383311,28 L28,27.999 L28,14.5383311 C28,14.0034199 28.0556954,13.8094481 28.1602796,13.6138926 C28.2648639,13.418337 28.418337,13.2648639 28.6138926,13.1602796 C28.8094481,13.0556954 29.0034199,13 29.5383311,13 L34.4616689,13 Z" id="形状结合"></path>
        </g>
    </g>
</svg>