<?xml version="1.0" encoding="UTF-8"?>
<svg width="564px" height="564px" viewBox="0 0 564 564" version="1.1" xmlns="http://www.w3.org/2000/svg" xmlns:xlink="http://www.w3.org/1999/xlink">
    <title>com_vivo_vhome_b_s5_2x2_mc</title>
    <g id="com_vivo_vhome" stroke="none" stroke-width="1" fill="none" fill-rule="evenodd">
        <path d="M280.299863,232.020327 L281.144149,232.824661 L281.986815,233.653787 L343.651768,296.236542 L343.992746,296.570029 C349.941159,302.20025 358.956669,302.720825 365.472255,298.131754 L365.510403,298.104889 L365.517015,298.101181 C366.289838,297.552145 367.712114,296.648533 368.405455,295.95519 C375.052257,289.308363 377.994972,277.596558 371.34817,270.949731 C366.930418,266.531962 360.5533,262.266803 354.663747,263.930601 L351.438369,264.545526 C342.474545,267.3757 335.558199,265.227126 332.728035,256.263269 C329.897872,247.299411 331.797733,239.802437 340.761556,236.972263 L341.31267,235.19995 L341.310122,235.200696 L341.367196,235.184015 C359.09733,230.01324 378.452477,234.757974 391.791655,248.097202 C411.732062,268.037683 411.732062,300.367592 391.791655,320.308073 C371.851248,340.248555 339.521461,340.248555 319.581054,320.308073 L257.916615,257.724077 C243.293649,243.101057 219.585139,243.101057 204.962173,257.724077 C195.599469,267.086816 192.231461,280.174195 194.858148,292.216634 L194.819532,292.039012 L194.819532,292.039012 C195.314214,294.360578 195.649847,296.449531 196.919246,299.602359 C199.384645,305.725715 203.622194,313.346227 207.125029,316.849075 C216.873673,326.597755 240.480884,332.17698 277.946662,333.58675 C282.123172,332.744145 283.86653,332.724549 283.176735,333.527963 L283.123326,333.58675 L283.123326,333.58675 L283.097867,333.613363 C282.732046,333.99557 282.361682,334.374138 281.986815,334.749007 C254.070245,362.665681 208.808543,362.665681 180.891973,334.749007 C152.975403,306.832333 152.975403,261.570461 180.891973,233.653787 C208.253003,206.292654 252.275698,205.748168 280.299863,232.020327 Z" id="主色" fill="#000000"></path>
    </g>
</svg>