<?xml version="1.0" encoding="UTF-8"?>
<svg width="240px" height="240px" viewBox="0 0 240 240" version="1.1" xmlns="http://www.w3.org/2000/svg" xmlns:xlink="http://www.w3.org/1999/xlink">
    <title>com_vivo_game_b_s5_1x1_mc</title>
    <g id="com_vivo_game" stroke="none" stroke-width="1" fill="none" fill-rule="evenodd">
        <g id="主色" transform="translate(50.000000, 62.000000)" fill="#000000">
            <path d="M0.143777465,34.7985744 C-0.477005027,32.3841349 0.969954819,29.9217726 3.37565274,29.2987344 C4.28775992,29.0625128 5.23193683,29.1231773 6.08357021,29.4446111 L6.24098977,29.5074438 L46.3867969,44.8786046 L63.7977151,4.10636051 C65.2657554,0.668486074 69.2326947,-0.92405557 72.6581221,0.549319187 C74.2507234,1.23434275 75.5197415,2.50797218 76.2022849,4.10636051 L93.6132031,44.8786046 L133.718599,29.5246975 C134.620352,29.134467 135.640988,29.0440596 136.624347,29.2987344 C138.96322,29.904466 140.395879,32.2487562 139.903192,34.5973006 L139.856223,34.7985744 L120.27252,110.963064 C119.758058,112.90543 118.391118,114.599323 116.407771,115.452417 C115.567816,115.813706 114.663493,116 113.749649,116 L26.2503511,116 C23.2971883,116 20.7871095,114.096039 19.8722839,111.444472 L19.799842,111.222051 L19.7252265,110.962639 L19.73443,110.987488 L19.7106797,110.903512 L0.143777465,34.7985744 Z" id="路径"></path>
        </g>
    </g>
</svg>