<?xml version="1.0" encoding="UTF-8"?>
<svg width="564px" height="564px" viewBox="0 0 564 564" version="1.1" xmlns="http://www.w3.org/2000/svg" xmlns:xlink="http://www.w3.org/1999/xlink">
    <title>com_android_bbkmusic_b_s5_2x2_mc</title>
    <g id="com_android_bbkmusic" stroke="none" stroke-width="1" fill="none" fill-rule="evenodd">
        <g id="编组备份" transform="translate(185.484848, 168.706737)" fill="#000000">
            <path d="M86.8030303,106.984527 C69.8830339,106.984527 56.1666667,120.700945 56.1666667,137.621005 C56.1666667,154.541065 69.8830339,168.257483 86.8030303,168.257483 C103.723027,168.257483 117.439394,154.541065 117.439394,137.621005 C117.439394,120.700945 103.723027,106.984527 86.8030303,106.984527 Z M86.8030303,226.126387 C38.8630404,226.126387 0,187.263201 0,139.323032 C0,91.3828626 38.8630404,52.5196769 86.8030303,52.5196769 C97.7257984,52.5196769 108.177362,54.5371509 117.805417,58.2197934 L117.438172,58.0802844 L117.438172,58.0802844 L117.437051,28.0972425 L117.47283,28.0954342 C117.877726,22.7222355 121.681786,18.1542948 126.978496,16.8324113 L193.574372,0.212284556 C197.366776,-0.734173924 201.20838,1.57293209 202.154835,5.36535007 C202.294717,5.9258518 202.365447,6.50137174 202.365447,7.07906475 L202.365447,49.9207401 C202.365447,54.7937369 199.047926,59.0409666 194.31996,60.2209104 L178.170602,64.2240261 C175.48916,64.8887042 173.606061,67.2955782 173.606061,70.058173 L173.606,139.323 L173.599071,138.209999 C173.598156,138.137177 173.597151,138.064376 173.596057,137.991598 L173.606061,139.323032 L173.606061,139.323032 L173.606061,139.566178 L173.604051,139.566 L173.606061,139.323032 C173.606061,187.263201 134.74302,226.126387 86.8030303,226.126387 Z" id="形状结合"></path>
        </g>
    </g>
</svg>