<?xml version="1.0" encoding="UTF-8"?>
<svg width="564px" height="564px" viewBox="0 0 564 564" version="1.1" xmlns="http://www.w3.org/2000/svg" xmlns:xlink="http://www.w3.org/1999/xlink">
    <title>com_vivo_browser_b_s5_2x2_mc</title>
    <defs>
        <path d="M61.5332448,-2.48601674e-15 L460.466755,2.48601674e-15 C481.863205,-1.44444732e-15 489.622075,2.22781467 497.444297,6.41118489 C505.266519,10.5945551 511.405445,16.7334809 515.588815,24.5557031 C519.772185,32.3779253 522,40.136795 522,61.5332448 L522,460.466755 C522,481.863205 519.772185,489.622075 515.588815,497.444297 C511.405445,505.266519 505.266519,511.405445 497.444297,515.588815 C489.622075,519.772185 481.863205,522 460.466755,522 L61.5332448,522 C40.136795,522 32.3779253,519.772185 24.5557031,515.588815 C16.7334809,511.405445 10.5945551,505.266519 6.41118489,497.444297 C2.22781467,489.622075 9.62964878e-16,481.863205 -1.65734449e-15,460.466755 L1.65734449e-15,61.5332448 C-9.62964878e-16,40.136795 2.22781467,32.3779253 6.41118489,24.5557031 C10.5945551,16.7334809 16.7334809,10.5945551 24.5557031,6.41118489 C32.3779253,2.22781467 40.136795,1.44444732e-15 61.5332448,-2.48601674e-15 Z" id="path-1"></path>
        <path d="M411.634387,84.9022983 L411.691579,84.8876111 C412.681292,84.639978 413.665752,84.3976841 414.644877,84.1607528 C414.713226,84.1446118 414.782099,84.1279664 414.850945,84.1113475 C415.821872,83.8765693 416.787003,83.647598 417.746801,83.4239262 C417.849241,83.4004791 417.952251,83.3765211 418.0552,83.3526242 C421.071117,82.6521047 424.033691,82.0045817 426.940895,81.4102203 C426.975616,81.4036393 427.010887,81.3964348 427.04615,81.3892382 C427.950113,81.2042256 428.848207,81.0249756 429.740871,80.8508864 C429.88003,80.8242979 430.018609,80.7973728 430.157057,80.7705724 C430.365634,80.7296401 430.574124,80.6895041 430.782315,80.6496519 C387.414053,31.2378482 323.776806,0.0440766234 252.851148,0.0440766234 C238.476124,0.0440766234 224.400494,1.32545762 210.73233,3.78018879 L207.414232,4.39660797 C282.060971,-10.167617 362.35869,11.4519482 420.167287,69.2605458 C423.866575,72.9598332 427.425206,76.7560447 430.84258,80.6414193 C472.546135,72.6656091 502.205232,76.0893013 512.028847,93.0979639 C521.162192,108.911488 508.603205,135.834936 480.138938,167.837409 C506.270759,249.693586 488.865592,342.782172 424.804635,406.843129 C332.398483,499.249281 177.906738,496.264554 85.5350082,403.892825 C83.3884797,401.746296 81.2918471,399.568761 79.2451103,397.361659 C39.8631146,404.821301 12.1843285,401.836499 3.40793163,386.640996 C-5.95669728,370.427025 4.38651333,344.781135 29.4182098,314.601231 C29.4235297,314.597712 29.422833,314.59571 29.4221363,314.593709 C37.5758273,304.764538 47.287127,294.45462 58.382708,283.83311 C58.4595004,283.760497 58.535002,283.688266 58.6105677,283.616021 C60.191921,282.103302 61.8024804,280.584068 63.4405795,279.059028 C63.5193958,278.986402 63.5975402,278.913694 63.6757472,278.840973 C64.4814377,278.091074 65.2943542,277.339984 66.113856,276.587555 C66.1843735,276.523491 66.2540191,276.459579 66.3237121,276.395656 C68.9057967,274.026743 71.5539927,271.644456 74.2655314,269.250765 C74.336389,269.188725 74.4060862,269.127226 74.4758251,269.06572 C75.3447979,268.298832 76.2214518,267.530246 77.1045472,266.760554 C77.1937393,266.683278 77.2824996,266.60596 77.3713248,266.528631 C78.1851411,265.819695 79.0048668,265.109889 79.8300003,264.399197 C79.922288,264.320129 80.0142882,264.240934 80.1063554,264.161728 C80.9515013,263.434241 81.8027477,262.705866 82.6596005,261.976617 C82.8171828,261.84288 82.9746911,261.708958 83.1323881,261.575006 C84.0036672,260.834556 84.8813177,260.093076 85.7646821,259.350757 C85.8700927,259.262516 85.9752389,259.174214 86.0804658,259.085899 C86.9389719,258.365047 87.8031947,257.643463 88.6727472,256.921143 C88.761979,256.847326 88.8515534,256.772956 88.9411843,256.698578 C89.7872234,255.996224 90.6379562,255.293758 91.4936684,254.590644 C91.7055045,254.416859 91.9177767,254.24265 92.1303537,254.068402 C93.0299512,253.330747 93.9349483,252.592712 94.8453526,251.854028 C94.9378766,251.7792 95.0304348,251.704138 95.1230488,251.629069 C96.0810181,250.852347 97.0450058,250.075115 98.0149012,249.297231 L98.0666375,249.255958 C98.1437901,249.19409 98.2209801,249.132218 98.2982074,249.070343 C99.1998387,248.347732 100.105838,247.625351 101.01687,246.902459 C101.115502,246.82439 101.214033,246.746247 101.312622,246.668098 C102.271363,245.907948 103.235998,245.147166 104.206135,244.385879 C104.352625,244.271097 104.499241,244.156131 104.645981,244.041153 C105.626591,243.27264 106.613084,242.503567 107.605118,241.734044 C107.642926,241.704867 107.680507,241.675721 107.718095,241.646574 C108.708981,240.878081 109.705674,240.109073 110.707835,239.339673 C110.822037,239.252129 110.935818,239.164823 111.049669,239.077513 C112.026629,238.328169 113.009121,237.578324 113.99674,236.828165 C114.150197,236.711721 114.303179,236.595607 114.456284,236.479485 C116.522763,234.912065 118.612106,233.343036 120.723324,231.773139 C120.831594,231.692718 120.939839,231.612267 121.048142,231.531814 C122.086307,230.760524 123.129908,229.988997 124.178726,229.217322 C124.306618,229.123302 124.433651,229.029891 124.56076,228.936478 C127.83409,226.530813 131.158961,224.123196 134.532765,221.715883 C134.744667,221.564732 134.956423,221.413776 135.16837,221.262822 C136.206928,220.52309 137.250381,219.783242 138.298396,219.043481 C138.427884,218.952121 138.556763,218.861199 138.685711,218.770279 C140.945363,217.176974 143.226888,215.583633 145.529062,213.991215 C145.624768,213.925043 145.719854,213.859297 145.814975,213.793554 C146.900985,213.042923 147.992358,212.291995 149.088268,211.541328 C149.29044,211.402869 149.493073,211.264186 149.69586,211.125512 C151.98843,209.557746 154.300685,207.991229 156.632215,206.426359 C156.746897,206.349402 156.861657,206.272413 156.976464,206.195428 C158.071919,205.460843 159.171451,204.726751 160.275176,203.993075 C160.507077,203.838935 160.739416,203.684635 160.97194,203.530353 C162.088128,202.789741 163.208479,202.049642 164.33304,201.310027 C164.456846,201.22861 164.580616,201.147247 164.704437,201.06589 C165.769357,200.36617 166.838194,199.666798 167.910754,198.967907 C168.103641,198.842227 168.296474,198.716669 168.489428,198.591126 C169.617604,197.857087 170.749867,197.123602 171.886179,196.390705 C172.099178,196.253332 172.312401,196.11592 172.525767,195.978529 C174.91089,194.442689 177.313566,192.909607 179.733533,191.379597 C179.861325,191.298804 179.989495,191.217808 180.117713,191.136822 C181.216957,190.442502 182.319344,189.749083 183.425244,189.056343 C183.763728,188.844316 184.103137,188.631979 184.442875,188.419707 C186.756321,186.974243 189.084266,185.532259 191.427061,184.093674 C191.61792,183.976479 191.809209,183.859102 192.000596,183.741748 L192.288063,183.565542 C193.415514,182.874708 194.546383,182.184669 195.680625,181.495468 C195.898548,181.363052 196.116981,181.230432 196.335539,181.097843 C197.567636,180.350389 198.803479,179.604061 200.043226,178.858783 C200.155089,178.791537 200.266297,178.724711 200.377538,178.657894 C201.512503,177.976163 202.651326,177.294963 203.793376,176.614688 C203.950864,176.520879 204.108687,176.426924 204.26657,176.332987 L204.413346,176.245675 C205.608735,175.534705 206.807643,174.824755 208.010021,174.115873 C208.270557,173.96227 208.530592,173.809107 208.790789,173.655994 C209.925114,172.988503 211.062983,172.321692 212.203885,171.655878 C213.725483,170.767896 215.252599,169.881617 216.785014,168.997205 L213.099338,171.133873 C214.324437,170.420476 215.553013,169.708237 216.785014,168.997205 C218.103639,168.236181 219.421499,167.479246 220.738513,166.726422 C220.881657,166.644599 221.024327,166.56309 221.166988,166.481628 C222.410724,165.771433 223.654305,165.064565 224.897052,164.36139 C225.134175,164.227221 225.371192,164.093228 225.608179,163.95937 C226.815246,163.277577 228.021736,162.59915 229.227362,161.924231 C229.436138,161.807357 229.644526,161.69079 229.852888,161.574329 C232.354639,160.176 234.852951,158.792622 237.346917,157.42454 C237.578975,157.297244 237.811269,157.169929 238.043524,157.042748 C239.271885,156.370107 240.499,155.70128 241.724979,155.036188 C241.878715,154.952786 242.033053,154.869107 242.187373,154.785487 C243.475094,154.087725 244.760889,153.394443 246.045342,152.705305 C246.125303,152.662405 246.205347,152.619473 246.285386,152.576557 C247.589522,151.877291 248.89221,151.182331 250.193427,150.491668 C250.296962,150.436715 250.400016,150.382038 250.503061,150.327388 C251.610593,149.740002 252.717702,149.155392 253.823687,148.573915 C254.14716,148.403849 254.470077,148.234292 254.792896,148.065002 C255.95361,147.456308 257.11336,146.850925 258.271794,146.24902 C258.476563,146.142627 258.681245,146.036365 258.885886,145.930211 C260.07945,145.311068 261.271606,144.695627 262.462286,144.083902 C262.661055,143.981785 262.859451,143.879939 263.057806,143.778197 C265.532817,142.508682 268.001502,141.255209 270.463176,140.017988 C270.731222,139.883275 270.998874,139.748906 271.266442,139.614729 C272.369525,139.061563 273.471913,138.511311 274.572824,137.96435 C274.905731,137.798959 275.238127,137.63405 275.570387,137.46944 C276.686269,136.9166 277.801261,136.36684 278.914658,135.82049 C279.049198,135.754478 279.183583,135.688572 279.317945,135.622717 C280.522217,135.032454 281.724575,134.446212 282.924989,133.863984 C282.991901,133.831539 283.059116,133.798948 283.126324,133.766369 L283.277645,133.693026 C284.429632,133.134864 285.579822,132.580402 286.728152,132.029659 C286.9724,131.912527 287.216672,131.795502 287.460858,131.678645 C288.507435,131.177788 289.552416,130.680057 290.595792,130.185434 C290.990018,129.99856 291.38302,129.812588 291.775791,129.627058 C292.811963,129.137597 293.846983,128.651015 294.880351,128.167527 C295.181003,128.026875 295.480784,127.88681 295.780424,127.747007 C296.740065,127.299252 297.698783,126.853949 298.656024,126.411335 C298.976128,126.263342 299.295704,126.115799 299.615114,125.968557 C300.756924,125.442183 301.89699,124.919494 303.034867,124.400666 C303.118405,124.362596 303.20236,124.324331 303.286303,124.286087 C304.454758,123.753729 305.62044,123.225673 306.783741,122.701706 C307.0649,122.575092 307.344972,122.449119 307.624906,122.323384 C308.69409,121.843122 309.76223,121.365911 310.828283,120.892188 C311.113499,120.765474 311.397711,120.639361 311.681773,120.513497 C312.654943,120.082268 313.626918,119.653738 314.597095,119.228138 C314.792438,119.142475 314.986927,119.057242 315.181344,118.972128 C316.320504,118.473375 317.45814,117.978284 318.59321,117.487268 C318.772608,117.409699 318.951494,117.332389 319.130316,117.255181 C320.291796,116.753663 321.450772,116.256373 322.606975,115.763381 C322.784528,115.687714 322.961936,115.612143 323.139279,115.536673 C324.280971,115.050773 325.420129,114.569034 326.556498,114.091517 C326.688845,114.035949 326.820972,113.980469 326.953061,113.925046 C327.973553,113.496813 328.99193,113.071976 330.007997,112.650564 C330.298707,112.530044 330.588255,112.410156 330.877615,112.290546 C331.900401,111.867713 332.922111,111.44789 333.941403,111.031573 C334.163946,110.940735 334.386493,110.84996 334.608923,110.759351 C335.69023,110.318816 336.768749,109.882316 337.844467,109.449791 C338.076595,109.35652 338.308346,109.263471 338.539966,109.170606 C340.794366,108.266666 343.036851,107.380119 345.266371,106.511254 C345.469349,106.432229 345.672158,106.353298 345.874859,106.274513 C346.928736,105.864815 347.979947,105.459063 349.028182,105.057292 C349.269458,104.964902 349.510126,104.872809 349.750637,104.780925 C350.777831,104.388411 351.802998,103.9995 352.825222,103.614449 C353.064678,103.524347 353.303491,103.434542 353.542143,103.344948 C354.54965,102.966613 355.554873,102.591918 356.55716,102.221005 L356.782506,102.137762 C356.948458,102.076416 357.11433,102.015174 357.28012,101.954036 C358.250982,101.595902 359.220041,101.241085 360.186267,100.889851 C360.304996,100.846807 360.423186,100.803882 360.541334,100.761011 C361.573463,100.386374 362.602836,100.015776 363.628901,99.6492975 C363.88985,99.5562204 364.150443,99.4633351 364.410822,99.3707162 C365.428631,99.0085415 366.443514,98.6504405 367.455053,98.2964303 C367.597939,98.246562 367.740321,98.1967907 367.882637,98.1471006 C371.309411,96.9504765 374.697844,95.8009819 378.045345,94.6992213 C378.184052,94.6537461 378.322342,94.6082898 378.460563,94.562915 C379.457082,94.235597 380.45034,93.9125751 381.439889,93.5938154 C381.660814,93.5228421 381.880853,93.4521148 382.100709,93.3815987 C384.196209,92.7092867 386.27519,92.0562917 388.336816,91.4226638 C388.469795,91.3820181 388.602908,91.3411658 388.735948,91.3003945 C389.716411,90.9996934 390.692527,90.7037315 391.66464,90.4121765 C391.884431,90.3464995 392.103421,90.2809847 392.322207,90.2156941 C393.250002,89.9385684 394.174655,89.6655653 395.095572,89.3966157 C395.331628,89.3279387 395.566834,89.2594432 395.801794,89.191213 C397.822209,88.6042254 399.825375,88.0368725 401.809801,87.4893173 C401.888613,87.4678727 401.968133,87.4459551 402.047622,87.4240694 C403.005847,87.1599338 403.958856,86.9009499 404.907422,86.6466016 C405.096081,86.5963388 405.284307,86.5460051 405.472358,86.4958544 C406.43239,86.2394935 407.387879,85.9882193 408.338716,85.7417353 C408.426405,85.7193515 408.514816,85.6964645 408.603186,85.6736189 C409.593823,85.417164 410.578544,85.1664826 411.558128,84.9210258 L411.634387,84.9022983 L411.634387,84.9022983 Z" id="path-3"></path>
    </defs>
    <g id="com_vivo_browser" stroke="none" stroke-width="1" fill="none" fill-rule="evenodd">
        <g id="主色" transform="translate(21.000000, 21.000000)">
            <mask id="mask-2" fill="white">
                <use xlink:href="#path-1"></use>
            </mask>
            <g id="背景"></g>
            <g id="编组-2" mask="url(#mask-2)">
                <g transform="translate(82.844715, 102.586358)">
                    <g id="编组" stroke-width="1" fill="none">
                        <mask id="mask-4" fill="white">
                            <use xlink:href="#path-3"></use>
                        </mask>
                        <use id="形状结合" fill-opacity="0.4" fill="#000000" xlink:href="#path-3"></use>
                    </g>
                    <path d="M430.782315,80.6496519 C452.849336,105.791802 469.66858,135.650724 479.529995,168.517003 C441.75277,210.754867 376.46035,261.727135 296.872053,307.660352 C214.52238,355.187237 135.151494,386.767066 79.2975573,397.354295 C57.3966029,373.742873 40.2587155,345.653521 29.4107553,314.613534 C65.8653467,270.652159 133.497298,217.065488 216.785014,168.997205 C296.842537,122.793201 374.084791,91.6608547 429.970909,80.8066662 Z" id="形状结合" fill="#000000"></path>
                </g>
            </g>
        </g>
    </g>
</svg>