<?xml version="1.0" encoding="UTF-8"?>
<svg width="240px" height="240px" viewBox="0 0 240 240" version="1.1" xmlns="http://www.w3.org/2000/svg" xmlns:xlink="http://www.w3.org/1999/xlink">
    <title>com_chaozh_ireader_b_s5_1x1_sc</title>
    <g id="com_chaozh_ireader" stroke="none" stroke-width="1" fill="none" fill-rule="evenodd">
        <g id="辅色" transform="translate(56.500000, 66.000000)" fill="#4E4E4E">
            <path d="M9,0 L42.1564486,0.0378597789 L42.1564486,0.0378597789 L43.0539362,0.0470400751 C43.1995315,0.0492454528 43.3431629,0.0517879495 43.4848744,0.0546667471 L44.3124551,0.0759686006 L44.3124551,0.0759686006 L45.0960623,0.105302416 C45.223116,0.110858534 45.3484252,0.116747682 45.4720337,0.12296904 L46.1936276,0.164277184 C46.3106089,0.171824116 46.4259772,0.179701624 46.5397764,0.187908889 L47.2040932,0.241103023 C47.3117914,0.250626046 47.4180082,0.260477191 47.5227875,0.270655639 L48.1345633,0.335647427 L48.1345633,0.335647427 L48.7139431,0.408455241 C48.8079236,0.421239031 48.9006421,0.434346853 48.9921422,0.447777889 L49.5268746,0.532236128 C49.8740844,0.591118607 50.2032051,0.655146335 50.5170433,0.724266964 L50.9766895,0.83176104 L50.9766895,0.83176104 L51.415517,0.946855206 L51.415517,0.946855206 L51.8356306,1.0695102 C52.0413598,1.13272136 52.2408607,1.19875311 52.4353173,1.26758336 L52.8178556,1.40896866 L52.8178556,1.40896866 L53.1890475,1.55777738 C53.2500842,1.58319527 53.3107359,1.60892083 53.3710463,1.63495325 L53.7291654,1.79482347 L53.7291654,1.79482347 L54.0812004,1.96201896 L54.0812004,1.96201896 L54.4292563,2.13650045 L54.4292563,2.13650045 L54.7754382,2.31822867 L54.7754382,2.31822867 C57.5430101,3.80093677 59.7145351,5.97487598 61.1941672,8.74409358 L61.3755107,9.09047716 L61.3755107,9.09047716 L61.5496054,9.43872678 L61.5496054,9.43872678 L61.7164096,9.79094735 C61.7436004,9.85009863 61.7704858,9.90950307 61.7970648,9.96920453 L61.9528554,10.3313283 L61.9528554,10.3313283 L62.1012516,10.7026853 L62.1012516,10.7026853 L62.2422118,11.0853804 L62.2422118,11.0853804 L62.3756943,11.4815187 C62.4189376,11.6160392 62.4609277,11.753151 62.5016576,11.893205 L62.6200602,12.3225443 C62.6391615,12.3956888 62.6579461,12.4696566 62.6764131,12.5444915 L62.7833964,13.0042569 C62.8005894,13.0827356 62.817463,13.1621691 62.8340163,13.2426013 L62.9294868,13.7375289 C63.0058316,14.1605398 63.0741273,14.6107097 63.1342654,15.0935202 L63.2025086,15.6889111 L63.2025086,15.6889111 L63.262879,16.3177418 C63.2722824,16.4254505 63.2813559,16.5346403 63.2900989,16.6453549 L63.3385821,17.3282921 L63.3385821,17.3282921 L63.3790884,18.0499315 L63.3790884,18.0499315 L63.4115763,18.812378 L63.4115763,18.812378 L63.4360042,19.6177365 L63.4360042,19.6177365 L63.4523305,20.4681119 L63.4523305,20.4681119 L63.461,21.3656091 L63.461,21.3656091 L63.461,109 L62.013,109 L61.9381264,108.842406 C59.4695075,103.761532 54.2591421,100.259225 48.2307692,100.259225 L11.5374834,100.259225 L10.7922393,100.254023 L10.7922393,100.254023 L10.1067157,100.238471 L10.1067157,100.238471 L9.47677355,100.212651 L9.47677355,100.212651 L8.89827367,100.176646 C7.42051781,100.067126 6.44732915,99.8498407 5.62550313,99.5318084 L5.32372365,99.4078375 C5.27437964,99.3863931 5.22545443,99.3645587 5.17686178,99.3423358 L4.88860683,99.2043516 L4.88860683,99.2043516 L4.60419433,99.057128 L4.60419433,99.057128 C3.13752767,98.2727461 1.98647908,97.1216975 1.20209717,95.6550309 L1.05487358,95.3706184 L1.05487358,95.3706184 L0.916889381,95.0823634 L0.916889381,95.0823634 L0.788226807,94.7861269 C0.726239635,94.6353234 0.667778919,94.4799746 0.612890924,94.3177523 L0.507892271,93.9834533 C0.307477054,93.2937663 0.16471888,92.4692684 0.0825787753,91.3609515 L0.0465739372,90.7824517 L0.0465739372,90.7824517 L0.0207543615,90.1525095 C0.0173044402,90.0430023 0.014282332,89.9311793 0.0116897503,89.8169541 L0.00130228826,89.1020876 L0.00130228826,89.1020876 L0,9 C0,4.02943725 4.02943725,0 9,0 Z" id="路径"></path>
        </g>
    </g>
</svg>