<?xml version="1.0" encoding="UTF-8"?>
<svg width="564px" height="240px" viewBox="0 0 564 240" version="1.1" xmlns="http://www.w3.org/2000/svg" xmlns:xlink="http://www.w3.org/1999/xlink">
    <title>com_vivo_upslide_b_s5_2x1_sc</title>
    <g id="com_vivo_upslide" stroke="none" stroke-width="1" fill="none" fill-rule="evenodd">
        <g id="辅色" transform="translate(217.914047, 48.475209)" fill="#4E4E4E" fill-rule="nonzero">
            <path d="M128.171073,63.204 L128.171833,99.2871871 C128.171833,105.003437 125.12225,110.285469 120.171833,113.143594 L88.922,131.185 L83.124,120.676 L114.171833,102.751289 C115.3443,102.074364 116.090264,100.853572 116.165539,99.5118539 L116.171833,99.2871871 L116.171073,63.438 L128.171073,63.204 Z M0,63.204 L12,63.438 L12.0000731,99.2871871 C12.0000731,100.641036 12.6843285,101.897456 13.8086528,102.633505 L14.0000731,102.751289 L45.046,120.675 L39.247,131.184 L8.00007305,113.143594 C3.04965582,110.285469 7.3050574e-05,105.003437 7.3050574e-05,99.2871871 L0,63.204 Z M72.0859529,2.14359354 L103.333073,20.184 L97.1310731,30.46 L66.0859529,12.5358984 C64.9171044,11.8610634 63.4920921,11.8235725 62.294781,12.4234259 L62.0859529,12.5358984 L31.039,30.46 L24.836,20.185 L56.0859529,2.14359354 C61.0363702,-0.71453118 67.1355357,-0.71453118 72.0859529,2.14359354 Z" id="形状结合"></path>
        </g>
    </g>
</svg>