<?xml version="1.0" encoding="UTF-8"?>
<svg width="240px" height="564px" viewBox="0 0 240 564" version="1.1" xmlns="http://www.w3.org/2000/svg" xmlns:xlink="http://www.w3.org/1999/xlink">
    <title>com_vivo_wallet_b_s5_1x2_sc</title>
    <g id="com_vivo_wallet" stroke="none" stroke-width="1" fill="none" fill-rule="evenodd">
        <path d="M148.291,454.018314 L142.362836,454.018314 C139.030307,454.018314 138.734024,451.307062 138.734024,450.478664 C138.734024,449.650266 139.030307,446.939014 142.362836,446.939014 L148.291,446.939014 C151.623529,446.939014 151.919944,449.650266 151.919944,450.478664 C151.919944,451.307062 151.623529,454.018314 148.291,454.018314 M148.291,443.957459 L142.362836,443.957459 C136.201934,443.957459 135.653968,448.952516 135.653968,450.478664 C135.653968,452.004942 136.201934,457 142.362836,457 L148.291,457 C154.452034,457 155,452.004942 155,450.478664 C155,448.952516 154.452034,443.957459 148.291,443.957459 M134.46427,444.263236 L132.542902,444.263236 C131.719966,444.263236 131.550379,444.40263 131.232783,444.869754 C130.915581,445.337009 125.419737,453.660669 125.419737,453.660669 C125.244362,453.916615 125.058461,454.020116 124.827039,454.020116 C124.595749,454.020116 124.409848,453.916615 124.234473,453.660669 C124.234473,453.660669 118.738498,445.337009 118.421164,444.869754 C118.103568,444.40263 117.934244,444.263236 117.111308,444.263236 L115.189809,444.263236 C114.747621,444.263236 114.545274,444.606238 114.82327,445.02507 C115.101266,445.443903 121.387286,454.912729 121.387286,454.912729 C122.405858,456.399069 123.153407,456.999974 124.827039,456.999974 C126.500671,456.999974 127.248352,456.399069 128.267056,454.912729 C128.267056,454.912729 134.552944,445.443903 134.830808,445.02507 C135.108804,444.606238 134.90659,444.263236 134.46427,444.263236 M108.94435,445.070947 C108.94435,444.492491 109.175509,444.263302 109.758471,444.263302 L111.210812,444.263302 C111.793642,444.263302 112.024801,444.492491 112.024801,445.070947 L112.024801,456.192263 C112.024801,456.770719 111.793642,456.999909 111.210812,456.999909 L109.758471,456.999909 C109.175509,456.999909 108.94435,456.770719 108.94435,456.192263 L108.94435,445.070947 Z M108.81201,441.667088 C108.338641,441.197615 108.338641,440.825377 108.81201,440.355773 L109.823477,439.352219 C110.296978,438.882615 110.672331,438.882615 111.145437,439.352089 L112.157168,440.355773 C112.630274,440.825377 112.630274,441.197615 112.157168,441.667088 L111.145437,442.670642 C110.672331,443.140246 110.296978,443.140246 109.823477,442.670642 L108.81201,441.667088 Z M105.779474,444.263236 L103.858107,444.263236 C103.035039,444.263236 102.865584,444.40263 102.548119,444.869754 C102.230785,445.337009 96.7346788,453.660669 96.7346788,453.660669 C96.5594349,453.916615 96.3735343,454.020116 96.1421124,454.020116 C95.9106904,454.020116 95.7249214,453.916615 95.5495459,453.660669 C95.5495459,453.660669 90.0535709,445.337009 89.7362373,444.869754 C89.4189038,444.40263 89.2491856,444.263236 88.4262497,444.263236 L86.5048819,444.263236 C86.0109888,444.263236 85.8602159,444.606238 86.1383432,445.02507 C86.416339,445.443903 92.7022272,454.912729 92.7022272,454.912729 C93.7207995,456.399069 94.4684805,456.999974 96.1421124,456.999974 C97.8157442,456.999974 98.5634252,456.399069 99.5821291,454.912729 C99.5821291,454.912729 105.868017,445.443903 106.146013,445.02507 C106.423877,444.606238 106.273236,444.263236 105.779474,444.263236" id="形状结合备份-3" fill="#4E4E4E"></path>
    </g>
</svg>