<?xml version="1.0" encoding="UTF-8"?>
<svg width="240px" height="564px" viewBox="0 0 240 564" version="1.1" xmlns="http://www.w3.org/2000/svg" xmlns:xlink="http://www.w3.org/1999/xlink">
    <title>com_vivo_browser_b_s5_1x2_mc</title>
    <g id="com_vivo_browser" stroke="none" stroke-width="1" fill="none" fill-rule="evenodd">
        <g id="主色" transform="translate(51.000000, 237.867944)" fill="#000000">
            <path d="M58.9353545,25.2195899 C97.1186932,3.10789532 132.946351,-6.34977512 139.200584,4.51556876 C140.847445,7.37662406 139.900045,11.5708602 136.817418,16.6182781 L136.403265,17.281436 C135.47986,18.7285904 134.387514,20.2422196 133.136588,21.8114895 L132.548015,22.5396793 L132.548015,22.5396793 L131.937148,23.275534 L131.937148,23.275534 L131.304213,24.0188169 C131.196897,24.1433032 131.088672,24.2680892 130.979541,24.39317 C132.955031,30.6184787 134.02124,37.2503785 134.02124,44.1320564 C134.02124,80.0305652 105.007315,109.132056 69.2168244,109.132056 C50.0924354,109.132056 32.902906,100.822936 21.0409169,87.6076138 C20.0773127,87.7843217 19.1402259,87.9374503 18.2311244,88.0666382 L17.3314057,88.1878324 C17.0346451,88.2255615 16.7410485,88.2606171 16.45067,88.2929858 L15.5892436,88.382018 C8.06622042,89.0970305 2.84136913,87.915788 0.926483099,84.5890982 C-5.32775043,73.7237543 20.7520158,47.3312845 58.9353545,25.2195899 Z" id="路径" opacity="0.400000006"></path>
            <path d="M117.705594,1.00759041 C123.634981,7.70991125 128.204178,15.6502202 130.979175,24.3931969 C129.1541,26.4850832 127.075788,28.6594029 124.766302,30.893088 L123.762433,31.8539489 C123.083837,32.4968563 122.386627,33.1443408 121.671317,33.7958644 L120.584843,34.7761118 C120.401523,34.9399688 120.217087,35.1040615 120.031545,35.2683814 L118.90507,36.2569602 C118.715132,36.4221553 118.524102,36.5875609 118.33199,36.7531684 L117.166383,37.7491706 C116.577147,38.2483165 115.978308,38.749129 115.370084,39.2513812 L114.141187,40.2577381 C112.486146,41.6019274 110.765396,42.9552785 108.983054,44.3134873 L107.634814,45.3329874 C107.181594,45.6730795 106.724589,46.013408 106.263863,46.3539055 L104.870586,47.3758382 C103.700328,48.2277595 102.507216,49.0803172 101.292256,49.9324605 L99.8238819,50.9547663 C99.5774264,51.125095 99.3301131,51.2953904 99.0819499,51.4656439 L97.5828377,52.4865964 C97.3313075,52.6566491 97.0789436,52.8266433 96.8257539,52.9965704 L95.2967723,54.0152616 C95.0403121,54.184887 94.7830423,54.3544286 94.524971,54.523878 L92.9669884,55.5394 C92.7057429,55.7084468 92.443712,55.8773845 92.1809036,56.0462048 L90.5947884,57.0576496 L90.5947884,57.0576496 L88.9904005,58.065872 C87.1081057,59.2400948 85.1892921,60.4069143 83.2367176,61.5634472 L81.5548787,62.5521747 L81.5548787,62.5521747 L79.8898296,63.5165238 L79.8898296,63.5165238 L78.256138,64.4488389 C77.7121494,64.7570036 77.168763,65.0625546 76.6260597,65.3654721 L75.0000798,66.266304 C73.6469388,67.0103801 72.2985721,67.737872 70.9562424,68.4484683 L69.3484255,69.293054 L69.3484255,69.293054 L67.7468891,70.1213005 L67.7468891,70.1213005 L66.1521182,70.9330882 C65.8869138,71.0670079 65.6220115,71.2002369 65.3574213,71.3327726 L63.7737079,72.1196479 C63.5104071,72.2494006 63.2474386,72.3784551 62.9848126,72.5068088 L61.4132478,73.2685028 L61.4132478,73.2685028 L59.8503883,74.0132598 C59.5906641,74.1359679 59.3313228,74.2579653 59.0723745,74.3792496 L57.5234821,75.098377 L57.5234821,75.098377 L55.9845073,75.8002685 C55.728865,75.9158075 55.473656,76.0306233 55.2188906,76.1447135 L53.6957015,76.8205273 L53.6957015,76.8205273 L52.1836423,77.4788063 C51.4304761,77.8035423 50.6816654,78.1216579 49.9374831,78.4330859 L48.4553705,79.0470053 C48.2094072,79.1478325 47.9639783,79.2479116 47.7190941,79.3472401 L46.2564042,79.9341852 C45.771073,80.1268181 45.288001,80.316429 44.8072689,80.5029978 L43.3721733,81.0535586 C42.6582162,81.3242561 41.9497058,81.5880643 41.246915,81.844916 L39.84904,82.3493241 L39.84904,82.3493241 L38.4669019,82.8350619 C38.2378839,82.9144557 38.0095418,82.9930666 37.7818857,83.0708921 L36.4242623,83.5284004 C35.2999042,83.9017701 34.1932017,84.2553803 33.1054174,84.5889197 L31.809238,84.979513 C31.1657695,85.1699728 30.5292934,85.3531623 29.9000826,85.5290142 L28.6514288,85.8709147 C28.0320263,86.0369533 27.4200708,86.1956095 26.8158351,86.3468161 L25.6177378,86.6392766 C25.221857,86.7334392 24.8294881,86.824271 24.4407118,86.9117519 L23.285242,87.1641225 C22.5222219,87.3256414 21.773896,87.4736775 21.0409107,87.6080713 C15.2418521,81.1470446 10.7158387,73.5133377 7.85972066,65.1045757 C9.50645532,63.1007228 11.3912409,61.0227784 13.4942854,58.8901232 L14.4088952,57.972835 C15.0274667,57.3591518 15.6636245,56.7412284 16.3169068,56.1195169 L17.3096161,55.184165 C17.6447619,54.8714717 17.9841311,54.5578878 18.3276661,54.2434699 L19.3707105,53.2977707 C20.2502324,52.5076971 21.1554296,51.7127639 22.0854005,50.9138542 L23.2131992,49.9533102 L23.2131992,49.9533102 L24.3644344,48.9892876 C24.5582408,48.8283461 24.7530092,48.6672738 24.9487325,48.5060778 L26.1344733,47.537473 C26.3339873,47.3758103 26.5344418,47.2140378 26.7358295,47.0521629 L27.9552969,46.0797388 L27.9552969,46.0797388 L29.196816,45.1051922 C30.4492455,44.1296974 31.7342331,43.1515274 33.0502209,42.1722079 L34.3764844,41.1925617 L34.3764844,41.1925617 L35.7230684,40.2124881 C35.9491732,40.0491257 36.1761103,39.8857597 36.4038724,39.722397 L37.7802881,38.7423181 C38.4733885,38.2523554 39.1737846,37.7625503 39.8812815,37.2730935 L41.3056856,36.2947007 L41.3056856,36.2947007 L42.7486791,35.3175757 L42.7486791,35.3175757 L44.2099158,34.3420575 C44.6999968,34.0171903 45.1930606,33.6926473 45.6890496,33.3684851 L47.1857342,32.3971976 C47.436625,32.2355255 47.6882326,32.0739628 47.9405499,31.9125165 L49.4629115,30.9452919 C49.7180385,30.7843394 49.9738607,30.6235174 50.230371,30.462833 L51.7776307,29.5004341 L51.7776307,29.5004341 L53.3410564,28.5416761 C53.8648541,28.2227345 54.3912885,27.9044563 54.9203018,27.586898 L56.5150207,26.6364389 C56.7820774,26.4784078 57.0497644,26.3205708 57.3180745,26.1629349 L58.9353545,25.2195899 L58.9353545,25.2195899 C60.6173547,24.2455558 62.2947839,23.2960762 63.9653154,22.3718068 L65.6334615,21.4559651 C66.1886864,21.1535018 66.7430586,20.853864 67.2964922,20.5570758 L68.9538905,19.6752846 C69.2296254,19.5297523 69.5051041,19.3849385 69.7803159,19.2408463 L71.4282961,18.3849754 C71.7023967,18.2437814 71.9762089,18.103315 72.2497217,17.9635792 L73.8871206,17.1339564 C74.1593931,16.9971553 74.4313447,16.8610908 74.7029647,16.7257662 L76.328619,15.9227192 C76.5988695,15.7903656 76.8687667,15.6587578 77.1383,15.5278988 L78.7510466,14.7517554 C79.2871156,14.4960525 79.8216426,14.2433692 80.3545416,13.9937298 L81.9482682,13.2539677 L81.9482682,13.2539677 L83.5317093,12.5326148 L83.5317093,12.5326148 L85.1043478,11.8298168 C85.3655253,11.7142381 85.6262312,11.5994386 85.8864546,11.4854214 L87.44192,10.8107287 L87.44192,10.8107287 L88.9852905,10.1549551 L88.9852905,10.1549551 L90.5160489,9.5182462 L90.5160489,9.5182462 L92.0336782,8.90074768 L92.0336782,8.90074768 L93.5376616,8.30260521 C94.5356535,7.91032795 95.5242035,7.53105185 96.5026221,7.16497113 L97.9625653,6.62577087 C104.981398,4.06770424 111.449584,2.20832467 117.10443,1.12164974 L117.705594,1.00759041 Z" id="路径"></path>
        </g>
    </g>
</svg>