<?xml version="1.0" encoding="UTF-8"?>
<svg width="564px" height="564px" viewBox="0 0 564 564" version="1.1" xmlns="http://www.w3.org/2000/svg" xmlns:xlink="http://www.w3.org/1999/xlink">
    <title>com_vivo_weather_b_s5_2x2_sc</title>
    <g id="com_vivo_weather" stroke="none" stroke-width="1" fill="none" fill-rule="evenodd">
        <g id="辅色" transform="translate(296.116162, 202.505051)" fill="#4E4E4E">
            <path d="M46.2758384,55.7720073 C47.0434606,55.7391741 47.8169362,55.7235834 48.5940384,55.7235834 C58.3248017,55.7235834 67.4869354,58.1681538 75.5045442,62.4790391 C68.2869614,74.0209454 55.4641389,81.6969697 40.8484848,81.6969697 C18.2884896,81.6969697 0,63.4084801 0,40.8484848 C0,27.8132096 6.10576729,16.2040126 15.6133548,8.72484114 C30.3313278,20.5920604 41.2537893,36.9765534 46.2758384,55.7720073 Z" id="形状结合" opacity="0.100000001"></path>
            <path d="M40.8484848,0 C63.4084801,0 81.6969697,18.2884896 81.6969697,40.8484848 C81.6969697,48.7927745 79.4291424,56.2073848 75.5055602,62.4802432 C67.4879758,58.1684314 58.3253542,55.7235834 48.5940384,55.7235834 C47.8167121,55.7235834 47.0430144,55.739183 46.2758582,55.7720815 C41.253714,36.9762071 30.3308945,20.5913971 15.6137782,8.72435698 C22.5607518,3.25978218 31.3239369,0 40.8484848,0 Z" id="路径"></path>
        </g>
    </g>
</svg>