<?xml version="1.0" encoding="UTF-8"?>
<svg width="564px" height="564px" viewBox="0 0 564 564" version="1.1" xmlns="http://www.w3.org/2000/svg" xmlns:xlink="http://www.w3.org/1999/xlink">
    <title>com_vivo_browser_b_s5_2x2_sc</title>
    <defs>
        <path d="M61.5332448,-2.48601674e-15 L460.466755,2.48601674e-15 C481.863205,-1.44444732e-15 489.622075,2.22781467 497.444297,6.41118489 C505.266519,10.5945551 511.405445,16.7334809 515.588815,24.5557031 C519.772185,32.3779253 522,40.136795 522,61.5332448 L522,460.466755 C522,481.863205 519.772185,489.622075 515.588815,497.444297 C511.405445,505.266519 505.266519,511.405445 497.444297,515.588815 C489.622075,519.772185 481.863205,522 460.466755,522 L61.5332448,522 C40.136795,522 32.3779253,519.772185 24.5557031,515.588815 C16.7334809,511.405445 10.5945551,505.266519 6.41118489,497.444297 C2.22781467,489.622075 9.62964878e-16,481.863205 -1.65734449e-15,460.466755 L1.65734449e-15,61.5332448 C-9.62964878e-16,40.136795 2.22781467,32.3779253 6.41118489,24.5557031 C10.5945551,16.7334809 16.7334809,10.5945551 24.5557031,6.41118489 C32.3779253,2.22781467 40.136795,1.44444732e-15 61.5332448,-2.48601674e-15 Z" id="path-1"></path>
        <path d="M236.620754,0 C307.546412,0 371.183659,31.1937716 414.551921,80.6055753 L413.892464,80.733118 C413.779293,80.7550387 413.666034,80.7770428 413.552688,80.7991301 L414.551921,80.6055753 C413.317182,80.841931 412.071898,81.0882709 410.81627,81.3445384 C410.780169,81.3524242 410.744575,81.3596948 410.708972,81.3669735 C408.770621,81.7627477 406.807111,82.1827929 404.819716,82.6262746 C404.780023,82.6355878 404.740948,82.644314 404.701864,82.6530492 C403.755045,82.8642132 402.802142,83.0813016 401.843899,83.3036882 C401.726303,83.3314065 401.608618,83.3587784 401.490854,83.3862301 C400.539796,83.6075118 399.583522,83.8344159 398.62209,84.0665 C398.55108,84.0840404 398.480553,84.1010858 398.409999,84.118159 C396.443531,84.5936346 394.455045,85.0912669 392.445699,85.6103515 C392.315463,85.6443447 392.184688,85.6781954 392.053824,85.7121368 C391.096497,85.9600956 390.135065,86.213093 389.168998,86.4709177 C389.054345,86.5018418 388.940011,86.5324049 388.825612,86.5630356 C387.842536,86.8259393 386.854184,87.0942883 385.861123,87.3676061 C385.741041,87.4009585 385.620569,87.4341689 385.500027,87.4674523 C383.529154,88.0113553 381.54004,88.5750095 379.533052,89.1580101 C379.314716,89.221696 379.095833,89.2854449 378.876739,89.3494232 C377.94491,89.621275 377.009625,89.8974275 376.070577,90.1777107 C375.875202,90.2362687 375.679513,90.2948065 375.483661,90.3535233 C374.493088,90.6502624 373.498139,90.9518868 372.499096,91.2580713 C372.378463,91.2952681 372.258344,91.3321292 372.138165,91.3690561 C370.013384,92.0217195 367.869607,92.695361 365.708037,93.3894051 C365.604316,93.422901 365.500888,93.4561432 365.39742,93.489432 C364.318526,93.8363556 363.234858,94.1886609 362.14685,94.5460192 C362.069913,94.5714673 361.993924,94.5964433 361.917915,94.621444 C358.51698,95.7398931 355.072689,96.9081913 351.588565,98.1251226 C351.489994,98.1596899 351.391942,98.1939647 351.293858,98.2282781 C350.259812,98.5898905 349.221659,98.9561334 348.18007,99.3266396 C347.920049,99.4192585 347.659456,99.5121438 347.398648,99.6052953 C346.369829,99.9726328 345.337827,100.344185 344.302561,100.71986 C344.202383,100.756327 344.101822,100.792846 344.001231,100.829403 C341.785793,101.634441 339.555614,102.458383 337.31115,103.300999 C337.073097,103.390465 336.834284,103.48027 336.595309,103.570286 C335.534534,103.969764 334.471074,104.373307 333.404514,104.780985 C333.241335,104.843445 333.0787,104.905679 332.915992,104.968008 C331.856908,105.373634 330.793982,105.783723 329.728071,106.197867 C329.446727,106.307257 329.163603,106.417464 328.880269,106.527956 C326.676711,107.387211 324.461722,108.263317 322.23465,109.156508 C322.034142,109.236988 321.833794,109.317439 321.63335,109.398027 C320.557441,109.830532 319.478748,110.267069 318.397315,110.707565 C318.142143,110.81156 317.886625,110.915798 317.630954,111.020256 C316.582768,111.448454 315.532562,111.880194 314.479859,112.315621 C314.303424,112.388651 314.126901,112.46174 313.950308,112.534933 C312.872414,112.98164 311.791735,113.432331 310.708513,113.886863 C310.582161,113.939927 310.455721,113.99302 310.329246,114.046165 C309.135358,114.547802 307.93853,115.054084 306.738704,115.565001 C306.657146,115.599771 306.576758,115.634017 306.496356,115.668285 C305.290766,116.182068 304.080865,116.701125 302.86802,117.224844 C302.730291,117.284352 302.592694,117.343811 302.455061,117.40333 C301.259367,117.920365 300.060593,118.442061 298.859047,118.968261 C298.770517,119.007063 298.682286,119.04572 298.59404,119.084401 C297.497926,119.564838 296.39927,120.049157 295.298372,120.537206 C295.098966,120.625634 294.899778,120.714026 294.700517,120.802541 C293.546591,121.315107 292.389763,121.831991 291.230553,122.352947 C291.045923,122.435945 290.861566,122.518872 290.677149,122.601902 C289.471942,123.144498 288.263898,123.691636 287.05337,124.243147 C286.969946,124.281175 286.887001,124.31898 286.804043,124.356805 C285.57525,124.917068 284.343471,125.482053 283.109218,126.051519 C282.963349,126.118839 282.816445,126.186665 282.669506,126.254555 C281.565604,126.764573 280.460488,127.277835 279.353463,127.794656 C279.162075,127.884021 278.971289,127.973171 278.780445,128.062425 C277.638846,128.59632 276.494581,129.134313 275.348358,129.67607 C275.134472,129.777175 274.920762,129.878283 274.706985,129.979521 C273.590887,130.508057 272.472542,131.04036 271.352411,131.57621 C270.997878,131.745822 270.641999,131.916339 270.285941,132.087213 C266.612135,133.850292 262.920558,135.650809 259.212038,137.488761 C258.935896,137.625624 258.659868,137.762585 258.383747,137.899753 C257.227833,138.473968 256.070312,139.051806 254.911223,139.633255 C254.713998,139.732196 254.517062,139.831069 254.320082,139.930045 C251.85934,141.166491 249.391362,142.419301 246.916955,143.688193 C246.686793,143.806225 246.456013,143.924682 246.225177,144.043278 C245.011337,144.66691 243.796364,145.294201 242.579929,145.925333 C242.437435,145.999267 242.295385,146.07301 242.153315,146.146805 C240.951551,146.771034 239.747631,147.399396 238.542357,148.031488 C238.326508,148.144689 238.110492,148.258073 237.894433,148.371577 C235.283577,149.743154 232.66612,151.132374 230.043047,152.538884 C229.966918,152.579706 229.890891,152.620484 229.81486,152.661277 C228.594033,153.316277 227.371906,153.975069 226.148634,154.637586 C225.869874,154.788561 225.590532,154.940013 225.311131,155.091658 C224.196017,155.69689 223.080567,156.304882 221.964232,156.915945 C221.601734,157.11437 221.238121,157.313679 220.874416,157.513314 C218.412646,158.864562 215.947536,160.230217 213.478765,161.610602 C213.329765,161.693914 213.18104,161.777118 213.032302,161.860376 C211.815249,162.54163 210.596813,163.226744 209.377561,163.91542 C209.140798,164.049151 208.903781,164.183144 208.666732,164.317271 C205.966343,165.845213 203.262092,167.390552 200.55462,168.953129 C199.25502,169.703174 197.959231,170.454563 196.667313,171.207238 L200.55462,168.953129 C199.071008,169.809374 197.592363,170.66737 196.118774,171.527032 C194.924583,172.223698 193.733903,172.921346 192.546589,173.620042 C192.257094,173.790401 191.967954,173.96073 191.679015,174.13112 C189.295124,175.536929 186.924709,176.947033 184.568328,178.360959 C184.227162,178.565672 183.886741,178.770195 183.546615,178.974796 C182.406988,179.660333 181.269994,180.347162 180.136355,181.034834 C179.927979,181.161236 179.719947,181.287527 179.512027,181.413846 C176.98412,182.949646 174.472661,184.489798 171.978439,186.033646 C171.859635,186.107182 171.74044,186.180993 171.621284,186.254812 C170.46053,186.973923 169.303987,187.693538 168.151233,188.413902 C167.885593,188.579902 167.620616,188.745653 167.355839,188.911443 C166.254315,189.601165 165.156041,190.291707 164.061291,190.982883 C163.789525,191.154464 163.518606,191.325686 163.247904,191.496946 C160.895867,192.984964 158.559787,194.476136 156.240503,195.969786 C156.030355,196.105124 155.820382,196.240459 155.610547,196.375813 C154.446302,197.126813 153.286184,197.878512 152.130374,198.630774 C152.051076,198.682386 151.970646,198.73475 151.890238,198.787116 C149.521961,200.329478 147.172896,201.873472 144.8424,203.419368 C144.559907,203.606755 144.277995,203.793965 143.996356,203.981202 C142.968661,204.664427 141.944209,205.348274 140.923437,206.032444 C140.64622,206.218248 140.369316,206.404047 140.092685,206.589869 C137.920889,208.048732 135.765741,209.509091 133.62775,210.970484 C133.351382,211.159391 133.075174,211.348403 132.799253,211.537431 C131.758149,212.250673 130.721046,212.964216 129.688086,213.67795 C129.510914,213.800368 129.333764,213.922862 129.156736,214.045361 C126.968955,215.55925 124.799817,217.073985 122.649782,218.589124 C122.413155,218.755876 122.17702,218.922449 121.941116,219.089027 C120.913957,219.814328 119.890952,220.539879 118.872383,221.265467 C118.700693,221.387772 118.529255,221.509989 118.357942,221.632206 C116.190117,223.178772 114.042382,224.725543 111.915299,226.271996 C111.770815,226.37704 111.626417,226.482089 111.482115,226.587137 C110.402932,227.372751 109.329227,228.158171 108.260918,228.943444 C108.185365,228.99898 108.10901,229.055125 108.032683,229.111269 C106.983283,229.883179 105.939989,230.654285 104.901961,231.425188 C104.717165,231.562429 104.533172,231.699191 104.349345,231.835945 C103.411833,232.53339 102.478178,233.231008 101.54889,233.928412 C101.451441,234.001544 101.35399,234.074712 101.256587,234.147878 C100.222294,234.9248 99.1934925,235.701399 98.1701738,236.47767 C98.0541228,236.565704 97.9381415,236.653735 97.8222307,236.741761 C94.7006958,239.112352 91.6303249,241.479845 88.612816,243.842592 C88.3643667,244.037131 88.1165917,244.23139 87.8691752,244.425615 C86.9972583,245.110083 86.1296524,245.794252 85.266539,246.477972 C84.9943087,246.69362 84.7228604,246.908958 84.4518591,247.124251 C83.6978856,247.72323 82.9467248,248.322374 82.1990579,248.921135 L81.8362435,249.211881 L81.8362435,249.211881 L81.7683793,249.266308 C80.8387083,250.011982 79.9144667,250.757056 78.9957073,251.501478 C78.8305685,251.635281 78.6653206,251.769296 78.5002508,251.903289 C77.5906584,252.641637 76.6867091,253.37914 75.7882142,254.115942 C75.6576435,254.223015 75.5267003,254.330474 75.3958734,254.437917 C73.4981211,255.996478 71.62501,257.55171 69.7768337,259.103298 C69.7102972,259.159157 69.6430897,259.215602 69.5759153,259.272042 C68.6741513,260.02971 67.7790696,260.785883 66.8899868,261.541129 C66.72224,261.683624 66.5546236,261.826158 66.3872213,261.968657 C65.6157778,262.625341 64.8486072,263.281551 64.0860247,263.937014 C63.8969192,264.099558 63.7095536,264.260799 63.5224663,264.421994 C61.7450875,265.95339 59.9921407,267.481268 58.2648142,269.004549 C58.1788476,269.080361 58.0924734,269.156577 58.0061634,269.232781 C57.172174,269.969124 56.3446926,270.70393 55.5232533,271.437604 C55.3578454,271.58534 55.1933625,271.732421 55.029123,271.879456 C53.3870105,273.34955 51.7685218,274.815704 50.1748219,276.27684 C50.0525819,276.388912 49.9306129,276.50084 49.8087897,276.612738 C49.0290347,277.328964 48.2551667,278.044053 47.4873218,278.757876 C47.3551788,278.880723 47.2235181,279.003249 47.0920351,279.125737 C45.4837865,280.623964 43.9018006,282.1169 42.3469064,283.603753 C42.2757487,283.671797 42.2041053,283.740347 42.1325195,283.808884 C41.3893708,284.520388 40.6528772,285.230064 39.9226415,285.938292 C39.7696237,286.086698 39.617342,286.234593 39.465334,286.382423 C38.0867015,287.723166 36.7302346,289.05901 35.3966382,290.389269 C35.14778,290.637507 34.9013555,290.88391 34.6557192,291.130118 C33.9961327,291.791238 33.3417589,292.451437 32.6931201,293.11019 C32.5777494,293.22736 32.4622846,293.344764 32.3470022,293.462123 C30.9657355,294.868263 29.610765,296.267684 28.2824244,297.660063 C28.1480556,297.800909 28.0138102,297.94184 27.8798383,298.082699 C27.2776908,298.715801 26.6814837,299.346993 26.090835,299.976681 C25.8968932,300.183442 25.7043444,300.389192 25.5123912,300.594779 C24.9479208,301.199339 24.3879991,301.803151 23.8332762,302.405522 C23.6901923,302.560897 23.5482114,302.715351 23.4065732,302.86971 C22.9000026,303.421772 22.3969961,303.97352 21.8984171,304.524015 C21.7432455,304.695345 21.5891275,304.865861 21.4354358,305.036256 C20.8427395,305.693366 20.2560589,306.349038 19.6757716,307.00286 C19.5848199,307.105337 19.4937994,307.208024 19.4029369,307.310665 C18.8049325,307.98619 18.2140529,308.659407 17.6300643,309.330589 C17.5587737,309.412524 17.4877173,309.494277 17.4167633,309.576 C16.2355004,310.936545 15.0826503,312.288653 13.9586215,313.631933 C13.80079,313.820552 13.6438794,314.008573 13.4875356,314.196419 L13.1770187,314.570173 L13.1770187,314.570173 C4.6416672,290.137103 0,263.876714 0,236.532609 C0,105.899256 105.93872,0 236.620754,0 Z" id="path-3"></path>
    </defs>
    <g id="com_vivo_browser" stroke="none" stroke-width="1" fill="none" fill-rule="evenodd">
        <g id="编组-2" transform="translate(21.000000, 21.000000)">
            <mask id="mask-2" fill="white">
                <use xlink:href="#path-1"></use>
            </mask>
            <g id="蒙版"></g>
            <g mask="url(#mask-2)" id="编组">
                <g transform="translate(99.075109, 102.630435)">
                    <mask id="mask-4" fill="white">
                        <use xlink:href="#path-3"></use>
                    </mask>
                    <use id="形状结合" fill="#4E4E4E" xlink:href="#path-3"></use>
                </g>
            </g>
        </g>
    </g>
</svg>