<?xml version="1.0" encoding="UTF-8"?>
<svg width="564px" height="240px" viewBox="0 0 564 240" version="1.1" xmlns="http://www.w3.org/2000/svg" xmlns:xlink="http://www.w3.org/1999/xlink">
    <title>com_vivo_easyshare_b_s5_2x1_sc</title>
    <g id="com_vivo_easyshare" stroke="none" stroke-width="1" fill="none" fill-rule="evenodd">
        <g id="辅色" transform="translate(254.000000, 69.000000)" fill="#4E4E4E">
            <path d="M51,0 C79.1665222,0 102,22.8334778 102,51 C102,79.1665222 79.1665222,102 51,102 C41.5519778,102 32.7040098,99.4308621 25.1165947,94.9530847 C25.8986141,95.4139994 26.6933063,95.8547992 27.5006583,96.2746454 C34.2576369,92.7601508 40.1287759,87.7773922 44.6912245,81.7492207 L44.6912245,81.7492207 L44.9447632,81.4089124 C44.919316,81.4038736 44.8938799,81.3988037 44.8684551,81.3937026 C46.8505871,81.7913742 48.90093,82 51,82 C68.1208272,82 82,68.1208272 82,51 C82,33.8791728 68.1208272,20 51,20 C48.7742925,20 46.6033689,20.234558 44.5105999,20.6803034 L44.9461091,20.5904662 C40.3483121,14.4097035 34.3841455,9.30564993 27.4993417,5.7253546 L27.4993417,5.7253546 L27.5625637,5.6925273 C34.5800607,2.055013 42.5500433,0 51,0 Z M14.6396331,15.2386498 C12.9923297,16.9136965 11.4599656,18.702096 10.0553406,20.5911081 C16.976282,21.9615427 23.0685631,25.6357572 27.500303,30.7812648 L27.500303,30.7812648 L27.4622536,30.8255322 C22.8105325,36.2476905 20,43.2956277 20,51 C20,59.1748271 23.1642533,66.6106032 28.3347779,72.1493464 C28.0499685,71.8448268 27.771705,71.5345523 27.499697,71.2187352 C23.0683486,76.3644919 16.9756922,80.038813 10.0534879,81.408992 C3.73763217,72.9186637 0,62.3958172 0,51 C0,37.1984041 5.48231801,24.6772722 14.3880456,15.4955127 Z" id="形状结合"></path>
            <path d="M44.9447632,81.4089124 L44.6912245,81.7492207 C40.1287759,87.7773922 34.2576369,92.7601508 27.5006583,96.2746454 C20.6156533,92.6942455 14.6513393,87.5899982 10.0534879,81.408992 C16.9756922,80.038813 23.0683486,76.3644919 27.499697,71.2187352 C31.9314591,76.3642686 38.0237789,80.0384941 44.9447632,81.4089124 Z M44.9461091,20.5904662 L44.5105999,20.6803034 C37.7690766,22.1162015 31.8385667,25.7435997 27.500303,30.7812648 C23.0685631,25.6357572 16.976282,21.9615427 10.0553406,20.5911081 C14.6516879,14.4097035 20.6158545,9.30564993 27.4993417,5.7253546 C34.3841455,9.30564993 40.3483121,14.4097035 44.9461091,20.5904662 Z" id="形状结合" opacity="0.8"></path>
        </g>
    </g>
</svg>