<?xml version="1.0" encoding="UTF-8"?>
<svg width="564px" height="240px" viewBox="0 0 564 240" version="1.1" xmlns="http://www.w3.org/2000/svg" xmlns:xlink="http://www.w3.org/1999/xlink">
    <title>com_android_camera_b_s5_2x1_mc</title>
    <g id="com_android_camera" stroke="none" stroke-width="1" fill="none" fill-rule="evenodd">
        <g id="形状结合-2" transform="translate(214.000000, 52.000000)" fill="#000000" fill-rule="nonzero">
            <path d="M68,0 C105.555363,0 136,30.444637 136,68 C136,105.555363 105.555363,136 68,136 C30.444637,136 0,105.555363 0,68 C0,30.444637 30.444637,0 68,0 Z M68,20 C41.490332,20 20,41.490332 20,68 C20,94.509668 41.490332,116 68,116 C94.509668,116 116,94.509668 116,68 C116,41.490332 94.509668,20 68,20 Z M86.6127994,10.3302388 L86.4006544,10.3934945 L82.0868161,15.57227 L83.1322442,15.8918894 L83.3450834,15.8277957 L84.3762629,14.575212 L86.8424767,15.3293682 L86.9890378,16.9408392 L87.1297472,17.1140487 L88.1897898,17.4381363 L87.5432279,10.7437477 L87.4026286,10.5717138 L86.6127994,10.3302388 Z M50.7557598,10.4095094 C50.2110354,10.2080683 49.5959919,10.2022005 48.9152784,10.3877377 C48.2899673,10.5581742 47.7987085,10.8480304 47.4469171,11.2583386 C47.0971718,11.6662604 46.8861579,12.1458609 46.8153837,12.6924986 C46.7458248,13.2297491 46.7994931,13.7902468 46.9751263,14.372551 C47.152004,14.9589812 47.4157988,15.4621826 47.7667829,15.8804754 C48.1239616,16.3061508 48.5649008,16.603534 49.0860519,16.7698926 C49.6098913,16.9371094 50.191057,16.9325225 50.8258981,16.7594885 C51.5131118,16.5721796 52.0322985,16.2580303 52.3766634,15.81462 C52.6772525,15.4275762 52.8508836,14.961312 52.8978368,14.4205855 L52.8978368,14.4205855 L52.9244979,13.9172849 L51.7647719,14.2333831 L51.7314999,14.5395863 L51.697809,14.7058555 C51.6423795,14.9201535 51.5449556,15.1047516 51.4060098,15.2581768 C51.1985752,15.4872279 50.9095822,15.6533986 50.534343,15.7556748 C50.1610338,15.857425 49.8173867,15.8538351 49.4986574,15.7469761 C49.1768814,15.6390958 48.8965449,15.4430363 48.6551816,15.1554483 C48.4088709,14.8619654 48.2192622,14.4968148 48.0870177,14.058364 C47.9565113,13.6256757 47.9149956,13.2253601 47.9608161,12.8564108 C48.0056367,12.4955123 48.1331838,12.1902139 48.3439114,11.9359266 C48.5522086,11.6845719 48.8394619,11.5084004 49.2114926,11.4069987 C49.5881576,11.3043338 49.9227617,11.2971826 50.2182289,11.3823834 C50.4681524,11.4544512 50.7017159,11.6024064 50.9202074,11.8297276 L50.9202074,11.8297276 L51.0346358,11.9575452 L51.2361464,12.0170001 L52.2670441,11.7360158 L51.9713265,11.3237665 L51.8235941,11.1456711 C51.5195396,10.8053834 51.1638971,10.5604401 50.7557598,10.4095094 Z M56.4822797,8.85719479 L55.6689094,9.00061393 L55.5086043,9.153287 L54.016061,15.7260513 L55.0926486,15.5362199 L55.2531626,15.3826165 L55.6044633,13.7969563 L58.1446468,13.3502206 L59.005218,14.7197788 L59.2092985,14.8103435 L60.3009361,14.6178583 L56.6856564,8.94664735 L56.4822797,8.85719479 Z M77.4704577,8.46252688 L76.3701796,14.7025138 L77.5027758,14.9022211 L77.9420783,12.4095901 L79.1774515,12.6281837 L80.1066443,15.2581035 L80.2605065,15.3884834 L81.4582335,15.599675 L80.3759547,12.6671064 L80.5314242,12.6357689 L80.7064727,12.5815032 L80.8756316,12.5113347 C81.0931632,12.4091196 81.2788837,12.2722032 81.4357152,12.0997153 C81.6708725,11.8410824 81.8222221,11.5174459 81.8899518,11.1333318 C81.9551346,10.7636616 81.9207034,10.4196067 81.7851849,10.1059253 C81.6500069,9.79303224 81.4270042,9.53270578 81.1202824,9.32729302 C80.8797383,9.16619977 80.5968773,9.04574324 80.2726322,8.96526247 L80.2726322,8.96526247 L80.0311111,8.91415312 L77.4704577,8.46252688 Z M67.9273046,7.85176384 L66.6600816,7.91403243 L66.4822506,8.04459102 L64.7566262,12.7215198 L62.4719343,8.2380309 L62.2839161,8.12906773 L61.0224393,8.19105397 L61.3757746,14.5189094 L62.5242991,14.4624734 L62.296008,10.3862204 L64.289999,14.258302 L64.4776208,14.3664914 L65.2182027,14.3301008 L65.3956478,14.2005798 L66.899107,10.1915259 L67.1324648,14.2360381 L68.2806399,14.1796193 L67.9273046,7.85176384 Z M70.5114052,7.84153233 L70.0531137,14.1620118 L74.7064392,14.4759524 L74.7818477,13.435964 L71.2752795,13.1993588 L71.3951494,11.546199 L74.5065017,11.7569636 L74.5824912,10.7089623 L71.4714482,10.498371 L71.5822074,8.96607063 L75.0298883,9.19950368 L75.1058778,8.15150237 L70.5114052,7.84153233 Z M86.5413112,11.9555983 L86.7411815,14.1994283 L85.10167,13.6987386 L86.5413112,11.9555983 Z M56.3424588,10.480331 L57.541321,12.3895448 L55.8528704,12.6871226 L56.3424588,10.480331 Z M78.4205006,9.69652656 L79.7507918,9.93147726 L79.9093189,9.96435186 C80.2127089,10.0374939 80.4343236,10.1547789 80.5779427,10.3123567 C80.7364453,10.4862644 80.7923542,10.6866043 80.7490559,10.9321611 C80.7006925,11.2064437 80.5726874,11.3944674 80.3584808,11.512795 L80.3584808,11.512795 L80.257674,11.5603103 C80.046878,11.6440141 79.780806,11.659506 79.4561865,11.6022668 L79.4561865,11.6022668 L78.1253084,11.3666291 L78.4205006,9.69652656 Z" id="形状结合"></path>
        </g>
    </g>
</svg>