<?xml version="1.0" encoding="UTF-8"?>
<svg width="564px" height="564px" viewBox="0 0 564 564" version="1.1" xmlns="http://www.w3.org/2000/svg" xmlns:xlink="http://www.w3.org/1999/xlink">
    <title>com_bbk_theme_b_s5_2x2_mc</title>
    <g id="com_bbk_theme" stroke="none" stroke-width="1" fill="none" fill-rule="evenodd">
        <g id="主色" transform="translate(204.207071, 268.883838)" fill="#000000">
            <path d="M153.181818,0 L153.181818,13.6243071 C153.179102,28.6632355 141.07808,40.8551193 126.149733,40.8593663 L99.4607921,40.8620676 C95.72844,40.8624454 92.7030748,43.9108332 92.7034498,47.6708324 L92.7056767,47.8449127 L92.7056767,47.8449127 L95.8140848,108.941451 C96.3593597,119.651342 88.1831493,128.778731 77.5520078,129.328045 C77.2231754,129.345036 76.8939649,129.353535 76.5647003,129.353535 C65.9195843,129.353535 57.2900127,120.660041 57.2900127,109.936072 C57.2900127,109.604369 57.2984499,109.27272 57.3153158,108.941451 L60.4170792,48.0188781 C60.6082616,44.2638149 57.7415482,41.0636028 54.0140957,40.8710043 L53.6686091,40.862067 L53.6686091,40.862067 L27.0320854,40.8593687 C12.1037387,40.855118 0.00271835157,28.6632346 0,13.6243071 L0,0 L153.181818,0 Z" id="路径"></path>
        </g>
    </g>
</svg>