<?xml version="1.0" encoding="UTF-8"?>
<svg width="564px" height="564px" viewBox="0 0 564 564" version="1.1" xmlns="http://www.w3.org/2000/svg" xmlns:xlink="http://www.w3.org/1999/xlink">
    <title>com_chaozh_ireader_b_s5_2x2_mc</title>
    <g id="com_chaozh_ireader" stroke="none" stroke-width="1" fill="none" fill-rule="evenodd">
        <g id="主色" transform="translate(282.431919, 190.590909)" fill="#000000">
            <path d="M92.6972572,0 C101.006184,0 107.769993,6.6154354 108.008908,14.8665299 L108.015439,15.3181818 L108.015439,151.006197 L108.006585,152.274617 C108.000689,152.680092 107.991858,153.068626 107.980115,153.441392 L107.936169,154.513567 L107.936169,154.513567 L107.874888,155.498185 C107.735084,157.384563 107.492107,158.787875 107.150996,159.961736 L106.972286,160.53072 C106.878866,160.806826 106.779364,161.071232 106.673861,161.327903 L106.454875,161.832103 L106.454875,161.832103 L106.220023,162.322719 L106.220023,162.322719 L105.969445,162.806795 L105.969445,162.806795 C104.634411,165.303091 102.675304,167.262199 100.179007,168.597233 L99.6949314,168.847811 L99.6949314,168.847811 L99.2043157,169.082663 C99.12161,169.120486 99.0383383,169.157649 98.9543538,169.194148 L98.440719,169.405149 C97.0419545,169.946446 95.3855678,170.316271 92.8703975,170.502676 L91.885779,170.563957 L91.885779,170.563957 L90.8136047,170.607902 L90.8136047,170.607902 L89.6468297,170.634372 L89.6468297,170.634372 L88.3784092,170.643227 L25.9256954,170.643227 C15.5596778,170.643227 6.61473273,176.727562 2.46724718,185.520202 L0,185.520202 L0.00436278306,36.3646983 L0.00436278306,36.3646983 L0.0182905551,34.8371399 C0.0217688104,34.5893299 0.0258245623,34.3448616 0.0304563358,34.1036604 L0.0651474339,32.695062 L0.0651474339,32.695062 L0.113592245,31.361292 C0.122808589,31.1450337 0.132595054,30.9317439 0.142950166,30.7213481 L0.211892788,29.4931033 L0.211892788,29.4931033 L0.294412113,28.3307303 L0.294412113,28.3307303 L0.390437337,27.2306466 C0.4075631,27.052291 0.425248657,26.8763816 0.443492535,26.7028436 L0.559643851,25.6894763 C0.682471412,24.7033725 0.825292306,23.7972677 0.987787918,22.9550402 L1.15682997,22.133508 L1.15682997,22.133508 L1.33891769,21.350978 L1.33891769,21.350978 L1.53398028,20.6038676 C1.6347435,20.2385702 1.74034574,19.8852117 1.85074717,19.5417768 L2.07793717,18.8675414 L2.07793717,18.8675414 L2.31785423,18.2161865 L2.31785423,18.2161865 L2.57042754,17.5841294 L2.57042754,17.5841294 L2.8355863,16.9677875 C2.88082428,16.8661744 2.9265837,16.7650669 2.9728631,16.6643902 L3.25676727,16.0649037 L3.25676727,16.0649037 L3.55307989,15.4721758 L3.55307989,15.4721758 L3.86173014,14.8826239 C6.38009386,10.1693596 10.0760734,6.46927116 14.7865366,3.94567204 L15.3885765,3.62977964 L15.3885765,3.62977964 L15.9940276,3.32676494 L15.9940276,3.32676494 L16.6067114,3.03669924 C16.7096404,2.98943799 16.81303,2.94271926 16.9169598,2.89654453 L17.5476579,2.62603594 L17.5476579,2.62603594 L18.1951423,2.36865454 C18.3046676,2.32685553 18.4150515,2.28560645 18.5263737,2.2449088 L19.2062029,2.0073518 C21.1678963,1.35308926 23.4467676,0.859045534 26.4339596,0.532516081 L27.5183108,0.424237881 L27.5183108,0.424237881 L28.665306,0.329942178 L28.665306,0.329942178 L29.8787666,0.249700248 L29.8787666,0.249700248 L31.162514,0.183583367 L31.162514,0.183583367 L32.5203698,0.131662813 L32.5203698,0.131662813 L33.9561555,0.0940098621 L33.9561555,0.0940098621 L35.4736924,0.0706957906 C35.7336401,0.0680089784 35.9971534,0.0659225894 36.2643118,0.0644381085 L92.6972572,0 Z" id="路径"></path>
        </g>
    </g>
</svg>