<?xml version="1.0" encoding="UTF-8"?>
<svg width="240px" height="240px" viewBox="0 0 240 240" version="1.1" xmlns="http://www.w3.org/2000/svg" xmlns:xlink="http://www.w3.org/1999/xlink">
    <title>com_android_filemanager_b_s5_1x1_mc</title>
    <g id="com_android_filemanager" stroke="none" stroke-width="1" fill="none" fill-rule="evenodd">
        <g id="主色" transform="translate(48.000000, 53.000000)" fill="#000000">
            <path d="M131.722148,3.20559245 C135.63326,5.29727756 138.702722,8.36674045 140.794408,12.2778516 C142.886093,16.1889627 144,20.0683975 144,30.7666224 L144,56.454 L86.7307862,56.4545325 C82.2053202,56.4545325 78.3082419,53.2969977 77.3510276,48.8992892 L77.2961156,48.6285085 L76.2662852,43.1514835 C75.3276293,38.1593589 70.9677522,34.5428571 65.8881475,34.5428571 L65.8881475,34.5428571 L0,34.542 L0.000959326263,30.2284881 C0.0380404605,19.9368822 1.14935962,16.1226726 3.20559245,12.2778516 C5.29727756,8.36674045 8.36674045,5.29727756 12.2778516,3.20559245 C16.1226726,1.14935962 19.9368822,0.0380404605 30.2284881,0.000959326263 L113.233378,1.24300837e-15 C123.931602,-7.22223659e-16 127.811037,1.11390733 131.722148,3.20559245 Z" id="形状结合"></path>
            <path d="M65.8881475,34.542 L66.1695902,34.5465636 C71.0327008,34.6747598 75.182547,38.1155972 76.2094965,42.8702951 L76.2662852,43.1514835 L77.2961156,48.6285085 L77.3510276,48.8992892 C78.2887069,53.2072485 82.0474802,56.325137 86.4545217,56.4506035 L86.7307862,56.4545325 L144,56.454 L144,103.771512 L144,103.771512 L143.991378,104.813322 L143.991378,104.813322 L143.976083,105.81052 L143.976083,105.81052 L143.953188,106.764709 L143.953188,106.764709 L143.922724,107.677489 L143.922724,107.677489 L143.884724,108.55046 L143.884724,108.55046 L143.839218,109.385225 L143.839218,109.385225 L143.786239,110.183384 L143.786239,110.183384 L143.72582,110.946539 L143.72582,110.946539 L143.65799,111.67629 C143.64607,111.79522 143.633842,111.912825 143.621307,112.029139 L143.542423,112.711786 L143.542423,112.711786 L143.456209,113.365032 C143.441231,113.471545 143.425949,113.5769 143.410363,113.68113 L143.313214,114.293277 L143.313214,114.293277 L143.208815,114.880025 L143.208815,114.880025 L143.097197,115.442975 L143.097197,115.442975 L142.978392,115.98373 C142.937596,116.160459 142.895607,116.333757 142.852432,116.503889 L142.719349,117.005053 C142.696576,117.087087 142.673509,117.168396 142.650146,117.249013 L142.506438,117.724689 L142.506438,117.724689 L142.355686,118.185373 C142.329976,118.260993 142.303973,118.336055 142.277679,118.410593 L142.116422,118.851792 C142.061507,118.996937 142.005431,119.140251 141.9482,119.282001 L141.773046,119.702823 L141.773046,119.702823 L141.590992,120.115857 L141.590992,120.115857 L141.402069,120.522706 L141.402069,120.522706 L141.20631,120.92497 L141.20631,120.92497 L141.003745,121.324251 L141.003745,121.324251 L140.794408,121.722148 L140.794408,121.722148 C138.702722,125.63326 135.63326,128.702722 131.722148,130.794408 L131.317262,131.007358 L131.317262,131.007358 L130.910916,131.213294 L130.910916,131.213294 L130.501421,131.412184 L130.501421,131.412184 L130.087093,131.603992 C130.017541,131.635369 129.947718,131.666449 129.877589,131.697231 L129.452846,131.878357 C129.30985,131.93754 129.165346,131.995528 129.019052,132.052318 L128.57452,132.219081 L128.57452,132.219081 L128.117563,132.378612 L128.117563,132.378612 L127.646494,132.530879 C127.566713,132.55565 127.486273,132.580116 127.40514,132.604278 L126.909741,132.745585 C126.741647,132.791464 126.570498,132.836119 126.396014,132.879543 L125.86227,133.006119 L125.86227,133.006119 L125.306825,133.125279 C125.212348,133.144519 125.116897,133.163449 125.020436,133.182067 L124.429274,133.290041 C124.227994,133.324784 124.022394,133.358277 123.812193,133.390515 L123.167506,133.483456 C123.057663,133.498317 122.946601,133.512862 122.834282,133.527091 L122.145023,133.60867 L122.145023,133.60867 L121.42394,133.682632 L121.42394,133.682632 L120.669348,133.748943 C120.540696,133.759356 120.410578,133.769448 120.278958,133.77922 L119.470938,133.833993 L119.470938,133.833993 L118.625191,133.881032 L118.625191,133.881032 L117.74003,133.920303 C117.589125,133.926199 117.436507,133.93177 117.282142,133.937015 L116.334698,133.964572 L116.334698,133.964572 L115.343622,133.984277 L115.343622,133.984277 L114.30723,133.996098 C114.130627,133.997409 113.952066,133.999041 113.771512,133.999041 L30.2284881,133.999041 L30.2284881,133.999041 L29.1866784,133.991378 L29.1866784,133.991378 L28.1894798,133.976083 L28.1894798,133.976083 L27.2352911,133.953188 L27.2352911,133.953188 L26.3225115,133.922724 L26.3225115,133.922724 L25.4495397,133.884724 L25.4495397,133.884724 L24.6147747,133.839218 L24.6147747,133.839218 L23.8166156,133.786239 L23.8166156,133.786239 L23.0534612,133.72582 L23.0534612,133.72582 L22.3237105,133.65799 C22.2047801,133.64607 22.0871747,133.633842 21.9708612,133.621307 L21.288214,133.542423 L21.288214,133.542423 L20.6349679,133.456209 C20.5284547,133.441231 20.4230999,133.425949 20.31887,133.410363 L19.7067235,133.313214 L19.7067235,133.313214 L19.1199754,133.208815 L19.1199754,133.208815 L18.5570248,133.097197 L18.5570248,133.097197 L18.0162705,132.978392 C17.8395405,132.937596 17.6662431,132.895607 17.4961114,132.852432 L16.9949466,132.719349 C16.912913,132.696576 16.8316042,132.673509 16.7509867,132.650146 L16.2753112,132.506438 L16.2753112,132.506438 L15.8146273,132.355686 C15.739007,132.329976 15.6639447,132.303973 15.5894069,132.277679 L15.1482085,132.116422 C15.0030628,132.061507 14.8597486,132.005431 14.717999,131.9482 L14.2971774,131.773046 L14.2971774,131.773046 L13.8841427,131.590992 L13.8841427,131.590992 L13.4772939,131.402069 L13.4772939,131.402069 L13.0750297,131.20631 L13.0750297,131.20631 L12.6757493,131.003745 L12.6757493,131.003745 L12.2778516,130.794408 L12.2778516,130.794408 C8.36674045,128.702722 5.29727756,125.63326 3.20559245,121.722148 L2.99264246,121.317262 L2.99264246,121.317262 L2.78670596,120.910916 L2.78670596,120.910916 L2.58781647,120.501421 L2.58781647,120.501421 L2.39600752,120.087093 C2.36463127,120.017541 2.33355143,119.947718 2.30276871,119.877589 L2.1216434,119.452846 C2.06246049,119.30985 2.00447163,119.165346 1.94768242,119.019052 L1.78091928,118.57452 L1.78091928,118.57452 L1.62138752,118.117563 L1.62138752,118.117563 L1.46912063,117.646494 C1.44435009,117.566713 1.41988365,117.486273 1.395722,117.40514 L1.2544153,116.909741 C1.20853599,116.741647 1.16388145,116.570498 1.12045729,116.396014 L0.993881475,115.86227 L0.993881475,115.86227 L0.874721389,115.306825 C0.855481214,115.212348 0.836551425,115.116897 0.817932718,115.020436 L0.709959069,114.429274 C0.67521591,114.227994 0.641722673,114.022394 0.609484942,113.812193 L0.516543859,113.167506 C0.501683294,113.057663 0.487138002,112.946601 0.472908683,112.834282 L0.391330012,112.145023 L0.391330012,112.145023 L0.317368183,111.42394 L0.317368183,111.42394 L0.251056715,110.669348 C0.240644196,110.540696 0.230551838,110.410578 0.220780341,110.278958 L0.166007263,109.470938 L0.166007263,109.470938 L0.118968344,108.625191 L0.118968344,108.625191 L0.0796971049,107.74003 C0.0738010671,107.589125 0.0682300792,107.436507 0.0629848396,107.282142 L0.0354279677,106.334698 L0.0354279677,106.334698 L0.0157225733,105.343622 L0.0157225733,105.343622 L0.00390217612,104.30723 C0.00259105521,104.130627 0.00160987248,103.952066 0,103.771512 L0,34.542 L65.8881475,34.542 Z" id="路径" opacity="0.05"></path>
        </g>
    </g>
</svg>