<?xml version="1.0" encoding="UTF-8"?>
<svg width="564px" height="240px" viewBox="0 0 564 240" version="1.1" xmlns="http://www.w3.org/2000/svg" xmlns:xlink="http://www.w3.org/1999/xlink">
    <title>com_android_bbkcalculator_b_s5_2x1_sc</title>
    <g id="com_android_bbkcalculator" stroke="none" stroke-width="1" fill="none" fill-rule="evenodd">
        <g id="辅色" transform="translate(401.000000, 108.000000)" fill="#4E4E4E">
            <path d="M1.53833112,1.64558116e-16 L30.4616689,-7.25990512e-16 C30.9965801,4.21821395e-16 31.1905519,0.0556953667 31.3861074,0.160279622 C31.581663,0.264863878 31.7351361,0.418337022 31.8397204,0.613892578 C31.9443046,0.809448133 32,1.00341988 32,1.53833112 L32,7.46166888 C32,7.99658012 31.9443046,8.19055187 31.8397204,8.38610742 C31.7351361,8.58166298 31.581663,8.73513612 31.3861074,8.83972038 C31.1905519,8.94430463 30.9965801,9 30.4616689,9 L1.53833112,9 C1.00341988,9 0.809448133,8.94430463 0.613892578,8.83972038 C0.418337022,8.73513612 0.264863878,8.58166298 0.160279622,8.38610742 C0.0556953667,8.19055187 -1.73512159e-16,7.99658012 2.9862919e-16,7.46166888 L1.5478788e-16,1.53833112 C-8.99362157e-17,1.00341988 0.0556953667,0.809448133 0.160279622,0.613892578 C0.264863878,0.418337022 0.418337022,0.264863878 0.613892578,0.160279622 C0.809448133,0.0556953667 1.00341988,-9.56130045e-17 1.53833112,1.64558116e-16 Z" id="矩形" transform="translate(16.000000, 4.500000) rotate(-540.000000) translate(-16.000000, -4.500000) "></path>
            <path d="M1.53833112,15 L30.4616689,15 C30.9965801,15 31.1905519,15.0556954 31.3861074,15.1602796 C31.581663,15.2648639 31.7351361,15.418337 31.8397204,15.6138926 C31.9443046,15.8094481 32,16.0034199 32,16.5383311 L32,22.4616689 C32,22.9965801 31.9443046,23.1905519 31.8397204,23.3861074 C31.7351361,23.581663 31.581663,23.7351361 31.3861074,23.8397204 C31.1905519,23.9443046 30.9965801,24 30.4616689,24 L1.53833112,24 C1.00341988,24 0.809448133,23.9443046 0.613892578,23.8397204 C0.418337022,23.7351361 0.264863878,23.581663 0.160279622,23.3861074 C0.0556953667,23.1905519 -1.73512159e-16,22.9965801 2.9862919e-16,22.4616689 L1.5478788e-16,16.5383311 C-8.99362157e-17,16.0034199 0.0556953667,15.8094481 0.160279622,15.6138926 C0.264863878,15.418337 0.418337022,15.2648639 0.613892578,15.1602796 C0.809448133,15.0556954 1.00341988,15 1.53833112,15 Z" id="矩形备份-48" transform="translate(16.000000, 19.500000) rotate(-540.000000) translate(-16.000000, -19.500000) "></path>
        </g>
    </g>
</svg>