<?xml version="1.0" encoding="UTF-8"?>
<svg width="240px" height="240px" viewBox="0 0 240 240" version="1.1" xmlns="http://www.w3.org/2000/svg" xmlns:xlink="http://www.w3.org/1999/xlink">
    <title>com_android_mms_b_s5_1x1_mc</title>
    <g id="com_android_mms" stroke="none" stroke-width="1" fill="none" fill-rule="evenodd">
        <g id="编组" transform="translate(52.000000, 90.578155)" fill="#000000">
            <path d="M75.1405913,0 L76.070941,0.00476017469 C76.2213492,0.00635951596 76.3694785,0.00836815483 76.515398,0.0107955536 L76.515398,0.0107955536 L77.3649534,0.0304607629 L78.1648003,0.0606303988 C81.915953,0.232567753 84.0417024,0.788513282 86.2307758,1.95924257 C88.6512979,3.25375195 90.556917,5.15937101 91.8514264,7.57989311 C92.9414157,9.61799596 93.498495,11.6012079 93.7089103,14.892411 L93.7089103,14.892411 L93.7500385,15.6458741 L93.7802082,16.4457223 C93.7884887,16.7204385 93.7950186,17.0034394 93.7998734,17.2952791 L93.7998734,17.2952791 L93.8094883,18.1978681 L93.8103205,49.5186192 L92.8106689,50.5244691 L92.8106689,18.6700777 C92.8106689,12.5258067 92.1709227,10.2977456 90.9696132,8.05149197 C89.7683036,5.80523834 88.0054306,4.04236535 85.759177,2.84105576 C83.5129233,1.63974618 81.2848622,1 75.1405913,1 L75.1405913,1 L43.191,0.999 L44.3401709,0 L75.1405913,0 Z" id="形状结合" fill-rule="nonzero"></path>
            <path d="M92.8106689,61.4325465 C92.8106689,67.5768174 92.1709227,69.8048785 90.9696132,72.0511322 C89.7683036,74.2973858 88.0054306,76.0602588 85.759177,77.2615684 C83.5129233,78.4628779 81.2848622,79.1026241 75.1405913,79.1026241 L22.2368238,79.1011773 C18.4333744,79.7542262 14.88335,81.2422851 12.0075024,83.6079045 L4.81147898,89.7303465 C4.28560538,90.1777048 3.62911613,90.421845 2.95205019,90.421845 C1.37789762,90.421845 0.0915172557,89.129393 0.00467313104,87.5009145 L0,87.3251924 L-1.33774009e-15,18.6700777 C7.77265515e-16,12.5258067 0.639746178,10.2977456 1.84105576,8.05149197 C3.04236535,5.80523834 4.80523834,4.04236535 7.05149197,2.84105576 C9.29774559,1.63974618 11.5258067,1 17.6700777,1 L43.1893311,1 L43.1893311,32.8543915 L43.1903681,33.276757 C43.2193904,39.102303 43.8570147,41.278962 45.0303868,43.4729772 C46.2316964,45.7192308 47.9945694,47.4821038 50.240823,48.6834134 L50.240823,48.6834134 L50.3975584,48.7663136 C52.5928254,49.9141326 54.8580278,50.5244691 60.8594087,50.5244691 L60.8594087,50.5244691 L92.8103311,50.523 L92.8106689,61.4325465 Z" id="形状结合"></path>
            <path d="M75.1405913,1 C81.2848622,1 83.5129233,1.63974618 85.759177,2.84105576 C88.0054306,4.04236535 89.7683036,5.80523834 90.9696132,8.05149197 C92.1709227,10.2977456 92.8106689,12.5258067 92.8106689,18.6700777 L92.8103311,50.523 L60.8594087,50.5244691 C54.8580278,50.5244691 52.5928254,49.9141326 50.3975584,48.7663136 L50.240823,48.6834134 C47.9945694,47.4821038 46.2316964,45.7192308 45.0303868,43.4729772 C43.8290773,41.2267236 43.1893311,38.9986624 43.1893311,32.8543915 L43.1893311,32.8543915 L43.1893311,1 L75.1405913,1 Z" id="形状结合" opacity="0.649999976"></path>
        </g>
    </g>
</svg>