<?xml version="1.0" encoding="UTF-8"?>
<svg width="240px" height="240px" viewBox="0 0 240 240" version="1.1" xmlns="http://www.w3.org/2000/svg" xmlns:xlink="http://www.w3.org/1999/xlink">
    <title>com_bbk_theme_b_s5_1x1_sc</title>
    <g id="com_bbk_theme" stroke="none" stroke-width="1" fill="none" fill-rule="evenodd">
        <g id="编组-17" transform="translate(74.000000, 60.000000)" fill="#4E4E4E">
            <path d="M0,0 L90,0 L90,46.8722296 C90,48.6552671 89.8143488,49.3018396 89.4657346,49.9536914 C89.1171204,50.6055433 88.6055433,51.1171204 87.9536914,51.4657346 C87.3018396,51.8143488 86.6552671,52 84.8722296,52 L5.1277704,52 C3.34473292,52 2.69816044,51.8143488 2.04630859,51.4657346 C1.39445674,51.1171204 0.882879593,50.6055433 0.534265408,49.9536914 C0.185651222,49.3018396 8.02470732e-17,48.6552671 -1.38112041e-16,46.8722296 L0,0 L0,0 Z" id="矩形" transform="translate(45.000000, 26.000000) scale(1, -1) translate(-45.000000, -26.000000) "></path>
        </g>
    </g>
</svg>