<?xml version="1.0" encoding="UTF-8"?>
<svg width="564px" height="564px" viewBox="0 0 564 564" version="1.1" xmlns="http://www.w3.org/2000/svg" xmlns:xlink="http://www.w3.org/1999/xlink">
    <title>com_android_contacts_b_s5_2x2_sc</title>
    <g id="com_android_contacts" stroke="none" stroke-width="1" fill="none" fill-rule="evenodd">
        <g id="辅色" transform="translate(191.867424, 299.520202)" fill="#4E4E4E">
            <path d="M6.73207411,69.7828283 L6.69381611,69.7818887 C2.98652215,69.7208815 0,66.6965843 0,62.9747475 C0,62.3955121 0.0723371181,61.833172 0.208470423,61.2962681 C0.217704941,61.2489981 0.227637639,61.2025373 0.239628245,61.1575005 C9.56074384,26.147334 46.492076,0 90.6336741,0 C134.759127,0 171.680818,26.1306003 181.016608,61.1238894 C181.028103,61.1669783 181.037764,61.2113628 181.045641,61.2569816 L181.077923,61.3824152 C181.200327,61.8932216 181.265152,62.4264143 181.265152,62.9747475 C181.265152,66.7347467 178.21707,69.7828283 174.457071,69.7828283 L174.48,69.782 L6.73207411,69.7828283 L6.73207411,69.7828283 Z" id="联系人"></path>
        </g>
    </g>
</svg>