<?xml version="1.0" encoding="UTF-8"?>
<svg width="240px" height="564px" viewBox="0 0 240 564" version="1.1" xmlns="http://www.w3.org/2000/svg" xmlns:xlink="http://www.w3.org/1999/xlink">
    <title>com_vivo_newsreader_b_s5_1x2_sc</title>
    <g id="com_vivo_newsreader" stroke="none" stroke-width="1" fill="none" fill-rule="evenodd">
        <g id="辅色" transform="translate(91.000000, 217.105040)" fill="#4E4E4E">
            <path d="M2.73914225e-12,93.3346174 C2.73914225e-12,93.6152605 0.0147675984,93.8957092 0.0442415445,94.1748003 C0.508261778,98.5686444 4.44633889,101.754396 8.84018295,101.290376 L8.84018295,101.290376 L50.840183,96.8548862 C54.9105764,96.4250246 58,92.9921564 58,88.8991277 L58,88.8991277 L58,13.4991151 C57.999407,6.628511 52.5349111,1.00416133 45.6671793,0.805515266 C45.0049568,0.786370138 44.3426204,0.770405027 43.6801699,0.757619935 C40.3720734,0.69377468 37.0604622,0.727953294 33.7453364,0.860155778 L40.0474454,0.199826014 L40.7602506,0.15010275 L41.5246129,0.104003775 L42.3360923,0.0637465904 L43.1902485,0.0315486945 L44.0826413,0.00962758751 C48.026109,-0.0598944453 52.9215084,0.222505983 57.142983,1.66880336 C63.9066544,3.98606951 70.4376723,6.66332589 76.0620499,10.8067024 C82.4319611,15.4993001 86,21.7830525 86,30.2693449 L86,30.2693449 L86,104.804142 C86,115.357892 77.9993483,124.200462 67.4794488,125.273634 L67.4794488,125.273634 L25.955,129.095 L11.7662663,130.086739 C11.5112323,130.104548 11.255655,130.113461 11,130.113461 C5.02129842,130.113461 0.15663482,125.343698 0.00370740462,119.401869 L2.84217094e-14,119.113461 Z" id="形状结合"></path>
        </g>
    </g>
</svg>