<?xml version="1.0" encoding="UTF-8"?>
<svg width="564px" height="564px" viewBox="0 0 564 564" version="1.1" xmlns="http://www.w3.org/2000/svg" xmlns:xlink="http://www.w3.org/1999/xlink">
    <title>com_android_filemanager_b_s5_2x2_mc</title>
    <g id="com_android_filemanager" stroke="none" stroke-width="1" fill="none" fill-rule="evenodd">
        <g id="主色" transform="translate(186.000000, 134.000000)" fill="#000000">
            <path d="M357,0 L357,190.462072 L356.991065,191.351146 L356.982,191.805 L357,134 L0,134 L0,21.5379279 L0.00893477869,20.6488538 L0.0247774601,19.8055206 L0.0484827372,19.0059296 L0.0986961437,17.8841881 L0.0986961437,17.8841881 L0.141884158,17.185209 L0.192795766,16.5229772 L0.251391252,15.895494 L0.317630903,15.300761 L0.391475003,14.7367795 L0.472883837,14.2015509 L0.561817691,13.6930767 L0.683506563,13.0920626 L0.683506563,13.0920626 L0.816813656,12.525826 L0.931772323,12.0952533 L1.05407729,11.6824414 C1.09606559,11.5475755 1.13927165,11.4153366 1.18368885,11.2853917 L1.32056728,10.9021056 C1.34398372,10.8392605 1.36770129,10.7769056 1.39171916,10.7149993 L1.53942344,10.3486113 L1.6159659,10.1688299 L1.77440666,9.81484326 L1.93995543,9.4666259 L2.1125725,9.12217927 L2.29221816,8.77950481 C3.78791628,5.98279248 5.98279248,3.78791628 8.77950481,2.29221816 L9.12948239,2.10882648 L9.48135269,1.93276653 L9.83724461,1.76408063 L10.199287,1.60281107 L10.3832799,1.52497063 L10.7585397,1.37490491 L10.9503388,1.30269019 L11.3436059,1.16392348 L11.751539,1.03274234 L12.1762671,0.909189059 C12.3931846,0.849326436 12.6171985,0.792340126 12.8495064,0.738253925 L13.3255354,0.633955387 C13.4881345,0.600482846 13.6547746,0.568306293 13.8258105,0.537432778 L14.3524603,0.448728403 L14.9076139,0.367884566 L15.4934,0.29494357 L16.1119476,0.22994772 L16.7653856,0.17293932 L17.4558428,0.123960675 L18.5655965,0.0656410361 L18.5655965,0.0656410361 L19.3579156,0.0369218572 L20.1947051,0.0163804972 L21.3064714,0 L21.3064714,0 L357,0 Z M309.720902,90.1631844 L35.6216176,90.1631844 C35.1434949,90.1631844 34.9701161,90.2129669 34.7953216,90.306448 C34.620527,90.3999291 34.4833473,90.5371089 34.3898661,90.7119034 C34.3067718,90.8672763 34.2582048,91.0215307 34.2466025,91.3896921 L34.2466025,97.3726441 C34.2466025,97.8507668 34.296385,98.0241457 34.3898661,98.1989402 C34.4833473,98.3737347 34.620527,98.5109145 34.7953216,98.6043956 C34.9506945,98.6874899 35.1049488,98.736057 35.4731102,98.7458238 L35.6216176,98.7476592 L309.720902,98.7476592 C310.092776,98.7476592 310.280298,98.7175439 310.427519,98.6601757 L310.547199,98.6043956 C310.721993,98.5109145 310.859173,98.3737347 310.952654,98.1989402 C311.035748,98.0435673 311.084315,97.8893129 311.095918,97.5211515 L311.095918,91.5381995 C311.095918,91.0600768 311.046135,90.8866979 310.952654,90.7119034 C310.859173,90.5371089 310.721993,90.3999291 310.547199,90.306448 C310.391826,90.2233536 310.237571,90.1747866 309.86941,90.1650198 L309.720902,90.1631844 Z M206.707204,64.4097597 L35.6216176,64.4097597 C35.1434949,64.4097597 34.9701161,64.4595422 34.7953216,64.5530233 C34.620527,64.6465045 34.4833473,64.7836842 34.3898661,64.9584787 C34.3067718,65.1138517 34.2582048,65.268106 34.248438,65.6362674 L34.2466025,65.7847748 L34.2466025,71.6192194 C34.2466025,72.0973422 34.296385,72.270721 34.3898661,72.4455155 C34.4833473,72.6203101 34.620527,72.7574898 34.7953216,72.8509709 C34.9506945,72.9340653 35.1049488,72.9826323 35.4731102,72.9923991 L35.6216176,72.9942346 L206.707204,72.9942346 C207.185327,72.9942346 207.358705,72.9444521 207.5335,72.8509709 C207.708294,72.7574898 207.845474,72.6203101 207.938955,72.4455155 C208.02205,72.2901426 208.070617,72.1358883 208.080383,71.7677268 L208.082219,71.6192194 L208.082219,65.7847748 C208.082219,65.3066521 208.032436,65.1332733 207.938955,64.9584787 C207.845474,64.7836842 207.708294,64.6465045 207.5335,64.5530233 C207.378127,64.469929 207.223873,64.421362 206.855711,64.4115951 L206.707204,64.4097597 Z M45.4424521,29.677668 L35.0471896,29.677668 L35.0471896,45.7735584 L37.8621899,45.7735584 L37.8621899,39.4561299 L44.5961122,39.4561299 L44.5961122,36.6414341 L37.8621899,36.6414341 L37.8621899,32.5132135 L45.4424521,32.5132135 L45.4424521,29.677668 Z M50.6400834,33.9699054 L47.5215046,33.9699054 L47.5215046,45.7735584 L50.6400834,45.7735584 L50.6400834,33.9699054 Z M54.7981884,29.677668 L51.6796096,29.677668 L51.6796096,45.7735584 L54.7981884,45.7735584 L54.7981884,29.677668 Z M62.1117348,32.8968461 C60.9812808,32.8968461 60.0228523,33.1789482 59.2364494,33.7431525 C58.4500466,34.3073567 57.8602445,35.0715321 57.4670431,36.0356786 C57.0738416,36.9998251 56.8772409,38.0818118 56.8772409,39.2816386 C56.8772409,40.5243163 57.0799854,41.6348702 57.4854744,42.6133004 C57.8909633,43.5917306 58.4991968,44.3630478 59.3101747,44.927252 C60.1211526,45.4914563 61.1041562,45.7735584 62.2591854,45.7735584 C63.5125149,45.7735584 64.5446686,45.4736017 65.3556466,44.8736883 C66.1086975,44.3166259 66.6763382,43.4085573 67.0585686,42.1494825 L67.1434843,41.8526959 L64.5815313,41.8526959 C64.4095056,42.2812055 64.129964,42.6097295 63.7429064,42.8382679 C63.3558487,43.0668064 62.861275,43.1810756 62.2591854,43.1810756 C61.730821,43.1810756 61.270038,43.0596645 60.8768366,42.8168424 C60.4836352,42.5740204 60.1825904,42.2454964 59.9737021,41.8312704 C59.794655,41.4762197 59.6968562,41.0949336 59.6803056,40.6874123 L59.678801,40.4814653 L67.2725035,40.4814653 L67.2725035,39.1530857 C67.2725035,37.9961099 67.0851184,36.9426905 66.7103483,35.9928277 C66.3355782,35.0429648 65.7611355,34.2895022 64.9870202,33.7324397 C64.2129049,33.1753773 63.2544765,32.8968461 62.1117348,32.8968461 Z M77.7055066,40.9798662 L74.4863285,40.9798662 L74.4863285,45.2721037 L77.7055066,45.2721037 L77.7055066,40.9798662 Z M62.6245068,36.1160242 C63.1821071,36.1160242 63.6567311,36.2263108 64.0483789,36.4468841 C64.4400268,36.6674575 64.7287841,36.9416837 64.9146508,37.269563 C65.1005176,37.5974422 65.193451,37.9283022 65.193451,38.2621429 L59.9958197,38.2621429 C59.9958197,37.9283022 60.0920721,37.5974422 60.284577,37.269563 C60.4770818,36.9416837 60.7691582,36.6674575 61.160806,36.4468841 C61.5524538,36.2263108 62.0403541,36.1160242 62.6245068,36.1160242 Z M49.0902442,28.6046086 C48.6240325,28.6046086 48.2460229,28.7503328 47.9562156,29.041781 C47.6664083,29.3332292 47.5215046,29.7240348 47.5215046,30.2141977 C47.5215046,30.6646177 47.6695584,31.0454875 47.9656658,31.3568072 C48.2617733,31.6681269 48.6366328,31.8237867 49.0902442,31.8237867 C49.5186551,31.8237867 49.8840643,31.6681269 50.1864719,31.3568072 C50.4888796,31.0454875 50.6400834,30.6646177 50.6400834,30.2141977 C50.6400834,29.7372824 50.4920297,29.3497888 50.1959222,29.0517167 C49.8998147,28.7536447 49.5312554,28.6046086 49.0902442,28.6046086 Z" id="形状"></path>
        </g>
    </g>
</svg>