<?xml version="1.0" encoding="UTF-8"?>
<svg width="240px" height="240px" viewBox="0 0 240 240" version="1.1" xmlns="http://www.w3.org/2000/svg" xmlns:xlink="http://www.w3.org/1999/xlink">
    <title>com_bbk_cloud_b_s5_1x1_sc</title>
    <g id="com_bbk_cloud" stroke="none" stroke-width="1" fill="none" fill-rule="evenodd">
        <path d="M152,90 C172.98682,90 190,107.01318 190,128 C190,148.98682 172.98682,166 152,166 L147.999034,166 L148,174.624883 C148,175.45331 147.328427,176.124883 146.5,176.124883 C145.97517,176.124883 145.488508,175.850579 145.21675,175.401587 L126.378005,144.276704 C125.949043,143.567985 126.175832,142.645712 126.884551,142.21675 C127.118815,142.074959 127.387423,142 127.661255,142 L152,142 C159.731986,142 166,135.731986 166,128 C166,120.3725 159.900248,114.169673 152.312645,114.003422 L152,114 C151.822763,105.289361 149.471604,97.1140897 145.461574,89.9982094 L152,90 Z" id="辅色" fill="#4E4E4E"></path>
    </g>
</svg>