<?xml version="1.0" encoding="UTF-8"?>
<svg width="564px" height="240px" viewBox="0 0 564 240" version="1.1" xmlns="http://www.w3.org/2000/svg" xmlns:xlink="http://www.w3.org/1999/xlink">
    <title>com_vivo_compass_b_s5_2x1_mc</title>
    <g id="com_vivo_compass" stroke="none" stroke-width="1" fill="none" fill-rule="evenodd">
        <g id="主色" transform="translate(214.000000, 51.410227)" fill="#000000">
            <g id="编组">
                <path d="M136,68.5897726 C136,106.145136 105.555363,136.589773 68,136.589773 C50.4925308,136.589773 34.5303756,129.973497 22.4775035,119.104913 L41.6325125,108.705495 C49.1998615,113.689474 58.2612302,116.589773 68,116.589773 C94.509668,116.589773 116,95.0994406 116,68.5897726 C116,58.8133557 113.077235,49.7195873 108.057829,42.134593 L118.395876,22.9353611 C129.335303,35.0035633 136,51.0183563 136,68.5897726 Z M53.9999084,2.03252469 L53.9999084,22.663548 C34.3195722,28.6552354 20,46.9502464 20,68.5897726 C20,78.0854001 22.7572865,86.9370289 27.5148906,94.3876901 L17.063044,113.640116 C6.44532989,101.644019 0,85.8695896 0,68.5897726 C0,35.833504 23.1609153,8.48675712 53.9999084,2.03252469 Z M82.0010934,2.03273373 C93.8111034,4.50459417 104.494928,10.0404297 113.183154,17.7706755 L93.8856332,28.1608078 C90.2327228,25.8170872 86.2413407,23.9549002 82.0010934,22.663853 L82.0010934,2.03273373 Z" id="形状" opacity="0.100000001"></path>
                <path d="M57.24486,18.6245677 L127.666597,39.7510888 C129.253576,40.2271824 130.154126,41.8996328 129.678032,43.4866113 C129.388251,44.4525507 128.632537,45.2082647 127.666597,45.4980465 L57.24486,66.6245677 L57.24486,18.6245677 Z" id="路径" transform="translate(93.525102, 42.624568) rotate(-45.000000) translate(-93.525102, -42.624568) "></path>
            </g>
            <polygon id="路径" fill-rule="nonzero" opacity="0.129999995" points="63.9972376 0.58977257 72.1767956 13.0235683 72.2265193 13.0235683 72.2265193 0.58977257 77 0.58977257 77 20.5897726 72.0027624 20.5897726 63.7983425 8.15597686 63.7486188 8.15597686 63.7486188 20.5897726 59 20.5897726 59 0.58977257"></polygon>
        </g>
    </g>
</svg>