<?xml version="1.0" encoding="UTF-8"?>
<svg width="240px" height="240px" viewBox="0 0 240 240" version="1.1" xmlns="http://www.w3.org/2000/svg" xmlns:xlink="http://www.w3.org/1999/xlink">
    <title>com_android_bbkcalculator_b_s5_1x1_mc</title>
    <g id="com_android_bbkcalculator" stroke="none" stroke-width="1" fill="none" fill-rule="evenodd">
        <g id="主色" transform="translate(47.000000, 47.000000)" fill="#000000">
            <path d="M114,146 C131.673112,146 146,131.673112 146,114 C146,96.326888 131.673112,82 114,82 C96.326888,82 82,96.326888 82,114 C82,131.673112 96.326888,146 114,146 Z" id="椭圆形备份-19"></path>
            <path d="M45.9427721,103.901142 C46.2579716,104.216341 46.3394517,104.363459 46.3930571,104.540318 C46.4466624,104.717177 46.4466624,104.898047 46.3930571,105.074906 C46.3394517,105.251765 46.2579716,105.398883 45.9427721,105.714082 L37.6568542,114 L45.9427721,122.285918 C46.2579716,122.601117 46.3394517,122.748235 46.3930571,122.925094 C46.4466624,123.101953 46.4466624,123.282823 46.3930571,123.459682 C46.3394517,123.636541 46.2579716,123.783659 45.9427721,124.098858 L42.0988585,127.942772 C41.783659,128.257972 41.6365412,128.339452 41.4596822,128.393057 C41.2828231,128.446662 41.1019532,128.446662 40.9250942,128.393057 C40.7482351,128.339452 40.6011173,128.257972 40.2859178,127.942772 L32,119.656854 L23.7140822,127.942772 C23.3988827,128.257972 23.2517649,128.339452 23.0749058,128.393057 C22.8980468,128.446662 22.7171769,128.446662 22.5403178,128.393057 C22.3634588,128.339452 22.216341,128.257972 21.9011415,127.942772 L18.0572279,124.098858 C17.7420284,123.783659 17.6605483,123.636541 17.6069429,123.459682 C17.5533376,123.282823 17.5533376,123.101953 17.6069429,122.925094 C17.6605483,122.748235 17.7420284,122.601117 18.0572279,122.285918 L26.3438529,113.999293 L18.0572279,105.714082 C17.7420284,105.398883 17.6605483,105.251765 17.6069429,105.074906 C17.5533376,104.898047 17.5533376,104.717177 17.6069429,104.540318 C17.6605483,104.363459 17.7420284,104.216341 18.0572279,103.901142 L21.9011415,100.057228 C22.216341,99.7420284 22.3634588,99.6605483 22.5403178,99.6069429 C22.7171769,99.5533376 22.8980468,99.5533376 23.0749058,99.6069429 C23.2517649,99.6605483 23.3988827,99.7420284 23.7140822,100.057228 L32.0007071,108.342439 L40.2859178,100.057228 C40.6011173,99.7420284 40.7482351,99.6605483 40.9250942,99.6069429 C41.1019532,99.5533376 41.2828231,99.5533376 41.4596822,99.6069429 C41.6365412,99.6605483 41.783659,99.7420284 42.0988585,100.057228 L45.9427721,103.901142 Z M129.718057,36 L98.2819426,36 C97.8361832,36 97.6745401,35.9535872 97.5115771,35.8664336 C97.3486142,35.7792801 97.2207199,35.6513858 97.1335664,35.4884229 C97.0464128,35.3254599 97,35.1638168 97,34.7180574 L97,29.2819426 C97,28.8361832 97.0464128,28.6745401 97.1335664,28.5115771 C97.2207199,28.3486142 97.3486142,28.2207199 97.5115771,28.1335664 C97.6745401,28.0464128 97.8361832,28 98.2819426,28 L129.718057,28 C130.163817,28 130.32546,28.0464128 130.488423,28.1335664 C130.651386,28.2207199 130.77928,28.3486142 130.866434,28.5115771 C130.953587,28.6745401 131,28.8361832 131,29.2819426 L131,34.7180574 C131,35.1638168 130.953587,35.3254599 130.866434,35.4884229 C130.77928,35.6513858 130.651386,35.7792801 130.488423,35.8664336 C130.32546,35.9535872 130.163817,36 129.718057,36 Z M34.7180574,15 C35.1638168,15 35.3254599,15.0464128 35.4884229,15.1335664 C35.6513858,15.2207199 35.7792801,15.3486142 35.8664336,15.5115771 C35.9535872,15.6745401 36,15.8361832 36,16.2819426 L36,28 L47.7180574,28 C48.1638168,28 48.3254599,28.0464128 48.4884229,28.1335664 C48.6513858,28.2207199 48.7792801,28.3486142 48.8664336,28.5115771 C48.9535872,28.6745401 49,28.8361832 49,29.2819426 L49,34.7180574 C49,35.1638168 48.9535872,35.3254599 48.8664336,35.4884229 C48.7792801,35.6513858 48.6513858,35.7792801 48.4884229,35.8664336 C48.3254599,35.9535872 48.1638168,36 47.7180574,36 L36,36 L36,47.7180574 C36,48.1638168 35.9535872,48.3254599 35.8664336,48.4884229 C35.7792801,48.6513858 35.6513858,48.7792801 35.4884229,48.8664336 C35.3254599,48.9535872 35.1638168,49 34.7180574,49 L29.2819426,49 C28.8361832,49 28.6745401,48.9535872 28.5115771,48.8664336 C28.3486142,48.7792801 28.2207199,48.6513858 28.1335664,48.4884229 C28.0464128,48.3254599 28,48.1638168 28,47.7180574 L28,35.999 L16.2819426,36 C15.8361832,36 15.6745401,35.9535872 15.5115771,35.8664336 C15.3486142,35.7792801 15.2207199,35.6513858 15.1335664,35.4884229 C15.0464128,35.3254599 15,35.1638168 15,34.7180574 L15,29.2819426 C15,28.8361832 15.0464128,28.6745401 15.1335664,28.5115771 C15.2207199,28.3486142 15.3486142,28.2207199 15.5115771,28.1335664 C15.6745401,28.0464128 15.8361832,28 16.2819426,28 L28,27.999 L28,16.2819426 C28,15.8361832 28.0464128,15.6745401 28.1335664,15.5115771 C28.2207199,15.3486142 28.3486142,15.2207199 28.5115771,15.1335664 C28.6745401,15.0464128 28.8361832,15 29.2819426,15 L34.7180574,15 Z" id="形状结合"></path>
            <path d="M32,82 C49.673112,82 64,96.326888 64,114 C64,131.673112 49.673112,146 32,146 C14.326888,146 0,131.673112 0,114 C0,96.326888 14.326888,82 32,82 Z M23.0749058,99.6069429 C22.8980468,99.5533376 22.7171769,99.5533376 22.5403178,99.6069429 C22.3855662,99.6538476 22.2535852,99.7220939 22.0118489,99.9495817 L18.0572279,103.901142 C17.7420284,104.216341 17.6605483,104.363459 17.6069429,104.540318 C17.5533376,104.717177 17.5533376,104.898047 17.6069429,105.074906 C17.6538476,105.229658 17.7220939,105.361639 17.9495817,105.603375 L18.0572279,105.714082 L26.3438529,113.999293 L18.0572279,122.285918 C17.7420284,122.601117 17.6605483,122.748235 17.6069429,122.925094 C17.5533376,123.101953 17.5533376,123.282823 17.6069429,123.459682 C17.6538476,123.614434 17.7220939,123.746415 17.9495817,123.988151 L21.9011415,127.942772 C22.216341,128.257972 22.3634588,128.339452 22.5403178,128.393057 C22.7171769,128.446662 22.8980468,128.446662 23.0749058,128.393057 C23.2296575,128.346152 23.3616385,128.277906 23.6033748,128.050418 L23.7140822,127.942772 L32,119.656854 L40.2859178,127.942772 C40.6011173,128.257972 40.7482351,128.339452 40.9250942,128.393057 C41.1019532,128.446662 41.2828231,128.446662 41.4596822,128.393057 C41.6144338,128.346152 41.7464148,128.277906 41.9881511,128.050418 L45.9427721,124.098858 C46.2579716,123.783659 46.3394517,123.636541 46.3930571,123.459682 C46.4466624,123.282823 46.4466624,123.101953 46.3930571,122.925094 C46.3461524,122.770342 46.2779061,122.638361 46.0504183,122.396625 L45.9427721,122.285918 L37.6568542,114 L45.9427721,105.714082 C46.2579716,105.398883 46.3394517,105.251765 46.3930571,105.074906 C46.4466624,104.898047 46.4466624,104.717177 46.3930571,104.540318 C46.3461524,104.385566 46.2779061,104.253585 46.0504183,104.011849 L42.0988585,100.057228 C41.783659,99.7420284 41.6365412,99.6605483 41.4596822,99.6069429 C41.2828231,99.5533376 41.1019532,99.5533376 40.9250942,99.6069429 C40.7703425,99.6538476 40.6383615,99.7220939 40.3966252,99.9495817 L40.2859178,100.057228 L32.0007071,108.342439 L23.7140822,100.057228 C23.3988827,99.7420284 23.2517649,99.6605483 23.0749058,99.6069429 Z M32,0 C49.673112,0 64,14.326888 64,32 C64,49.673112 49.673112,64 32,64 C14.326888,64 0,49.673112 0,32 C0,14.326888 14.326888,0 32,0 Z M114,0 C131.673112,0 146,14.326888 146,32 C146,49.673112 131.673112,64 114,64 C96.326888,64 82,49.673112 82,32 C82,14.326888 96.326888,0 114,0 Z M34.7180574,15 L29.2819426,15 C28.8361832,15 28.6745401,15.0464128 28.5115771,15.1335664 C28.3486142,15.2207199 28.2207199,15.3486142 28.1335664,15.5115771 C28.057307,15.6541697 28.0122398,15.7957518 28.0021645,16.1275433 L28,16.2819426 L28,27.999 L16.2819426,28 C15.8361832,28 15.6745401,28.0464128 15.5115771,28.1335664 C15.3486142,28.2207199 15.2207199,28.3486142 15.1335664,28.5115771 C15.057307,28.6541697 15.0122398,28.7957518 15.0021645,29.1275433 L15,29.2819426 L15,34.7180574 C15,35.1638168 15.0464128,35.3254599 15.1335664,35.4884229 C15.2207199,35.6513858 15.3486142,35.7792801 15.5115771,35.8664336 C15.6541697,35.942693 15.7957518,35.9877602 16.1275433,35.9978355 L16.2819426,36 L28,35.999 L28,47.7180574 C28,48.1638168 28.0464128,48.3254599 28.1335664,48.4884229 C28.2207199,48.6513858 28.3486142,48.7792801 28.5115771,48.8664336 C28.6541697,48.942693 28.7957518,48.9877602 29.1275433,48.9978355 L29.2819426,49 L34.7180574,49 C35.1638168,49 35.3254599,48.9535872 35.4884229,48.8664336 C35.6513858,48.7792801 35.7792801,48.6513858 35.8664336,48.4884229 C35.942693,48.3458303 35.9877602,48.2042482 35.9978355,47.8724567 L36,47.7180574 L36,36 L47.7180574,36 C48.1638168,36 48.3254599,35.9535872 48.4884229,35.8664336 C48.6513858,35.7792801 48.7792801,35.6513858 48.8664336,35.4884229 C48.942693,35.3458303 48.9877602,35.2042482 48.9978355,34.8724567 L49,34.7180574 L49,29.2819426 C49,28.8361832 48.9535872,28.6745401 48.8664336,28.5115771 C48.7792801,28.3486142 48.6513858,28.2207199 48.4884229,28.1335664 C48.3458303,28.057307 48.2042482,28.0122398 47.8724567,28.0021645 L47.7180574,28 L36,28 L36,16.2819426 C36,15.8361832 35.9535872,15.6745401 35.8664336,15.5115771 C35.7792801,15.3486142 35.6513858,15.2207199 35.4884229,15.1335664 C35.3458303,15.057307 35.2042482,15.0122398 34.8724567,15.0021645 L34.7180574,15 Z M129.718057,28 L98.2819426,28 C97.8361832,28 97.6745401,28.0464128 97.5115771,28.1335664 C97.3486142,28.2207199 97.2207199,28.3486142 97.1335664,28.5115771 C97.057307,28.6541697 97.0122398,28.7957518 97.0021645,29.1275433 L97,29.2819426 L97,34.7180574 C97,35.1638168 97.0464128,35.3254599 97.1335664,35.4884229 C97.2207199,35.6513858 97.3486142,35.7792801 97.5115771,35.8664336 C97.6541697,35.942693 97.7957518,35.9877602 98.1275433,35.9978355 L98.2819426,36 L129.718057,36 C130.163817,36 130.32546,35.9535872 130.488423,35.8664336 C130.651386,35.7792801 130.77928,35.6513858 130.866434,35.4884229 C130.942693,35.3458303 130.98776,35.2042482 130.997835,34.8724567 L131,34.7180574 L131,29.2819426 C131,28.8361832 130.953587,28.6745401 130.866434,28.5115771 C130.77928,28.3486142 130.651386,28.2207199 130.488423,28.1335664 C130.34583,28.057307 130.204248,28.0122398 129.872457,28.0021645 L129.718057,28 Z" id="形状" opacity="0.05"></path>
        </g>
    </g>
</svg>