<?xml version="1.0" encoding="UTF-8"?>
<svg width="564px" height="564px" viewBox="0 0 564 564" version="1.1" xmlns="http://www.w3.org/2000/svg" xmlns:xlink="http://www.w3.org/1999/xlink">
    <title>com_vivo_game_b_s5_2x2_sc</title>
    <defs>
        <path d="M61.5332448,-2.48601674e-15 L460.466755,2.48601674e-15 C481.863205,-1.44444732e-15 489.622075,2.22781467 497.444297,6.41118489 C505.266519,10.5945551 511.405445,16.7334809 515.588815,24.5557031 C519.772185,32.3779253 522,40.136795 522,61.5332448 L522,460.466755 C522,481.863205 519.772185,489.622075 515.588815,497.444297 C511.405445,505.266519 505.266519,511.405445 497.444297,515.588815 C489.622075,519.772185 481.863205,522 460.466755,522 L61.5332448,522 C40.136795,522 32.3779253,519.772185 24.5557031,515.588815 C16.7334809,511.405445 10.5945551,505.266519 6.41118489,497.444297 C2.22781467,489.622075 9.62964878e-16,481.863205 -1.65734449e-15,460.466755 L1.65734449e-15,61.5332448 C-9.62964878e-16,40.136795 2.22781467,32.3779253 6.41118489,24.5557031 C10.5945551,16.7334809 16.7334809,10.5945551 24.5557031,6.41118489 C32.3779253,2.22781467 40.136795,1.44444732e-15 61.5332448,-2.48601674e-15 Z" id="path-1"></path>
    </defs>
    <g id="com_vivo_game" stroke="none" stroke-width="1" fill="none" fill-rule="evenodd">
        <g id="游戏中心备份-2" transform="translate(21.000000, 21.000000)">
            <mask id="mask-2" fill="white">
                <use xlink:href="#path-1"></use>
            </mask>
            <g id="矩形备份-20"></g>
            <g id="编组-3" mask="url(#mask-2)">
                <g transform="translate(131.726886, 178.209194)">
                    <g id="编组备份" stroke-width="1" fill="none" fill-rule="evenodd" transform="translate(9.041837, 0.000000)">
                        <path d="M240.462553,0 L164.759031,28.9551224 L179.595115,63.6595948 L237.573986,2.00752063 C238.40084,1.12829422 239.388166,0.452035795 240.462553,0 Z M0,0 L75.7035221,28.9551224 L60.8674382,63.6595948 L2.8885664,2.00752063 C2.06171298,1.12829422 1.07438677,0.452035795 0,0 Z" id="形状结合" fill="#4E4E4E"></path>
                        <path d="M60.8651196,63.6592075 L120.229045,126.782731 L64.3245378,146.635899 C62.5408372,146.235762 60.4763202,145.900595 58.1167525,145.662515 L58.1167525,145.662515 L56.9553476,145.555313 C54.7839142,145.373076 52.3798325,145.270844 49.7332511,145.270844 L49.7332511,145.270844 L49.2374142,145.272636 C47.5923793,145.284586 46.0249574,145.356367 44.5370363,145.489529 L44.5370363,145.489529 L43.6538388,145.576804 L42.7898122,145.678885 C34.5083679,146.74031 28.9412295,149.898674 26.4597343,155.459115 C25.9909028,154.847326 25.6318715,154.145124 25.4119544,153.383705 C25.3308593,153.070263 25.2613522,152.75214 25.2039188,152.429823 L25.2039188,152.429823 L25.1009883,151.745044 L25.0665128,151.432394 L25.0395558,151.116962 L25.0204925,150.803902 C25.0102904,150.594424 25.0051237,150.383452 25.0051237,150.17127 C25.0051237,148.443578 25.3551484,146.733889 26.0339695,145.14589 L26.0339695,145.14589 L60.8651196,63.6592075 Z M179.595202,63.6592075 L214.426352,145.14589 C214.522966,145.371904 214.61292,145.600384 214.696153,145.83103 L176.168087,145.831692 L176.167124,146.647207 L120.231276,126.782731 L179.595202,63.6592075 Z" id="形状结合" fill="#4E4E4E" opacity="0.15"></path>
                        <path d="M120.231276,126.782731 L176.16783,146.646731 L176.16783,162.927731 L170.49583,162.927731 L170.495985,152.806683 L170.491751,152.522611 C170.356486,148.014091 166.992695,145.270844 162.110365,145.270844 L162.110365,145.270844 L161.717308,145.274786 L161.335411,145.286666 C157.947365,145.429554 155.866951,146.546876 153.790845,148.906944 L153.790845,148.906944 L146.235833,157.228925 L138.669228,148.861472 L138.431517,148.604974 C136.216448,146.259599 134.081158,145.270844 130.350163,145.270844 L130.350163,145.270844 L130.046853,145.274418 C125.226946,145.388639 122.004644,148.233719 122.004644,152.806683 L122.004644,152.806683 L122.00383,162.927731 L112.91683,162.927731 L105.622197,150.900677 L105.426415,150.587414 C103.12649,146.986593 100.260997,145.270844 95.5155296,145.270844 C90.6037767,145.270844 87.7986922,147.059507 85.4577675,150.886224 L85.4577675,150.886224 L78.1128298,162.927731 L69.7878298,162.927731 L69.7883397,148.017867 L68.7457068,147.746765 L65.3922752,146.891438 L64.9843675,146.789923 C64.7691687,146.737673 64.5495678,146.686386 64.3255365,146.636123 L120.231276,126.782731 Z M25.4258298,153.428375 C25.6465416,154.172475 26.0004108,154.859105 26.4597395,155.460502 C26.4089049,155.573022 26.3595433,155.68752 26.3114704,155.803021 C25.9414647,155.050979 25.6432053,154.256126 25.4258298,153.428375 Z" id="形状结合" fill="#4E4E4E" opacity="0.5"></path>
                    </g>
                    <path d="M73.2115443,176.843027 C73.772962,176.843027 74.374481,176.482481 74.374481,175.601149 L74.374481,163.10225 L67.5171646,163.10225 L67.5171646,169.712245 C66.073519,170.192972 62.6649114,170.833941 56.4492152,170.833941 C49.632,170.833941 45.5817722,168.991154 45.5817722,163.142311 C45.5817722,157.453709 49.9127089,155.771165 58.7750886,155.771165 C65.7527089,155.771165 71.4470886,156.77268 73.3318481,157.133225 L73.3318481,151.20426 C71.4470886,150.723533 66.6349367,149.722019 58.7750886,149.722019 C45.5817722,149.722019 38.4838481,153.407592 38.4838481,163.142311 C38.4838481,172.756848 44.2985316,176.843027 55.8476962,176.843027 C63.1862278,176.843027 66.1938228,175.400846 68.1988861,174.679756 L71.8481013,176.442421 C72.2892152,176.642724 72.7303291,176.843027 73.2115443,176.843027 Z M91.6848608,176.282179 L94.8127595,170.954122 L114.261873,170.954122 L117.349671,176.282179 L124.848608,176.282179 L110.853266,153.207289 C109.529924,151.044018 108.166481,149.722019 104.557367,149.722019 C100.908152,149.722019 99.6249114,151.044018 98.3015696,153.207289 L84.2260253,176.282179 L91.6848608,176.282179 Z M110.853266,165.145339 L98.2614684,165.145339 L102.913215,157.133225 C103.354329,156.452195 103.875646,156.131711 104.557367,156.131711 C105.198987,156.131711 105.720304,156.412135 106.161418,157.133225 L110.853266,165.145339 Z M142.158987,176.282179 L142.158987,158.535345 L151.74319,169.191457 C152.825924,170.393274 153.828456,171.114365 155.272101,171.114365 C156.836051,171.114365 157.838582,170.313153 158.841114,169.191457 L168.345114,158.455224 L168.345114,176.282179 L175.082127,176.282179 L175.082127,152.806683 C175.082127,150.883776 173.959291,149.722019 171.152203,149.722019 C168.305013,149.722019 167.342582,150.52323 166.179646,151.845229 L155.272101,163.863401 L144.404658,151.845229 C143.20162,150.52323 142.279291,149.722019 139.392,149.722019 C136.584911,149.722019 135.502177,150.883776 135.502177,152.806683 L135.502177,176.282179 L142.158987,176.282179 Z M219.140051,176.282179 L219.140051,170.633638 L196.282329,170.633638 L196.282329,165.86643 L218.378127,165.86643 L218.378127,160.418192 L196.282329,160.418192 L196.282329,155.931408 L219.140051,155.931408 L219.140051,150.282867 L189.66562,150.282867 L189.66562,176.282179 L219.140051,176.282179 Z M19.8501266,215.790806 C25.7049114,215.790806 30.2363544,215.189897 32.6424304,214.428746 L32.6424304,208.499781 C29.875443,209.260932 24.9028861,209.78172 20.1308354,209.78172 C10.3461266,209.78172 7.17812658,207.69857 7.17812658,202.290393 C7.17812658,196.842155 10.3461266,194.718944 20.1308354,194.718944 C24.8226835,194.718944 29.6749367,195.399974 32.3216203,195.960822 L32.3216203,189.991797 C29.8353418,189.390888 25.5044051,188.669798 19.8501266,188.669798 C6.01518987,188.669798 0,192.836097 0,202.290393 C0,211.744688 6.01518987,215.790806 19.8501266,215.790806 Z M75.2968101,215.229958 L75.2968101,209.581417 L52.4390886,209.581417 L52.4390886,204.814209 L74.5348861,204.814209 L74.5348861,199.365971 L52.4390886,199.365971 L52.4390886,194.879187 L75.2968101,194.879187 L75.2968101,189.230646 L45.8223797,189.230646 L45.8223797,215.229958 L75.2968101,215.229958 Z M120.637975,215.790806 C122.963848,215.790806 124.006481,214.629049 124.006481,213.226929 L124.006481,189.230646 L117.429873,189.230646 L117.429873,207.177782 L97.4193418,190.432463 C96.0157975,189.230646 95.0934684,188.669798 92.8076962,188.669798 C90.4016203,188.669798 89.3188861,189.831555 89.3188861,191.674341 L89.3188861,215.229958 L95.8954937,215.229958 L95.8954937,197.483124 L115.705519,214.188383 C117.068962,215.310079 118.151696,215.790806 120.637975,215.790806 Z M157.076658,215.229958 L157.076658,195.279792 L171.031899,195.279792 L171.031899,189.230646 L136.344304,189.230646 L136.344304,195.279792 L150.299544,195.279792 L150.299544,215.229958 L157.076658,215.229958 Z M212.844152,215.229958 L212.844152,209.581417 L189.98643,209.581417 L189.98643,204.814209 L212.082228,204.814209 L212.082228,199.365971 L189.98643,199.365971 L189.98643,194.879187 L212.844152,194.879187 L212.844152,189.230646 L183.369722,189.230646 L183.369722,215.229958 L212.844152,215.229958 Z M233.643342,215.229958 L233.643342,206.656995 L241.222481,206.656995 L251.247797,215.229958 L260.430987,215.229958 L250.044759,206.416632 C254.736608,205.655481 257.744203,202.731059 257.744203,197.963851 C257.744203,192.31531 253.53357,189.230646 247.317873,189.230646 L226.866228,189.230646 L226.866228,215.229958 L233.643342,215.229958 Z M246.997063,200.928333 L233.643342,200.928333 L233.643342,194.959308 L246.997063,194.959308 C249.483342,194.959308 250.726481,196.081004 250.726481,197.963851 C250.726481,199.846698 249.483342,200.928333 246.997063,200.928333 Z" id="GAMECENTER" fill="#4E4E4E" fill-rule="nonzero"></path>
                </g>
            </g>
        </g>
    </g>
</svg>