<?xml version="1.0" encoding="UTF-8"?>
<svg width="240px" height="564px" viewBox="0 0 240 564" version="1.1" xmlns="http://www.w3.org/2000/svg" xmlns:xlink="http://www.w3.org/1999/xlink">
    <title>com_vivo_game_b_s5_1x2_sc</title>
    <g id="com_vivo_game" stroke="none" stroke-width="1" fill="none" fill-rule="evenodd">
        <g id="辅色" transform="translate(53.000000, 221.466188)" fill="#4E4E4E">
            <path d="M37.107427,113.080197 C37.3919828,113.080197 37.6968639,112.900112 37.6968639,112.459905 L37.6968639,106.216962 L34.2212185,106.216962 L34.2212185,109.518518 C33.4895037,109.758631 31.7618437,110.078782 28.6114048,110.078782 C25.1560848,110.078782 23.1032182,109.158348 23.1032182,106.236971 C23.1032182,103.395632 25.2983627,102.555236 29.7902787,102.555236 C33.3269004,102.555236 36.2131089,103.055472 37.1684032,103.235557 L37.1684032,100.274161 C36.2131089,100.034047 33.7740594,99.5338116 29.7902787,99.5338116 C23.1032182,99.5338116 19.5056203,101.374679 19.5056203,106.236971 C19.5056203,111.039235 22.452805,113.080197 28.3065236,113.080197 C32.026074,113.080197 33.5504799,112.359858 34.5667505,111.999688 L36.416363,112.880103 C36.6399425,112.98015 36.863522,113.080197 37.107427,113.080197 Z M46.4706667,112.800065 L48.0560489,110.138811 L57.9138736,110.138811 L59.4789303,112.800065 L63.2797824,112.800065 L56.1862136,101.274632 C55.515475,100.194123 54.824411,99.5338116 52.995124,99.5338116 C51.1455115,99.5338116 50.4950983,100.194123 49.8243597,101.274632 L42.6901401,112.800065 L46.4706667,112.800065 Z M56.1862136,107.237443 L49.8040343,107.237443 L52.1617821,103.235557 C52.3853616,102.895396 52.649592,102.735321 52.995124,102.735321 C53.3203305,102.735321 53.5845609,102.875387 53.8081404,103.235557 L56.1862136,107.237443 Z M72.0535852,112.800065 L72.0535852,103.935887 L76.9113586,109.258396 C77.4601447,109.858679 77.96828,110.218848 78.6999949,110.218848 C79.4926859,110.218848 80.0008212,109.81866 80.5089565,109.258396 L85.3260791,103.895868 L85.3260791,112.800065 L88.7407483,112.800065 L88.7407483,101.074538 C88.7407483,100.114085 88.1716368,99.5338116 86.748858,99.5338116 C85.3057537,99.5338116 84.8179438,99.9340003 84.2285069,100.594312 L78.6999949,106.597141 L73.1918082,100.594312 C72.5820459,99.9340003 72.1145614,99.5338116 70.6511318,99.5338116 C69.2283529,99.5338116 68.6795668,100.114085 68.6795668,101.074538 L68.6795668,112.800065 L72.0535852,112.800065 Z M111.071601,112.800065 L111.071601,109.978735 L99.4861161,109.978735 L99.4861161,107.597613 L110.685418,107.597613 L110.685418,104.87633 L99.4861161,104.87633 L99.4861161,102.635274 L111.071601,102.635274 L111.071601,99.8139437 L96.1324231,99.8139437 L96.1324231,112.800065 L111.071601,112.800065 Z M10.0610789,132.533812 C13.028589,132.533812 15.3253606,132.23367 16.5448853,131.853491 L16.5448853,128.892095 C15.1424319,129.272274 12.6220808,129.532397 10.2033568,129.532397 C5.24395627,129.532397 3.63824873,128.491906 3.63824873,125.790633 C3.63824873,123.06935 5.24395627,122.00885 10.2033568,122.00885 C12.58143,122.00885 15.0408048,122.349011 16.382282,122.629143 L16.382282,119.647737 C15.1221065,119.347596 12.926962,118.987426 10.0610789,118.987426 C3.04881178,118.987426 0,121.068407 0,125.790633 C0,130.512859 3.04881178,132.533812 10.0610789,132.533812 Z M38.1643484,132.25368 L38.1643484,129.43235 L26.5788636,129.43235 L26.5788636,127.051227 L37.7781656,127.051227 L37.7781656,124.329944 L26.5788636,124.329944 L26.5788636,122.088888 L38.1643484,122.088888 L38.1643484,119.267558 L23.2251707,119.267558 L23.2251707,132.25368 L38.1643484,132.25368 Z M61.1456141,132.533812 C62.324488,132.533812 62.8529487,131.953538 62.8529487,131.253208 L62.8529487,119.267558 L59.5195812,119.267558 L59.5195812,128.231784 L49.3772006,119.867841 C48.6658112,119.267558 48.1983267,118.987426 47.0397783,118.987426 C45.8202536,118.987426 45.2714674,119.5677 45.2714674,120.488134 L45.2714674,132.25368 L48.604835,132.25368 L48.604835,123.389501 L58.6455885,131.733434 C59.3366525,132.293698 59.8854386,132.533812 61.1456141,132.533812 Z M79.6146384,132.25368 L79.6146384,122.288982 L86.6878817,122.288982 L86.6878817,119.267558 L69.1064005,119.267558 L69.1064005,122.288982 L76.1796438,122.288982 L76.1796438,132.25368 L79.6146384,132.25368 Z M107.880511,132.25368 L107.880511,129.43235 L96.2950264,129.43235 L96.2950264,127.051227 L107.494328,127.051227 L107.494328,124.329944 L96.2950264,124.329944 L96.2950264,122.088888 L107.880511,122.088888 L107.880511,119.267558 L92.9413335,119.267558 L92.9413335,132.25368 L107.880511,132.25368 Z M118.422625,132.25368 L118.422625,127.971661 L122.264128,127.971661 L127.345481,132.25368 L132,132.25368 L126.735718,127.851605 C129.113792,127.471425 130.638197,126.010737 130.638197,123.629614 C130.638197,120.808284 128.504029,119.267558 125.35359,119.267558 L114.98763,119.267558 L114.98763,132.25368 L118.422625,132.25368 Z M125.190987,125.110312 L118.422625,125.110312 L118.422625,122.128907 L125.190987,122.128907 C126.451163,122.128907 127.08125,122.689171 127.08125,123.629614 C127.08125,124.570058 126.451163,125.110312 125.190987,125.110312 Z" id="GAMECENTER" fill-rule="nonzero"></path>
            <g id="辅色" transform="translate(3.139603, 0.000000)">
                <path d="M127.570442,0.0622216631 C127.019658,0.301930017 126.513484,0.653626074 126.087592,1.10697091 L126.087592,1.10697091 L95.3400305,33.8365068 L87.472,15.412 L87.4736004,15.4124162 Z M-1.28896893e-13,3.55271368e-14 L0.101387117,0.0412554166 L40.2471943,15.4124162 L32.3795059,33.8365068 L1.63320263,1.10697091 C1.16883221,0.612667162 0.609017623,0.239209511 -1.28896893e-13,3.55271368e-14 Z" id="形状结合"></path>
                <path d="M114.141459,81.4695829 C113.737271,82.8651247 112.453997,83.8850488 110.93337,83.8850488 C110.63145,83.8850488 110.338886,83.8448413 110.060706,83.7694704 L63.8603973,67.3453311 L95.3412668,33.8354803 L113.830401,77.1359419 C114.369279,78.3978937 114.493916,79.7327157 114.265217,80.9887182 L114.152565,81.4260915 L114.141459,81.4695829 Z" id="形状结合" opacity="0.15"></path>
                <path d="M32.3788634,33.8375104 L63.8592139,67.3453311 L17.6589054,83.7694704 C17.5314059,83.8040154 17.4008851,83.8311736 17.2678268,83.8504595 L17.2305165,83.8556518 L17.2305165,83.8556518 L17.0108483,83.8775887 L17.0108483,83.8775887 L16.786241,83.8850488 L16.786241,83.8850488 C16.7139786,83.8850488 16.6422523,83.8827455 16.5711309,83.8782081 C16.3819973,83.8661441 16.1971024,83.8382711 16.0177828,83.7958929 L15.8392696,83.7484019 C15.7998028,83.736712 15.7606404,83.72431 15.7217969,83.7112108 C15.6946485,83.7020562 15.6676627,83.6925629 15.6408377,83.6827343 C15.3813094,83.587658 15.1366736,83.4610848 14.9116813,83.3076666 C14.7578127,83.2027736 14.6131912,83.0853673 14.4792006,82.9568836 L14.4792934,82.9568936 C14.4431194,82.9222854 14.4078092,82.886884 14.3732983,82.8507079 L14.3732652,82.850567 C14.2640831,82.736223 14.1628735,82.61398 14.070572,82.4848851 C13.8931787,82.2365408 13.7483712,81.9622166 13.643169,81.6689194 L13.6008634,81.5425104 L13.5781524,81.4695829 L13.5682297,81.4260915 L13.4533872,80.9788334 C13.3843181,80.5916284 13.3482747,80.1929867 13.3482747,79.7859267 C13.3482747,78.8750629 13.5326853,77.9736277 13.8903936,77.1359419 L32.3788634,33.8375104 Z" id="形状结合" opacity="0.15"></path>
                <path d="M63.8603973,67.3453311 L110.062538,83.7699661 C110.340171,83.8450176 110.632113,83.8850488 110.93337,83.8850488 C112.391504,83.8850488 113.631393,82.9472332 114.087048,81.6400875 L114.132917,81.4968752 C113.618455,83.4392421 112.251515,85.1331346 110.268168,85.986229 C109.428213,86.347518 108.523891,86.5338116 107.610046,86.5338116 L20.1107484,86.5338116 C16.9794254,86.5338116 14.3462603,84.3931941 13.5847817,81.4904786 C13.9950871,82.8752257 15.2731626,83.8850488 16.786241,83.8850488 C17.0121843,83.8850488 17.2328874,83.8625313 17.4462439,83.8196101 L17.6570735,83.7699661 L63.8603973,67.3453311 Z" id="路径" opacity="0.5"></path>
            </g>
        </g>
    </g>
</svg>