<?xml version="1.0" encoding="UTF-8"?>
<svg width="564px" height="240px" viewBox="0 0 564 240" version="1.1" xmlns="http://www.w3.org/2000/svg" xmlns:xlink="http://www.w3.org/1999/xlink">
    <title>com_android_camera_packet_camerapacketactivity_b_s5_2x1_sc</title>
    <g id="com_android_camera_packet_camerapacketactivity" stroke="none" stroke-width="1" fill="none" fill-rule="evenodd">
        <g id="辅色" transform="translate(169.000000, 108.000000)" fill="#4E4E4E">
            <path d="M5.88618094,18.0819239 L5.88618094,0.493463811 L0,0.493463811 L0,23.3690362 L23.9975069,23.3690362 L23.9975069,18.0819239 L5.88618094,18.0819239 Z M88.5405329,5.46334934 L88.5405329,0.493463811 L62.9408703,0.493463811 L62.9408703,23.3690362 L88.5405329,23.3690362 L88.5405329,18.3991507 L68.6877333,18.3991507 L68.6877333,14.2047083 L87.8787729,14.2047083 L87.8787729,9.41105982 L68.6877333,9.41105982 L68.6877333,5.46334934 L88.5405329,5.46334934 Z M156.685336,23.8625 C158.705446,23.8625 159.611012,22.840325 159.611012,21.6066654 L159.611012,0.493463811 L153.898978,0.493463811 L153.898978,16.2843058 L136.519071,1.55088626 C135.30004,0.493463811 134.498962,0 132.513682,0 C130.423914,0 129.483518,1.02217504 129.483518,2.64355613 L129.483518,23.3690362 L135.195551,23.3690362 L135.195551,7.75443131 L152.401311,22.4526034 C153.585513,23.439531 154.525909,23.8625 156.685336,23.8625 Z M212.729971,23.8625 C206.391007,23.8625 201.967664,23.0870569 199.355453,22.3821086 L199.355453,17.3064808 L200.09376,17.4631248 C202.826861,18.025028 207.492233,18.7868722 213.113095,18.7868722 L214.080326,18.7807803 C219.180392,18.7131275 219.800354,18.082589 219.800354,16.9187592 C219.800354,15.7203471 218.72064,15.3326256 216.805019,15.0506462 L207.226914,13.675997 L206.470887,13.5572562 C202.312462,12.8662978 198.90267,11.5970646 198.90267,6.90849335 C198.90267,2.46036886 201.611092,0.0679357042 211.734294,0.00142561022 L212.172699,1.93267624e-12 C217.815074,1.93267624e-12 222.203587,0.528711226 224.746139,1.05742245 L224.746139,6.13305022 L224.205823,6.0397464 C221.663689,5.61339366 217.641373,5.11280988 212.722859,5.07759771 L211.494787,5.07738987 C205.812857,5.10811921 205.102316,5.5455933 205.102316,6.76750369 C205.102316,7.93066839 206.391007,8.24789513 208.16731,8.52987445 L218.05888,9.93977105 C223.178813,10.6799668 226,12.3718427 226,16.8482644 C226,21.6771603 222.900177,23.8625 212.729971,23.8625 Z" id="LENS"></path>
        </g>
    </g>
</svg>