<?xml version="1.0" encoding="UTF-8"?>
<svg width="240px" height="240px" viewBox="0 0 240 240" version="1.1" xmlns="http://www.w3.org/2000/svg" xmlns:xlink="http://www.w3.org/1999/xlink">
    <title>com_android_bbkmusic_b_s5_1x1_mc</title>
    <g id="com_android_bbkmusic" stroke="none" stroke-width="1" fill="none" fill-rule="evenodd">
        <g id="编组备份" transform="translate(63.000000, 53.142857)" fill="#000000">
            <path d="M118.773464,3.15233039 C118.85565,3.48164472 118.897206,3.81978277 118.897206,4.15919757 L118.897206,29.3301768 C118.897206,32.1932325 116.948039,34.6886281 114.170184,35.3818863 L104.685027,37.7330657 C103.107707,38.1240518 102,39.5398607 102,41.1649176 L101.999,81.726 L101.995893,81.2032007 C101.995717,81.18918 101.995535,81.1751607 101.995348,81.1611427 L101.999,81.726 L102,81.8571429 L101.999,81.929 L101.993167,82.7005211 C101.542797,110.478051 78.884857,132.857143 51,132.857143 C22.8334778,132.857143 0,110.023665 0,81.8571429 C0,53.6906206 22.8334778,30.8571429 51,30.8571429 C57.4178893,30.8571429 63.5588977,32.0426115 69.2159985,34.2065223 L68.9995988,34.1243132 L68.9995988,34.1243132 L68.9986236,16.5081104 L69.0196452,16.507048 C69.2575364,13.3501062 71.4925626,10.6662817 74.6045763,9.889629 L113.732124,0.124724585 C115.960302,-0.4313528 118.217386,0.924152493 118.773464,3.15233039 Z M51,62.8571429 C41.0588745,62.8571429 33,70.9160174 33,80.8571429 C33,90.7982684 41.0588745,98.8571429 51,98.8571429 C60.9411255,98.8571429 69,90.7982684 69,80.8571429 C69,70.9160174 60.9411255,62.8571429 51,62.8571429 Z" id="形状结合"></path>
        </g>
    </g>
</svg>