<?xml version="1.0" encoding="UTF-8"?>
<svg width="564px" height="564px" viewBox="0 0 564 564" version="1.1" xmlns="http://www.w3.org/2000/svg" xmlns:xlink="http://www.w3.org/1999/xlink">
    <title>com_android_videoplayer_b_s5_2x2_sc</title>
    <g id="com_android_videoplayer" stroke="none" stroke-width="1" fill="none" fill-rule="evenodd">
        <g id="辅色" transform="translate(200.803030, 218.624841)" fill="#4E4E4E">
            <path d="M135.212392,49.5448419 C137.382643,48.3166367 139.177984,46.5212958 140.406189,44.3510448 C143.84177,38.2803395 142.158806,30.7070229 136.739028,26.6157232 L174.50275,47.9874938 C183.315439,52.9748385 186.423322,64.1740641 181.444402,73.0016642 C179.804812,75.9086491 177.404825,78.3126974 174.50275,79.9550618 L26.5460951,163.687832 C17.9900866,168.529914 7.13541848,165.507446 2.30151535,156.93696 C0.792815504,154.262043 9.10575504e-13,151.241901 9.10575504e-13,148.169595 L9.10575504e-13,126.063573 L135.212392,49.5448419 Z" id="路径"></path>
            <path d="M89.5855955,15.7146184 C91.0307122,14.8967868 92.2261855,13.7013135 93.0440171,12.2561968 C95.4606744,7.98593889 94.0738316,2.5991168 89.96812,0.00856786719 L135.237488,25.6284816 C141.837886,29.3638301 144.160468,37.7426087 140.42512,44.3430074 C139.198373,46.5106824 137.405163,48.3038924 135.237488,49.5306398 L0,126.064425 L0,66.4134255 Z" id="形状结合" opacity="0.35"></path>
        </g>
    </g>
</svg>