<?xml version="1.0" encoding="UTF-8"?>
<svg width="564px" height="564px" viewBox="0 0 564 564" version="1.1" xmlns="http://www.w3.org/2000/svg" xmlns:xlink="http://www.w3.org/1999/xlink">
    <title>com_vivo_newsreader_b_s5_2x2_mc</title>
    <g id="com_vivo_newsreader" stroke="none" stroke-width="1" fill="none" fill-rule="evenodd">
        <path d="M326.49485,175.078798 C338.006755,179.022846 342.905428,181.02837 352.478232,188.080507 C359.572196,193.30652 365.384501,204.469471 369.915148,221.569359 L367.945447,348.736469 C367.945447,366.497402 342.243371,373.172995 324.635908,375.271576 L277.317348,391.769543 L267.448848,392.459246 L277.322848,391.76983 L257.630063,393.582947 C244.072237,394.830882 230.472708,391.768005 218.765716,384.840678 L218.151316,384.472515 C215.882639,383.095953 213.615103,381.72835 211.348707,380.369708 C206.032072,377.182531 200.705392,373.009761 195.368666,367.851398 C189.187593,361.876906 185.644719,353.6926 185.50911,345.110945 L185.505069,344.605697 L185.484848,242.038811 L185.507554,242.037099 L185.484848,241.097782 L185.484848,214.222971 C185.484848,197.522901 197.992213,183.491068 214.552527,181.499475 L215.055587,181.442819 L225.425157,180.347091 L290.597657,173.509595 C290.590658,173.509873 290.583658,173.510152 290.576658,173.510431 L302.892009,172.669328 C313.837213,172.63455 321.704826,173.437707 326.49485,175.078798 Z M233.144373,375.140669 C233.323651,385.313338 241.625947,393.504596 251.841414,393.504596 C252.131158,393.504596 252.420842,393.497862 252.710234,393.484402 L253.002848,393.466246 L252.733485,393.482773 C252.443751,393.496249 252.153723,393.502991 251.863636,393.502991 C241.687765,393.502991 233.40801,385.384726 233.147724,375.271576 L233.141414,374.804596 L233.144373,375.140669 Z M233.141414,330.904422 C233.141414,331.382084 233.166549,331.859415 233.216714,332.334435 C233.237105,332.527523 233.257689,332.720635 233.278574,332.913625 L233.34224,333.492088 C234.119693,340.425801 235.428591,347.014664 242.350817,346.497086 L247.213804,348.736469 L322.435314,343.21842 C329.218875,342.502026 337.155526,330.428847 337.368531,323.655074 L337.368531,236.670358 L331.851772,234.621919 L331.850848,234.240246 L331.84979,234.132567 C331.838495,233.818493 331.816328,233.504855 331.783319,233.192217 C331.004686,225.817627 324.476199,220.44239 317.123866,221.051657 L316.812728,221.080974 L245.327879,228.628631 C238.506436,229.348866 233.303607,235.024441 233.145135,241.848855 L233.141414,242.169576 L233.141414,330.904422 Z" id="形状结合" fill="#000000"></path>
    </g>
</svg>