<?xml version="1.0" encoding="UTF-8"?>
<svg width="240px" height="240px" viewBox="0 0 240 240" version="1.1" xmlns="http://www.w3.org/2000/svg" xmlns:xlink="http://www.w3.org/1999/xlink">
    <title>com_iqoo_secure_b_s5_1x1_mc</title>
    <g id="com_iqoo_secure" stroke="none" stroke-width="1" fill="none" fill-rule="evenodd">
        <g id="主色" transform="translate(60.000000, 56.000000)" fill="#000000" fill-rule="nonzero">
            <path d="M60,52.0372696 L106.824279,23.71627 L107,23.5333195 L119.912952,15.7471225 L120,15.7471225 L120,53.4551659 C120,78.6455495 106.385522,101.885888 84.3668478,114.282068 L60,128 L60,52.0372696 Z" id="形状结合" opacity="0.849999964"></path>
            <path d="M1.11997271,15.1235364 C37.3927761,-4.83953165 81.3527978,-5.03916233 117.779345,14.5246444 L118.880859,15.1235364 L120,15.7471225 L60,52.0372696 L0,15.7471225 L1.11997271,15.1235364 Z" id="形状结合" opacity="0.92"></path>
            <path d="M13.3368592,23.4682767 C42.8154892,9.50898464 77.1473985,9.49596146 106.695368,23.4867796 L106.695368,23.4867796 L106.98,23.6212367 L60,52.0372696 L13.018,23.6202367 Z" id="形状结合"></path>
            <path d="M107,23.632 L107,53.4551659 L106.99668,54.0694167 C106.77992,74.1210436 95.9611249,92.5868289 78.5198271,102.651522 L77.9892799,102.953934 L60,113.081 L60,52.0372696 L107,23.632 Z" id="路径" opacity="0.400000006"></path>
        </g>
    </g>
</svg>