<?xml version="1.0" encoding="UTF-8"?>
<svg width="240px" height="240px" viewBox="0 0 240 240" version="1.1" xmlns="http://www.w3.org/2000/svg" xmlns:xlink="http://www.w3.org/1999/xlink">
    <title>com_android_videoplayer_b_s5_1x1_mc</title>
    <g id="com_android_videoplayer" stroke="none" stroke-width="1" fill="none" fill-rule="evenodd">
        <g id="主色" transform="translate(72.000000, 60.004981)" fill="#000000">
            <path d="M3.55271368e-13,10.7703297 C3.55271368e-13,4.82204084 4.82204084,1.24344979e-14 10.7703297,1.24344979e-14 C11.892924,1.24344979e-14 13.003976,0.175464761 14.0643379,0.516085105 L79.4422958,37.5153326 C79.8742123,37.7597661 80.2749879,38.038002 80.6431812,38.3448398 C80.5443063,38.2624377 80.4429425,38.1819932 80.3392507,38.103718 L102.526838,50.6604259 C107.70462,53.5906759 109.530617,60.1706363 106.605316,65.3571788 C105.641996,67.0651403 104.231915,68.4776079 102.526838,69.4425578 L15.5968155,118.638666 C10.5698432,121.483569 4.19232303,119.707757 1.35222563,114.672278 C0.465808516,113.100665 3.55271368e-13,111.32622 3.55271368e-13,109.521126 L3.55271368e-13,10.7703297 Z" id="路径"></path>
        </g>
    </g>
</svg>