<?xml version="1.0" encoding="UTF-8"?>
<svg width="240px" height="564px" viewBox="0 0 240 564" version="1.1" xmlns="http://www.w3.org/2000/svg" xmlns:xlink="http://www.w3.org/1999/xlink">
    <title>com_android_dialer_b_s5_1x2_mc</title>
    <g id="com_android_dialer" stroke="none" stroke-width="1" fill="none" fill-rule="evenodd">
        <path d="M152.462685,306.692404 L156.631905,312.861594 L156.631905,312.861594 L159.013043,316.377797 L159.013043,316.377797 L162.130429,321.006814 L162.130429,321.006814 L163.54889,323.124258 L163.54889,323.124258 C165.375847,325.413849 165.025934,328.753605 162.750216,330.597683 C162.397464,330.883528 162.009467,331.122894 161.595704,331.30982 L161.324657,331.43117 L161.324657,331.43117 L160.811657,331.654062 L160.811657,331.654062 C132.264848,343.780926 98.4658512,332.92709 82.5246872,305.316184 C66.982698,278.396669 73.7224241,244.740822 97.0303161,225.780226 L97.8183582,225.150796 L97.8183582,225.150796 L98.2877901,224.807575 C101.27365,222.677121 105.421242,223.370566 107.551695,226.356426 C107.692997,226.554462 107.823257,226.760038 107.941913,226.972208 L108.111124,227.295291 L108.111124,227.295291 L116.317895,244.135266 C117.620583,246.810907 117.041655,250.010226 114.912996,252.059723 L114.708904,252.248443 L114.708904,252.248443 L114.062615,252.834957 L113.512876,253.355327 C112.874086,253.97238 112.244771,254.624005 111.629878,255.307382 L111.106474,255.900845 C110.93326,256.101214 110.761338,256.304109 110.590825,256.509465 L110.083625,257.132847 C102.961394,266.066809 98.5907567,279.326201 105.828232,291.861876 C113.986942,305.993176 130.325936,307.808831 142.214113,304.681155 L142.951215,304.479305 C143.073061,304.444613 143.194396,304.409401 143.315205,304.373678 L143.758123,304.238689 L143.758123,304.238689 L144.11937,304.111207 C144.169092,304.092992 144.222009,304.073427 144.27812,304.052512 C147.288445,302.930445 150.675328,304.022864 152.462685,306.692404 Z" id="主色" fill="#000000"></path>
    </g>
</svg>