<?xml version="1.0" encoding="UTF-8"?>
<svg width="240px" height="564px" viewBox="0 0 240 564" version="1.1" xmlns="http://www.w3.org/2000/svg" xmlns:xlink="http://www.w3.org/1999/xlink">
    <title>com_android_videoplayer_b_s5_1x2_sc</title>
    <g id="com_android_videoplayer" stroke="none" stroke-width="1" fill="none" fill-rule="evenodd">
        <g id="辅色" transform="translate(72.000000, 244.461800)" fill="#4E4E4E">
            <path d="M79.4422958,29.1186072 C80.7173988,28.3969911 81.7722282,27.3421617 82.4938442,26.0670587 C84.5123751,22.5002943 83.5235714,18.0506898 80.3392507,15.6468995 L102.526838,28.2036074 C107.70462,31.1338574 109.530617,37.7138179 106.605316,42.9003604 C105.641996,44.6083218 104.231915,46.0207894 102.526838,46.9857394 L15.5968155,96.1818474 C10.5698432,99.0267503 4.19232303,97.2509382 1.35222563,92.21546 C0.465808516,90.643847 0,88.8694015 0,87.0643076 L0,74.0762002 L79.4422958,29.1186072 Z" id="路径"></path>
            <path d="M52.6250307,9.24765892 C53.4750993,8.76658153 54.1783189,8.06336193 54.6593963,7.2132933 C56.0829085,4.69793277 55.2629283,1.5239675 52.8401019,0.00254689727 L79.4422958,15.0585142 C83.3248833,17.255778 84.691108,22.1844713 82.4938442,26.0670587 C81.7722282,27.3421617 80.7173988,28.3969911 79.4422958,29.1186072 L0,74.0762002 L0,39.0292002 Z" id="形状结合" opacity="0.35"></path>
        </g>
    </g>
</svg>