<?xml version="1.0" encoding="UTF-8"?>
<svg width="564px" height="240px" viewBox="0 0 564 240" version="1.1" xmlns="http://www.w3.org/2000/svg" xmlns:xlink="http://www.w3.org/1999/xlink">
    <title>com_android_settings_b_s5_2x1_mc</title>
    <g id="com_android_settings" stroke="none" stroke-width="1" fill="none" fill-rule="evenodd">
        <g id="主色" transform="translate(225.000000, 28.000000)" fill="#000000">
            <path d="M163.41631,30.4894405 C178.082244,46.2391901 195.809321,58.8508602 215.520908,67.5435144 L215.573384,68.2017672 C217.479566,91.2515249 224.399702,113.590013 235.826954,133.657348 C225.746914,151.358539 219.17382,170.827509 216.455743,190.993099 C215.806563,190.997771 215.14348,191 214.466755,191 L37.881251,190.999704 C35.1648205,170.832035 28.5913402,151.360519 18.5098977,133.656689 C30.0462489,113.398882 36.9889585,90.8257945 38.8168302,67.542965 C58.5271915,58.8512873 76.2546204,46.2394568 90.9217254,30.4900533 C114.76212,36.0822226 139.575982,36.0821473 163.41631,30.4894405 Z" id="形状结合"></path>
            <path d="M141.451598,4.99458113 C142.892199,6.12968952 144.193593,7.4310839 145.328702,8.87168448 L154.774807,20.8600241 C172.906669,43.8717207 197.053999,61.4157835 224.542477,71.5492031 L238.863072,76.8283826 C250.924979,81.2749133 257.098461,94.6576458 252.65193,106.719552 C252.017548,108.440413 251.182001,110.080265 250.162676,111.604988 L241.680095,124.293368 C228.255887,144.373513 219.629895,167.193998 216.374587,190.992944 C215.751766,190.997952 215.11553,191 214.466755,191 L37.7174874,190.999944 C34.4629138,167.198472 25.8365464,144.375482 12.4110222,124.293368 L3.92844078,111.604988 C-3.21624134,100.917858 -0.344520203,86.4623183 10.3426095,79.3176362 C11.8673318,78.2983114 13.5071843,77.4627647 15.2280447,76.8283826 L29.5486403,71.5492031 C57.0371177,61.4157835 81.1844485,43.8717207 99.3163099,20.8600241 L108.762415,8.87168448 C116.718651,-1.22581669 131.354097,-2.96165499 141.451598,4.99458113 Z M127.168556,90.190379 C101.605208,90.190379 80.8820204,110.913567 80.8820204,136.476915 C80.8820204,162.040263 101.605208,182.763451 127.168556,182.763451 C152.731904,182.763451 173.455092,162.040263 173.455092,136.476915 C173.455092,110.913567 152.731904,90.190379 127.168556,90.190379 Z M127.168556,114.190379 C139.47707,114.190379 149.455092,124.168401 149.455092,136.476915 C149.455092,148.785429 139.47707,158.763451 127.168556,158.763451 C114.860042,158.763451 104.88202,148.785429 104.88202,136.476915 C104.88202,124.168401 114.860042,114.190379 127.168556,114.190379 Z" id="形状结合" fill-opacity="0.7"></path>
            <path d="M40.6361274,40.6457056 C44.1286192,28.2738131 56.9892437,21.0756366 69.3611362,24.5681284 L69.3611362,24.5681284 L84.0497652,28.7146174 C112.244685,36.6738303 142.092428,36.6738303 170.287347,28.7146174 L170.287347,28.7146174 L184.975976,24.5681284 C186.741062,24.069858 188.558853,23.7819483 190.391523,23.7103901 C203.237131,23.2088221 214.057156,33.215644 214.558724,46.0612523 L214.558724,46.0612523 L215.154214,61.3123042 C216.297262,90.5867986 225.520722,118.973688 241.803093,143.329119 L241.803093,143.329119 L250.285674,156.0175 C251.304999,157.542222 252.140545,159.182074 252.774928,160.902935 C256.399155,170.734215 252.968118,181.442968 245.043878,187.47522 L244.755211,187.57857 L244.193521,187.771188 L243.621261,187.958393 L243.037664,188.140168 C242.939411,188.170011 242.840653,188.199627 242.741375,188.229015 L242.139334,188.402619 L241.524038,188.570755 C241.420341,188.598321 241.316061,188.625659 241.21118,188.652768 L240.574564,188.812675 L239.922775,188.967077 L239.255047,189.115958 L238.570612,189.259304 L237.868704,189.397099 L237.148556,189.529327 L236.409399,189.655975 L235.650468,189.777025 L234.870995,189.892464 L234.070214,190.002275 L233.247357,190.106444 L232.401656,190.204955 L231.532346,190.297794 L230.638659,190.384944 L229.719828,190.466391 L228.775086,190.542119 L227.803666,190.612114 L226.8048,190.676359 L225.777723,190.73484 L224.182531,190.81172 L223.081567,190.855724 L221.949707,190.89391 L220.786182,190.926263 L219.590227,190.952768 L218.361073,190.973409 L217.097955,190.988172 L215.800105,190.99704 L214.466755,191 L15.9099978,190.999711 L15.3510425,190.794105 C13.8213889,190.230209 12.3557413,189.507369 10.9780653,188.637795 L10.4656073,188.304851 C-0.221522401,181.160169 -3.09324354,166.704629 4.05143858,156.0175 L4.05143858,156.0175 L12.53402,143.329119 C28.8163907,118.973688 38.0398503,90.5867986 39.1828984,61.3123042 L39.1828984,61.3123042 L39.778389,46.0612523 C39.8499472,44.228582 40.137857,42.4107914 40.6361274,40.6457056 Z" id="形状结合" opacity="0.699999988"></path>
        </g>
    </g>
</svg>