<?xml version="1.0" encoding="UTF-8"?>
<svg width="564px" height="564px" viewBox="0 0 564 564" version="1.1" xmlns="http://www.w3.org/2000/svg" xmlns:xlink="http://www.w3.org/1999/xlink">
    <title>com_android_videoplayer_b_s5_2x2_mc</title>
    <g id="com_android_videoplayer" stroke="none" stroke-width="1" fill="none" fill-rule="evenodd">
        <g id="主色" transform="translate(200.803030, 180.387266)" fill="#000000">
            <path d="M0,18.3313187 C0,8.20721093 8.20721093,0 18.3313187,0 C20.2419969,0 22.1330298,0.298644567 23.9377873,0.878387274 L135.212392,63.851854 C135.947523,64.2678848 136.629651,64.7414479 137.256324,65.2636919 C137.088037,65.123442 136.915513,64.9865238 136.739028,64.8532977 L174.50275,86.2250683 C183.315439,91.212413 186.423322,102.411639 181.444402,111.239239 C179.804812,114.146224 177.404825,116.550272 174.50275,118.192636 L26.5460951,201.925406 C17.9900866,206.767488 7.13541848,203.74502 2.30151535,195.174535 C0.792815504,192.499617 0,189.479475 0,186.407169 L0,18.3313187 Z" id="路径"></path>
        </g>
    </g>
</svg>