<?xml version="1.0" encoding="UTF-8"?>
<svg width="564px" height="564px" viewBox="0 0 564 564" version="1.1" xmlns="http://www.w3.org/2000/svg" xmlns:xlink="http://www.w3.org/1999/xlink">
    <title>com_vivo_email_b_s5_2x2_mc</title>
    <g id="com_vivo_email" stroke="none" stroke-width="1" fill="none" fill-rule="evenodd">
        <g id="主色" transform="translate(168.000000, 199.000000)" fill="#000000">
            <path d="M225.334913,5.1581984 C227.073912,8.40984479 228,11.635156 228,20.5295196 L228,146.421034 C228,155.315398 227.073912,158.540709 225.334913,161.792356 C223.595913,165.044002 221.044002,167.595913 217.792356,169.334913 C214.600925,171.041708 211.434863,171.965422 202.909369,171.999048 L25.5789656,172 C16.684602,172 13.4592909,171.073912 10.2076445,169.334913 C6.95599808,167.595913 4.40408696,165.044002 2.66508744,161.792356 C0.958291617,158.600925 0.0345783289,155.434863 0.000952046608,146.909369 L6.88947218e-16,20.5295196 C-4.00298174e-16,11.635156 0.926087922,8.40984479 2.66508744,5.1581984 C3.36998787,3.84014919 4.20845553,2.63707154 5.17295271,1.55650317 L90.4001304,83.9271051 L90.7703603,84.2792893 C103.058186,95.7839728 122.252545,95.6665781 134.39942,83.9271051 L134.39942,83.9271051 L221.246079,-0.00711419621 C222.897165,1.43428171 224.268802,3.16474503 225.334913,5.1581984 Z" id="形状结合" opacity="0.9"></path>
            <path d="M135.698621,82.6709213 L222.118986,166.192555 C218.5111,169.781795 213.537952,172 208.046715,172 L19.9532847,172 C14.4941295,172 9.54702799,169.807638 5.94438941,166.255324 L90.7676214,84.2769213 C102.935307,95.668926 121.869348,95.6677638 134.032914,84.2758027 L134.39942,83.9271051 L135.698621,82.6709213 Z" id="形状结合"></path>
        </g>
    </g>
</svg>