<?xml version="1.0" encoding="UTF-8"?>
<svg width="564px" height="564px" viewBox="0 0 564 564" version="1.1" xmlns="http://www.w3.org/2000/svg" xmlns:xlink="http://www.w3.org/1999/xlink">
    <title>com_vivo_easyshare_b_s5_2x2_sc</title>
    <g id="com_vivo_easyshare" stroke="none" stroke-width="1" fill="none" fill-rule="evenodd">
        <g id="辅色" transform="translate(234.843434, 195.696015)" fill="#4E4E4E">
            <path d="M86.8030303,0 C134.74302,0 173.606061,38.8631857 173.606061,86.8033548 C173.606061,134.743524 134.74302,173.60671 86.8030303,173.60671 C72.3782946,173.60671 58.7753468,170.088204 46.8056025,163.862611 C58.3071465,157.880278 68.2999704,149.399476 76.065367,139.139345 L76.065367,139.139345 L76.4971226,138.560177 C76.2716652,138.515535 76.0467245,138.469457 75.8223104,138.421952 C79.3646661,139.171779 83.0377899,139.566178 86.8030303,139.566178 C115.943024,139.566178 139.565657,115.943458 139.565657,86.8033548 C139.565657,57.663252 115.943024,34.0405313 86.8030303,34.0405313 C82.7622133,34.0405313 78.8274904,34.4947755 75.0471389,35.3549862 C75.2835814,35.301185 75.5204652,35.2490066 75.7579402,35.1984258 L75.7579402,35.1984258 L76.4986647,35.0448202 C68.6729518,24.52499 58.5216277,15.8377953 46.8055129,9.744145 L46.8055129,9.744145 L46.9120402,9.68883268 C58.8559618,3.49768671 72.4210333,0 86.8030303,0 Z M18.594983,33.1121993 C18.0925399,33.7498221 17.598849,34.394667 17.1140918,35.0465535 C28.8941975,37.3791016 39.2637991,43.633089 46.8053045,52.3914208 L46.8053045,52.3914208 L46.7413104,52.4658746 C38.8239871,61.6945322 34.040404,73.6903086 34.040404,86.8033548 C34.040404,100.195879 39.0300647,112.423001 47.2517898,121.727118 C47.1018801,121.55692 46.9533025,121.386583 46.8058066,121.215289 C39.2635851,129.973869 28.8936091,136.227963 17.1117021,138.560889 C6.361731,124.110081 0,106.199652 0,86.8033548 C0,66.6684838 6.85544033,48.1347926 18.3595291,33.4090815 Z" id="形状结合"></path>
            <path d="M76.4971226,138.560177 L76.065367,139.139345 C68.2997447,149.399774 58.3065657,157.880771 46.8055982,163.862565 C35.089112,157.768721 24.9375156,149.081169 17.1117021,138.560889 C28.8936091,136.227963 39.2635851,129.973869 46.8058066,121.215289 C54.3473341,129.973646 64.7169742,136.227645 76.4971226,138.560177 Z M76.4986647,35.0448202 L75.7579402,35.1984258 C64.2833342,37.6424472 54.1891848,43.816718 46.8053045,52.3914208 C39.2637991,43.633089 28.8941975,37.3791016 17.1140918,35.0465535 C24.9381593,24.52499 35.0894834,15.8377953 46.8055129,9.744145 C58.5216277,15.8377953 68.6729518,24.52499 76.4986647,35.0448202 Z" id="形状结合" opacity="0.8"></path>
        </g>
    </g>
</svg>