<?xml version="1.0" encoding="UTF-8"?>
<svg width="240px" height="564px" viewBox="0 0 240 564" version="1.1" xmlns="http://www.w3.org/2000/svg" xmlns:xlink="http://www.w3.org/1999/xlink">
    <title>com_android_bbkcalculator_b_s5_1x2_sc</title>
    <g id="com_android_bbkcalculator" stroke="none" stroke-width="1" fill="none" fill-rule="evenodd">
        <g id="辅色" transform="translate(145.000000, 311.000000)" fill="#4E4E4E">
            <path d="M32.4616689,8 L1.53833112,8 C1.00341988,8 0.809448133,7.94430463 0.613892578,7.83972038 C0.418337022,7.73513612 0.264863878,7.58166298 0.160279622,7.38610742 C0.0556953667,7.19055187 0,6.99658012 0,6.46166888 L0,1.53833112 C0,1.00341988 0.0556953667,0.809448133 0.160279622,0.613892578 C0.264863878,0.418337022 0.418337022,0.264863878 0.613892578,0.160279622 C0.809448133,0.0556953667 1.00341988,-5.32907052e-15 1.53833112,-5.32907052e-15 L32.4616689,7.10542736e-15 C32.9965801,7.10542736e-15 33.1905519,0.0556953667 33.3861074,0.160279622 C33.581663,0.264863878 33.7351361,0.418337022 33.8397204,0.613892578 C33.9443046,0.809448133 34,1.00341988 34,1.53833112 L34,6.46166888 C34,6.99658012 33.9443046,7.19055187 33.8397204,7.38610742 C33.7351361,7.58166298 33.581663,7.73513612 33.3861074,7.83972038 C33.1905519,7.94430463 32.9965801,8 32.4616689,8 Z M32.4616689,24 L1.53833112,24 C1.00341988,24 0.809448133,23.9443046 0.613892578,23.8397204 C0.418337022,23.7351361 0.264863878,23.581663 0.160279622,23.3861074 C0.0556953667,23.1905519 0,22.9965801 0,22.4616689 L0,17.5383311 C0,17.0034199 0.0556953667,16.8094481 0.160279622,16.6138926 C0.264863878,16.418337 0.418337022,16.2648639 0.613892578,16.1602796 C0.809448133,16.0556954 1.00341988,16 1.53833112,16 L32.4616689,16 C32.9965801,16 33.1905519,16.0556954 33.3861074,16.1602796 C33.581663,16.2648639 33.7351361,16.418337 33.8397204,16.6138926 C33.9443046,16.8094481 34,17.0034199 34,17.5383311 L34,22.4616689 C34,22.9965801 33.9443046,23.1905519 33.8397204,23.3861074 C33.7351361,23.581663 33.581663,23.7351361 33.3861074,23.8397204 C33.1905519,23.9443046 32.9965801,24 32.4616689,24 Z" id="形状结合"></path>
        </g>
    </g>
</svg>