<?xml version="1.0" encoding="UTF-8"?>
<svg width="240px" height="240px" viewBox="0 0 240 240" version="1.1" xmlns="http://www.w3.org/2000/svg" xmlns:xlink="http://www.w3.org/1999/xlink">
    <title>com_vivo_game_b_s5_1x1_sc</title>
    <g id="com_vivo_game" stroke="none" stroke-width="1" fill="none" fill-rule="evenodd">
        <g id="辅色" transform="translate(56.139603, 91.466188)" fill="#4E4E4E">
            <path d="M127.570442,0.0622216631 C127.019658,0.301930017 126.513484,0.653626074 126.087592,1.10697091 L126.087592,1.10697091 L95.3400305,33.8365068 L87.472,15.412 L87.4736004,15.4124162 Z M-1.28896893e-13,3.55271368e-14 L0.101387117,0.0412554166 L40.2471943,15.4124162 L32.3795059,33.8365068 L1.63320263,1.10697091 C1.16883221,0.612667162 0.609017623,0.239209511 -1.28896893e-13,3.55271368e-14 Z" id="形状结合"></path>
            <path d="M114.141459,81.4695829 C113.737271,82.8651247 112.453997,83.8850488 110.93337,83.8850488 C110.63145,83.8850488 110.338886,83.8448413 110.060706,83.7694704 L63.8603973,67.3453311 L95.3412668,33.8354803 L113.830401,77.1359419 C114.369279,78.3978937 114.493916,79.7327157 114.265217,80.9887182 L114.152565,81.4260915 L114.141459,81.4695829 Z" id="形状结合" opacity="0.15"></path>
            <path d="M32.3788634,33.8375104 L63.8592139,67.3453311 L17.6589054,83.7694704 C17.5314059,83.8040154 17.4008851,83.8311736 17.2678268,83.8504595 L17.2305165,83.8556518 L17.2305165,83.8556518 L17.0108483,83.8775887 L17.0108483,83.8775887 L16.786241,83.8850488 L16.786241,83.8850488 C16.7139786,83.8850488 16.6422523,83.8827455 16.5711309,83.8782081 C16.3819973,83.8661441 16.1971024,83.8382711 16.0177828,83.7958929 L15.8392696,83.7484019 C15.7998028,83.736712 15.7606404,83.72431 15.7217969,83.7112108 C15.6946485,83.7020562 15.6676627,83.6925629 15.6408377,83.6827343 C15.3813094,83.587658 15.1366736,83.4610848 14.9116813,83.3076666 C14.7578127,83.2027736 14.6131912,83.0853673 14.4792006,82.9568836 L14.4792934,82.9568936 C14.4431194,82.9222854 14.4078092,82.886884 14.3732983,82.8507079 L14.3732652,82.850567 C14.2640831,82.736223 14.1628735,82.61398 14.070572,82.4848851 C13.8931787,82.2365408 13.7483712,81.9622166 13.643169,81.6689194 L13.6008634,81.5425104 L13.5781524,81.4695829 L13.5682297,81.4260915 L13.4533872,80.9788334 C13.3843181,80.5916284 13.3482747,80.1929867 13.3482747,79.7859267 C13.3482747,78.8750629 13.5326853,77.9736277 13.8903936,77.1359419 L32.3788634,33.8375104 Z" id="形状结合" opacity="0.15"></path>
            <path d="M63.8603973,67.3453311 L110.062538,83.7699661 C110.340171,83.8450176 110.632113,83.8850488 110.93337,83.8850488 C112.391504,83.8850488 113.631393,82.9472332 114.087048,81.6400875 L114.132917,81.4968752 C113.618455,83.4392421 112.251515,85.1331346 110.268168,85.986229 C109.428213,86.347518 108.523891,86.5338116 107.610046,86.5338116 L20.1107484,86.5338116 C16.9794254,86.5338116 14.3462603,84.3931941 13.5847817,81.4904786 C13.9950871,82.8752257 15.2731626,83.8850488 16.786241,83.8850488 C17.0121843,83.8850488 17.2328874,83.8625313 17.4462439,83.8196101 L17.6570735,83.7699661 L63.8603973,67.3453311 Z" id="路径" opacity="0.5"></path>
        </g>
    </g>
</svg>