<?xml version="1.0" encoding="UTF-8"?>
<svg width="240px" height="240px" viewBox="0 0 240 240" version="1.1" xmlns="http://www.w3.org/2000/svg" xmlns:xlink="http://www.w3.org/1999/xlink">
    <title>com_android_dialer_b_s5_1x1_mc</title>
    <g id="com_android_dialer" stroke="none" stroke-width="1" fill="none" fill-rule="evenodd">
        <path d="M152.462685,144.692404 L156.631905,150.861594 L156.631905,150.861594 L159.013043,154.377797 L159.013043,154.377797 L162.130429,159.006814 L162.130429,159.006814 L163.54889,161.124258 L163.54889,161.124258 C165.375847,163.413849 165.025934,166.753605 162.750216,168.597683 C162.397464,168.883528 162.009467,169.122894 161.595704,169.30982 L161.324657,169.43117 L161.324657,169.43117 L160.811657,169.654062 L160.811657,169.654062 C132.264848,181.780926 98.4658512,170.92709 82.5246872,143.316184 C66.982698,116.396669 73.7224241,82.7408218 97.0303161,63.7802265 L97.8183582,63.1507958 L97.8183582,63.1507958 L98.2877901,62.8075746 C101.27365,60.6771213 105.421242,61.3705656 107.551695,64.3564259 C107.692997,64.5544622 107.823257,64.7600379 107.941913,64.9722079 L108.111124,65.2952908 L108.111124,65.2952908 L116.317895,82.1352657 C117.620583,84.8109074 117.041655,88.0102259 114.912996,90.0597225 L114.708904,90.2484431 L114.708904,90.2484431 L114.062615,90.8349569 L113.512876,91.3553269 C112.874086,91.9723797 112.244771,92.6240049 111.629878,93.3073823 L111.106474,93.9008447 C110.93326,94.1012137 110.761338,94.3041089 110.590825,94.5094646 L110.083625,95.1328473 C102.961394,104.066809 98.5907567,117.326201 105.828232,129.861876 C113.986942,143.993176 130.325936,145.808831 142.214113,142.681155 L142.951215,142.479305 C143.073061,142.444613 143.194396,142.409401 143.315205,142.373678 L143.758123,142.238689 L143.758123,142.238689 L144.11937,142.111207 C144.169092,142.092992 144.222009,142.073427 144.27812,142.052512 C147.288445,140.930445 150.675328,142.022864 152.462685,144.692404 Z" id="主色" fill="#000000"></path>
    </g>
</svg>