<?xml version="1.0" encoding="UTF-8"?>
<svg width="240px" height="240px" viewBox="0 0 240 240" version="1.1" xmlns="http://www.w3.org/2000/svg" xmlns:xlink="http://www.w3.org/1999/xlink">
    <title>com_vivo_vhome_b_s5_1x1_mc</title>
    <g id="com_vivo_vhome" stroke="none" stroke-width="1" fill="none" fill-rule="evenodd">
        <path d="M170.472641,127.905764 C174.377884,124.000521 176.106838,117.119427 172.201595,113.214184 C169.606002,110.618591 165.859209,108.112661 162.398878,109.0902 L160.503849,109.45149 C155.23727,111.114316 151.17366,109.851954 149.510834,104.585375 C147.848008,99.3187958 148.964246,94.9140619 154.230825,93.251236 L154.554625,92.2099401 L154.575273,92.2039017 C164.995484,89.1605359 176.372783,91.9474074 184.212901,99.7875257 C195.92863,111.503254 195.92863,130.498204 184.212901,142.213933 C172.497173,153.929661 153.502223,153.929661 141.786495,142.213933 L105.556349,105.443651 C96.9648148,96.8521164 83.0351852,96.8521164 74.4436508,105.443651 C68.9654223,110.921879 66.980282,118.570435 68.4882299,125.621581 L68.4844731,125.604873 C68.7751167,126.968874 68.9723136,128.196207 69.7181325,130.048603 C71.166646,133.646288 73.6563634,138.123605 75.7144089,140.18165 C81.4420985,145.90934 95.3122106,149.187329 117.324745,150.015618 C119.753282,149.525666 120.781599,149.509334 120.409695,149.966623 L120.366227,150.015618 L120.366227,150.015618 L120.354673,150.027698 C120.138633,150.253466 119.919896,150.477074 119.698485,150.698485 C103.296465,167.100505 76.7035354,167.100505 60.3015152,150.698485 C43.8994949,134.296465 43.8994949,107.703535 60.3015152,91.3015152 C76.3771352,75.2258951 102.242102,74.9059903 118.707338,90.3418007 L119.203387,90.8143752 L119.698485,91.3015152 L155.928932,128.071068 L156.129269,128.267003 C159.652525,131.601781 165.007161,131.885574 168.842121,129.118382 L168.775576,129.166609 C169.229638,128.84403 170.065278,128.313127 170.472641,127.905764 Z" id="主色" fill="#000000"></path>
    </g>
</svg>