<?xml version="1.0" encoding="UTF-8"?>
<svg width="240px" height="564px" viewBox="0 0 240 564" version="1.1" xmlns="http://www.w3.org/2000/svg" xmlns:xlink="http://www.w3.org/1999/xlink">
    <title>com_vivo_moodcube_b_s5_1x2_mc</title>
    <defs>
        <path d="M68.5045265,1.20838652 L123.504527,33.0052615 C126.286585,34.6136391 128,37.5833523 128,40.796875 L128,104.411539 C128,107.625062 126.286585,110.594775 123.504527,112.203153 L68.5045265,144.000028 C65.7176171,145.61121 62.2823829,145.61121 59.4954735,144.000028 L4.49547346,112.203153 C1.71341491,110.594775 0,107.625062 0,104.411539 L0,40.796875 C0,37.5833523 1.71341491,34.6136391 4.49547346,33.0052615 L59.4954735,1.20838652 C62.2823829,-0.402795507 65.7176171,-0.402795507 68.5045265,1.20838652 Z" id="path-1"></path>
    </defs>
    <g id="com_vivo_moodcube" stroke="none" stroke-width="1" fill="none" fill-rule="evenodd">
        <g id="主色" transform="translate(56.000000, 209.395793)">
            <mask id="mask-2" fill="white">
                <use xlink:href="#path-1"></use>
            </mask>
            <g id="蒙版"></g>
            <g id="编组" mask="url(#mask-2)" fill="#000000">
                <g transform="translate(-0.133333, 17.114878)">
                    <polygon id="路径-14" fill-rule="evenodd" opacity="0.85" points="96.2474535 37.4061962 32.0666667 0.00120442708 0 18.4125921 0 92.6606133 64.1807868 129.825828 95.7948819 111.559381 96.2 110.94863"></polygon>
                    <polygon id="路径-14" fill-rule="evenodd" opacity="0.300000012" points="64.3488434 55.4893295 5.68434189e-14 18.723553 5.68434189e-14 92.2711024 64.1807868 129.48933"></polygon>
                    <polygon id="路径-27" fill-opacity="0.8" fill-rule="evenodd" points="85.1433311 43.4013165 32.1963594 12.5679831 11.1 24.6559962 11.1 86.1667541 64.3488434 116.666287 85.1433311 104.912074"></polygon>
                    <path d="M85.143,43.6574162 L85.1433311,104.912074 L64.3488434,116.666287 L64.261,116.615416 L85.1040968,104.547088 L85.143,43.6574162 Z M11.1,25.0874162 L64.1333333,55.4893295 L67.112,53.8114162 L64.2414719,55.4893295 L64.174,116.565416 L11.1,86.1667541 L11.1,25.0874162 Z" id="形状结合" fill-rule="evenodd"></path>
                    <polygon id="路径" fill-rule="nonzero" opacity="0.70219494" points="85.1433311 43.2754549 85.1040968 104.547088 64.1746162 116.666287 64.2414719 55.4893295"></polygon>
                    <path d="M96.1333333,37.4893295 L96.1333333,110.98933 L67.1343392,127.754373 C66.1780749,128.307213 64.954704,127.980174 64.4018637,127.023909 C64.2259533,126.719632 64.1333333,126.374371 64.1333333,126.022903 L64.1333333,55.4893295 L64.1333333,55.4893295 L96.1333333,37.4893295 Z" id="路径-2" fill-rule="evenodd" opacity="0.5"></path>
                    <path d="M96.133,56.4888586 L128.133333,75.4893295 L128.133333,92.4893295 L96.1333333,110.98933 L96.133,56.4888586 Z" id="形状结合" fill-rule="evenodd" opacity="0.85"></path>
                </g>
            </g>
        </g>
    </g>
</svg>