<?xml version="1.0" encoding="UTF-8"?>
<svg width="564px" height="564px" viewBox="0 0 564 564" version="1.1" xmlns="http://www.w3.org/2000/svg" xmlns:xlink="http://www.w3.org/1999/xlink">
    <title>com_vivo_upslide_b_s5_2x2_mc</title>
    <defs>
        <path d="M61.5332448,-2.48601674e-15 L460.466755,2.48601674e-15 C481.863205,-1.44444732e-15 489.622075,2.22781467 497.444297,6.41118489 C505.266519,10.5945551 511.405445,16.7334809 515.588815,24.5557031 C519.772185,32.3779253 522,40.136795 522,61.5332448 L522,460.466755 C522,481.863205 519.772185,489.622075 515.588815,497.444297 C511.405445,505.266519 505.266519,511.405445 497.444297,515.588815 C489.622075,519.772185 481.863205,522 460.466755,522 L61.5332448,522 C40.136795,522 32.3779253,519.772185 24.5557031,515.588815 C16.7334809,511.405445 10.5945551,505.266519 6.41118489,497.444297 C2.22781467,489.622075 9.62964878e-16,481.863205 -1.65734449e-15,460.466755 L1.65734449e-15,61.5332448 C-9.62964878e-16,40.136795 2.22781467,32.3779253 6.41118489,24.5557031 C10.5945551,16.7334809 16.7334809,10.5945551 24.5557031,6.41118489 C32.3779253,2.22781467 40.136795,1.44444732e-15 61.5332448,-2.48601674e-15 Z" id="path-1"></path>
    </defs>
    <g id="com_vivo_upslide" stroke="none" stroke-width="1" fill="none" fill-rule="evenodd">
        <g id="主色" transform="translate(21.000000, 21.000000)">
            <mask id="mask-2" fill="white">
                <use xlink:href="#path-1"></use>
            </mask>
            <g id="蒙版"></g>
            <g id="编组备份-3" mask="url(#mask-2)" fill="#000000" fill-rule="nonzero">
                <g transform="translate(134.223928, 158.828773)" id="路径">
                    <path d="M60.28998,19.2905537 L49.1645219,0 L28.2422354,12.0924606 L27.0983646,12.7719018 C10.2622585,23.054683 0,41.3417458 0,61.060324 L0,85.0019349 L22.256658,85.0019349 L22.256658,61.060324 L22.2759656,59.8918375 L22.3089199,59.1377039 C22.405657,57.3786348 22.6410922,55.6245619 23.0108443,53.8957495 L23.1274041,53.3774996 L23.7647994,53.7902274 C24.3271731,54.146595 24.8973783,54.4918639 25.4751434,54.8257951 L235.691836,176.325173 L235.691836,423.490904 L235.038399,423.25943 C233.200597,422.584698 231.417074,421.750518 229.706778,420.762018 L208.356547,408.422218 L197.231089,427.712772 L218.575576,440.049251 L219.851903,440.764772 C237.149667,450.156607 258.046254,449.88604 275.065793,440.049251 L296.367392,427.73756 L285.241933,408.447006 L263.934591,420.762018 L262.882093,421.346599 L262.215167,421.693185 C260.872758,422.371653 259.479793,422.96161 258.050386,423.457936 L257.948527,423.490904 L257.947338,176.323984 L468.166212,54.825803 L469.027739,54.3160768 C469.312975,54.1433625 469.59626,53.9678523 469.877561,53.7895748 L470.511769,53.3774996 L470.594297,53.7337364 C471.117708,56.1286439 471.384711,58.5833898 471.384711,61.060324 L471.384711,85.4831871 L493.641369,85.4831871 L493.641369,61.060324 L493.625523,59.7290218 C493.148018,39.9931023 482.459033,21.9525761 465.399134,12.0924606 L445.338696,0.498123303 L434.213238,19.788677 L454.267932,31.3796944 L455.269012,31.9806067 L455.895134,32.3799752 C456.724861,32.9223808 457.533828,33.5041761 458.317884,34.1221576 L458.739311,34.4621069 L458.301403,34.7589088 C457.887303,35.0300184 457.465056,35.2900153 457.035023,35.5385612 L246.820776,157.030331 L36.6062961,35.5385325 L35.7373889,35.0148653 L35.1574581,34.6400894 L34.8986735,34.4621069 L35.4699817,34.008708 C36.7050321,33.0471752 38.0085451,32.1685618 39.3734375,31.3796944 L60.28998,19.2905537 Z"></path>
                </g>
            </g>
        </g>
    </g>
</svg>