<?xml version="1.0" encoding="UTF-8"?>
<svg width="564px" height="564px" viewBox="0 0 564 564" version="1.1" xmlns="http://www.w3.org/2000/svg" xmlns:xlink="http://www.w3.org/1999/xlink">
    <title>com_vivo_minigamecenter_b_s5_2x2_sc</title>
    <defs>
        <path d="M61.5332448,-2.48601674e-15 L460.466755,2.48601674e-15 C481.863205,-1.44444732e-15 489.622075,2.22781467 497.444297,6.41118489 C505.266519,10.5945551 511.405445,16.7334809 515.588815,24.5557031 C519.772185,32.3779253 522,40.136795 522,61.5332448 L522,460.466755 C522,481.863205 519.772185,489.622075 515.588815,497.444297 C511.405445,505.266519 505.266519,511.405445 497.444297,515.588815 C489.622075,519.772185 481.863205,522 460.466755,522 L61.5332448,522 C40.136795,522 32.3779253,519.772185 24.5557031,515.588815 C16.7334809,511.405445 10.5945551,505.266519 6.41118489,497.444297 C2.22781467,489.622075 9.62964878e-16,481.863205 -1.65734449e-15,460.466755 L1.65734449e-15,61.5332448 C-9.62964878e-16,40.136795 2.22781467,32.3779253 6.41118489,24.5557031 C10.5945551,16.7334809 16.7334809,10.5945551 24.5557031,6.41118489 C32.3779253,2.22781467 40.136795,1.44444732e-15 61.5332448,-2.48601674e-15 Z" id="path-1"></path>
        <path d="M435.673015,128.546242 C436.237255,129.243021 436.651173,130.049043 436.888723,130.913589 L446.481523,165.825958 C447.381351,169.100823 450.312236,171.405574 453.706936,171.507781 L495.828793,172.775987 C499.415395,172.883973 502.235371,175.879028 502.127386,179.46563 C502.117654,179.788845 502.083807,180.110881 502.026126,180.429056 L494.508992,221.894124 C493.903168,225.235892 495.548189,228.581915 498.564406,230.142962 L530.719401,246.784826 C533.906124,248.43412 535.152458,252.354486 533.503164,255.54121 C533.091057,256.337474 532.518603,257.039824 531.821824,257.604065 L441.645046,330.627779 C424.050456,344.875598 398.237084,342.162503 383.989266,324.567913 L331.630709,259.910159 C340.718464,254.611288 348.639643,247.016095 354.440127,237.362468 L354.440127,237.362468 L358.042,231.368 L415.613619,302.462762 C420.70892,308.754934 429.887264,309.79342 436.253638,304.853524 L436.500241,304.658034 L478.086658,270.982017 C478.845845,270.36724 479.394321,269.530926 479.655641,268.589635 C480.328139,266.167264 478.972952,263.660999 476.612417,262.878971 L476.388203,262.810762 L449.861968,255.446558 L410.570406,208.528395 L407.505057,179.984863 C407.408541,179.086137 407.054606,178.234388 406.485767,177.531931 C404.899544,175.573107 402.061482,175.225035 400.053525,176.706533 L399.883496,176.838004 L382.205,191.153 L414.587,137.261 L426.535117,127.58581 C429.323694,125.327666 433.41487,125.757666 435.673015,128.546242 Z M433.34248,268.12468 C438.989972,270.292549 441.810763,276.628151 439.642894,282.275643 C437.475025,287.923135 431.139424,290.743926 425.491932,288.576057 C419.84444,286.408188 417.023648,280.072587 419.191517,274.425095 C421.359386,268.777603 427.694988,265.956811 433.34248,268.12468 Z M394.473898,220.395766 C400.12139,222.563635 402.942181,228.899237 400.774312,234.546728 C398.606443,240.19422 392.270841,243.015012 386.62335,240.847143 C380.975858,238.679274 378.155066,232.343672 380.322935,226.69618 C382.490804,221.048688 388.826406,218.227897 394.473898,220.395766 Z M83.8949508,1.50182694 C84.1288722,1.70320549 84.3474333,1.92176652 84.5488118,2.15568793 L110.792822,32.6407415 C112.907888,35.097604 116.378227,35.887299 119.348132,34.5875499 L151.009404,20.7313109 C154.147197,19.3580871 157.804099,20.7885533 159.177323,23.9263465 C159.520449,24.7103842 159.697585,25.5569548 159.697585,26.4127882 L159.697,48.856 L137.342,86.06 L137.342118,74.3110058 C137.342118,73.3785186 137.0512,72.4692619 136.50991,71.7099612 C135.116924,69.7559339 132.443642,69.2556896 130.445508,70.5370083 L130.260221,70.6623613 L108.862594,85.9162956 L50.4546804,86.879167 L27.4390837,72.0065816 C26.7144115,71.5383013 25.8699515,71.2891996 25.0071443,71.2891996 C22.6031437,71.2891996 20.6413112,73.1823463 20.5311689,75.5591178 L20.5262918,75.7700521 L20.5262918,125.390375 C20.5262918,133.114851 26.7047239,139.396276 34.3893446,139.562407 L34.7016969,139.56578 L119.556168,139.565624 C120.639923,152.909938 125.766804,165.797943 134.456828,176.304526 L39.8683269,176.304288 C17.849658,176.304288 1.82703156e-12,158.45463 1.8189894e-12,136.435961 L1.8189894e-12,26.4127882 C1.81616071e-12,22.9876619 2.77661346,20.2110484 6.20173974,20.2110484 C7.05757315,20.2110484 7.90414369,20.3881847 8.68818143,20.7313109 L40.3494533,34.5875499 C43.3193579,35.887299 46.789697,35.097604 48.9047638,32.6407415 L75.1487735,2.15568793 C77.3834049,-0.440060968 81.2992019,-0.732804504 83.8949508,1.50182694 Z M113.191948,108.453726 C116.079105,113.45443 114.365738,119.848805 109.365034,122.735962 C104.36433,125.62312 97.9699554,123.909752 95.0827978,118.909049 C92.1956402,113.908345 93.9090078,107.51397 98.9097115,104.626812 C103.910415,101.739655 110.30479,103.453022 113.191948,108.453726 Z M59.6901615,108.353425 C62.5773191,113.354128 60.8639515,119.748503 55.8632478,122.635661 C50.8625441,125.522819 44.4681691,123.809451 41.5810115,118.808747 C38.6938538,113.808044 40.4072215,107.413669 45.4079252,104.526511 C50.4086289,101.639353 56.8030039,103.352721 59.6901615,108.353425 Z" id="path-3"></path>
        <linearGradient x1="-188.727779%" y1="100%" x2="388.994539%" y2="100%" id="linearGradient-5">
            <stop stop-color="#00EDFF" offset="0%"></stop>
            <stop stop-color="#7B00E3" offset="100%"></stop>
        </linearGradient>
        <path d="M104.721102,25.030524 L94.7549127,25.030524 C89.152401,25.030524 88.6543016,20.5117705 88.6543016,19.1311067 C88.6543016,17.7504429 89.152401,13.2316894 94.7549127,13.2316894 L104.721102,13.2316894 C110.323614,13.2316894 110.821934,17.7504429 110.821934,19.1311067 C110.821934,20.5117705 110.323614,25.030524 104.721102,25.030524 M104.721102,8.2624309 L94.7549127,8.2624309 C84.3974543,8.2624309 83.476236,16.5875268 83.476236,19.1311067 C83.476236,21.6749041 84.3974543,30 94.7549127,30 L104.721102,30 C115.078782,30 116,21.6749041 116,19.1311067 C116,16.5875268 115.078782,8.2624309 104.721102,8.2624309 M81.4761636,8.7720605 L78.246038,8.7720605 C76.8625516,8.7720605 76.5774494,9.00438269 76.0435188,9.78292305 C75.5102517,10.5616809 66.2708627,24.4344479 66.2708627,24.4344479 C65.9760286,24.8610245 65.6635,25.0335259 65.2744428,25.0335259 C64.8856068,25.0335259 64.5730782,24.8610245 64.2782441,24.4344479 C64.2782441,24.4344479 55.0386339,10.5616809 54.5051456,9.78292305 C53.971215,9.00438269 53.6865552,8.7720605 52.3030688,8.7720605 L49.072722,8.7720605 C48.329333,8.7720605 47.9891568,9.3437297 48.456512,10.0417839 C48.9238672,10.7398381 59.4916686,26.5212145 59.4916686,26.5212145 C61.204051,28.9984477 62.4608008,29.9999565 65.2744428,29.9999565 C68.0880848,29.9999565 69.3450558,28.9984477 71.0576593,26.5212145 C71.0576593,26.5212145 81.6252395,10.7398381 82.0923735,10.0417839 C82.5597288,9.3437297 82.2197737,8.7720605 81.4761636,8.7720605 M38.5731107,10.1182458 C38.5731107,9.15415219 38.9617255,8.77216927 39.941778,8.77216927 L42.3833937,8.77216927 C43.363225,8.77216927 43.7518399,9.15415219 43.7518399,10.1182458 L43.7518399,28.6537712 C43.7518399,29.6178648 43.363225,29.9998477 42.3833937,29.9998477 L39.941778,29.9998477 C38.9617255,29.9998477 38.5731107,29.6178648 38.5731107,28.6537712 L38.5731107,10.1182458 Z M38.3506248,4.44514679 C37.554816,3.66269088 37.554816,3.04229493 38.3506248,2.2596215 L40.0510634,0.58703227 C40.8470934,-0.195641165 41.4781225,-0.195641165 42.273489,0.58681474 L43.9743699,2.2596215 C44.7697364,3.04229493 44.7697364,3.66269088 43.9743699,4.44514679 L42.273489,6.11773601 C41.4781225,6.90040945 40.8470934,6.90040945 40.0510634,6.11773601 L38.3506248,4.44514679 Z M33.2524497,8.7720605 L30.0223241,8.7720605 C28.6386165,8.7720605 28.3537355,9.00438269 27.8200261,9.78292305 C27.2865378,10.5616809 18.0467064,24.4344479 18.0467064,24.4344479 C17.7520935,24.8610245 17.4395649,25.0335259 17.0505077,25.0335259 C16.6614506,25.0335259 16.3491431,24.8610245 16.054309,24.4344479 C16.054309,24.4344479 6.81469885,10.5616809 6.28121056,9.78292305 C5.74772228,9.00438269 5.46239894,8.7720605 4.07891252,8.7720605 L0.848786914,8.7720605 C0.0184738812,8.7720605 -0.23499941,9.3437297 0.232576975,10.0417839 C0.69993218,10.7398381 11.2675124,26.5212145 11.2675124,26.5212145 C12.9798948,28.9984477 14.2368657,29.9999565 17.0505077,29.9999565 C19.8641497,29.9999565 21.1211207,28.9984477 22.8337243,26.5212145 C22.8337243,26.5212145 33.4013045,10.7398381 33.8686597,10.0417839 C34.3357937,9.3437297 34.0825416,8.7720605 33.2524497,8.7720605" id="path-6"></path>
        <linearGradient x1="-188.727779%" y1="100%" x2="388.994539%" y2="100%" id="linearGradient-7">
            <stop stop-color="#4E4E4E" offset="0%"></stop>
            <stop stop-color="#4E4E4E" offset="100%"></stop>
        </linearGradient>
    </defs>
    <g id="com_vivo_minigamecenter" stroke="none" stroke-width="1" fill="none" fill-rule="evenodd">
        <g id="铺色" transform="translate(21.000000, 21.000000)">
            <mask id="mask-2" fill="white">
                <use xlink:href="#path-1"></use>
            </mask>
            <g id="矩形备份-20"></g>
            <g id="编组-2" mask="url(#mask-2)">
                <g transform="translate(-206.436817, 38.423361)">
                    <path d="M502.686817,219.051639 C514.367639,219.051639 523.836817,209.582462 523.836817,197.901639 C523.836817,186.220817 514.367639,176.751639 502.686817,176.751639 C491.005994,176.751639 481.536817,186.220817 481.536817,197.901639 C481.536817,209.582462 491.005994,219.051639 502.686817,219.051639 Z" id="椭圆形备份-35" fill="#4E4E4E" fill-rule="nonzero" opacity="0.800000012"></path>
                    <path d="M325.261817,190.851639 C346.027723,190.851639 362.861817,174.017546 362.861817,153.251639 C362.861817,132.485733 346.027723,115.651639 325.261817,115.651639 C304.49591,115.651639 287.661817,132.485733 287.661817,153.251639 C287.661817,174.017546 304.49591,190.851639 325.261817,190.851639 Z" id="椭圆形备份-36" fill="#4E4E4E" fill-rule="nonzero" opacity="0.699999988"></path>
                    <path d="M626.471268,165.891537 C639.44996,165.891537 649.971268,155.370228 649.971268,142.391537 C649.971268,129.412845 639.44996,118.891537 626.471268,118.891537 C613.492576,118.891537 602.971268,129.412845 602.971268,142.391537 C602.971268,155.370228 613.492576,165.891537 626.471268,165.891537 Z" id="椭圆形备份-38" fill="#4E4E4E" fill-rule="nonzero" opacity="0.7" transform="translate(626.471268, 142.391537) rotate(-345.000000) translate(-626.471268, -142.391537) "></path>
                    <g id="编组-3" stroke-width="1" fill="none" fill-rule="evenodd">
                        <g id="粉色icon" opacity="0.96" transform="translate(414.497405, 421.502226) rotate(-53.000000) translate(-414.497405, -421.502226) translate(98.227210, 140.821931)">
                            <g id="编组备份" transform="translate(316.270194, 280.680295) rotate(30.000000) translate(-316.270194, -280.680295) translate(49.154443, 110.797958)">
                                <mask id="mask-4" fill="white">
                                    <use xlink:href="#path-3"></use>
                                </mask>
                                <use id="形状结合" fill="#4E4E4E" opacity="0.900000036" xlink:href="#path-3"></use>
                            </g>
                        </g>
                        <g id="紫色icon" opacity="0.9" transform="translate(588.211583, 416.658234) rotate(-2.000000) translate(-588.211583, -416.658234) translate(469.592659, 294.855347)">
                            <g id="编组备份" transform="translate(118.618924, 121.802887) rotate(30.000000) translate(-118.618924, -121.802887) translate(34.967808, 29.453022)"></g>
                        </g>
                    </g>
                    <g id="Group-2备份-5" stroke-width="1" fill="none" fill-rule="evenodd" transform="translate(536.621084, 11.326639)">
                        <g id="形状结合">
                            <use fill="url(#linearGradient-7)" xlink:href="#path-6"></use>
                            <use fill="#4E4E4E" xlink:href="#path-6"></use>
                        </g>
                    </g>
                    <path d="M670.711817,317.751639 C686.286246,317.751639 698.911817,305.126069 698.911817,289.551639 C698.911817,273.977209 686.286246,261.351639 670.711817,261.351639 C655.137387,261.351639 642.511817,273.977209 642.511817,289.551639 C642.511817,305.126069 655.137387,317.751639 670.711817,317.751639 Z" id="椭圆形备份-39" fill="#4E4E4E" fill-rule="nonzero"></path>
                </g>
            </g>
        </g>
    </g>
</svg>