<?xml version="1.0" encoding="UTF-8"?>
<svg width="564px" height="240px" viewBox="0 0 564 240" version="1.1" xmlns="http://www.w3.org/2000/svg" xmlns:xlink="http://www.w3.org/1999/xlink">
    <title>com_android_camera_packet_camerapacketactivity_b_s5_2x1_mc</title>
    <defs>
        <path d="M76.0614936,4.01658631 L137.472597,114.402803 C139.569234,118.1715 138.209506,122.923928 134.435559,125.017649 C133.274273,125.66191 131.967725,126 130.639262,126 L7.81705477,126 C3.49981463,126 0,122.505054 0,118.193819 C0,116.867204 0.338560556,115.562474 0.983719464,114.402803 L62.3948229,4.01658631 C64.4914601,0.247889279 69.2505088,-1.10994742 73.0244556,0.983773148 C74.3005122,1.69170728 75.3525733,2.74230487 76.0614936,4.01658631 Z" id="path-1"></path>
    </defs>
    <g id="com_android_camera_packet_camerapacketactivity" stroke="none" stroke-width="1" fill="none" fill-rule="evenodd">
        <g id="主色" transform="translate(212.762593, 52.000000)">
            <mask id="mask-2" fill="white">
                <use xlink:href="#path-1"></use>
            </mask>
            <g id="三角形"></g>
            <path d="M69.2281582,89.5518825 L139.63367,123.892331 L139.335771,123.921171 L138.60403,123.999291 C137.030654,124.180846 131.967725,126 130.639262,126 L7.81705477,126 C5.1545869,126 2.80300744,124.67078 1.3914694,122.640618 L69.2281582,89.5518825 Z" id="路径" fill="#000000" opacity="0.7" mask="url(#mask-2)"></path>
            <polygon id="路径-22" fill="#000000" mask="url(#mask-2)" points="-5.85417024 126.173471 69.2281582 89.5518825 69.2281582 -8.26630698"></polygon>
            <polygon id="路径-21" fill="#000000" opacity="0.82" mask="url(#mask-2)" points="69.2281582 -8.26630698 69.2281582 89.5518825 144.310487 126.173471"></polygon>
        </g>
    </g>
</svg>