<?xml version="1.0" encoding="UTF-8"?>
<svg width="564px" height="240px" viewBox="0 0 564 240" version="1.1" xmlns="http://www.w3.org/2000/svg" xmlns:xlink="http://www.w3.org/1999/xlink">
    <title>com_bbk_appstore_b_s5_2x1_mc</title>
    <g id="com_bbk_appstore" stroke="none" stroke-width="1" fill="none" fill-rule="evenodd">
        <g id="主色" transform="translate(232.000000, 65.000000)" fill="#000000">
            <path d="M29.0403453,19.8 C29.0403453,31.4642539 38.4960913,40.92 50.1603453,40.92 C61.685739,40.92 71.0548955,31.6880506 71.2763372,20.2156293 L71.2803453,19.8 L71.2803453,3.96 C71.2803453,1.77295239 73.0532977,-4.86424292e-16 75.2403453,0 L96.3603453,0 C98.5473929,7.36819983e-15 100.320345,1.77295239 100.320345,3.96 L100.320345,19.8 L100.320345,19.8 C100.320345,47.5026031 77.8629483,69.96 50.1603453,69.96 C22.4577422,69.96 0,47.5026031 0,19.8 L0,3.96 C1.76253124e-16,1.77295239 1.77295239,-9.30513501e-16 3.96,0 L25.0803453,0 C27.2673929,-8.45843338e-16 29.0403453,1.77295239 29.0403453,3.96 L29.0403453,19.8 L29.0403453,19.8 Z" id="路径"></path>
        </g>
    </g>
</svg>