<?xml version="1.0" encoding="UTF-8"?>
<svg width="564px" height="564px" viewBox="0 0 564 564" version="1.1" xmlns="http://www.w3.org/2000/svg" xmlns:xlink="http://www.w3.org/1999/xlink">
    <title>com_vivo_compass_b_s5_2x2_mc</title>
    <g id="com_vivo_compass" stroke="none" stroke-width="1" fill="none" fill-rule="evenodd">
        <g id="主色" transform="translate(166.762626, 165.758821)" fill="#000000">
            <g id="编组">
                <path d="M231.474747,116.741179 C231.474747,180.661165 179.65736,232.478552 115.737374,232.478552 C85.9393074,232.478552 58.7713969,221.217517 38.257165,202.718969 L70.8593774,185.018948 C83.7391582,193.501781 99.1617908,198.438148 115.737374,198.438148 C160.857364,198.438148 197.434343,161.861169 197.434343,116.741179 C197.434343,100.10152 192.459738,84.623742 183.916608,71.7139285 L201.512173,39.0364479 C220.131299,59.576772 231.474747,86.834273 231.474747,116.741179 Z M91.908935,3.45939808 L91.908935,38.5738166 C58.4126052,48.7717896 34.040404,79.9102678 34.040404,116.741179 C34.040404,132.902929 38.7333613,147.96858 46.8308997,160.649755 L29.0416455,193.417772 C10.9700817,173.000174 0,146.151776 0,116.741179 C0,60.9893478 39.4203457,14.4446321 91.908935,3.45939808 Z M139.567518,3.45975388 C159.668393,7.66691028 177.852478,17.0890141 192.640015,30.2460487 L159.795244,47.9302637 C153.577917,43.9412039 146.784504,40.771724 139.567518,38.5743357 L139.567518,3.45975388 Z" id="形状" opacity="0.100000001"></path>
                <path d="M97.432405,31.6991846 L217.291042,67.6569504 C219.992112,68.4672713 221.524866,71.3138156 220.714546,74.0148852 C220.221331,75.6589335 218.935091,76.945174 217.291042,77.4383885 L97.432405,113.396154 L97.432405,31.6991846 Z" id="路径" transform="translate(159.181818, 72.547669) rotate(-45.000000) translate(-159.181818, -72.547669) "></path>
            </g>
            <polygon id="路径" fill-rule="nonzero" opacity="0.129999995" points="108.924591 1.00380483 122.846364 22.1663763 122.930995 22.1663763 122.930995 1.00380483 131.055556 1.00380483 131.055556 35.0442089 122.550156 35.0442089 108.586068 13.8816374 108.501437 13.8816374 108.501437 35.0442089 100.419192 35.0442089 100.419192 1.00380483"></polygon>
        </g>
    </g>
</svg>