<?xml version="1.0" encoding="UTF-8"?>
<svg width="564px" height="564px" viewBox="0 0 564 564" version="1.1" xmlns="http://www.w3.org/2000/svg" xmlns:xlink="http://www.w3.org/1999/xlink">
    <title>com_vivo_translator_b_s5_2x2_sc</title>
    <g id="com_vivo_translator" stroke="none" stroke-width="1" fill="none" fill-rule="evenodd">
        <g id="辅色" transform="translate(272.287879, 178.136941)" fill="#4E4E4E" fill-rule="nonzero">
            <path d="M59.9750869,10.9835723 L44.560105,25.2502158 C42.8197912,26.8608851 41.8304196,29.124628 41.8304196,31.4959036 L41.8382821,31.8650541 C42.0315675,36.3937957 45.7642058,40.0060046 50.3405206,40.0060046 L70.5010808,40.0045691 L70.1640827,39.953375 C86.0190811,42.2458078 97.9845945,55.7620545 98.2706186,71.8843267 L98.2758578,72.4753131 C98.2758578,78.1876195 102.906597,82.8183588 108.618904,82.8183588 C114.33121,82.8183588 118.961949,78.1876195 118.961949,72.4753131 L118.955853,71.661008 C118.574271,46.1884511 100.320002,24.7402552 75.785766,19.9310844 L75.2735455,19.8339277 L73.9708551,15.008945 C73.6121774,13.6811124 72.9361964,12.4591104 72.0011902,11.4488445 C68.8087548,7.99944638 63.424485,7.79113692 59.9750869,10.9835723 Z" id="路径" transform="translate(80.396184, 45.768739) rotate(-345.000000) translate(-80.396184, -45.768739) "></path>
            <path d="M24.8434163,194.57013 L31.9804088,176.097533 L71.943893,176.097533 L78.8562169,194.57013 L103.823232,194.57013 L65.7547138,97.5549782 L39.1809103,97.5549782 L0,194.57013 L24.8434163,194.57013 Z M64.6767677,155.423665 L37.4444444,155.423665 L51.1396519,124.787301 L51.4162624,124.787301 L64.6767677,155.423665 Z" id="A"></path>
        </g>
    </g>
</svg>