<?xml version="1.0" encoding="UTF-8"?>
<svg width="564px" height="564px" viewBox="0 0 564 564" version="1.1" xmlns="http://www.w3.org/2000/svg" xmlns:xlink="http://www.w3.org/1999/xlink">
    <title>com_vivo_newsreader_b_s5_2x2_sc</title>
    <g id="com_vivo_newsreader" stroke="none" stroke-width="1" fill="none" fill-rule="evenodd">
        <g id="辅色" transform="translate(233.141414, 172.046423)" fill="#4E4E4E">
            <path d="M5.46407364e-12,158.857998 C5.46407364e-12,159.33566 0.0251347509,159.812991 0.0753000025,160.288012 C0.865071813,167.766451 7.56775861,173.188685 15.04617,172.39891 L15.04617,172.39891 L86.5310185,164.849589 C93.4589104,164.117953 98.7171717,158.275121 98.7171717,151.308677 L98.7171717,151.308677 L98.7171717,22.9528381 C98.7172468,11.2724773 89.4279781,1.71007504 77.7525179,1.37176264 C76.6167195,1.33884197 75.4807241,1.31141751 74.3445316,1.28948926 C68.7215623,1.18096725 63.0926269,1.23884162 57.4577254,1.46311235 L68.1615612,0.340109184 L69.3747699,0.255478868 L70.6757301,0.177017189 L72.0568844,0.10849839 L73.5106754,0.0536967162 L75.029546,0.0163864097 C81.7414077,-0.101941937 90.0734763,0.378711094 97.2585114,2.84034765 C108.770417,6.7843962 119.886341,11.3411577 129.459145,18.3932946 C140.300863,26.3802205 146.373737,37.0753341 146.373737,51.5192291 L146.373737,51.5192291 L146.373737,178.379434 C146.373737,196.342196 132.756467,211.392485 114.851385,213.219054 L114.851385,213.219054 L44.166,219.725 L20.0026575,221.412746 C19.5690982,221.443021 19.1346151,221.458173 18.7,221.458173 C8.48453306,221.458173 0.182237014,213.266915 0.00295924828,203.094245 L0,202.758173 Z" id="形状结合"></path>
        </g>
    </g>
</svg>