<?xml version="1.0" encoding="UTF-8"?>
<svg width="240px" height="240px" viewBox="0 0 240 240" version="1.1" xmlns="http://www.w3.org/2000/svg" xmlns:xlink="http://www.w3.org/1999/xlink">
    <title>com_vivo_health_b_s5_1x1_mc</title>
    <g id="com_vivo_health" stroke="none" stroke-width="1" fill="none" fill-rule="evenodd">
        <g id="主色" transform="translate(30.904546, 52.845671)" fill="#000000">
            <path d="M72.1248917,9.12489168 C93.6639969,9.12489168 111.124892,26.5857864 111.124892,48.1248917 L111.124892,96.1248917 C111.124892,117.663997 93.6639969,135.124892 72.1248917,135.124892 C50.5857864,135.124892 33.1248917,117.663997 33.1248917,96.1248917 L33.1248917,48.1248917 C33.1248917,26.5857864 50.5857864,9.12489168 72.1248917,9.12489168 Z M72.1248917,36.1248917 C65.5994349,36.1248917 60.2904989,41.3334361 60.1286915,47.8199169 L60.1248917,48.1248917 L60.1248917,96.1248917 C60.1248917,102.752309 65.4974747,108.124892 72.1248917,108.124892 C78.6503484,108.124892 83.9592844,102.916347 84.1210918,96.4298665 L84.1248917,96.1248917 L84.1248917,48.1248917 C84.1248917,41.4974747 78.7523087,36.1248917 72.1248917,36.1248917 Z" id="矩形" fill-opacity="0.95" fill-rule="nonzero" transform="translate(72.124892, 72.124892) rotate(-45.000000) translate(-72.124892, -72.124892) "></path>
            <g id="编组-14" transform="translate(89.095454, 89.095454) rotate(-45.000000) translate(-89.095454, -89.095454) translate(50.095454, 50.095454)">
                <path d="M78,0 L78,39 C78,60.5391052 60.5391052,78 39,78 C17.4608948,78 2.72848411e-12,60.5391052 2.72848411e-12,39 L-9.09494702e-13,-1.15729123e-14 L27,0 L27,39 C27,45.627417 32.372583,51 39,51 C45.5254567,51 50.8343928,45.7914556 50.9962001,39.3049748 L51,39 L51,0 L78,0 Z" id="形状结合"></path>
            </g>
        </g>
    </g>
</svg>