<?xml version="1.0" encoding="UTF-8"?>
<svg width="240px" height="240px" viewBox="0 0 240 240" version="1.1" xmlns="http://www.w3.org/2000/svg" xmlns:xlink="http://www.w3.org/1999/xlink">
    <title>com_android_settings_b_s5_1x1_mc</title>
    <g id="com_android_settings" stroke="none" stroke-width="1" fill="none" fill-rule="evenodd">
        <g id="主色" transform="translate(52.000000, 48.000000)" fill="#000000">
            <path d="M21.9643167,21.551216 C23.729299,15.3252946 30.2072064,11.708989 36.4331278,13.4739713 L36.4331278,13.4739713 L45.0532363,15.9176802 C60.0548516,20.1704782 75.9432123,20.1704782 90.9448277,15.9176802 L90.9448277,15.9176802 L99.5649361,13.4739713 C100.457982,13.2208024 101.377948,13.0746492 102.305484,13.0385856 C108.771863,12.7871662 114.217714,17.8253859 114.469133,24.2917642 L114.469133,24.2917642 L114.822073,33.3691904 C115.429639,48.9954874 120.336323,64.1512974 129.002149,77.168738 L129.002149,77.168738 L134.040752,84.7375161 C134.545139,85.495186 134.959526,86.3090465 135.275529,87.1626346 C137.522212,93.2313804 134.423817,99.9723673 128.355071,102.21905 L128.355071,102.21905 L119.882313,105.355711 C105.254953,110.77084 92.4144365,120.13372 82.7862868,132.404906 L82.7862868,132.404906 L77.2174522,139.50245 C76.6375952,140.241484 75.9709715,140.908108 75.2319372,141.487965 C70.1407443,145.482588 62.775235,144.593643 58.7806118,139.50245 L58.7806118,139.50245 L53.2117772,132.404906 C43.5836274,120.13372 30.7431111,110.77084 16.1157507,105.355711 L16.1157507,105.355711 L7.6429925,102.21905 C6.78940439,101.903047 5.97554386,101.488661 5.21787395,100.984273 C-0.16892336,97.3982343 -1.62872653,90.1243134 1.95731231,84.7375161 L1.95731231,84.7375161 L6.99591513,77.168738 C15.661741,64.1512974 20.568425,48.9954874 21.1759914,33.3691904 L21.1759914,33.3691904 L21.5289309,24.2917642 C21.5649945,23.3642274 21.7111477,22.4442617 21.9643167,21.551216 Z M67.999032,48.4695646 C55.1113984,48.4695646 44.6639071,58.9613524 44.6639071,71.9036284 C44.6639071,84.8459044 55.1113984,95.3376922 67.999032,95.3376922 C80.8866656,95.3376922 91.3341569,84.8459044 91.3341569,71.9036284 C91.3341569,58.9613524 80.8866656,48.4695646 67.999032,48.4695646 Z M67.999032,60.1865965 C74.4428488,60.1865965 79.6665944,65.4324904 79.6665944,71.9036284 C79.6665944,78.3747664 74.4428488,83.6206603 67.999032,83.6206603 C61.5552152,83.6206603 56.3314695,78.3747664 56.3314695,71.9036284 C56.3314695,65.4324904 61.5552152,60.1865965 67.999032,60.1865965 Z" id="形状结合" opacity="0.699999988"></path>
            <path d="M75.2319372,2.51203525 C75.9709715,3.09189219 76.6375952,3.75851595 77.2174522,4.49755024 L82.7862868,11.5950935 C92.4144365,23.8662802 105.254953,33.2291598 119.882313,38.6442885 L128.355071,41.7809499 C134.423817,44.0276327 137.522212,50.7686196 135.275529,56.8373654 C134.959526,57.6909535 134.545139,58.504814 134.040752,59.2624839 L129.002149,66.831262 C120.336323,79.8487026 115.429639,95.0045126 114.822073,110.63081 L114.469133,119.708236 C114.217714,126.174614 108.771863,131.212834 102.305484,130.961414 C101.377948,130.925351 100.457982,130.779198 99.5649361,130.526029 L90.9448277,128.08232 C75.9432123,123.829522 60.0548516,123.829522 45.0532363,128.08232 L36.4331278,130.526029 C30.2072064,132.291011 23.729299,128.674705 21.9643167,122.448784 C21.7111477,121.555738 21.5649945,120.635773 21.5289309,119.708236 L21.1759914,110.63081 C20.568425,95.0045126 15.661741,79.8487026 6.99591513,66.831262 L1.95731231,59.2624839 C-1.62872653,53.8756866 -0.16892336,46.6017657 5.21787395,43.0157269 C5.97554386,42.5113393 6.78940439,42.0969528 7.6429925,41.7809499 L16.1157507,38.6442885 C30.7431111,33.2291598 43.5836274,23.8662802 53.2117772,11.5950935 L58.7806118,4.49755024 C62.775235,-0.593642648 70.1407443,-1.48258799 75.2319372,2.51203525 Z M67.999032,48.4695646 C55.1113984,48.4695646 44.6639071,58.9613524 44.6639071,71.9036284 C44.6639071,84.8459044 55.1113984,95.3376922 67.999032,95.3376922 C80.8866656,95.3376922 91.3341569,84.8459044 91.3341569,71.9036284 C91.3341569,58.9613524 80.8866656,48.4695646 67.999032,48.4695646 Z M67.999032,60.1865965 C74.4428488,60.1865965 79.6665944,65.4324904 79.6665944,71.9036284 C79.6665944,78.3747664 74.4428488,83.6206603 67.999032,83.6206603 C61.5552152,83.6206603 56.3314695,78.3747664 56.3314695,71.9036284 C56.3314695,65.4324904 61.5552152,60.1865965 67.999032,60.1865965 Z" id="形状结合" opacity="0.7"></path>
            <path d="M48.7134447,16.867003 C61.3965123,19.8540373 74.6015517,19.8540373 87.2846193,16.867003 C95.0809368,25.2794458 104.515992,32.0194931 115.014328,36.6677734 C115.983099,49.1051263 119.67764,61.1676289 125.821809,72.0005128 C119.677805,82.8320807 115.983297,94.8942268 115.014554,107.33258 C104.515992,111.980507 95.0809368,118.720554 87.2843527,127.132958 C74.6012185,124.145884 61.3958184,124.145963 48.712445,127.133232 C40.9171272,118.720554 31.4820716,111.980507 20.9837357,107.332227 C20.0147673,94.8942268 16.320259,82.8320807 10.1762549,71.9994872 C16.3204237,61.1676289 20.0149654,49.1051263 20.9835876,36.6664194 C31.3876676,32.0612918 40.7473558,25.4004935 48.502987,17.093576 Z" id="形状结合"></path>
        </g>
    </g>
</svg>