<?xml version="1.0" encoding="UTF-8"?>
<svg width="564px" height="240px" viewBox="0 0 564 240" version="1.1" xmlns="http://www.w3.org/2000/svg" xmlns:xlink="http://www.w3.org/1999/xlink">
    <title>com_bbk_theme_b_s5_2x1_mc</title>
    <g id="com_bbk_theme" stroke="none" stroke-width="1" fill="none" fill-rule="evenodd">
        <g id="主色" transform="translate(236.000000, 112.000000)" fill="#000000">
            <path d="M90,0 L90,8.00478579 C89.9984042,16.840714 82.8886051,24.003898 74.1176471,24.0063933 L58.4369046,24.0079804 C56.2440093,24.0082023 54.466495,25.7992432 54.4667153,28.0083822 L54.4680237,28.1106609 L54.4680237,28.1106609 L56.2943288,64.0071436 C56.614698,70.2996016 51.8108711,75.6622811 45.5646811,75.9850234 C45.3714799,75.9950062 45.1780565,76 44.9846014,76 C38.7302009,76 33.6600075,70.8922496 33.6600075,64.5915202 C33.6600075,64.3966321 33.6649646,64.2017759 33.674874,64.0071436 L35.497275,28.212872 C35.6096017,26.0066331 33.9253013,24.1263898 31.7352847,24.013231 L31.5322985,24.00798 L31.5322985,24.00798 L15.8823529,24.0063947 C7.11139543,24.0038972 0.00159713238,16.8407135 0,8.00478579 L0,0 L90,0 Z" id="路径"></path>
        </g>
    </g>
</svg>