<?xml version="1.0" encoding="UTF-8"?>
<svg width="564px" height="564px" viewBox="0 0 564 564" version="1.1" xmlns="http://www.w3.org/2000/svg" xmlns:xlink="http://www.w3.org/1999/xlink">
    <title>com_android_bbkcalculator_b_s5_2x2_mc</title>
    <g id="com_android_bbkcalculator" stroke="none" stroke-width="1" fill="none" fill-rule="evenodd">
        <g id="主色" transform="translate(158.252525, 158.251431)" fill="#000000">
            <path d="M194.030303,248.495879 C224.110297,248.495879 248.494949,224.111135 248.494949,194.031028 C248.494949,163.950922 224.110297,139.566178 194.030303,139.566178 C163.950309,139.566178 139.565657,163.950922 139.565657,194.031028 C139.565657,224.111135 163.950309,248.495879 194.030303,248.495879 Z" id="椭圆形备份-19"></path>
            <path d="M78.197434,176.844322 C78.7332731,177.380161 78.8717893,177.630261 78.9629184,177.930922 C79.0540475,178.231582 79.0540475,178.539061 78.9629184,178.839721 C78.8717893,179.140382 78.7332731,179.390482 78.197434,179.926321 L64.0926889,194.030466 L78.1973755,208.135641 C78.7332146,208.67148 78.8717308,208.921581 78.9628599,209.222241 C79.053989,209.522901 79.053989,209.83038 78.9628599,210.131041 C78.8717308,210.431701 78.7332146,210.681801 78.1973755,211.21764 L71.6512583,217.763757 C71.1154192,218.299597 70.865319,218.438113 70.5646586,218.529242 C70.2639982,218.620371 69.9565195,218.620371 69.655859,218.529242 C69.3551986,218.438113 69.1050984,218.299597 68.5692593,217.763757 L54.464723,203.658432 L40.3599391,217.763816 C39.8241,218.299655 39.5739999,218.438171 39.2733394,218.5293 C38.972679,218.620429 38.6652003,218.620429 38.3645398,218.5293 C38.0638794,218.438171 37.8137792,218.299655 37.2779401,217.763816 L30.7318589,211.217735 C30.1960198,210.681896 30.0575036,210.431795 29.9663745,210.131135 C29.8752454,209.830475 29.8752454,209.522996 29.9663745,209.222335 C30.0575036,208.921675 30.1960198,208.671575 30.7318589,208.135736 L44.836757,194.030466 L30.7319174,179.926416 C30.1960783,179.390576 30.0575621,179.140476 29.966433,178.839816 C29.8753039,178.539155 29.8753039,178.231677 29.966433,177.931016 C30.0575621,177.630356 30.1960783,177.380256 30.7319174,176.844417 L37.2780346,170.298299 C37.8138737,169.76246 38.0639739,169.623944 38.3646343,169.532815 C38.6652948,169.441686 38.9727735,169.441686 39.2734339,169.532815 C39.5740943,169.623944 39.8241945,169.76246 40.3600336,170.298299 L54.464723,184.4025 L68.5693538,170.298241 C69.1051929,169.762402 69.3552931,169.623886 69.6559535,169.532756 C69.9566139,169.441627 70.2640927,169.441627 70.5647531,169.532756 C70.8654135,169.623886 71.1155137,169.762402 71.6513528,170.298241 L78.197434,176.844322 Z M220.785344,61.2729563 L167.275262,61.2729563 C166.517471,61.2729563 166.242678,61.1940546 165.965641,61.0458935 C165.688604,60.8977325 165.471183,60.6803122 165.323022,60.4032752 C165.174861,60.1262382 165.09596,59.8514449 165.09596,59.0936539 L165.09596,49.8360462 C165.09596,49.0782553 165.174861,48.803462 165.323022,48.526425 C165.471183,48.2493879 165.688604,48.0319676 165.965641,47.8838066 C166.242678,47.7356456 166.517471,47.6567438 167.275262,47.6567438 L220.785344,47.6567438 C221.543135,47.6567438 221.817928,47.7356456 222.094965,47.8838066 C222.372002,48.0319676 222.589423,48.2493879 222.737584,48.526425 C222.885745,48.803462 222.964646,49.0782553 222.964646,49.8360462 L222.964646,59.0936539 C222.964646,59.8514449 222.885745,60.1262382 222.737584,60.4032752 C222.589423,60.6803122 222.372002,60.8977325 222.094965,61.0458935 C221.817928,61.1940546 221.543135,61.2729563 220.785344,61.2729563 Z M59.0934249,25.5303985 C59.8512158,25.5303985 60.1260091,25.6093002 60.4030461,25.7574613 C60.6800832,25.9056223 60.8975034,26.1230426 61.0456645,26.4000796 C61.1938255,26.6771167 61.2727273,26.95191 61.2727273,27.7097009 L61.272303,47.6563985 L81.2196875,47.6567438 C81.9774784,47.6567438 82.2522717,47.7356456 82.5293087,47.8838066 C82.8063458,48.0319676 83.0237661,48.2493879 83.1719271,48.526425 C83.3200881,48.803462 83.3989899,49.0782553 83.3989899,49.8360462 L83.3989899,59.0936539 C83.3989899,59.8514449 83.3200881,60.1262382 83.1719271,60.4032752 C83.0237661,60.6803122 82.8063458,60.8977325 82.5293087,61.0458935 C82.2522717,61.1940546 81.9774784,61.2729563 81.2196875,61.2729563 L61.272303,61.2723985 L61.2727273,81.2199993 C61.2727273,81.9777902 61.1938255,82.2525835 61.0456645,82.5296205 C60.8975034,82.8066576 60.6800832,83.0240779 60.4030461,83.1722389 C60.1260091,83.3203999 59.8512158,83.3993017 59.0934249,83.3993017 L49.8358681,83.3993017 C49.0780771,83.3993017 48.8032838,83.3203999 48.5262468,83.1722389 C48.2492098,83.0240779 48.0317895,82.8066576 47.8836285,82.5296205 C47.7354674,82.2525835 47.6565657,81.9777902 47.6565657,81.2199993 L47.656303,61.2723985 L27.7096055,61.2729563 C26.9518145,61.2729563 26.6770212,61.1940546 26.3999842,61.0458935 C26.1229471,60.8977325 25.9055269,60.6803122 25.7573658,60.4032752 C25.6092048,60.1262382 25.530303,59.8514449 25.530303,59.0936539 L25.530303,49.8360462 C25.530303,49.0782553 25.6092048,48.803462 25.7573658,48.526425 C25.9055269,48.2493879 26.1229471,48.0319676 26.3999842,47.8838066 C26.6770212,47.7356456 26.9518145,47.6567438 27.7096055,47.6567438 L47.656303,47.6563985 L47.6565657,27.7097009 C47.6565657,26.95191 47.7354674,26.6771167 47.8836285,26.4000796 C48.0317895,26.1230426 48.2492098,25.9056223 48.5262468,25.7574613 C48.8032838,25.6093002 49.0780771,25.5303985 49.8358681,25.5303985 L59.0934249,25.5303985 Z" id="形状结合"></path>
            <path d="M54.4646465,139.566178 C84.5446401,139.566178 108.929293,163.950922 108.929293,194.031028 C108.929293,224.111135 84.5446401,248.495879 54.4646465,248.495879 C24.3846528,248.495879 0,224.111135 0,194.031028 C0,163.950922 24.3846528,139.566178 54.4646465,139.566178 Z M39.2739559,169.533663 C38.9729382,169.442425 38.6650941,169.442425 38.3640763,169.533663 C38.1006858,169.613496 37.8760515,169.729653 37.4646115,170.116843 L30.7337667,176.842503 C30.1972908,177.378981 30.05861,177.629379 29.9673726,177.930398 C29.8761352,178.231417 29.8761352,178.539262 29.9673726,178.840281 C30.0472053,179.103673 30.1633619,179.328308 30.5505506,179.739749 L30.7337667,179.928176 L44.8377698,194.029825 L30.7337667,208.133881 C30.1972908,208.670359 30.05861,208.920757 29.9673726,209.221776 C29.8761352,209.522795 29.8761352,209.83064 29.9673726,210.131659 C30.0472053,210.39505 30.1633619,210.619685 30.5505506,211.031127 L37.2761853,217.761997 C37.8126612,218.298475 38.0630586,218.437156 38.3640763,218.528394 C38.6650941,218.619632 38.9729382,218.619632 39.2739559,218.528394 C39.5373464,218.448561 39.7619807,218.332404 40.1734208,217.945214 L40.3618469,217.761997 L54.4646465,203.659145 L68.567446,217.761997 C69.1039219,218.298475 69.3543193,218.437156 69.655337,218.528394 C69.9563548,218.619632 70.2641989,218.619632 70.5652166,218.528394 C70.8286071,218.448561 71.0532414,218.332404 71.4646814,217.945214 L78.1955262,211.219554 C78.7320021,210.683076 78.870683,210.432678 78.9619204,210.131659 C79.0531577,209.83064 79.0531577,209.522795 78.9619204,209.221776 C78.8820876,208.958384 78.765931,208.733749 78.3787423,208.322308 L78.1955262,208.133881 L64.0927267,194.031028 L78.1955262,179.928176 C78.7320021,179.391698 78.870683,179.1413 78.9619204,178.840281 C79.0531577,178.539262 79.0531577,178.231417 78.9619204,177.930398 C78.8820876,177.667007 78.765931,177.442371 78.3787423,177.03093 L71.6531076,170.30006 C71.1166317,169.763582 70.8662343,169.624901 70.5652166,169.533663 C70.2641989,169.442425 69.9563548,169.442425 69.655337,169.533663 C69.3919465,169.613496 69.1673122,169.729653 68.7558722,170.116843 L68.567446,170.30006 L54.46585,184.401709 L40.3618469,170.30006 C39.825371,169.763582 39.5749736,169.624901 39.2739559,169.533663 Z M54.4646465,0 C84.5446401,0 108.929293,24.384744 108.929293,54.4648501 C108.929293,84.5449562 84.5446401,108.9297 54.4646465,108.9297 C24.3846528,108.9297 0,84.5449562 0,54.4648501 C0,24.384744 24.3846528,0 54.4646465,0 Z M194.030303,0 C224.110297,0 248.494949,24.384744 248.494949,54.4648501 C248.494949,84.5449562 224.110297,108.9297 194.030303,108.9297 C163.950309,108.9297 139.565657,84.5449562 139.565657,54.4648501 C139.565657,24.384744 163.950309,0 194.030303,0 Z M59.0908351,25.5303985 L49.8384579,25.5303985 C49.0797664,25.5303985 48.8046466,25.6093943 48.5272803,25.757732 C48.249914,25.9060696 48.0322354,26.1237491 47.8838983,26.4011164 C47.7541033,26.6438128 47.677398,26.8847892 47.6602497,27.4495071 L47.6565657,27.7122988 L47.6565657,47.6550418 L27.7121952,47.6567438 C26.9535038,47.6567438 26.6783839,47.7357397 26.4010177,47.8840773 C26.1236514,48.032415 25.9059728,48.2500944 25.7576357,48.5274617 C25.6278407,48.7701581 25.5511354,49.0111346 25.5339871,49.5758525 L25.530303,49.8386442 L25.530303,59.091056 C25.530303,59.8497503 25.6092986,60.1248712 25.7576357,60.4022384 C25.9059728,60.6796057 26.1236514,60.8972852 26.4010177,61.0456229 C26.6437131,61.1754183 26.8846887,61.2521239 27.4494045,61.2692723 L27.7121952,61.2729563 L47.6565657,61.2712543 L47.6565657,81.2174013 C47.6565657,81.9760956 47.7355612,82.2512165 47.8838983,82.5285838 C48.0322354,82.8059511 48.249914,83.0236306 48.5272803,83.1719682 C48.7699758,83.3017637 49.0109513,83.3784693 49.5756671,83.3956176 L49.8384579,83.3993017 L59.0908351,83.3993017 C59.8495265,83.3993017 60.1246464,83.3203059 60.4020126,83.1719682 C60.6793789,83.0236306 60.8970575,82.8059511 61.0453946,82.5285838 C61.1751896,82.2858874 61.2518949,82.0449109 61.2690432,81.4801931 L61.2727273,81.2174013 L61.2727273,61.2729563 L81.2170977,61.2729563 C81.9757891,61.2729563 82.250909,61.1939605 82.5282753,61.0456229 C82.8056415,60.8972852 83.0233202,60.6796057 83.1716573,60.4022384 C83.3014522,60.1595421 83.3781576,59.9185656 83.3953058,59.3538477 L83.3989899,59.091056 L83.3989899,49.8386442 C83.3989899,49.0799499 83.3199944,48.804829 83.1716573,48.5274617 C83.0233202,48.2500944 82.8056415,48.032415 82.5282753,47.8840773 C82.2855798,47.7542819 82.0446042,47.6775762 81.4798884,47.6604279 L81.2170977,47.6567438 L61.2727273,47.6567438 L61.2727273,27.7122988 C61.2727273,26.9536045 61.1937317,26.6784837 61.0453946,26.4011164 C60.8970575,26.1237491 60.6793789,25.9060696 60.4020126,25.757732 C60.1593172,25.6279365 59.9183416,25.5512309 59.3536258,25.5340826 L59.0908351,25.5303985 Z M220.782754,47.6567438 L167.277852,47.6567438 C166.51916,47.6567438 166.24404,47.7357397 165.966674,47.8840773 C165.689308,48.032415 165.471629,48.2500944 165.323292,48.5274617 C165.193497,48.7701581 165.116792,49.0111346 165.099644,49.5758525 L165.09596,49.8386442 L165.09596,59.091056 C165.09596,59.8497503 165.174955,60.1248712 165.323292,60.4022384 C165.471629,60.6796057 165.689308,60.8972852 165.966674,61.0456229 C166.20937,61.1754183 166.450345,61.2521239 167.015061,61.2692723 L167.277852,61.2729563 L220.782754,61.2729563 C221.541446,61.2729563 221.816566,61.1939605 222.093932,61.0456229 C222.371298,60.8972852 222.588977,60.6796057 222.737314,60.4022384 C222.867109,60.1595421 222.943814,59.9185656 222.960962,59.3538477 L222.964646,59.091056 L222.964646,49.8386442 C222.964646,49.0799499 222.885651,48.804829 222.737314,48.5274617 C222.588977,48.2500944 222.371298,48.032415 222.093932,47.8840773 C221.851236,47.7542819 221.610261,47.6775762 221.045545,47.6604279 L220.782754,47.6567438 Z" id="形状" opacity="0.05"></path>
        </g>
    </g>
</svg>