<?xml version="1.0" encoding="UTF-8"?>
<svg width="564px" height="564px" viewBox="0 0 564 564" version="1.1" xmlns="http://www.w3.org/2000/svg" xmlns:xlink="http://www.w3.org/1999/xlink">
    <title>com_chaozh_ireader_b_s5_2x2_sc</title>
    <g id="com_chaozh_ireader" stroke="none" stroke-width="1" fill="none" fill-rule="evenodd">
        <g id="辅色" transform="translate(174.421717, 190.590909)" fill="#4E4E4E">
            <path d="M15.3181818,0 L71.7511272,0.0644381085 L71.7511272,0.0644381085 L73.2786692,0.0800631581 C73.5264753,0.0838167556 73.7709389,0.0881441362 74.0121347,0.0930439079 L75.4206937,0.129300093 L75.4206937,0.129300093 L76.7544091,0.17922684 C76.9706571,0.188683465 77.1839358,0.198706913 77.39432,0.209295791 L78.6224875,0.279603086 C78.8215919,0.292448117 79.0179511,0.305855794 79.2116397,0.319824724 L80.3423203,0.410362216 C80.5256248,0.426570594 80.706408,0.443337441 80.8847444,0.460661365 L81.9259992,0.571278701 L81.9259992,0.571278701 L82.9121152,0.695199072 C83.072072,0.716957341 83.2298807,0.739267119 83.3856158,0.762127013 L84.2957411,0.905876642 C84.8866992,1.00609581 85.4468693,1.1150723 85.9810282,1.23271701 L86.7633554,1.41567409 L86.7633554,1.41567409 L87.5102486,1.61156669 L87.5102486,1.61156669 L88.2252905,1.82032797 C88.5754458,1.92791464 88.9150003,2.04030201 89.2459693,2.15745249 L89.8970573,2.39809313 L89.8970573,2.39809313 L90.5288334,2.65136857 C90.6327191,2.69463033 90.7359494,2.73841576 90.838599,2.78272346 L91.4481249,3.05482581 L91.4481249,3.05482581 L92.0472956,3.3393959 L92.0472956,3.3393959 L92.6396939,3.63636692 L92.6396939,3.63636692 L93.2289024,3.94567204 L93.2289024,3.94567204 C97.9393656,6.46927116 101.635345,10.1693596 104.153709,14.8826239 L104.462359,15.4721758 L104.462359,15.4721758 L104.758672,16.0649037 L104.758672,16.0649037 L105.042576,16.6643902 C105.088855,16.7650669 105.134615,16.8661744 105.179853,16.9677875 L105.445011,17.5841294 L105.445011,17.5841294 L105.697585,18.2161865 L105.697585,18.2161865 L105.937502,18.8675414 L105.937502,18.8675414 L106.164692,19.5417768 C106.238293,19.7707334 106.309761,20.0041005 106.379084,20.2424752 L106.580607,20.9732193 C106.613118,21.0977128 106.64509,21.2236075 106.676521,21.350978 L106.858609,22.133508 C106.887872,22.2670803 106.916591,22.4022778 106.944765,22.5391749 L107.107258,23.3815517 C107.237198,24.1015249 107.353439,24.8677231 107.455795,25.6894763 L107.571946,26.7028436 L107.571946,26.7028436 L107.674698,27.7731262 C107.690703,27.9564486 107.706146,28.1422917 107.721027,28.3307303 L107.803546,29.4931033 L107.803546,29.4931033 L107.872489,30.7213481 L107.872489,30.7213481 L107.927784,32.0190474 L107.927784,32.0190474 L107.969361,33.3897838 L107.969361,33.3897838 L107.997148,34.8371399 L107.997148,34.8371399 L108.011904,36.3646983 L108.011904,36.3646983 L108.011904,185.520202 L105.547379,185.520202 L105.419942,185.251974 C101.218303,176.604223 92.3501561,170.643227 82.0897436,170.643227 L19.6370298,170.643227 L18.3686093,170.634372 L18.3686093,170.634372 L17.2018343,170.607902 L17.2018343,170.607902 L16.12966,170.563957 L16.12966,170.563957 L15.1450415,170.502676 C12.6298712,170.316271 10.9734845,169.946446 9.57471998,169.405149 L9.0610852,169.194148 C8.9771007,169.157649 8.893829,169.120486 8.81112333,169.082663 L8.32050758,168.847811 L8.32050758,168.847811 L7.83643177,168.597233 L7.83643177,168.597233 C5.34013547,167.262199 3.38102753,165.303091 2.04599366,162.806795 L1.79541615,162.322719 L1.79541615,162.322719 L1.56056425,161.832103 L1.56056425,161.832103 L1.34157795,161.327903 C1.23607453,161.071232 1.13657321,160.806826 1.04315273,160.53072 L0.864442905,159.961736 C0.523332158,158.787875 0.280354861,157.384563 0.140550744,155.498185 L0.079269782,154.513567 L0.079269782,154.513567 L0.0353243425,153.441392 C0.0294525068,153.255009 0.0243088176,153.064684 0.0198961913,152.87027 L0.00221652093,151.653553 L0.00221652093,151.653553 L0,15.3181818 C0,6.8581836 6.8581836,0 15.3181818,0 Z" id="路径"></path>
        </g>
    </g>
</svg>