<?xml version="1.0" encoding="UTF-8"?>
<svg width="240px" height="240px" viewBox="0 0 240 240" version="1.1" xmlns="http://www.w3.org/2000/svg" xmlns:xlink="http://www.w3.org/1999/xlink">
    <title>com_vivo_moodcube_b_s5_1x1_sc</title>
    <defs>
        <path d="M68.5045265,1.20838652 L123.504527,33.0052615 C126.286585,34.6136391 128,37.5833523 128,40.796875 L128,104.411539 C128,107.625062 126.286585,110.594775 123.504527,112.203153 L68.5045265,144.000028 C65.7176171,145.61121 62.2823829,145.61121 59.4954735,144.000028 L4.49547346,112.203153 C1.71341491,110.594775 0,107.625062 0,104.411539 L0,40.796875 C0,37.5833523 1.71341491,34.6136391 4.49547346,33.0052615 L59.4954735,1.20838652 C62.2823829,-0.402795507 65.7176171,-0.402795507 68.5045265,1.20838652 Z" id="path-1"></path>
    </defs>
    <g id="com_vivo_moodcube" stroke="none" stroke-width="1" fill="none" fill-rule="evenodd">
        <g id="辅色" transform="translate(56.000000, 47.395793)">
            <mask id="mask-2" fill="white">
                <use xlink:href="#path-1"></use>
            </mask>
            <g id="蒙版"></g>
            <g id="编组" mask="url(#mask-2)" fill="#4E4E4E">
                <g transform="translate(31.403160, -0.468541)">
                    <path d="M96.5966568,38.5234867 L96.5968404,89.5898353 C96.5968404,91.7434994 95.4425683,93.7319592 93.5724038,94.8000198 L93.5724038,94.8000198 L64.7109605,111.28294 L64.7109605,54.4245286 L95.856659,36.4986992 C96.2207915,37.1188256 96.4734624,37.8041556 96.5966568,38.5234867 Z" id="形状结合" fill-rule="evenodd" opacity="0.85"></path>
                    <path d="M29.5977078,0.802494175 C31.4537141,-0.267955011 33.7396853,-0.267467281 35.5952346,0.803773794 L35.5952346,0.803773794 L90.472,32.485 L90.4725663,32.4873143 L93.6827203,34.3406976 C94.6143613,34.8785808 95.3664766,35.6453917 95.8846182,36.5468235 L64.6872338,54.9896151 L7.10542736e-15,17.872933 Z" id="形状结合" fill-rule="evenodd" opacity="0.8"></path>
                    <path d="M64.6635071,54.9896151 L85.6301737,42.6216309 L35.0164753,14.6294859 C33.5051989,13.7936674 31.6695895,13.7969204 30.161285,14.6380902 L12.0066622,24.7627837 L12.0066622,24.7627837 L64.6635071,54.9896151 Z" id="路径" fill-rule="nonzero" opacity="0.800000012"></path>
                    <polygon id="路径" fill-rule="nonzero" points="64.6635071 97.5542899 85.6301737 86.3767256 85.6301737 42.6216309 64.700611 54.9896151"></polygon>
                </g>
            </g>
        </g>
    </g>
</svg>