<?xml version="1.0" encoding="UTF-8"?>
<svg width="564px" height="240px" viewBox="0 0 564 240" version="1.1" xmlns="http://www.w3.org/2000/svg" xmlns:xlink="http://www.w3.org/1999/xlink">
    <title>com_chaozh_ireader_b_s5_2x1_mc</title>
    <g id="com_chaozh_ireader" stroke="none" stroke-width="1" fill="none" fill-rule="evenodd">
        <g id="主色" transform="translate(281.960000, 66.000000)" fill="#000000">
            <path d="M54.4630769,0 C59.3448796,0 63.3188683,3.88681368 63.4592398,8.73463775 L63.4630769,9 L63.4630769,88.7217418 L63.4578746,89.4669859 C63.454411,89.7052172 63.4492224,89.9334951 63.4423226,90.1525095 L63.416503,90.7824517 L63.416503,90.7824517 L63.3804981,91.3609515 C63.298358,92.4692684 63.1555999,93.2937663 62.9551847,93.9834533 L62.850186,94.3177523 C62.795298,94.4799746 62.7368373,94.6353234 62.6748501,94.7861269 L62.5461875,95.0823634 L62.5461875,95.0823634 L62.4082033,95.3706184 L62.4082033,95.3706184 L62.2609798,95.6550309 L62.2609798,95.6550309 C61.4765978,97.1216975 60.3255493,98.2727461 58.8588826,99.057128 L58.5744701,99.2043516 L58.5744701,99.2043516 L58.2862151,99.3423358 C58.2376225,99.3645587 58.1886973,99.3863931 58.1393533,99.4078375 L57.8375738,99.5318084 C57.0157478,99.8498407 56.0425591,100.067126 54.5648033,100.176646 L53.9863034,100.212651 L53.9863034,100.212651 L53.3563612,100.238471 L53.3563612,100.238471 L52.6708376,100.254023 L52.6708376,100.254023 L51.9255935,100.259225 L15.2323077,100.259225 C9.14188783,100.259225 3.88640083,103.833998 1.44959923,109 L0,109 L0.00256329687,21.3656091 L0.00256329687,21.3656091 L0.0107463796,20.4681119 C0.0127899836,20.3225143 0.0151728883,20.1788801 0.017894227,20.0371655 L0.0382765339,19.2095617 L0.0382765339,19.2095617 L0.0667396571,18.4259223 C0.0721546012,18.2988625 0.0779045126,18.1735469 0.0839885248,18.0499315 L0.124494873,17.3282921 L0.124494873,17.3282921 L0.172978037,16.6453549 L0.172978037,16.6453549 L0.229396418,15.9990149 C0.239458438,15.8942244 0.249849359,15.7908711 0.260568315,15.6889111 L0.328811521,15.0935202 C0.400977268,14.5141476 0.484889842,13.9817775 0.580362041,13.4869376 L0.679680515,13.0042569 L0.679680515,13.0042569 L0.786663806,12.5444915 L0.786663806,12.5444915 L0.901270315,12.1055365 C0.960472441,11.8909107 1.02251767,11.6832994 1.08738261,11.4815187 L1.22086516,11.0853804 L1.22086516,11.0853804 L1.36182533,10.7026853 L1.36182533,10.7026853 L1.51022152,10.3313283 L1.51022152,10.3313283 L1.66601213,9.96920453 C1.69259112,9.90950307 1.71947648,9.85009863 1.74666734,9.79094735 L1.91347157,9.43872678 L1.91347157,9.43872678 L2.08756622,9.09047716 L2.08756622,9.09047716 L2.26890969,8.74409358 C3.74854179,5.97487598 5.92006686,3.80093677 8.68763872,2.31822867 L9.04135948,2.13263017 L9.04135948,2.13263017 L9.39708446,1.9545978 L9.39708446,1.9545978 L9.75705892,1.78417344 C9.81753352,1.75640571 9.87827874,1.72895672 9.93934135,1.70182735 L10.3098999,1.54289352 L10.3098999,1.54289352 L10.690321,1.3916724 C10.7546712,1.36711393 10.8195258,1.34287857 10.8849317,1.31896719 L11.2843566,1.17939364 C12.4369243,0.794990129 13.7758456,0.504721115 15.5309317,0.31287295 L16.1680283,0.249255491 L16.1680283,0.249255491 L16.8419305,0.193853268 L16.8419305,0.193853268 L17.5548836,0.146708157 L17.5548836,0.146708157 L18.3091329,0.107862038 L18.3091329,0.107862038 L19.1069235,0.0773567864 L19.1069235,0.0773567864 L19.9505008,0.055234281 L19.9505008,0.055234281 L20.8421101,0.0415363992 C20.994839,0.0399577974 21.1496628,0.0387319665 21.3066283,0.0378597789 L54.4630769,0 Z" id="路径"></path>
        </g>
    </g>
</svg>