<?xml version="1.0" encoding="UTF-8"?>
<svg width="564px" height="564px" viewBox="0 0 564 564" version="1.1" xmlns="http://www.w3.org/2000/svg" xmlns:xlink="http://www.w3.org/1999/xlink">
    <title>com_vivo_moodcube_b_s5_2x2_mc</title>
    <defs>
        <path d="M61.5332448,-2.48601674e-15 L460.466755,2.48601674e-15 C481.863205,-1.44444732e-15 489.622075,2.22781467 497.444297,6.41118489 C505.266519,10.5945551 511.405445,16.7334809 515.588815,24.5557031 C519.772185,32.3779253 522,40.136795 522,61.5332448 L522,460.466755 C522,481.863205 519.772185,489.622075 515.588815,497.444297 C511.405445,505.266519 505.266519,511.405445 497.444297,515.588815 C489.622075,519.772185 481.863205,522 460.466755,522 L61.5332448,522 C40.136795,522 32.3779253,519.772185 24.5557031,515.588815 C16.7334809,511.405445 10.5945551,505.266519 6.41118489,497.444297 C2.22781467,489.622075 9.62964878e-16,481.863205 -1.65734449e-15,460.466755 L1.65734449e-15,61.5332448 C-9.62964878e-16,40.136795 2.22781467,32.3779253 6.41118489,24.5557031 C10.5945551,16.7334809 16.7334809,10.5945551 24.5557031,6.41118489 C32.3779253,2.22781467 40.136795,1.44444732e-15 61.5332448,-2.48601674e-15 Z" id="path-1"></path>
        <path d="M255.191457,4.50146076 L460.076168,122.950635 C470.439828,128.942135 476.822601,140.00486 476.822601,151.97582 L476.822601,388.952077 C476.822601,400.923036 470.439828,411.985761 460.076168,417.977262 L255.191457,536.426435 C244.809727,542.428383 232.012873,542.428383 221.631144,536.426435 L16.7464324,417.977262 C6.38277309,411.985761 0,400.923036 0,388.952077 L0,151.97582 C0,140.00486 6.38277309,128.942135 16.7464324,122.950635 L221.631144,4.50146076 C232.012873,-1.50048692 244.809727,-1.50048692 255.191457,4.50146076 Z" id="path-3"></path>
    </defs>
    <g id="com_vivo_moodcube" stroke="none" stroke-width="1" fill="none" fill-rule="evenodd">
        <g id="编组" transform="translate(21.000000, 20.999831)">
            <mask id="mask-2" fill="white">
                <use xlink:href="#path-1"></use>
            </mask>
            <g id="背景"></g>
            <g id="主色" mask="url(#mask-2)">
                <g transform="translate(134.882054, 52.863807)">
                    <mask id="mask-4" fill="white">
                        <use xlink:href="#path-3"></use>
                    </mask>
                    <g id="蒙版" stroke="none" fill="none"></g>
                    <polygon id="路径-14" stroke="none" fill="#000000" fill-rule="evenodd" opacity="0.85" mask="url(#mask-4)" points="358.042068 203.10097 118.957305 63.7605354 -0.496690209 132.346321 -0.496690209 408.933777 238.588073 547.380998 356.356159 479.335142 357.865296 477.059982"></polygon>
                    <polygon id="路径-14" stroke="none" fill="#000000" fill-rule="evenodd" opacity="0.300000012" mask="url(#mask-4)" points="239.214113 270.463948 -0.496690209 133.504707 -0.496690209 407.482778 238.588073 546.12748"></polygon>
                    <polygon id="路径-27" stroke="none" fill-opacity="0.8" fill="#000000" fill-rule="evenodd" mask="url(#mask-4)" points="316.677252 225.433889 119.440433 110.574084 40.8527697 155.604143 40.8527697 384.742964 239.214113 498.359302 316.677252 454.57271"></polygon>
                    <path d="M316.67677,226.38969 L316.677252,454.57271 L239.214113,498.359302 L238.88777,498.17169 L316.531097,453.213069 L316.67577,226.39069 L316.67677,226.38969 Z M40.8527697,157.20969 L238.4113,270.463948 L249.51077,264.21269 L238.814136,270.463948 L238.56477,497.98769 L40.8527697,384.742964 L40.8527697,157.20969 Z" id="形状结合" stroke="none" fill="#000000" fill-rule="evenodd" mask="url(#mask-4)"></path>
                    <polygon id="路径" stroke="none" fill="#000000" fill-rule="nonzero" opacity="0.70219494" mask="url(#mask-4)" points="316.677252 224.965032 316.531097 453.213069 238.565086 498.359302 238.814136 270.463948"></polygon>
                    <path d="M357.61695,203.410657 L357.61695,477.211597 L249.593841,539.662563 C246.030551,541.722593 241.471948,540.503961 239.411918,536.94067 C238.756427,535.806851 238.4113,534.520316 238.4113,533.210655 L238.4113,270.463948 L238.4113,270.463948 L357.61695,203.410657 Z" id="路径-2" stroke="none" fill="#000000" fill-rule="evenodd" opacity="0.5" mask="url(#mask-4)"></path>
                    <path d="M357.616938,274.188645 L476.822601,344.967605 L476.822601,408.295714 L357.61695,477.211597 L357.616938,274.188645 Z" id="形状结合" stroke="none" fill="#000000" fill-rule="evenodd" opacity="0.85" mask="url(#mask-4)"></path>
                </g>
            </g>
        </g>
    </g>
</svg>