<?xml version="1.0" encoding="UTF-8"?>
<svg width="240px" height="564px" viewBox="0 0 240 564" version="1.1" xmlns="http://www.w3.org/2000/svg" xmlns:xlink="http://www.w3.org/1999/xlink">
    <title>com_vivo_translator_b_s5_1x2_mc</title>
    <g id="com_vivo_translator" stroke="none" stroke-width="1" fill="none" fill-rule="evenodd">
        <g id="主色" transform="translate(52.339694, 227.000000)" fill="#000000" fill-rule="nonzero">
            <path d="M14.3978939,68.5612054 L5.34102031,76.9433876 C4.31852137,77.8897156 3.73722885,79.2197485 3.73722885,80.6129608 L3.74184836,80.8298505 C3.85541074,83.4906541 6.04847415,85.6129608 8.73722885,85.6129608 L20.5803058,85.612 L20.3843069,85.582039 C29.6997065,86.9289283 36.7298895,94.8702246 36.8979393,104.342658 L36.9010175,104.689884 C36.9010175,108.046076 39.6217486,110.766807 42.9779405,110.766807 C46.3341324,110.766807 49.0548635,108.046076 49.0548635,104.689884 L49.0512818,104.211449 C48.8270883,89.2453775 38.1020278,76.6437668 23.6872543,73.8182006 L23.3863058,73.761 L22.6209269,70.9262611 C22.4101904,70.1461102 22.0130265,69.4281387 21.4636757,68.83457 C19.5880015,66.8079207 16.4245432,66.6855312 14.3978939,68.5612054 Z" id="路径" transform="translate(26.396046, 88.998781) scale(-1, -1) rotate(11.000000) translate(-26.396046, -88.998781) "></path>
            <path d="M48.6603058,62 L48.6603058,43 L61.6603058,43 L61.6603058,45 L72.6603058,45 L72.6603058,11 L48.6603058,11 L48.6603058,0 L38.6603058,0 L38.6603058,11 L14.6603058,11 L14.6603058,45 L25.6603058,45 L25.6603058,43 L38.6603058,43 L38.6603058,62 L48.6603058,62 Z M38.6603058,33 L25.6603058,33 L25.6603058,21 L38.6603058,21 L38.6603058,33 Z M61.6603058,33 L48.6603058,33 L48.6603058,21 L61.6603058,21 L61.6603058,33 Z" id="中"></path>
        </g>
    </g>
</svg>