<?xml version="1.0" encoding="UTF-8"?>
<svg width="564px" height="240px" viewBox="0 0 564 240" version="1.1" xmlns="http://www.w3.org/2000/svg" xmlns:xlink="http://www.w3.org/1999/xlink">
    <title>com_android_mms_b_s5_2x1_sc</title>
    <g id="com_android_mms" stroke="none" stroke-width="1" fill="none" fill-rule="evenodd">
        <g id="辅色" transform="translate(257.189331, 63.000000)" fill="#4E4E4E">
            <path d="M0,17.6700777 C0,11.5258067 0.639746178,9.29774559 1.84105576,7.05149197 C3.04236535,4.80523834 4.80523834,3.04236535 7.05149197,1.84105576 C9.29774559,0.639746178 11.5258067,1.12104772e-16 17.6700777,-1.92941852e-16 L17.6700777,-1.92941852e-16 L75.1405913,4.72711255e-15 C81.2848622,-2.74658852e-15 83.5129233,0.639746178 85.759177,1.84105576 C88.0054306,3.04236535 89.7683036,4.80523834 90.9696132,7.05149197 C92.1709227,9.29774559 92.8106689,11.5258067 92.8106689,17.6700777 L92.8106689,17.6700777 L92.8106689,86.3251924 L92.8059958,86.5009145 C92.7191517,88.129393 91.4327713,89.421845 89.8586187,89.421845 C89.1815528,89.421845 88.5250635,89.1777048 87.9991899,88.7303465 L87.9991899,88.7303465 L80.8031665,82.6079045 C77.9273189,80.2422851 74.3772945,78.7542262 70.5738451,78.1011773 L70.5738451,78.1011773 L17.6700777,78.1026241 L17.6700777,78.1026241 L49.621,78.101155 L49.6213379,46.2482327 C49.6213379,40.1039617 48.9815917,37.8759006 47.7802821,35.6296469 C46.5789725,33.3833933 44.8160995,31.6205203 42.5698459,30.4192107 C40.3235923,29.2179012 38.0955311,28.578155 31.9512602,28.578155 L31.9512602,28.578155 L0,28.578155 Z" id="形状结合"></path>
        </g>
    </g>
</svg>