<?xml version="1.0" encoding="UTF-8"?>
<svg width="564px" height="564px" viewBox="0 0 564 564" version="1.1" xmlns="http://www.w3.org/2000/svg" xmlns:xlink="http://www.w3.org/1999/xlink">
    <title>com_vivo_gallery_b_s5_2x2_mc</title>
    <g id="com_vivo_gallery" stroke="none" stroke-width="1" fill="none" fill-rule="evenodd">
        <g id="主色" transform="translate(149.946667, 179.016155)" fill="#000000">
            <g id="山">
                <path d="M133.342195,34.0599478 L203.558696,147.896217 C210.064956,158.444284 206.788424,172.269547 196.240357,178.775807 C192.699155,180.960092 188.620406,182.116842 184.459731,182.116842 L40.2069354,182.116842 C27.8136656,182.116842 17.7669354,172.070112 17.7669354,159.676842 C17.7669354,155.516168 18.9236858,151.437419 21.1079707,147.896217 L91.3244721,34.0599478 C98.4813581,22.4570742 113.689148,18.852889 125.292022,26.009775 C128.566021,28.0292435 131.322726,30.7859487 133.342195,34.0599478 Z"></path>
            </g>
            <path d="M159.64465,76.7045335 L162.585617,77.2942215 L203.533514,143.672024 L203.533514,147.85539 C206.65772,152.92041 207.528927,158.740183 206.424517,164.144289 L134.764519,164.144289 C124.838121,164.144289 116.791185,156.096476 116.791185,146.170041 C116.791185,142.609373 117.848781,139.128935 119.829811,136.170243 L159.64465,76.7045335 Z" id="路径"></path>
            <path d="M203.87139,142.804545 C209.394105,151.052787 208.679539,153.110003 209.388316,155.799314 C210.097093,158.488624 210.097093,159.638811 208.928516,161.992781 L206.424517,164.144289 C207.488023,158.940335 204.925163,155.564796 202.077009,150.635079 L202.077009,148.618532 L198.283969,144.179118 L203.87139,142.804545 Z" id="路径"></path>
        </g>
    </g>
</svg>