<?xml version="1.0" encoding="UTF-8"?>
<svg width="564px" height="564px" viewBox="0 0 564 564" version="1.1" xmlns="http://www.w3.org/2000/svg" xmlns:xlink="http://www.w3.org/1999/xlink">
    <title>com_iqoo_secure_b_s5_2x2_sc</title>
    <g id="com_iqoo_secure" stroke="none" stroke-width="1" fill="none" fill-rule="evenodd">
        <g id="辅色" transform="translate(180.378788, 200.372628)" fill="#4E4E4E" fill-rule="nonzero">
            <path d="M102.121212,0 L102.121212,64.1798518 C102.121212,107.054394 78.9490953,146.60992 41.4728673,167.708468 L0,191.056665 L0,165.664226 L30.6181178,148.427755 L31.5211198,147.913043 C61.206561,130.782733 79.6203692,99.353593 79.9892996,65.2253189 L79.9892996,65.2253189 L79.9949495,64.1798518 L79.9949495,13.4202209 L0,61.7665636 L102.121212,0 Z" id="形状结合" opacity="0.800000012" transform="translate(51.060606, 95.528333) scale(-1, 1) translate(-51.060606, -95.528333) "></path>
            <path d="M102.121212,13.4202209 L102.121212,64.1798518 L102.115562,65.2253189 C101.746632,99.353593 83.3328237,130.782733 53.6473825,147.913043 L52.7443805,148.427755 L22.1262626,165.664226 L22.1262626,61.7665636 L102.121212,13.4202209 Z" id="路径" transform="translate(62.123737, 89.542223) scale(-1, 1) translate(-62.123737, -89.542223) "></path>
        </g>
    </g>
</svg>