<?xml version="1.0" encoding="UTF-8"?>
<svg width="564px" height="564px" viewBox="0 0 564 564" version="1.1" xmlns="http://www.w3.org/2000/svg" xmlns:xlink="http://www.w3.org/1999/xlink">
    <title>com_vivo_game_b_s5_2x2_mc</title>
    <defs>
        <path d="M61.5332448,-2.48601674e-15 L460.466755,2.48601674e-15 C481.863205,-1.44444732e-15 489.622075,2.22781467 497.444297,6.41118489 C505.266519,10.5945551 511.405445,16.7334809 515.588815,24.5557031 C519.772185,32.3779253 522,40.136795 522,61.5332448 L522,460.466755 C522,481.863205 519.772185,489.622075 515.588815,497.444297 C511.405445,505.266519 505.266519,511.405445 497.444297,515.588815 C489.622075,519.772185 481.863205,522 460.466755,522 L61.5332448,522 C40.136795,522 32.3779253,519.772185 24.5557031,515.588815 C16.7334809,511.405445 10.5945551,505.266519 6.41118489,497.444297 C2.22781467,489.622075 9.62964878e-16,481.863205 -1.65734449e-15,460.466755 L1.65734449e-15,61.5332448 C-9.62964878e-16,40.136795 2.22781467,32.3779253 6.41118489,24.5557031 C10.5945551,16.7334809 16.7334809,10.5945551 24.5557031,6.41118489 C32.3779253,2.22781467 40.136795,1.44444732e-15 61.5332448,-2.48601674e-15 Z" id="path-1"></path>
    </defs>
    <g id="com_vivo_game" stroke="none" stroke-width="1" fill="none" fill-rule="evenodd">
        <g id="游戏中心备份" transform="translate(21.000000, 21.000000)">
            <mask id="mask-2" fill="white">
                <use xlink:href="#path-1"></use>
            </mask>
            <g id="矩形备份-20"></g>
            <g id="编组-3" mask="url(#mask-2)" fill="#000000">
                <g transform="translate(129.000000, 122.645024)" id="形状结合">
                    <path d="M137.001564,1.02745108 C140.013487,2.31495625 142.412895,4.71436435 143.7004,7.72628731 L176.527754,84.5192929 L252.218594,55.5695187 C253.903363,54.857449 255.803201,54.6972435 257.634483,55.1710182 C262.086934,56.3229202 264.797818,60.8124754 263.789913,65.2784885 L263.728877,65.5312339 L228.76,201.395 L187.93681,201.395863 L187.936,218.492 L182.264,218.492 L182.264709,208.370853 L182.260474,208.086781 C182.12521,203.578261 178.761418,200.835015 173.879089,200.835015 L173.879089,200.835015 L173.486032,200.838957 L173.104135,200.850837 C169.716089,200.993725 167.635675,202.111046 165.559569,204.471114 L165.559569,204.471114 L158.004557,212.793096 L150.437951,204.425643 L150.200241,204.169145 C147.985172,201.823769 145.849882,200.835015 142.118886,200.835015 L142.118886,200.835015 L141.815576,200.838589 C136.99567,200.95281 133.773367,203.79789 133.773367,208.370853 L133.773367,208.370853 L133.773,218.492 L124.685,218.492 L117.39092,206.464847 L117.195138,206.151585 C114.895213,202.550764 112.02972,200.835015 107.284253,200.835015 C102.3725,200.835015 99.5674158,202.623677 97.2264911,206.450394 L97.2264911,206.450394 L89.881,218.492 L81.557,218.492 L81.5570633,203.582037 L80.5144304,203.310935 L77.1609988,202.455609 L76.7530911,202.354093 C74.8242963,201.885792 72.5418613,201.494715 69.8854761,201.226686 L69.8854761,201.226686 L68.7240712,201.119483 C66.5526377,200.937247 64.148556,200.835015 61.5019747,200.835015 L61.5019747,200.835015 L61.0061377,200.836806 C59.3611029,200.848757 57.7936809,200.920537 56.3057598,201.053699 L56.3057598,201.053699 L55.4225624,201.140974 L54.5585357,201.243056 C46.0926318,202.328122 40.4632964,205.604583 38.0672372,211.398422 C37.5678948,210.38912 37.1988835,209.303647 36.9817903,208.164309 L0.27112322,65.5312339 C-0.899495194,60.9830808 1.82905766,56.3446542 6.36551659,55.1710182 C8.19679919,54.6972435 10.0966367,54.857449 11.7814064,55.5695187 L87.472,84.519 L120.2996,7.72628731 C123.061887,1.26433459 130.539611,-1.73483655 137.001564,1.02745108 Z"></path>
                </g>
            </g>
        </g>
    </g>
</svg>