<?xml version="1.0" encoding="UTF-8"?>
<svg width="564px" height="240px" viewBox="0 0 564 240" version="1.1" xmlns="http://www.w3.org/2000/svg" xmlns:xlink="http://www.w3.org/1999/xlink">
    <title>com_vivo_translator_b_s5_2x1_sc</title>
    <g id="com_vivo_translator" stroke="none" stroke-width="1" fill="none" fill-rule="evenodd">
        <g id="辅色" transform="translate(276.000000, 58.682832)" fill="#4E4E4E" fill-rule="nonzero">
            <path d="M35.2375881,6.45325612 L26.1807145,14.8354384 C25.1582156,15.7817663 24.5769231,17.1117993 24.5769231,18.5050116 L24.5815426,18.7219012 C24.695105,21.3827049 26.8881684,23.5050116 29.5769231,23.5050116 L41.422,23.5041682 L41.2240011,23.4740898 C50.5394008,24.820979 57.5695837,32.7622753 57.7376335,42.2347083 L57.7407117,42.5819347 C57.7407117,45.9381266 60.4614428,48.6588577 63.8176347,48.6588577 C67.1738266,48.6588577 69.8945577,45.9381266 69.8945577,42.5819347 L69.8909761,42.1035002 C69.6667825,27.1374283 58.941722,14.5358176 44.5269486,11.7102514 L44.226,11.6531682 L43.4606211,8.81831189 C43.2498846,8.03816098 42.8527207,7.3201895 42.3033699,6.72662079 C40.4276957,4.69997146 37.2642375,4.57758193 35.2375881,6.45325612 Z" id="路径" transform="translate(47.235740, 26.890832) rotate(-345.000000) translate(-47.235740, -26.890832) "></path>
            <path d="M14.5964286,114.317168 L18.7896764,103.463833 L42.2697057,103.463833 L46.3309524,114.317168 L61,114.317168 L38.6333333,57.3171682 L23.0202381,57.3171682 L0,114.317168 L14.5964286,114.317168 Z M38,91.3171682 L22,91.3171682 L30.0464424,73.3171682 L30.2089613,73.3171682 L38,91.3171682 Z" id="A"></path>
        </g>
    </g>
</svg>