<?xml version="1.0" encoding="UTF-8"?>
<svg width="564px" height="564px" viewBox="0 0 564 564" version="1.1" xmlns="http://www.w3.org/2000/svg" xmlns:xlink="http://www.w3.org/1999/xlink">
    <title>com_vivo_health_b_s5_2x2_mc</title>
    <g id="com_vivo_health" stroke="none" stroke-width="1" fill="none" fill-rule="evenodd">
        <g id="主色" transform="translate(130.857737, 168.201976)" fill="#000000">
            <path d="M122.758023,15.53075 C159.418015,15.53075 189.136811,45.2495456 189.136811,81.9095379 L189.136811,163.606508 C189.136811,200.2665 159.418015,229.985295 122.758023,229.985295 C86.0980305,229.985295 56.3792348,200.2665 56.3792348,163.606508 L56.3792348,81.9095379 C56.3792348,45.2495456 86.0980305,15.53075 122.758023,15.53075 Z M122.758023,61.4852954 C111.651564,61.4852954 102.615647,70.3503432 102.340248,81.3904646 L102.33378,81.9095379 L102.33378,163.606508 C102.33378,174.886505 111.478025,184.03075 122.758023,184.03075 C133.864482,184.03075 142.900398,175.165702 143.175798,164.125581 L143.182265,163.606508 L143.182265,81.9095379 C143.182265,70.6295402 134.03802,61.4852954 122.758023,61.4852954 Z" id="矩形" fill-opacity="0.95" fill-rule="nonzero" transform="translate(122.758023, 122.758023) rotate(-45.000000) translate(-122.758023, -122.758023) "></path>
            <g id="编组-14" transform="translate(151.642263, 151.642263) rotate(-45.000000) translate(-151.642263, -151.642263) translate(85.263475, 85.263475)">
                <path d="M132.757,-3.64230201e-12 L132.757576,66.3787879 C132.757576,103.03878 103.03878,132.757576 66.3787879,132.757576 C29.7187956,132.757576 7.28962807e-12,103.03878 7.28962807e-12,66.3787879 L2.55254984e-13,-7.32839986e-12 L45.954,-3.64230201e-12 L45.9545455,66.3787879 C45.9545455,77.6587855 55.0987903,86.8030303 66.3787879,86.8030303 C77.4852471,86.8030303 86.5211634,77.9379826 86.7965629,66.8978611 L86.8030303,66.3787879 L86.803,-3.64230201e-12 L132.757,-3.64230201e-12 Z" id="形状结合"></path>
            </g>
        </g>
    </g>
</svg>