<?xml version="1.0" encoding="UTF-8"?>
<svg width="564px" height="240px" viewBox="0 0 564 240" version="1.1" xmlns="http://www.w3.org/2000/svg" xmlns:xlink="http://www.w3.org/1999/xlink">
    <title>com_bbk_cloud_b_s5_2x1_sc</title>
    <g id="com_bbk_cloud" stroke="none" stroke-width="1" fill="none" fill-rule="evenodd">
        <path d="M314,90 C334.98682,90 352,107.01318 352,128 C352,148.98682 334.98682,166 314,166 L309.999034,166 L310,174.624883 C310,175.45331 309.328427,176.124883 308.5,176.124883 C307.97517,176.124883 307.488508,175.850579 307.21675,175.401587 L288.378005,144.276704 C287.949043,143.567985 288.175832,142.645712 288.884551,142.21675 C289.118815,142.074959 289.387423,142 289.661255,142 L314,142 C321.731986,142 328,135.731986 328,128 C328,120.3725 321.900248,114.169673 314.312645,114.003422 L314,114 C313.822763,105.289361 311.471604,97.1140897 307.461574,89.9982094 L314,90 Z" id="辅色" fill="#4E4E4E"></path>
    </g>
</svg>