<?xml version="1.0" encoding="UTF-8"?>
<svg width="564px" height="564px" viewBox="0 0 564 564" version="1.1" xmlns="http://www.w3.org/2000/svg" xmlns:xlink="http://www.w3.org/1999/xlink">
    <title>com_iqoo_secure_b_s5_2x2_mc</title>
    <g id="com_iqoo_secure" stroke="none" stroke-width="1" fill="none" fill-rule="evenodd">
        <g id="主色" transform="translate(180.378788, 173.570707)" fill="#000000" fill-rule="nonzero">
            <path d="M102.121212,88.5684841 L181.817081,40.3655707 L182.116162,40.0541852 L204.094268,26.8019205 L204.242424,26.8019205 L204.242424,90.9817723 C204.242424,133.856314 181.070307,173.41184 143.594079,194.510389 L102.121212,217.858586 L102.121212,88.5684841 Z" id="形状结合" opacity="0.849999964"></path>
            <path d="M1.90621618,25.7405645 C63.6432602,-8.23698064 138.464105,-8.57675609 200.462825,24.7212381 L202.337623,25.7405645 L204.242424,26.8019205 L102.121212,88.5684841 L0,26.8019205 L1.90621618,25.7405645 Z" id="形状结合" opacity="0.92"></path>
            <path d="M22.6996037,39.943481 C72.8728276,16.184484 131.306431,16.1623183 181.597672,39.9749734 L181.597672,39.9749734 L182.081199,40.2058575 L102.121212,88.5684841 L22.1561993,40.2028575 Z" id="形状结合"></path>
            <path d="M182.116162,40.2221414 L182.116162,90.9817723 L182.110512,92.0272395 C181.741581,126.155514 163.327773,157.584653 133.642332,174.714963 L132.73933,175.229675 L102.121212,192.466146 L102.121212,88.5684841 L182.116162,40.2221414 Z" id="路径" opacity="0.400000006"></path>
        </g>
    </g>
</svg>