<?xml version="1.0" encoding="UTF-8"?>
<svg width="240px" height="240px" viewBox="0 0 240 240" version="1.1" xmlns="http://www.w3.org/2000/svg" xmlns:xlink="http://www.w3.org/1999/xlink">
    <title>com_android_dialer_b_s5_1x1_0_mc</title>
    <g id="com_android_dialer" stroke="none" stroke-width="1" fill="none" fill-rule="evenodd">
        <path d="M152.688334,145.118601 L156.876684,151.287653 L156.876684,151.287653 L159.268748,154.803777 L159.268748,154.803777 L162.400438,159.432691 L162.400438,159.432691 L163.825408,161.550087 L163.825408,161.550087 C165.660748,163.839627 165.30923,167.179308 163.02307,169.023345 C162.668699,169.309184 162.278921,169.548544 161.86326,169.735466 L161.590969,169.856813 L161.590969,169.856813 L161.075615,170.0797 L161.075615,170.0797 C132.397818,182.206292 98.4437324,171.352699 82.4294216,143.742412 C66.8161171,116.8235 73.5867688,83.1684072 97.0016103,64.2082367 L97.7932683,63.5788201 L97.7932683,63.5788201 L98.2648543,63.2356066 C101.264415,61.105201 105.431038,61.7986298 107.571267,64.7844232 C107.713217,64.9824551 107.844076,65.1880261 107.963276,65.4001914 L108.133263,65.723267 L108.133263,65.723267 L116.377691,82.5628647 C117.686357,85.2384464 117.104772,88.4376932 114.966346,90.4871439 L114.761317,90.6758603 L114.761317,90.6758603 L114.112062,91.262361 L113.559801,91.7827193 C112.91808,92.3997583 112.285878,93.0513689 111.668163,93.734731 L111.142357,94.3281801 C110.968348,94.5285445 110.795638,94.7314352 110.624342,94.9367863 L110.114815,95.560155 C102.959903,104.493917 98.5692111,117.753011 105.839896,130.288405 C114.036042,144.419389 130.450009,146.235004 142.392736,143.107397 L143.13322,142.905552 C143.255625,142.870861 143.377516,142.835649 143.49888,142.799927 L143.94383,142.664941 L143.94383,142.664941 L144.306735,142.537462 C144.356685,142.519248 144.409845,142.499683 144.466213,142.478769 C147.490351,141.356726 150.892775,142.449121 152.688334,145.118601 Z" id="主色" fill="#000000"></path>
    </g>
</svg>