<?xml version="1.0" encoding="UTF-8"?>
<svg width="564px" height="564px" viewBox="0 0 564 564" version="1.1" xmlns="http://www.w3.org/2000/svg" xmlns:xlink="http://www.w3.org/1999/xlink">
    <title>com_android_dialer_b_s5_2x2_0_mc</title>
    <g id="com_android_dialer" stroke="none" stroke-width="1" fill="none" fill-rule="evenodd">
        <path d="M338.136205,325.251896 L345.264861,335.751786 L345.264861,335.751786 L349.336202,341.736323 L349.336202,341.736323 L354.666402,349.614857 L354.666402,349.614857 L357.091729,353.218721 L357.091729,353.218721 C360.215516,357.11558 359.617225,362.799805 355.726134,365.938406 C355.122988,366.424911 354.459578,366.832307 353.752113,367.150454 L353.288669,367.35699 L353.288669,367.35699 L352.411527,367.736349 L352.411527,367.736349 C303.601336,388.376132 245.810797,369.903028 218.554117,322.909586 C191.979957,277.092882 203.503743,219.811021 243.356276,187.540307 L244.703694,186.469023 L244.703694,186.469023 L245.506343,185.884865 C250.611656,182.258858 257.703333,183.439092 261.346046,188.520991 C261.587648,188.858047 261.810371,189.207934 262.013253,189.569045 L262.302574,190.118929 L262.302574,190.118929 L276.334758,218.780371 C278.562132,223.334282 277.572263,228.779485 273.932618,232.267705 L273.583656,232.588905 L273.583656,232.588905 L272.478611,233.587145 L271.538651,234.472809 C270.446429,235.523025 269.370408,236.632084 268.319045,237.795184 L267.424113,238.805251 C267.127946,239.146276 266.83399,239.491602 266.542441,239.841115 L265.675215,240.902105 C253.497411,256.107604 246.024364,278.674935 258.399217,300.010509 C272.349224,324.061818 300.286126,327.152043 320.612889,321.828774 L321.873207,321.485228 C322.081543,321.426182 322.289005,321.366252 322.495568,321.305451 L323.252882,321.075702 L323.252882,321.075702 L323.870554,320.858729 C323.95557,320.827728 324.046049,320.794428 324.141989,320.758831 C329.289133,318.849086 335.080127,320.70837 338.136205,325.251896 Z" id="主色" fill="#000000"></path>
    </g>
</svg>