<?xml version="1.0" encoding="UTF-8"?>
<svg width="564px" height="564px" viewBox="0 0 564 564" version="1.1" xmlns="http://www.w3.org/2000/svg" xmlns:xlink="http://www.w3.org/1999/xlink">
    <title>com_android_dialer_b_s5_2x2_1_mc</title>
    <g id="com_android_dialer" stroke="none" stroke-width="1" fill="none" fill-rule="evenodd">
        <g id="编组" transform="translate(156.550505, 156.549404)" fill="#000000">
            <g id="编组-13备份-4">
                <path d="M125.949495,251.899932 C195.50948,251.899932 251.89899,195.510211 251.89899,125.949966 C251.89899,56.3897205 195.50948,0 125.949495,0 C56.3895096,0 0,56.3897205 0,125.949966 C0,195.510211 56.3895096,251.899932 125.949495,251.899932 Z" id="椭圆形" opacity="0.100000001"></path>
                <path d="M125.949495,187.925346 C160.177424,187.925346 187.924643,160.178023 187.924643,125.949966 C187.924643,91.7219086 160.177424,63.9745858 125.949495,63.9745858 C91.7215657,63.9745858 63.9743466,91.7219086 63.9743466,125.949966 C63.9743466,160.178023 91.7215657,187.925346 125.949495,187.925346 Z" id="椭圆形" opacity="0.200000003"></path>
            </g>
            <path d="M181.015607,167.835587 L188.08781,178.300359 L188.08781,178.300359 L192.126909,184.264879 L192.126909,184.264879 L197.414898,192.117062 L197.414898,192.117062 L199.821019,195.708873 L199.821019,195.708873 C202.920068,199.592698 202.326514,205.257911 198.466238,208.386014 C197.867868,208.870892 197.209712,209.276926 196.50785,209.594008 L196.048076,209.799854 L196.048076,209.799854 L195.17788,210.177944 L195.17788,210.177944 C146.754228,230.748693 89.4213446,212.337376 62.3805156,165.501111 C36.0168025,119.83765 47.4493292,62.7473771 86.9862614,30.5845981 L88.3230089,29.5168974 L88.3230089,29.5168974 L89.1193014,28.9346928 C94.1841847,25.3208137 101.219701,26.4971005 104.833566,31.5620027 C105.073255,31.897931 105.294214,32.2466481 105.495489,32.6065513 L105.782519,33.1545954 L105.782519,33.1545954 L119.703579,61.7201747 C121.913315,66.2588546 120.931285,71.6858452 117.320463,75.1623978 L116.974264,75.4825238 L116.974264,75.4825238 L115.877971,76.4774247 L114.945454,77.3601261 C113.861882,78.4068303 112.794382,79.5121793 111.751345,80.6713896 L110.863499,81.6780774 C110.569679,82.0179624 110.27805,82.3621327 109.98881,82.7104767 L109.128452,83.7679182 C97.047086,98.9225604 89.6332205,121.414411 101.910074,142.678625 C115.749608,166.64949 143.465271,169.729379 163.631062,164.423914 L164.8814,164.081517 C165.088086,164.022669 165.293905,163.962939 165.498832,163.902342 L166.250149,163.673361 L166.250149,163.673361 L166.862929,163.457114 C166.947272,163.426216 167.037034,163.393028 167.132215,163.35755 C172.238597,161.454192 177.983731,163.307258 181.015607,167.835587 Z" id="路径备份-4" fill-rule="nonzero"></path>
        </g>
    </g>
</svg>