<?xml version="1.0" encoding="UTF-8"?>
<svg width="564px" height="240px" viewBox="0 0 564 240" version="1.1" xmlns="http://www.w3.org/2000/svg" xmlns:xlink="http://www.w3.org/1999/xlink">
    <title>com_android_dialer_b_s5_2x1_0_mc</title>
    <g id="com_android_dialer" stroke="none" stroke-width="1" fill="none" fill-rule="evenodd">
        <path d="M314.688334,145.118601 L318.876684,151.287653 L318.876684,151.287653 L321.268748,154.803777 L321.268748,154.803777 L324.400438,159.432691 L324.400438,159.432691 L325.825408,161.550087 L325.825408,161.550087 C327.660748,163.839627 327.30923,167.179308 325.02307,169.023345 C324.668699,169.309184 324.278921,169.548544 323.86326,169.735466 L323.590969,169.856813 L323.590969,169.856813 L323.075615,170.0797 L323.075615,170.0797 C294.397818,182.206292 260.443732,171.352699 244.429422,143.742412 C228.816117,116.8235 235.586769,83.1684072 259.00161,64.2082367 L259.793268,63.5788201 L259.793268,63.5788201 L260.264854,63.2356066 C263.264415,61.105201 267.431038,61.7986298 269.571267,64.7844232 C269.713217,64.9824551 269.844076,65.1880261 269.963276,65.4001914 L270.133263,65.723267 L270.133263,65.723267 L278.377691,82.5628647 C279.686357,85.2384464 279.104772,88.4376932 276.966346,90.4871439 L276.761317,90.6758603 L276.761317,90.6758603 L276.112062,91.262361 L275.559801,91.7827193 C274.91808,92.3997583 274.285878,93.0513689 273.668163,93.734731 L273.142357,94.3281801 C272.968348,94.5285445 272.795638,94.7314352 272.624342,94.9367863 L272.114815,95.560155 C264.959903,104.493917 260.569211,117.753011 267.839896,130.288405 C276.036042,144.419389 292.450009,146.235004 304.392736,143.107397 L305.13322,142.905552 C305.255625,142.870861 305.377516,142.835649 305.49888,142.799927 L305.94383,142.664941 L305.94383,142.664941 L306.306735,142.537462 C306.356685,142.519248 306.409845,142.499683 306.466213,142.478769 C309.490351,141.356726 312.892775,142.449121 314.688334,145.118601 Z" id="主色" fill="#000000"></path>
    </g>
</svg>