<?xml version="1.0" encoding="UTF-8"?>
<svg width="240px" height="564px" viewBox="0 0 240 564" version="1.1" xmlns="http://www.w3.org/2000/svg" xmlns:xlink="http://www.w3.org/1999/xlink">
    <title>com_android_dialer_b_s5_1x2_0_mc</title>
    <g id="com_android_dialer" stroke="none" stroke-width="1" fill="none" fill-rule="evenodd">
        <path d="M152.688334,307.118601 L156.876684,313.287653 L156.876684,313.287653 L159.268748,316.803777 L159.268748,316.803777 L162.400438,321.432691 L162.400438,321.432691 L163.825408,323.550087 L163.825408,323.550087 C165.660748,325.839627 165.30923,329.179308 163.02307,331.023345 C162.668699,331.309184 162.278921,331.548544 161.86326,331.735466 L161.590969,331.856813 L161.590969,331.856813 L161.075615,332.0797 L161.075615,332.0797 C132.397818,344.206292 98.4437324,333.352699 82.4294216,305.742412 C66.8161171,278.8235 73.5867688,245.168407 97.0016103,226.208237 L97.7932683,225.57882 L97.7932683,225.57882 L98.2648543,225.235607 C101.264415,223.105201 105.431038,223.79863 107.571267,226.784423 C107.713217,226.982455 107.844076,227.188026 107.963276,227.400191 L108.133263,227.723267 L108.133263,227.723267 L116.377691,244.562865 C117.686357,247.238446 117.104772,250.437693 114.966346,252.487144 L114.761317,252.67586 L114.761317,252.67586 L114.112062,253.262361 L113.559801,253.782719 C112.91808,254.399758 112.285878,255.051369 111.668163,255.734731 L111.142357,256.32818 C110.968348,256.528545 110.795638,256.731435 110.624342,256.936786 L110.114815,257.560155 C102.959903,266.493917 98.5692111,279.753011 105.839896,292.288405 C114.036042,306.419389 130.450009,308.235004 142.392736,305.107397 L143.13322,304.905552 C143.255625,304.870861 143.377516,304.835649 143.49888,304.799927 L143.94383,304.664941 L143.94383,304.664941 L144.306735,304.537462 C144.356685,304.519248 144.409845,304.499683 144.466213,304.478769 C147.490351,303.356726 150.892775,304.449121 152.688334,307.118601 Z" id="主色" fill="#000000"></path>
    </g>
</svg>