<?xml version="1.0" encoding="UTF-8"?>
<svg width="564px" height="240px" viewBox="0 0 564 240" version="1.1" xmlns="http://www.w3.org/2000/svg" xmlns:xlink="http://www.w3.org/1999/xlink">
    <title>com_android_dialer_b_s5_2x1_1_mc</title>
    <g id="com_android_dialer" stroke="none" stroke-width="1" fill="none" fill-rule="evenodd">
        <g id="编组" transform="translate(208.000000, 46.000000)" fill="#000000">
            <g id="编组-13备份-4">
                <path d="M74,148 C114.869071,148 148,114.869071 148,74 C148,33.1309285 114.869071,0 74,0 C33.1309285,0 0,33.1309285 0,74 C0,114.869071 33.1309285,148 74,148 Z" id="椭圆形" opacity="0.100000001"></path>
                <path d="M74,110.412698 C94.110178,110.412698 110.412698,94.110178 110.412698,74 C110.412698,53.889822 94.110178,37.5873016 74,37.5873016 C53.889822,37.5873016 37.5873016,53.889822 37.5873016,74 C37.5873016,94.110178 53.889822,110.412698 74,110.412698 Z" id="椭圆形" opacity="0.200000003"></path>
            </g>
            <path d="M106.353383,98.6092642 L110.508565,104.757683 L110.508565,104.757683 L112.881686,108.262047 L112.881686,108.262047 L115.988575,112.875478 L115.988575,112.875478 L117.40226,114.985792 L117.40226,114.985792 C119.223066,117.267675 118.874332,120.596185 116.606276,122.434055 C116.254712,122.718937 115.868021,122.957497 115.455651,123.143794 L115.185516,123.264735 L115.185516,123.264735 L114.674244,123.486876 L114.674244,123.486876 C86.2235522,135.572909 52.5383568,124.755618 36.6508667,97.2376779 C21.1612074,70.408801 27.8782409,36.8662736 51.1076551,17.9695186 L51.8930438,17.3422072 L51.8930438,17.3422072 L52.3608952,17.0001417 C55.336702,14.8768616 59.4703287,15.5679712 61.5936087,18.543778 C61.7344347,18.7411476 61.8642565,18.946031 61.982513,19.1574867 L62.1511537,19.4794817 L62.1511537,19.4794817 L70.3302929,36.2627564 C71.6285944,38.9293892 71.0516154,42.1179355 68.9301237,44.1605315 L68.726719,44.3486167 L68.726719,44.3486167 L68.0826059,44.9331557 L67.5347178,45.4517736 C66.8980789,46.0667488 66.270883,46.71618 65.65806,47.3972565 L65.1364181,47.9887207 C64.9637874,48.188415 64.792445,48.390627 64.6225058,48.5952913 L64.1170131,49.2165751 C57.0187627,58.1204562 52.6628417,71.3352034 59.8759485,83.8286707 C68.0071879,97.9123905 84.2911683,99.7219329 96.1393184,96.6047872 L96.8739381,96.4036171 C96.9953741,96.3690418 97.1163004,96.3339484 97.2367026,96.2983454 L97.6781288,96.1638111 L97.6781288,96.1638111 L98.0381602,96.0367584 C98.0877148,96.0186048 98.1404533,95.9991058 98.1963754,95.9782611 C101.196565,94.8599719 104.572044,95.9487125 106.353383,98.6092642 Z" id="路径备份-4" fill-rule="nonzero"></path>
        </g>
    </g>
</svg>