<?xml version="1.0" encoding="UTF-8"?>
<svg width="564px" height="564px" viewBox="0 0 564 564" version="1.1" xmlns="http://www.w3.org/2000/svg" xmlns:xlink="http://www.w3.org/1999/xlink">
    <title>com_android_filemanager_b_s5_2x2_0_sc</title>
    <defs>
        <path d="M82.5332448,21 L481.466755,21 C502.863205,21 510.622075,23.2278147 518.444297,27.4111849 C526.266519,31.5945551 532.405445,37.7334809 536.588815,45.5557031 C540.772185,53.3779253 543,61.136795 543,82.5332448 L543,481.466755 C543,502.863205 540.772185,510.622075 536.588815,518.444297 C532.405445,526.266519 526.266519,532.405445 518.444297,536.588815 C510.622075,540.772185 502.863205,543 481.466755,543 L82.5332448,543 C61.136795,543 53.3779253,540.772185 45.5557031,536.588815 C37.7334809,532.405445 31.5945551,526.266519 27.4111849,518.444297 C23.2278147,510.622075 21,502.863205 21,481.466755 L21,82.5332448 C21,61.136795 23.2278147,53.3779253 27.4111849,45.5557031 C31.5945551,37.7334809 37.7334809,31.5945551 45.5557031,27.4111849 C53.3779253,23.2278147 61.136795,21 82.5332448,21 Z" id="path-1"></path>
    </defs>
    <g id="com_android_filemanager" stroke="none" stroke-width="1" fill="none" fill-rule="evenodd">
        <mask id="mask-2" fill="white">
            <use xlink:href="#path-1"></use>
        </mask>
        <g id="矩形备份-20"></g>
        <g id="编组" mask="url(#mask-2)" fill="#4E4E4E">
            <g transform="translate(128.000000, 202.766000)">
                <path d="M57.9994828,0 L58,65.234 L413.309588,65.234 L413.309588,293.156086 L413.298247,295.073656 L413.298247,295.073656 L413.283149,296.307545 L413.283149,296.307545 L413.26204,297.506797 L413.26204,297.506797 L413.219142,299.24252 L413.219142,299.24252 L413.183078,300.35876 L413.183078,300.35876 L413.141059,301.44323 L413.141059,301.44323 L413.093102,302.496748 L413.093102,302.496748 L413.039225,303.520133 L413.039225,303.520133 L412.979442,304.514205 L412.979442,304.514205 L412.91377,305.479781 L412.91377,305.479781 L412.842225,306.417682 L412.842225,306.417682 L412.764825,307.328727 L412.764825,307.328727 L412.681584,308.213734 L412.681584,308.213734 L412.592519,309.073523 L412.592519,309.073523 L412.497647,309.908912 C412.481352,310.046156 412.464816,310.182417 412.448039,310.317713 L412.344486,311.118038 L412.344486,311.118038 L412.235167,311.896013 L412.235167,311.896013 L412.120097,312.652454 L412.120097,312.652454 L411.999293,313.388182 L411.999293,313.388182 L411.872771,314.104015 L411.872771,314.104015 L411.740547,314.800773 C411.718035,314.915355 411.695287,315.029176 411.672302,315.142254 L411.531556,315.811934 C411.483696,316.032277 411.434893,316.249783 411.385149,316.464586 L411.233098,317.10103 L411.233098,317.10103 L411.075418,317.722084 L411.075418,317.722084 L410.912126,318.328567 L410.912126,318.328567 L410.743238,318.921298 L410.743238,318.921298 L410.56877,319.501097 L410.56877,319.501097 L410.38874,320.068782 L410.38874,320.068782 L410.203162,320.625173 L410.203162,320.625173 L410.012053,321.171088 L410.012053,321.171088 L409.81543,321.707347 C409.782201,321.795964 409.748742,321.884213 409.715055,321.972111 L409.510191,322.495421 L409.510191,322.495421 L409.299853,323.011123 L409.299853,323.011123 L409.084057,323.520034 L409.084057,323.520034 L408.750166,324.272463 L408.750166,324.272463 L408.404087,325.014222 L408.404087,325.014222 L408.166624,325.504166 L408.166624,325.504166 L407.800354,326.234285 L407.800354,326.234285 L407.422042,326.961107 C407.379341,327.041784 407.336417,327.122451 407.293272,327.203126 C403.367065,334.544495 397.605515,340.306045 390.264145,344.232253 L389.780048,344.488462 L389.780048,344.488462 L389.295305,344.739335 L389.295305,344.739335 L388.565185,345.105605 L388.565185,345.105605 L388.075241,345.343068 L388.075241,345.343068 L387.581784,345.575138 L387.581784,345.575138 L386.833219,345.913098 L386.833219,345.913098 L386.327395,346.131617 L386.327395,346.131617 L385.815191,346.344686 L385.815191,346.344686 L385.295788,346.552289 C385.208575,346.586433 385.121028,346.620349 385.03313,346.654036 L384.501392,346.85341 C384.412022,346.886181 384.322265,346.918722 384.232107,346.951034 L383.686192,347.142142 L383.686192,347.142142 L383.129801,347.32772 L383.129801,347.32772 L382.562116,347.507751 L382.562116,347.507751 L381.982317,347.682219 L381.982317,347.682219 L381.389586,347.851107 L381.389586,347.851107 L380.783103,348.014399 L380.783103,348.014399 L380.162049,348.172079 L380.162049,348.172079 L379.525606,348.32413 C379.418204,348.349002 379.310126,348.373639 379.201357,348.39804 L378.540293,348.541618 C378.428685,348.565076 378.316351,348.588298 378.203273,348.611283 L377.515746,348.746351 L377.515746,348.746351 L376.809553,348.875726 C376.690253,348.896813 376.570142,348.917662 376.449201,348.938273 L375.713473,349.059078 L375.713473,349.059078 L374.957032,349.174148 L374.957032,349.174148 L374.179058,349.283467 L374.179058,349.283467 L373.378732,349.38702 L373.378732,349.38702 L372.555235,349.484789 L372.555235,349.484789 L371.707749,349.576759 L371.707749,349.576759 L370.835453,349.662914 L370.835453,349.662914 L369.93753,349.743237 L369.93753,349.743237 L369.013159,349.817711 L369.013159,349.817711 L368.061523,349.886322 L368.061523,349.886322 L367.081801,349.949051 L367.081801,349.949051 L365.557767,350.032083 L365.557767,350.032083 L364.504249,350.08004 L364.504249,350.08004 L363.41978,350.122058 L363.41978,350.122058 L362.303539,350.158123 L362.303539,350.158123 L361.154708,350.188218 L361.154708,350.188218 L359.972469,350.212326 L359.972469,350.212326 L358.756001,350.230431 L358.756001,350.230431 L356.86533,350.249326 L356.86533,350.249326 L355.559709,350.249326 L355.559709,350.249326 L57.1277226,350.249326 L57.1277226,350.249326 L55.210152,350.237228 L55.210152,350.237228 L53.9762631,350.22213 L53.9762631,350.22213 L52.7770118,350.201021 L52.7770118,350.201021 L51.0412887,350.158123 L51.0412887,350.158123 L49.925048,350.122058 L49.925048,350.122058 L48.8405783,350.08004 L48.8405783,350.08004 L47.7870604,350.032083 L47.7870604,350.032083 L46.7636752,349.978205 L46.7636752,349.978205 L45.7696038,349.918422 L45.7696038,349.918422 L44.8040271,349.852751 L44.8040271,349.852751 L43.866126,349.781206 L43.866126,349.781206 L42.9550815,349.703805 L42.9550815,349.703805 L42.0700744,349.620565 L42.0700744,349.620565 L41.2102858,349.5315 L41.2102858,349.5315 L40.3748966,349.436628 C40.2376529,349.420333 40.1013916,349.403797 39.9660959,349.38702 L39.16577,349.283467 L39.16577,349.283467 L38.3877959,349.174148 L38.3877959,349.174148 L37.6313545,349.059078 L37.6313545,349.059078 L36.8956267,348.938273 L36.8956267,348.938273 L36.1797935,348.811751 L36.1797935,348.811751 L35.4830358,348.679528 C35.3684537,348.657016 35.2546322,348.634268 35.1415543,348.611283 L34.4718742,348.470537 L34.4718742,348.470537 L33.8192219,348.32413 L33.8192219,348.32413 L33.1827785,348.172079 L33.1827785,348.172079 L32.5617248,348.014399 L32.5617248,348.014399 L31.9552418,347.851107 L31.9552418,347.851107 L31.3625105,347.682219 L31.3625105,347.682219 L30.7827118,347.507751 L30.7827118,347.507751 L30.2150266,347.32772 L30.2150266,347.32772 L29.6586359,347.142142 L29.6586359,347.142142 L29.1127205,346.951034 L29.1127205,346.951034 L28.5764616,346.754411 C28.4878443,346.721181 28.3995952,346.687723 28.3116973,346.654036 L27.7883872,346.449172 L27.7883872,346.449172 L27.2726858,346.238833 L27.2726858,346.238833 L26.763774,346.023038 L26.763774,346.023038 L26.0113453,345.689147 L26.0113453,345.689147 L25.2695862,345.343068 L25.2695862,345.343068 L24.7796425,345.105605 L24.7796425,345.105605 L24.0495231,344.739335 L24.0495231,344.739335 L23.3227016,344.361023 C23.2420245,344.318322 23.1613573,344.275398 23.0806829,344.232253 C15.739313,340.306045 9.97776299,334.544495 6.05155543,327.203126 L5.79534691,326.719029 L5.79534691,326.719029 L5.54447385,326.234285 L5.54447385,326.234285 L5.29895254,325.748076 L5.29895254,325.748076 L4.9407407,325.014222 L4.9407407,325.014222 L4.70866995,324.520765 L4.70866995,324.520765 L4.37071024,323.7722 L4.37071024,323.7722 L4.04497506,323.011123 L4.04497506,323.011123 L3.83463681,322.495421 L3.83463681,322.495421 L3.62977236,321.972111 L3.62977236,321.972111 L3.43039801,321.440373 C3.39762736,321.351002 3.36508614,321.261246 3.3327747,321.171088 L3.14166599,320.625173 L3.14166599,320.625173 L2.95608806,320.068782 L2.95608806,320.068782 L2.77605719,319.501097 L2.77605719,319.501097 L2.60158965,318.921298 L2.60158965,318.921298 L2.43270171,318.328567 L2.43270171,318.328567 L2.26940965,317.722084 L2.26940965,317.722084 L2.11172975,317.10103 L2.11172975,317.10103 L1.95967829,316.464586 C1.93480632,316.357185 1.91016955,316.249107 1.88576831,316.140338 L1.74219001,315.479274 C1.71873227,315.367666 1.69551074,315.255332 1.67252577,315.142254 L1.53745726,314.454727 L1.53745726,314.454727 L1.40808229,313.748534 C1.38699516,313.629234 1.36614594,313.509122 1.34553497,313.388182 L1.22473083,312.652454 L1.22473083,312.652454 L1.10966091,311.896013 L1.10966091,311.896013 L1.0003415,311.118038 L1.0003415,311.118038 L0.896788864,310.317713 L0.896788864,310.317713 L0.799019286,309.494216 L0.799019286,309.494216 L0.707049039,308.646729 L0.707049039,308.646729 L0.620894399,307.774434 L0.620894399,307.774434 L0.540571643,306.876511 L0.540571643,306.876511 L0.466097047,305.95214 L0.466097047,305.95214 L0.397486885,305.000504 L0.397486885,305.000504 L0.334757435,304.020782 L0.334757435,304.020782 L0.277924972,303.012156 L0.277924972,303.012156 L0.203768732,301.44323 L0.203768732,301.44323 L0.161749944,300.35876 L0.161749944,300.35876 L0.125685109,299.24252 L0.125685109,299.24252 L0.0955905029,298.093689 L0.0955905029,298.093689 L0.0714824019,296.911449 L0.0714824019,296.911449 L0.0533770818,295.694982 L0.0533770818,295.694982 L0.0352398879,293.804311 C0.0352398879,293.589753 0.0352398879,293.373684 0.0352398879,293.156086 L0.0352398879,57.0935233 L0.0352398879,57.0935233 L0.0465805508,55.1759528 L0.0465805508,55.1759528 L0.061678377,53.9420639 L0.061678377,53.9420639 L0.0827871221,52.7428126 L0.0827871221,52.7428126 L0.10989051,51.5773798 L0.10989051,51.5773798 L0.142972265,50.4449466 L0.142972265,50.4449466 L0.203768732,48.806379 L0.203768732,48.806379 L0.251725197,47.7528611 L0.251725197,47.7528611 L0.305603063,46.729476 L0.305603063,46.729476 L0.365386054,45.7354046 L0.365386054,45.7354046 L0.431057894,44.7698279 L0.431057894,44.7698279 L0.502602308,43.8319268 L0.502602308,43.8319268 L0.620894399,42.4751752 L0.620894399,42.4751752 L0.707049039,41.6028798 L0.707049039,41.6028798 L0.799019286,40.7553933 L0.799019286,40.7553933 L0.896788864,39.9318966 L0.896788864,39.9318966 L1.0003415,39.1315708 L1.0003415,39.1315708 L1.10966091,38.3535967 L1.10966091,38.3535967 L1.22473083,37.5971553 L1.22473083,37.5971553 L1.34553497,36.8614275 L1.34553497,36.8614275 L1.47205707,36.1455943 C1.49361968,36.0279011 1.51541985,35.9110028 1.53745726,35.7948822 L1.67252577,35.1073551 L1.67252577,35.1073551 L1.81327154,34.437675 L1.81327154,34.437675 L1.95967829,33.7850227 C1.98455026,33.6776208 2.00965743,33.5708943 2.03499945,33.4648261 L2.18986717,32.8361799 L2.18986717,32.8361799 L2.35035518,32.222514 L2.35035518,32.222514 L2.51644721,31.6230092 L2.51644721,31.6230092 L2.68812698,31.0368465 L2.68812698,31.0368465 L2.86537823,30.4632069 L2.86537823,30.4632069 L3.04818466,29.9012714 C3.07911443,29.8085453 3.11027499,29.7162727 3.14166599,29.6244366 L3.3327747,29.0785213 L3.3327747,29.0785213 L3.52939791,28.5422624 L3.52939791,28.5422624 L3.73151934,28.0148407 L3.73151934,28.0148407 L4.04497506,27.2384865 L4.04497506,27.2384865 L4.26077086,26.7295748 L4.26077086,26.7295748 L4.59466182,25.9771461 L4.59466182,25.9771461 L4.9407407,25.235387 L4.9407407,25.235387 L5.29895254,24.5015331 L5.29895254,24.5015331 L5.66924243,23.7728201 L5.66924243,23.7728201 L5.92278525,23.2885024 C5.96548678,23.2078253 6.00841029,23.1271581 6.05155543,23.0464837 C9.97776299,15.7051138 15.739313,9.94356376 23.0806829,6.01735619 C23.5647293,5.75848537 24.0485171,5.50759332 24.5357323,5.26475331 L25.2666603,4.907939 L25.2666603,4.907939 L25.9994954,4.56586086 L25.9994954,4.56586086 L26.4936509,4.34441582 L26.4936509,4.34441582 L26.9932073,4.12827475 L26.9932073,4.12827475 L27.4989548,3.91745335 L27.4989548,3.91745335 L28.0116835,3.71196731 L28.0116835,3.71196731 L28.5321836,3.51183235 C28.6196251,3.47892332 28.7074233,3.4462379 28.7955948,3.41377642 L29.3292334,3.2216975 C29.4189634,3.19013311 29.5090996,3.15879331 29.5996583,3.12767843 L30.1482134,2.94369088 L30.1482134,2.94369088 L30.7077003,2.76511721 L30.7077003,2.76511721 L31.2789094,2.59197312 L31.2789094,2.59197312 L31.8626308,2.4242743 L31.8626308,2.4242743 L32.4596546,2.26203647 C32.560311,2.23545278 32.6615546,2.20909729 32.7634018,2.18297032 L33.3818608,2.0289534 L33.3818608,2.0289534 L34.0155975,1.88043671 L34.0155975,1.88043671 L34.6654022,1.73743596 L34.6654022,1.73743596 L35.332065,1.59996684 L35.332065,1.59996684 L36.016376,1.46804507 L36.016376,1.46804507 L36.7191255,1.34168633 L36.7191255,1.34168633 L37.4411035,1.22090634 L37.4411035,1.22090634 L38.1831002,1.10572079 L38.1831002,1.10572079 L38.9459058,0.996145381 L38.9459058,0.996145381 L39.7303104,0.892195824 L39.7303104,0.892195824 L40.5371042,0.793887815 L40.5371042,0.793887815 L41.3670772,0.701237056 L41.3670772,0.701237056 L42.2210198,0.614259248 L42.2210198,0.614259248 L43.0997219,0.532970094 L43.0997219,0.532970094 L44.0039739,0.457385295 L44.0039739,0.457385295 L44.9345657,0.387520551 L44.9345657,0.387520551 L45.8922877,0.323391566 L45.8922877,0.323391566 L47.3814679,0.237986981 L47.3814679,0.237986981 L48.9361354,0.165576173 L48.9361354,0.165576173 L50.0102792,0.124547234 L50.0102792,0.124547234 L51.6800183,0.0739104819 L51.6800183,0.0739104819 L52.8333457,0.0474466482 L52.8333457,0.0474466482 L54.0197293,0.0268363341 L54.0197293,0.0268363341 L55.8630135,0.00693055933 L55.8630135,0.00693055933 L57.9994828,0 Z" id="路径" opacity="0.600000024"></path>
                <path d="M0,65.234 L415,65.234 L414.928442,292.234002 C414.904953,318.737755 393.41707,340.218866 366.91331,340.234 L0,340.234 L0,340.234 L0,65.234 Z" id="蒙版备份-2"></path>
            </g>
        </g>
    </g>
</svg>