<?xml version="1.0" encoding="UTF-8"?>
<svg width="564px" height="240px" viewBox="0 0 564 240" version="1.1" xmlns="http://www.w3.org/2000/svg" xmlns:xlink="http://www.w3.org/1999/xlink">
    <title>com_android_filemanager_b_s5_2x1_2_sc</title>
    <defs>
        <path d="M61.5332448,-2.48601674e-15 L460.466755,1.45059527e-14 C481.863205,-8.42837627e-15 489.622075,2.22781467 497.444297,6.41118489 C505.266519,10.5945551 511.405445,16.7334809 515.588815,24.5557031 C519.772185,32.3779253 522,40.136795 522,61.5332448 L522,136.466755 C522,157.863205 519.772185,165.622075 515.588815,173.444297 C511.405445,181.266519 505.266519,187.405445 497.444297,191.588815 C489.622075,195.772185 481.863205,198 460.466755,198 L61.5332448,198 C40.136795,198 32.3779253,195.772185 24.5557031,191.588815 C16.7334809,187.405445 10.5945551,181.266519 6.41118489,173.444297 C2.22781467,165.622075 9.62964878e-16,157.863205 -1.65734449e-15,136.466755 L1.65734449e-15,61.5332448 C-9.62964878e-16,40.136795 2.22781467,32.3779253 6.41118489,24.5557031 C10.5945551,16.7334809 16.7334809,10.5945551 24.5557031,6.41118489 C32.3779253,2.22781467 40.136795,1.44444732e-15 61.5332448,-2.48601674e-15 Z" id="path-1"></path>
        <path d="M0,0 L238.461475,0 C243.75497,-1.50771032e-14 248.297764,3.77030376 249.273132,8.97316313 L250.353361,14.7353741 C251.240059,19.4652463 255.369872,22.8927951 260.18214,22.8927951 L359.754883,22.8927951 L359.754883,22.8927951 L359.754883,89 C359.754883,115.509668 338.264551,137 311.754883,137 L48,137 C21.490332,137 -3.85892935e-15,115.509668 0,89 L0,0 L0,0 Z" id="path-3"></path>
    </defs>
    <g id="com_android_filemanager" stroke="none" stroke-width="1" fill="none" fill-rule="evenodd">
        <g id="辅色" transform="translate(21.000000, 21.000000)">
            <mask id="mask-2" fill="white">
                <use xlink:href="#path-1"></use>
            </mask>
            <g id="蒙版"></g>
            <path d="M158.998668,68.6053426 L159,154.616689 L159.004619,155.433452 L159.004619,155.433452 L159.018434,156.196546 C159.0215,156.319422 159.024947,156.440187 159.028773,156.558903 L159.056273,157.24711 L159.056273,157.24711 L159.092821,157.889138 L159.092821,157.889138 L159.138359,158.487984 C159.196706,159.162612 159.273285,159.755194 159.367668,160.287139 L159.452919,160.728741 C159.482783,160.871325 159.51409,161.009459 159.546831,161.143641 L159.649345,161.534833 C159.684944,161.661613 159.721966,161.78494 159.760402,161.905315 L159.879941,162.258083 L159.879941,162.258083 L160.007904,162.596132 L160.007904,162.596132 L160.14423,162.92246 L160.14423,162.92246 L160.288861,163.240062 L160.288861,163.240062 L160.441736,163.551935 L160.441736,163.551935 L160.602796,163.861074 L160.602796,163.861074 C161.648639,165.81663 163.18337,167.351361 165.138926,168.397204 L165.448065,168.558264 L165.448065,168.558264 L165.759938,168.711139 L165.759938,168.711139 L166.07754,168.85577 L166.07754,168.85577 L166.403868,168.992096 L166.403868,168.992096 L166.741917,169.120059 L166.741917,169.120059 L167.094685,169.239598 C167.21506,169.278034 167.338387,169.315056 167.465167,169.350655 L167.856359,169.453169 C167.990541,169.48591 168.128675,169.517217 168.271259,169.547081 L168.712861,169.632332 C169.168814,169.713232 169.669316,169.781051 170.227851,169.83552 L170.806229,169.88553 C170.906015,169.89312 171.007539,169.900337 171.110862,169.907179 L171.75289,169.943727 L171.75289,169.943727 L172.441097,169.971227 L172.441097,169.971227 L173.17848,169.98962 C173.305641,169.991923 173.434977,169.993844 173.566548,169.995381 L174.383311,170 L437.616689,170 L438.433452,169.995381 L438.433452,169.995381 L439.196546,169.981566 C439.319422,169.9785 439.440187,169.975053 439.558903,169.971227 L440.24711,169.943727 L440.24711,169.943727 L440.889138,169.907179 L440.889138,169.907179 L441.487984,169.861641 C442.162612,169.803294 442.755194,169.726715 443.287139,169.632332 L443.728741,169.547081 C443.871325,169.517217 444.009459,169.48591 444.143641,169.453169 L444.534833,169.350655 C444.661613,169.315056 444.78494,169.278034 444.905315,169.239598 L445.258083,169.120059 L445.258083,169.120059 L445.596132,168.992096 L445.596132,168.992096 L445.92246,168.85577 L445.92246,168.85577 L446.240062,168.711139 L446.240062,168.711139 L446.551935,168.558264 L446.551935,168.558264 L446.861074,168.397204 L446.861074,168.397204 C448.81663,167.351361 450.351361,165.81663 451.397204,163.861074 L451.558264,163.551935 L451.558264,163.551935 L451.711139,163.240062 L451.711139,163.240062 L451.85577,162.92246 L451.85577,162.92246 L451.992096,162.596132 L451.992096,162.596132 L452.120059,162.258083 L452.120059,162.258083 L452.239598,161.905315 C452.278034,161.78494 452.315056,161.661613 452.350655,161.534833 L452.453169,161.143641 C452.48591,161.009459 452.517217,160.871325 452.547081,160.728741 L452.632332,160.287139 C452.713232,159.831186 452.781051,159.330684 452.83552,158.772149 L452.88553,158.193771 C452.89312,158.093985 452.900337,157.992461 452.907179,157.889138 L452.943727,157.24711 L452.943727,157.24711 L452.971227,156.558903 L452.971227,156.558903 L452.98962,155.82152 C452.991923,155.694359 452.993844,155.565023 452.995381,155.433452 L453,154.616689 L452.999629,71.1145155 C454.626386,71.703399 456.114171,72.3730876 457.579644,73.1212631 L458.047038,73.362865 L458.51376,73.6097868 L458.51376,73.6097868 C465.358204,77.2702357 470.729764,82.6417958 474.390213,89.4862402 C474.681385,90.0306847 474.96173,90.5747784 475.231128,91.1245553 L475.459357,91.5973252 L475.800079,92.332284 L475.800079,92.332284 L476.02012,92.8285502 L476.02012,92.8285502 L476.234454,93.3309151 L476.234454,93.3309151 L476.443062,93.8402907 C476.477352,93.9258215 476.511403,94.0116824 476.545214,94.0978925 L476.745202,94.619494 C476.778052,94.7071764 476.810663,94.795246 476.843032,94.8837217 L477.034357,95.4196009 L477.034357,95.4196009 L477.219885,95.9661386 C477.250322,96.058167 477.280517,96.1506776 477.310469,96.2436893 L477.487266,96.8079244 L477.487266,96.8079244 L477.658221,97.3850977 L477.658221,97.3850977 L477.823315,97.9761212 L477.823315,97.9761212 L477.982529,98.5819068 L477.982529,98.5819068 L478.135847,99.2033664 C478.160907,99.3082999 478.185721,99.4139244 478.210288,99.520259 L478.354726,100.166939 L478.354726,100.166939 L478.493222,100.831574 C478.515808,100.943893 478.538146,101.056998 478.560235,101.170909 L478.689783,101.864183 L478.689783,101.864183 L478.813343,102.577692 L478.813343,102.577692 L478.930897,103.312346 C478.949988,103.436601 478.968827,103.561776 478.987416,103.687888 L479.095927,104.45597 L479.095927,104.45597 L479.198387,105.247478 L479.198387,105.247478 L479.294778,106.063323 L479.294778,106.063323 L479.385081,106.904417 L479.385081,106.904417 L479.469279,107.771673 L479.469279,107.771673 L479.547353,108.666001 L479.547353,108.666001 L479.619285,109.588315 L479.619285,109.588315 L479.685058,110.539526 L479.685058,110.539526 L479.744652,111.520545 L479.744652,111.520545 L479.79805,112.532286 L479.79805,112.532286 L479.845234,113.575659 L479.845234,113.575659 L479.886186,114.651576 L479.886186,114.651576 L479.920887,115.760951 L479.920887,115.760951 L479.949319,116.904694 L479.949319,116.904694 L479.971465,118.083717 L479.971465,118.083717 L479.987306,119.298933 L479.987306,119.298933 L479.999245,121.191612 L479.999245,121.191612 L479.999245,147.792052 L479.999245,147.792052 L479.993213,149.03202 L479.993213,149.03202 L479.981165,150.236273 L479.981165,150.236273 L479.963117,151.405654 L479.963117,151.405654 L479.939086,152.541009 L479.939086,152.541009 L479.90909,153.643182 L479.90909,153.643182 L479.873145,154.713016 L479.873145,154.713016 L479.831267,155.751358 L479.831267,155.751358 L479.783474,156.75905 L479.783474,156.75905 L479.729782,157.736938 L479.729782,157.736938 L479.670209,158.685865 L479.670209,158.685865 L479.60477,159.606677 L479.60477,159.606677 L479.533483,160.500217 L479.533483,160.500217 L479.456364,161.367331 L479.456364,161.367331 L479.37343,162.208861 L479.37343,162.208861 L479.284699,163.025654 L479.284699,163.025654 L479.190186,163.818553 L479.190186,163.818553 L479.089908,164.588402 L479.089908,164.588402 L478.983883,165.336046 L478.983883,165.336046 L478.872127,166.06233 L478.872127,166.06233 L478.754657,166.768098 L478.754657,166.768098 L478.63149,167.454194 L478.63149,167.454194 L478.502642,168.121462 C478.480695,168.231152 478.458512,168.340092 478.436093,168.4483 L478.298756,169.088911 L478.298756,169.088911 L478.15578,169.712806 C478.131481,169.815442 478.106949,169.917417 478.082182,170.018748 L477.93078,170.619151 L477.93078,170.619151 L477.773781,171.204949 C477.747149,171.301412 477.720284,171.397302 477.693187,171.492635 L477.527825,172.058109 C477.499801,172.151289 477.471546,172.24395 477.443059,172.336107 L477.269371,172.883156 L477.269371,172.883156 L477.090153,173.418976 L477.090153,173.418976 L476.905422,173.944414 L476.905422,173.944414 L476.715195,174.460313 L476.715195,174.460313 L476.519489,174.967517 L476.519489,174.967517 L476.31832,175.466871 L476.31832,175.466871 L476.111706,175.959219 L476.111706,175.959219 L475.899663,176.445406 L475.899663,176.445406 L475.682208,176.926277 L475.682208,176.926277 L475.459357,177.402675 L475.459357,177.402675 L475.231128,177.875445 L475.231128,177.875445 L474.997538,178.345431 L474.997538,178.345431 L474.637135,179.047038 L474.637135,179.047038 L474.390213,179.51376 L474.390213,179.51376 C470.729764,186.358204 465.358204,191.729764 458.51376,195.390213 L458.047038,195.637135 L458.047038,195.637135 L457.345431,195.997538 L457.345431,195.997538 L456.875445,196.231128 L456.875445,196.231128 L456.402675,196.459357 L456.402675,196.459357 L455.926277,196.682208 L455.926277,196.682208 L455.20303,197.006362 L455.20303,197.006362 L454.713868,197.215693 L454.713868,197.215693 L454.218122,197.419586 L454.218122,197.419586 L453.714949,197.618026 C453.63042,197.650644 453.545548,197.683033 453.460313,197.715195 L452.944414,197.905422 L452.944414,197.905422 L452.418976,198.090153 L452.418976,198.090153 L451.883156,198.269371 L451.883156,198.269371 L451.336107,198.443059 L451.336107,198.443059 L450.776986,198.611201 C450.682747,198.638762 450.587969,198.666091 450.492635,198.693187 L449.913823,198.852979 L449.913823,198.852979 L449.320828,199.007182 C449.220767,199.032415 449.120079,199.057416 449.018748,199.082182 L448.402895,199.227971 L448.402895,199.227971 L447.770748,199.36813 C447.663985,199.39102 447.556509,199.413674 447.4483,199.436093 L446.790129,199.567775 C446.678923,199.58925 446.566951,199.610488 446.454194,199.63149 L445.768098,199.754657 L445.768098,199.754657 L445.06233,199.872127 L445.06233,199.872127 L444.336046,199.983883 L444.336046,199.983883 L443.588402,200.089908 L443.588402,200.089908 L442.818553,200.190186 L442.818553,200.190186 L442.025654,200.284699 L442.025654,200.284699 L441.208861,200.37343 L441.208861,200.37343 L440.367331,200.456364 L440.367331,200.456364 L439.500217,200.533483 L439.500217,200.533483 L438.606677,200.60477 L438.606677,200.60477 L437.685865,200.670209 L437.685865,200.670209 L436.736938,200.729782 L436.736938,200.729782 L435.75905,200.783474 L435.75905,200.783474 L434.751358,200.831267 L434.751358,200.831267 L433.713016,200.873145 L433.713016,200.873145 L432.643182,200.90909 L432.643182,200.90909 L431.541009,200.939086 L431.541009,200.939086 L430.405654,200.963117 L430.405654,200.963117 L429.236273,200.981165 L429.236273,200.981165 L428.03202,200.993213 L428.03202,200.993213 L426.158411,201 L426.158411,201 L173.207948,201 L173.207948,201 L171.96798,200.993213 L171.96798,200.993213 L170.763727,200.981165 L170.763727,200.981165 L169.594346,200.963117 L169.594346,200.963117 L168.458991,200.939086 L168.458991,200.939086 L167.356818,200.90909 L167.356818,200.90909 L166.286984,200.873145 L166.286984,200.873145 L165.248642,200.831267 L165.248642,200.831267 L164.24095,200.783474 L164.24095,200.783474 L163.263062,200.729782 L163.263062,200.729782 L162.314135,200.670209 L162.314135,200.670209 L161.393323,200.60477 L161.393323,200.60477 L160.499783,200.533483 L160.499783,200.533483 L159.632669,200.456364 L159.632669,200.456364 L158.791139,200.37343 L158.791139,200.37343 L157.974346,200.284699 L157.974346,200.284699 L157.181447,200.190186 L157.181447,200.190186 L156.411598,200.089908 L156.411598,200.089908 L155.663954,199.983883 L155.663954,199.983883 L154.93767,199.872127 L154.93767,199.872127 L154.231902,199.754657 L154.231902,199.754657 L153.545806,199.63149 L153.545806,199.63149 L152.878538,199.502642 C152.768848,199.480695 152.659908,199.458512 152.5517,199.436093 L151.911089,199.298756 L151.911089,199.298756 L151.287194,199.15578 C151.184558,199.131481 151.082583,199.106949 150.981252,199.082182 L150.380849,198.93078 L150.380849,198.93078 L149.795051,198.773781 C149.698588,198.747149 149.602698,198.720284 149.507365,198.693187 L148.941891,198.527825 C148.848711,198.499801 148.75605,198.471546 148.663893,198.443059 L148.116844,198.269371 L148.116844,198.269371 L147.581024,198.090153 L147.581024,198.090153 L147.055586,197.905422 L147.055586,197.905422 L146.539687,197.715195 L146.539687,197.715195 L146.032483,197.519489 L146.032483,197.519489 L145.533129,197.31832 L145.533129,197.31832 L145.040781,197.111706 L145.040781,197.111706 L144.554594,196.899663 L144.554594,196.899663 L144.073723,196.682208 L144.073723,196.682208 L143.597325,196.459357 L143.597325,196.459357 L143.124555,196.231128 L143.124555,196.231128 L142.654569,195.997538 L142.654569,195.997538 L141.952962,195.637135 L141.952962,195.637135 L141.48624,195.390213 L141.48624,195.390213 C134.641796,191.729764 129.270236,186.358204 125.609787,179.51376 L125.237185,178.805326 L125.237185,178.805326 L124.876852,178.094338 L124.876852,178.094338 L124.528848,177.377844 L124.528848,177.377844 L124.303723,176.895666 L124.303723,176.895666 L123.976396,176.163441 L123.976396,176.163441 L123.765111,175.668043 L123.765111,175.668043 L123.559391,175.165827 L123.559391,175.165827 L123.359255,174.655919 L123.359255,174.655919 L123.164719,174.137445 L123.164719,174.137445 L122.975802,173.609531 L122.975802,173.609531 L122.79252,173.071302 C122.762444,172.980689 122.732603,172.88961 122.702998,172.798046 L122.528202,172.242706 C122.499542,172.149132 122.471119,172.055037 122.442933,171.960403 L122.276662,171.385985 C122.249425,171.289122 122.222426,171.191683 122.195664,171.093651 L122.037958,170.498187 L122.037958,170.498187 L121.885982,169.887601 L121.885982,169.887601 L121.739754,169.261018 L121.739754,169.261018 L121.599293,168.617564 L121.599293,168.617564 L121.464614,167.956364 L121.464614,167.956364 L121.335737,167.276545 L121.335737,167.276545 L121.212677,166.577232 L121.212677,166.577232 L121.095452,165.85755 L121.095452,165.85755 L120.98408,165.116627 L120.98408,165.116627 L120.878579,164.353587 L120.878579,164.353587 L120.778964,163.567557 L120.778964,163.567557 L120.685255,162.757661 L120.685255,162.757661 L120.597467,161.923027 L120.597467,161.923027 L120.515619,161.062779 L120.515619,161.062779 L120.439729,160.176044 L120.439729,160.176044 L120.369812,159.261947 L120.369812,159.261947 L120.305887,158.319614 L120.305887,158.319614 L120.247971,157.348172 L120.247971,157.348172 L120.172402,155.834514 L120.172402,155.834514 L120.129585,154.786471 L120.129585,154.786471 L120.092837,153.706259 L120.092837,153.706259 L120.062177,152.593002 L120.062177,152.593002 L120.037621,151.445827 L120.037621,151.445827 L120.019187,150.26386 L120.019187,150.26386 L120.006893,149.046227 L120.006893,149.046227 L120.000755,147.792052 L120.000755,147.792052 L120.000755,121.191612 L120.000755,121.191612 L120.012694,119.298933 L120.012694,119.298933 L120.028535,118.083717 L120.028535,118.083717 L120.050681,116.904694 L120.050681,116.904694 L120.095681,115.202025 L120.095681,115.202025 L120.13351,114.109493 L120.13351,114.109493 L120.17758,113.049961 L120.17758,113.049961 L120.227873,112.022518 L120.227873,112.022518 L120.284372,111.026252 C120.294304,110.862756 120.304494,110.70052 120.314942,110.539526 L120.380715,109.588315 L120.380715,109.588315 L120.452647,108.666001 L120.452647,108.666001 L120.530721,107.771673 L120.530721,107.771673 L120.614919,106.904417 L120.614919,106.904417 L120.705222,106.063323 L120.705222,106.063323 L120.801613,105.247478 L120.801613,105.247478 L120.904073,104.45597 L120.904073,104.45597 L121.012584,103.687888 L121.012584,103.687888 L121.127128,102.942319 C121.146721,102.819883 121.166564,102.698347 121.186657,102.577692 L121.310217,101.864183 L121.310217,101.864183 L121.439765,101.170909 L121.439765,101.170909 L121.575282,100.496955 L121.575282,100.496955 L121.716751,99.841412 C121.740824,99.7336382 121.765144,99.6265935 121.789712,99.520259 L121.940074,98.8906204 C121.965627,98.7870501 121.991426,98.6841519 122.017471,98.5819068 L122.176685,97.9761212 L122.176685,97.9761212 L122.341779,97.3850977 L122.341779,97.3850977 L122.512734,96.8079244 L122.512734,96.8079244 L122.689531,96.2436893 L122.689531,96.2436893 L122.872153,95.6914804 C122.903074,95.6003972 122.934238,95.509777 122.965643,95.4196009 L123.156968,94.8837217 L123.156968,94.8837217 L123.454786,94.0978925 L123.454786,94.0978925 L123.660525,93.5846695 L123.660525,93.5846695 L123.871999,93.0789133 L123.871999,93.0789133 L124.199921,92.332284 L124.199921,92.332284 L124.42565,91.8412048 C124.463745,91.7597398 124.502076,91.6784529 124.540643,91.5973252 L124.768872,91.1245553 C125.03827,90.5747784 125.318615,90.0306847 125.609787,89.4862402 C129.270236,82.6417958 134.641796,77.2702357 141.48624,73.6097868 L141.952962,73.362865 L141.952962,73.362865 L142.420356,73.1212631 C142.654357,73.0017974 142.888926,72.8843329 143.12454,72.768879 L143.834987,72.4285584 C147.764893,70.5900731 152.108278,69.3015357 158.998668,68.6053426 Z" id="路径" fill="#4E4E4E" opacity="0.600000024" mask="url(#mask-2)"></path>
            <g id="编组-4" mask="url(#mask-2)">
                <g transform="translate(120.166992, 123.000000)" id="矩形备份-8">
                    <mask id="mask-4" fill="white">
                        <use xlink:href="#path-3"></use>
                    </mask>
                    <use id="蒙版" fill="#4E4E4E" xlink:href="#path-3"></use>
                </g>
            </g>
        </g>
    </g>
</svg>