<?xml version="1.0" encoding="UTF-8"?>
<svg width="564px" height="564px" viewBox="0 0 564 564" version="1.1" xmlns="http://www.w3.org/2000/svg" xmlns:xlink="http://www.w3.org/1999/xlink">
    <title>com_android_filemanager_b_s5_2x2_2_mc</title>
    <g id="com_android_filemanager" stroke="none" stroke-width="1" fill="none" fill-rule="evenodd">
        <g id="编组" transform="translate(197.000678, 117.000000)" fill="#000000">
            <path d="M345.999322,41 L345.999322,162.434 L0,162.434 L0,60.3573748 L0.00844483036,59.5079309 L0.0246182817,58.7049987 L0.0488145548,57.9464043 L0.080990447,57.2299734 L0.121102756,56.553532 L0.169108278,55.914906 L0.224963812,55.3119214 L0.288626154,54.7424039 L0.360052102,54.2041796 L0.439198454,53.6950743 L0.526022006,53.2129139 L0.572299231,52.9812587 L0.572299231,52.9812587 L0.696306541,52.4274303 L0.696306541,52.4274303 L0.832123839,51.9063616 L0.949224167,51.51024 L1.10608681,51.0374381 L1.10608681,51.0374381 L1.27452318,50.5855063 L1.34511947,50.409626 L1.34511947,50.409626 L1.49180533,50.0647578 L1.64577957,49.7272677 L1.80699898,49.3949817 L2.06231829,48.9015543 C3.4084466,46.3845132 5.38383519,44.4091247 7.90087628,43.0629963 L8.22943273,42.8909902 L8.55993205,42.7261644 L8.89454835,42.5685621 L9.06407976,42.4924834 L9.40894793,42.3457975 L9.76336829,42.2064432 C9.88334202,42.1612185 10.0052701,42.117223 10.129515,42.0744637 L10.509562,41.9499022 L10.9056835,41.8328019 L11.4267523,41.6969846 L11.4267523,41.6969846 L11.9805806,41.5729773 L12.2122359,41.5267001 L12.2122359,41.5267001 L12.6943962,41.4398765 L13.2035015,41.3607302 L13.7417259,41.2893042 L14.3112433,41.2256419 L14.914228,41.1697863 L15.552854,41.1217808 L16.2292953,41.0816685 L16.9457262,41.0494926 L17.7043207,41.0252963 L18.5072528,41.0091229 L19.3566968,41 L345.999322,41 Z M278.212867,122.476157 L31.4339037,122.476157 C31.0035933,122.476157 30.8475523,122.520961 30.6902372,122.605094 C30.5329222,122.689227 30.4094604,122.812689 30.3253273,122.970004 C30.251711,123.107655 30.2082056,123.24433 30.1963901,123.564623 L30.1963901,128.963537 C30.1963901,129.393848 30.2411943,129.549889 30.3253273,129.707204 C30.4094604,129.864519 30.5329222,129.987981 30.6902372,130.072114 C30.8278879,130.14573 30.9645631,130.189235 31.2848555,130.198962 L31.4339037,130.201051 L278.212867,130.201051 C278.643178,130.201051 278.799219,130.156247 278.956534,130.072114 C279.113849,129.987981 279.23731,129.864519 279.321443,129.707204 C279.39506,129.569553 279.438565,129.432878 279.450381,129.112586 L279.450381,123.713671 C279.450381,123.28336 279.405576,123.127319 279.321443,122.970004 C279.23731,122.812689 279.113849,122.689227 278.956534,122.605094 C278.818883,122.531478 278.682208,122.487973 278.361915,122.478247 L278.212867,122.476157 Z M185.467196,99.3014755 L31.4339037,99.3014755 C31.0035933,99.3014755 30.8475523,99.3462798 30.6902372,99.4304128 C30.5329222,99.5145458 30.4094604,99.6380076 30.3253273,99.7953226 C30.251711,99.9329733 30.2082056,100.069649 30.1984796,100.389941 L30.1963901,100.538989 L30.1963901,105.788856 C30.1963901,106.219166 30.2411943,106.375207 30.3253273,106.532522 C30.4094604,106.689837 30.5329222,106.813299 30.6902372,106.897432 C30.8278879,106.971049 30.9645631,107.014554 31.2848555,107.02428 L31.4339037,107.026369 L185.467196,107.026369 C185.897507,107.026369 186.053548,106.981565 186.210863,106.897432 C186.368178,106.813299 186.491639,106.689837 186.575773,106.532522 C186.649389,106.394872 186.692894,106.258196 186.70262,105.937904 L186.70471,105.788856 L186.70471,100.538989 C186.70471,100.108679 186.659906,99.9526377 186.575773,99.7953226 C186.491639,99.6380076 186.368178,99.5145458 186.210863,99.4304128 C186.073212,99.3567964 185.936537,99.3132911 185.616244,99.303565 L185.467196,99.3014755 Z M40.2762785,68.0471791 L30.9171775,68.0471791 L30.9171775,82.5313551 L33.4515889,82.5313551 L33.4515889,76.8465036 L39.5142986,76.8465036 L39.5142986,74.313649 L33.4515889,74.313649 L33.4515889,70.5987956 L40.2762785,70.5987956 L40.2762785,68.0471791 Z M44.9558289,71.909626 L42.1480986,71.909626 L42.1480986,82.5313551 L44.9558289,82.5313551 L44.9558289,71.909626 Z M48.6994693,68.0471791 L45.891739,68.0471791 L45.891739,82.5313551 L48.6994693,82.5313551 L48.6994693,68.0471791 Z M55.2840282,70.9440143 C54.2662536,70.9440143 53.4033578,71.197869 52.6953407,71.7055783 C51.9873236,72.2132876 51.4563108,72.9009446 51.1023023,73.7685491 C50.7482937,74.6361537 50.5712895,75.6097988 50.5712895,76.6894844 C50.5712895,77.8077303 50.7538251,78.8070822 51.1188964,79.6875402 C51.4839677,80.5679981 52.0315747,81.2620818 52.7617173,81.7697911 C53.4918599,82.2775004 54.3768813,82.5313551 55.4167814,82.5313551 C56.5451837,82.5313551 57.4744561,82.2614337 58.2045987,81.7215909 C58.8785765,81.2232744 59.3875947,80.4128256 59.7316533,79.2902446 L59.8142313,79.0030966 L57.5076444,79.0030966 C57.3527656,79.3886986 57.1010877,79.6843268 56.7526105,79.8899812 C56.4041334,80.0956357 55.958857,80.1984629 55.4167814,80.1984629 C54.9410824,80.1984629 54.5262287,80.089209 54.1722201,79.8707011 C53.8182116,79.6521933 53.5471738,79.3565651 53.3591067,78.9838165 C53.2023842,78.6731926 53.114804,78.3402539 53.096366,77.9850001 L53.0936003,77.7691701 L59.9303904,77.7691701 L59.9303904,76.5738038 C59.9303904,75.5326784 59.7616832,74.5847401 59.4242688,73.7299889 C59.0868544,72.8752378 58.56967,72.1972209 57.8727157,71.6959382 C57.1757614,71.1946556 56.3128655,70.9440143 55.2840282,70.9440143 Z M69.32347,78.2176651 L66.4251678,78.2176651 L66.4251678,82.0801121 L69.32347,82.0801121 L69.32347,78.2176651 Z M55.7456889,73.8408495 C56.2477097,73.8408495 56.6750249,73.9400929 57.0276347,74.1385798 C57.3802445,74.3370666 57.6402196,74.5838341 57.8075598,74.8788821 C57.9749001,75.1739301 58.0585702,75.4716604 58.0585702,75.772073 L53.3790197,75.772073 C53.3790197,75.4716604 53.4656781,75.1739301 53.6389948,74.8788821 C53.8123114,74.5838341 54.0752747,74.3370666 54.4278845,74.1385798 C54.7804943,73.9400929 55.2197624,73.8408495 55.7456889,73.8408495 Z M43.560472,67.0815673 C43.1407306,67.0815673 42.8003996,67.2126998 42.5394792,67.4749647 C42.2785588,67.7372296 42.1480986,68.088903 42.1480986,68.5299849 C42.1480986,68.9353035 42.2813949,69.278036 42.5479875,69.5581826 C42.8145801,69.8383292 43.1520749,69.9784025 43.560472,69.9784025 C43.9461804,69.9784025 44.275167,69.8383292 44.5474318,69.5581826 C44.8196965,69.278036 44.9558289,68.9353035 44.9558289,68.5299849 C44.9558289,68.1008242 44.8225326,67.752131 44.5559401,67.4839056 C44.2893475,67.2156801 43.9575248,67.0815673 43.560472,67.0815673 Z" id="形状"></path>
            <path d="M345.999322,17 L345.999322,66 L22.9993219,66 L22.9993219,26.900109 C22.9993219,23.4576254 23.357756,22.2092977 24.0308201,20.9507772 C24.7038843,19.6922566 25.6915786,18.7045623 26.9500991,18.0314982 C28.2086197,17.358434 29.4569474,17 32.899431,17 L345.999322,17 Z" id="形状结合备份-2" opacity="0.5"></path>
            <path d="M333.624186,1.40680446e-15 C337.92729,-8.17393903e-16 339.4877,0.448042522 341.06085,1.28937271 C342.634001,2.13070291 343.868619,3.36532077 344.709949,4.93847146 C345.551279,6.51162214 345.999322,8.07203181 345.999322,12.3751363 L345.999322,17 L34.9993219,17 L34.9993219,9.90010904 C34.9993219,6.45762545 35.357756,5.20929771 36.0308201,3.95077717 C36.7038843,2.69225662 37.6915786,1.70456233 38.9500991,1.03149817 C40.2086197,0.358434017 41.4569474,7.59294472e-16 44.899431,-1.30681039e-15 L333.624186,1.40680446e-15 Z" id="形状结合备份-3" opacity="0.2"></path>
        </g>
    </g>
</svg>