<?xml version="1.0" encoding="UTF-8"?>
<svg width="564px" height="564px" viewBox="0 0 564 564" version="1.1" xmlns="http://www.w3.org/2000/svg" xmlns:xlink="http://www.w3.org/1999/xlink">
    <title>com_android_filemanager_b_s5_2x2_1_sc</title>
    <defs>
        <path d="M61.5332448,-2.48601674e-15 L460.466755,2.48601674e-15 C481.863205,-1.44444732e-15 489.622075,2.22781467 497.444297,6.41118489 C505.266519,10.5945551 511.405445,16.7334809 515.588815,24.5557031 C519.772185,32.3779253 522,40.136795 522,61.5332448 L522,460.466755 C522,481.863205 519.772185,489.622075 515.588815,497.444297 C511.405445,505.266519 505.266519,511.405445 497.444297,515.588815 C489.622075,519.772185 481.863205,522 460.466755,522 L61.5332448,522 C40.136795,522 32.3779253,519.772185 24.5557031,515.588815 C16.7334809,511.405445 10.5945551,505.266519 6.41118489,497.444297 C2.22781467,489.622075 9.62964878e-16,481.863205 -1.65734449e-15,460.466755 L1.65734449e-15,61.5332448 C-9.62964878e-16,40.136795 2.22781467,32.3779253 6.41118489,24.5557031 C10.5945551,16.7334809 16.7334809,10.5945551 24.5557031,6.41118489 C32.3779253,2.22781467 40.136795,1.44444732e-15 61.5332448,-2.48601674e-15 Z" id="path-1"></path>
        <path d="M521.999243,314.462072 L521.999243,474.90676 L521.999243,474.90676 L521.993192,476.194141 L521.993192,476.194141 L521.981106,477.445656 L521.981106,477.445656 L521.963,478.662124 L521.963,478.662124 L521.924592,480.422904 L521.924592,480.422904 L521.89151,481.555337 L521.89151,481.555337 L521.852467,482.65559 L521.852467,482.65559 L521.807477,483.724481 L521.807477,483.724481 L521.756558,484.76283 L521.756558,484.76283 L521.699725,485.771456 C521.689761,485.937129 521.679552,486.101598 521.669097,486.264879 L521.603425,487.230456 L521.603425,487.230456 L521.53188,488.168357 L521.53188,488.168357 L521.45448,489.079401 L521.45448,489.079401 L521.371239,489.964408 L521.371239,489.964408 L521.282175,490.824197 L521.282175,490.824197 L521.187303,491.659586 L521.187303,491.659586 L521.086639,492.471395 L521.086639,492.471395 L520.980201,493.260443 L520.980201,493.260443 L520.868005,494.027548 L520.868005,494.027548 L520.750066,494.77353 L520.750066,494.77353 L520.6264,495.499208 L520.6264,495.499208 L520.497025,496.205401 C520.474988,496.321522 520.452713,496.436865 520.430202,496.551447 L520.292293,497.229948 L520.292293,497.229948 L520.148714,497.891012 L520.148714,497.891012 L519.999483,498.535457 L519.999483,498.535457 L519.844616,499.164104 L519.844616,499.164104 L519.684128,499.77777 L519.684128,499.77777 L519.518036,500.377274 L519.518036,500.377274 L519.346356,500.963437 L519.346356,500.963437 L519.169105,501.537077 L519.169105,501.537077 L518.986298,502.099012 L518.986298,502.099012 L518.797953,502.650063 L518.797953,502.650063 L518.604085,503.191048 C518.571314,503.280418 518.538314,503.369404 518.505085,503.458021 L518.302963,503.985443 L518.302963,503.985443 L518.09536,504.504846 L518.09536,504.504846 L517.882291,505.01705 L517.882291,505.01705 L517.552475,505.77365 L517.552475,505.77365 L517.325813,506.271439 L517.325813,506.271439 L516.975684,507.010256 L516.975684,507.010256 L516.61344,507.742089 L516.61344,507.742089 L516.239136,508.469703 L516.239136,508.469703 L515.982927,508.9538 L515.982927,508.9538 C512.154875,516.111635 506.5821,521.767655 499.501436,525.685024 L498.711781,526.111698 L498.711781,526.111698 L498.227463,526.36524 L498.227463,526.36524 L497.742089,526.61344 L497.742089,526.61344 L497.25484,526.856279 L497.25484,526.856279 L496.518658,527.210453 L496.518658,527.210453 L496.023137,527.439821 L496.023137,527.439821 L495.522874,527.663773 L495.522874,527.663773 L495.01705,527.882291 L495.01705,527.882291 L494.504846,528.09536 L494.504846,528.09536 L493.985443,528.302963 L493.985443,528.302963 L493.458021,528.505085 C493.369404,528.538314 493.280418,528.571314 493.191048,528.604085 L492.650063,528.797953 L492.650063,528.797953 L492.099012,528.986298 L492.099012,528.986298 L491.537077,529.169105 L491.537077,529.169105 L490.963437,529.346356 L490.963437,529.346356 L490.377274,529.518036 L490.377274,529.518036 L489.77777,529.684128 L489.77777,529.684128 L489.164104,529.844616 L489.164104,529.844616 L488.535457,529.999483 L488.535457,529.999483 L487.891012,530.148714 L487.891012,530.148714 L487.229948,530.292293 L487.229948,530.292293 L486.551447,530.430202 C486.436865,530.452713 486.321522,530.474988 486.205401,530.497025 L485.499208,530.6264 L485.499208,530.6264 L484.77353,530.750066 L484.77353,530.750066 L484.027548,530.868005 L484.027548,530.868005 L483.260443,530.980201 L483.260443,530.980201 L482.471395,531.086639 L482.471395,531.086639 L481.659586,531.187303 L481.659586,531.187303 L480.824197,531.282175 L480.824197,531.282175 L479.964408,531.371239 L479.964408,531.371239 L479.079401,531.45448 L479.079401,531.45448 L478.168357,531.53188 L478.168357,531.53188 L477.230456,531.603425 L477.230456,531.603425 L476.264879,531.669097 L476.264879,531.669097 L475.270808,531.72888 L475.270808,531.72888 L474.247422,531.782758 L474.247422,531.782758 L473.193904,531.830714 L473.193904,531.830714 L472.109435,531.872733 L472.109435,531.872733 L470.993194,531.908798 L470.993194,531.908798 L469.844363,531.938892 L469.844363,531.938892 L468.662124,531.963 L468.662124,531.963 L467.445656,531.981106 L467.445656,531.981106 L466.194141,531.993192 L466.194141,531.993192 L464.90676,531.999243 L464.90676,531.999243 L164.09324,531.999243 L164.09324,531.999243 L162.805859,531.993192 L162.805859,531.993192 L161.554344,531.981106 L161.554344,531.981106 L160.337876,531.963 L160.337876,531.963 L158.577096,531.924592 L158.577096,531.924592 L157.444663,531.89151 L157.444663,531.89151 L156.34441,531.852467 L156.34441,531.852467 L155.275519,531.807477 L155.275519,531.807477 L154.23717,531.756558 L154.23717,531.756558 L153.228544,531.699725 C153.062871,531.689761 152.898402,531.679552 152.735121,531.669097 L151.769544,531.603425 L151.769544,531.603425 L150.831643,531.53188 L150.831643,531.53188 L149.920599,531.45448 L149.920599,531.45448 L149.035592,531.371239 L149.035592,531.371239 L148.175803,531.282175 L148.175803,531.282175 L147.340414,531.187303 L147.340414,531.187303 L146.528605,531.086639 L146.528605,531.086639 L145.739557,530.980201 L145.739557,530.980201 L144.972452,530.868005 L144.972452,530.868005 L144.22647,530.750066 L144.22647,530.750066 L143.500792,530.6264 L143.500792,530.6264 L142.794599,530.497025 C142.678478,530.474988 142.563135,530.452713 142.448553,530.430202 L141.770052,530.292293 L141.770052,530.292293 L141.108988,530.148714 L141.108988,530.148714 L140.464543,529.999483 L140.464543,529.999483 L139.835896,529.844616 L139.835896,529.844616 L139.22223,529.684128 L139.22223,529.684128 L138.622726,529.518036 L138.622726,529.518036 L138.036563,529.346356 L138.036563,529.346356 L137.462923,529.169105 L137.462923,529.169105 L136.900988,528.986298 L136.900988,528.986298 L136.349937,528.797953 L136.349937,528.797953 L135.808952,528.604085 C135.719582,528.571314 135.630596,528.538314 135.541979,528.505085 L135.014557,528.302963 L135.014557,528.302963 L134.495154,528.09536 L134.495154,528.09536 L133.98295,527.882291 L133.98295,527.882291 L133.22635,527.552475 L133.22635,527.552475 L132.728561,527.325813 L132.728561,527.325813 L131.989744,526.975684 L131.989744,526.975684 L131.257911,526.61344 L131.257911,526.61344 L130.530297,526.239136 L130.530297,526.239136 L130.0462,525.982927 L130.0462,525.982927 C122.888365,522.154875 117.232345,516.5821 113.314976,509.501436 L112.888302,508.711781 L112.888302,508.711781 L112.63476,508.227463 L112.63476,508.227463 L112.38656,507.742089 L112.38656,507.742089 L112.143721,507.25484 L112.143721,507.25484 L111.789547,506.518658 L111.789547,506.518658 L111.560179,506.023137 L111.560179,506.023137 L111.336227,505.522874 L111.336227,505.522874 L111.117709,505.01705 L111.117709,505.01705 L110.90464,504.504846 L110.90464,504.504846 L110.697037,503.985443 L110.697037,503.985443 L110.494915,503.458021 C110.461686,503.369404 110.428686,503.280418 110.395915,503.191048 L110.202047,502.650063 L110.202047,502.650063 L110.013702,502.099012 L110.013702,502.099012 L109.830895,501.537077 L109.830895,501.537077 L109.653644,500.963437 L109.653644,500.963437 L109.481964,500.377274 L109.481964,500.377274 L109.315872,499.77777 L109.315872,499.77777 L109.155384,499.164104 L109.155384,499.164104 L109.000517,498.535457 L109.000517,498.535457 L108.851286,497.891012 L108.851286,497.891012 L108.707707,497.229948 L108.707707,497.229948 L108.569798,496.551447 C108.547287,496.436865 108.525012,496.321522 108.502975,496.205401 L108.3736,495.499208 L108.3736,495.499208 L108.249934,494.77353 L108.249934,494.77353 L108.131995,494.027548 L108.131995,494.027548 L108.019799,493.260443 L108.019799,493.260443 L107.913361,492.471395 L107.913361,492.471395 L107.812697,491.659586 L107.812697,491.659586 L107.717825,490.824197 L107.717825,490.824197 L107.628761,489.964408 L107.628761,489.964408 L107.54552,489.079401 L107.54552,489.079401 L107.46812,488.168357 L107.46812,488.168357 L107.396575,487.230456 L107.396575,487.230456 L107.330903,486.264879 L107.330903,486.264879 L107.27112,485.270808 L107.27112,485.270808 L107.217242,484.247422 L107.217242,484.247422 L107.169286,483.193904 L107.169286,483.193904 L107.127267,482.109435 L107.127267,482.109435 L107.091202,480.993194 L107.091202,480.993194 L107.061108,479.844363 L107.061108,479.844363 L107.037,478.662124 L107.037,478.662124 L107.018894,477.445656 L107.018894,477.445656 L107.006808,476.194141 L107.006808,476.194141 L107.000757,474.90676 L107.000757,474.90676 L107.000757,239.09324 L107.000757,239.09324 L107.006808,237.805859 L107.006808,237.805859 L107.018894,236.554344 L107.018894,236.554344 L107.037,235.337876 L107.037,235.337876 L107.075408,233.577096 L107.075408,233.577096 L107.10849,232.444663 L107.10849,232.444663 L107.147533,231.34441 L107.147533,231.34441 L107.192523,230.275519 L107.192523,230.275519 L107.243442,229.23717 L107.243442,229.23717 L107.300275,228.228544 C107.310239,228.062871 107.320448,227.898402 107.330903,227.735121 L107.396575,226.769544 L107.396575,226.769544 L107.46812,225.831643 L107.46812,225.831643 L107.54552,224.920599 L107.54552,224.920599 L107.628761,224.035592 L107.628761,224.035592 L107.717825,223.175803 L107.717825,223.175803 L107.812697,222.340414 L107.812697,222.340414 L107.913361,221.528605 L107.913361,221.528605 L108.019799,220.739557 L108.019799,220.739557 L108.131995,219.972452 L108.131995,219.972452 L108.249934,219.22647 L108.249934,219.22647 L108.3736,218.500792 L108.3736,218.500792 L108.502975,217.794599 C108.525012,217.678478 108.547287,217.563135 108.569798,217.448553 L108.707707,216.770052 L108.707707,216.770052 L108.851286,216.108988 L108.851286,216.108988 L109.000517,215.464543 L109.000517,215.464543 L109.155384,214.835896 L109.155384,214.835896 L109.315872,214.22223 L109.315872,214.22223 L109.481964,213.622726 L109.481964,213.622726 L109.653644,213.036563 L109.653644,213.036563 L109.830895,212.462923 L109.830895,212.462923 L110.013702,211.900988 L110.013702,211.900988 L110.202047,211.349937 L110.202047,211.349937 L110.395915,210.808952 C110.428686,210.719582 110.461686,210.630596 110.494915,210.541979 L110.697037,210.014557 L110.697037,210.014557 L110.90464,209.495154 L110.90464,209.495154 L111.117709,208.98295 L111.117709,208.98295 L111.447525,208.22635 L111.447525,208.22635 L111.674187,207.728561 L111.674187,207.728561 L112.024316,206.989744 L112.024316,206.989744 L112.38656,206.257911 L112.38656,206.257911 L112.760864,205.530297 L112.760864,205.530297 L113.017073,205.0462 L113.017073,205.0462 C116.845125,197.888365 122.4179,192.232345 129.498564,188.314976 L130.288219,187.888302 L130.288219,187.888302 L130.772537,187.63476 L130.772537,187.63476 L131.257911,187.38656 L131.257911,187.38656 L131.74516,187.143721 L131.74516,187.143721 L132.481342,186.789547 L132.481342,186.789547 L132.976863,186.560179 L132.976863,186.560179 L133.477126,186.336227 L133.477126,186.336227 L133.98295,186.117709 L133.98295,186.117709 L134.495154,185.90464 L134.495154,185.90464 L135.014557,185.697037 L135.014557,185.697037 L135.541979,185.494915 C135.630596,185.461686 135.719582,185.428686 135.808952,185.395915 L136.349937,185.202047 L136.349937,185.202047 L136.900988,185.013702 L136.900988,185.013702 L137.462923,184.830895 L137.462923,184.830895 L138.036563,184.653644 L138.036563,184.653644 L138.622726,184.481964 L138.622726,184.481964 L139.22223,184.315872 L139.22223,184.315872 L139.835896,184.155384 L139.835896,184.155384 L140.464543,184.000517 L140.464543,184.000517 L141.108988,183.851286 L141.108988,183.851286 L141.770052,183.707707 L141.770052,183.707707 L142.448553,183.569798 C142.563135,183.547287 142.678478,183.525012 142.794599,183.502975 L143.500792,183.3736 L143.500792,183.3736 L144.22647,183.249934 L144.22647,183.249934 L144.972452,183.131995 L144.972452,183.131995 L145.739557,183.019799 L145.739557,183.019799 L146.528605,182.913361 L146.528605,182.913361 L147.340414,182.812697 L147.340414,182.812697 L148.175803,182.717825 L148.175803,182.717825 L149.035592,182.628761 L149.035592,182.628761 L149.920599,182.54552 L149.920599,182.54552 L150.831643,182.46812 L150.831643,182.46812 L151.769544,182.396575 L151.769544,182.396575 L152.735121,182.330903 L152.735121,182.330903 L153.729192,182.27112 L153.729192,182.27112 L154.752578,182.217242 L154.752578,182.217242 L155.806096,182.169286 L155.806096,182.169286 L156.890565,182.127267 L156.890565,182.127267 L158.006806,182.091202 L158.006806,182.091202 L159.155637,182.061108 L159.155637,182.061108 L160.337876,182.037 L160.337876,182.037 L161.554344,182.018894 L161.554344,182.018894 L162.805859,182.006808 L162.805859,182.006808 L164.09324,182 L164.09324,182 L165,182 L165.000994,314.462072 L165.009195,315.369959 L165.009195,315.369959 L165.025645,316.230139 C165.029072,316.369646 165.03284,316.507253 165.03695,316.643006 L165.065693,317.435625 L165.065693,317.435625 L165.102579,318.185868 L165.102579,318.185868 L165.147566,318.895866 L165.147566,318.895866 L165.20061,319.567751 L165.20061,319.567751 L165.261671,320.203655 L165.261671,320.203655 L165.330704,320.80571 L165.330704,320.80571 L165.407669,321.376047 L165.407669,321.376047 L165.492523,321.916798 C165.50732,322.004576 165.522444,322.091211 165.537894,322.176745 L165.634501,322.677115 C165.684754,322.921058 165.737925,323.155905 165.793991,323.382856 L165.909975,323.826582 C165.949919,323.971217 165.991142,324.112699 166.033637,324.251381 L166.164932,324.659385 L166.164932,324.659385 L166.30382,325.052725 L166.30382,325.052725 L166.450258,325.433534 L166.450258,325.433534 L166.604203,325.803943 C166.656764,325.925917 166.71057,326.046512 166.765613,326.166085 L166.934445,326.52209 L166.934445,326.52209 L167.110658,326.87409 L167.110658,326.87409 L167.292218,327.220495 C168.787916,330.017208 170.982792,332.212084 173.779505,333.707782 L174.122179,333.887427 L174.122179,333.887427 L174.466626,334.060045 L174.466626,334.060045 L174.814843,334.225593 L174.814843,334.225593 L175.16883,334.384034 L175.16883,334.384034 L175.530585,334.535327 C175.591635,334.559945 175.653093,334.584263 175.714999,334.608281 L176.092153,334.748778 C176.219887,334.794405 176.349749,334.838823 176.482071,334.882028 L176.886752,335.007991 C176.95554,335.028375 177.025027,335.048455 177.095253,335.068228 L177.525826,335.183186 L177.525826,335.183186 L177.976158,335.290759 C178.052971,335.30807 178.130691,335.325072 178.209358,335.341763 L178.693077,335.438182 L178.693077,335.438182 L179.201551,335.527116 L179.201551,335.527116 L179.73678,335.608525 L179.73678,335.608525 L180.300761,335.682369 L180.300761,335.682369 L180.895494,335.748609 L180.895494,335.748609 L181.522977,335.807204 L181.522977,335.807204 L182.185209,335.858116 L182.185209,335.858116 L182.884188,335.901304 L182.884188,335.901304 L183.621913,335.936729 L183.621913,335.936729 L184.400382,335.96435 L184.400382,335.96435 L185.221595,335.984129 L185.221595,335.984129 L186.087548,335.996026 C186.235713,335.997349 186.385826,335.998343 186.537928,335.999006 L500.462072,335.999006 L500.462072,335.999006 L501.351146,335.991065 L501.351146,335.991065 L502.194479,335.975223 L502.194479,335.975223 L502.99407,335.951517 L502.99407,335.951517 L503.751918,335.919989 C503.874858,335.914085 503.996142,335.907856 504.115812,335.901304 L504.814791,335.858116 L504.814791,335.858116 L505.477023,335.807204 L505.477023,335.807204 L506.104506,335.748609 L506.104506,335.748609 L506.699239,335.682369 L506.699239,335.682369 L507.26322,335.608525 L507.26322,335.608525 L507.798449,335.527116 L507.798449,335.527116 L508.306923,335.438182 L508.306923,335.438182 L508.790642,335.341763 C508.869309,335.325072 508.947029,335.30807 509.023842,335.290759 L509.474174,335.183186 L509.474174,335.183186 L509.904747,335.068228 L509.904747,335.068228 L510.317559,334.945923 C510.452425,334.903934 510.584663,334.860728 510.714608,334.816311 L511.097894,334.679433 C511.16074,334.656016 511.223094,334.632299 511.285001,334.608281 L511.651389,334.460577 C511.711667,334.435361 511.77158,334.409846 511.83117,334.384034 L512.185157,334.225593 L512.185157,334.225593 L512.533374,334.060045 L512.533374,334.060045 L512.877821,333.887427 L512.877821,333.887427 L513.220495,333.707782 L513.220495,333.707782 C516.017208,332.212084 518.212084,330.017208 519.707782,327.220495 L519.887427,326.877821 L519.887427,326.877821 L520.060045,326.533374 L520.060045,326.533374 L520.225593,326.185157 L520.225593,326.185157 L520.384034,325.83117 L520.384034,325.83117 L520.535327,325.469415 C520.559945,325.408365 520.584263,325.346907 520.608281,325.285001 L520.748778,324.907847 C520.794405,324.780113 520.838823,324.650251 520.882028,324.517929 L521.007991,324.113248 C521.028375,324.04446 521.048455,323.974973 521.068228,323.904747 L521.183186,323.474174 L521.183186,323.474174 L521.290759,323.023842 C521.30807,322.947029 521.325072,322.869309 521.341763,322.790642 L521.438182,322.306923 L521.438182,322.306923 L521.527116,321.798449 L521.527116,321.798449 L521.608525,321.26322 L521.608525,321.26322 L521.682369,320.699239 L521.682369,320.699239 L521.748609,320.104506 L521.748609,320.104506 L521.807204,319.477023 L521.807204,319.477023 L521.858116,318.814791 L521.858116,318.814791 L521.901304,318.115812 L521.901304,318.115812 L521.936729,317.378087 L521.936729,317.378087 L521.96435,316.599618 L521.96435,316.599618 L521.984129,315.778405 L521.984129,315.778405 L521.999243,314.912452 C521.999243,314.764287 521.999243,314.614174 521.999243,314.462072 L521.999243,314.462072 Z" id="path-3"></path>
        <filter x="-0.1%" y="-0.1%" width="100.2%" height="100.3%" filterUnits="objectBoundingBox" id="filter-4">
            <feOffset dx="0" dy="1" in="SourceAlpha" result="shadowOffsetInner1"></feOffset>
            <feComposite in="shadowOffsetInner1" in2="SourceAlpha" operator="arithmetic" k2="-1" k3="1" result="shadowInnerInner1"></feComposite>
            <feColorMatrix values="0 0 0 0 0.933333333   0 0 0 0 0.690196078   0 0 0 0 0.192156863  0 0 0 1 0" type="matrix" in="shadowInnerInner1"></feColorMatrix>
        </filter>
    </defs>
    <g id="com_android_filemanager" stroke="none" stroke-width="1" fill="none" fill-rule="evenodd">
        <g id="编组" transform="translate(21.000000, 21.000000)">
            <mask id="mask-2" fill="white">
                <use xlink:href="#path-1"></use>
            </mask>
            <g id="矩形备份-20"></g>
            <g id="路径" opacity="0.600000024" mask="url(#mask-2)">
                <use fill="#4E4E4E" fill-rule="evenodd" xlink:href="#path-3"></use>
                <use fill="black" fill-opacity="1" filter="url(#filter-4)" xlink:href="#path-3"></use>
            </g>
            <path d="M107.034483,257.398467 L522.034483,257.398467 L522.034483,474.398467 C522.034483,500.908135 500.544151,522.398467 474.034483,522.398467 L107.034483,522.398467 L107.034483,522.398467 L107.034483,257.398467 Z" id="蒙版备份-2" fill="#4E4E4E" mask="url(#mask-2)"></path>
        </g>
    </g>
</svg>