<?xml version="1.0" encoding="UTF-8"?>
<svg width="564px" height="240px" viewBox="0 0 564 240" version="1.1" xmlns="http://www.w3.org/2000/svg" xmlns:xlink="http://www.w3.org/1999/xlink">
    <title>com_android_filemanager_b_s5_2x1_1_mc</title>
    <g id="com_android_filemanager" stroke="none" stroke-width="1" fill="none" fill-rule="evenodd">
        <g id="编组" transform="translate(179.999992, 52.000000)" fill="#000000">
            <path d="M278.616697,21 L279.43346,21.0046185 L280.55891,21.0287726 L280.55891,21.0287726 L281.247118,21.0562727 L281.889146,21.0928213 L282.487992,21.1383588 C283.16262,21.1967063 283.755202,21.2732845 284.287147,21.3676682 L284.728749,21.452919 C284.871333,21.4827828 285.009467,21.5140902 285.143649,21.5468312 L285.534841,21.6493454 C285.66162,21.6849438 285.784948,21.7219659 285.905323,21.7604019 L286.258091,21.8799412 L286.59614,22.0079038 L286.922468,22.1442301 L287.24007,22.2888607 L287.551942,22.4417359 L287.861082,22.6027962 C289.816638,23.6486388 291.351369,25.1833702 292.397212,27.1389258 L292.558272,27.4480655 L292.711147,27.7599382 L292.855778,28.0775402 L292.992104,28.4038678 L293.120067,28.7419172 L293.239606,29.0946847 C293.278042,29.2150598 293.315064,29.3383873 293.350662,29.4651666 L293.453177,29.8563591 C293.485918,29.9905413 293.517225,30.1286747 293.547089,30.2712585 L293.63234,30.7128611 C293.71324,31.168814 293.781059,31.6693161 293.835528,32.2278506 L293.885538,32.8062285 L293.907187,33.1108619 L293.907187,33.1108619 L293.943735,33.7528902 L293.971235,34.4410974 L293.995389,35.566548 L293.995389,35.566548 L294,36.3833112 L294,114.892795 L221.34914,114.892795 C216.629416,114.892795 212.566151,111.595807 211.575097,107.006791 L211.520361,106.735374 L210.440132,100.973163 C209.482498,95.8649012 205.085983,92.1375755 199.91645,92.0037251 L199.628475,92 L0,92 L0,36.3833112 L0.0046263129,35.566548 L0.0287804079,34.4410974 L0.0287804079,34.4410974 L0.0562805375,33.7528902 L0.0928291228,33.1108619 L0.138366623,32.5120163 C0.196714086,31.8373876 0.273292356,31.2448062 0.367675965,30.7128611 L0.452926769,30.2712585 C0.482790585,30.1286747 0.514097975,29.9905413 0.546839015,29.8563591 L0.649353163,29.4651666 C0.684951581,29.3383873 0.721973725,29.2150598 0.760409672,29.0946847 L0.879949002,28.7419172 L1.00791161,28.4038678 L1.14423796,28.0775402 L1.28886851,27.7599382 L1.44174371,27.4480655 L1.60280404,27.1389258 C2.64864659,25.1833702 4.18337804,23.6486388 6.13893359,22.6027962 L6.44807328,22.4417359 L6.759946,22.2888607 L7.07754802,22.1442301 L7.4038756,22.0079038 L7.74192501,21.8799412 L8.09469252,21.7604019 C8.21506763,21.7219659 8.33839513,21.6849438 8.4651744,21.6493454 L8.85636692,21.5468312 C8.99054912,21.5140902 9.12868246,21.4827828 9.27126634,21.452919 L9.71286893,21.3676682 C10.1688219,21.2867679 10.6693239,21.2189492 11.2278584,21.1644798 L11.8062363,21.1144702 L12.1108697,21.0928213 L12.1108697,21.0928213 L12.752898,21.0562727 L13.4411052,21.0287726 L14.5665559,21.0046185 L14.5665559,21.0046185 L15.383319,21 L278.616697,21 Z M207.493272,77.0909091 L33.8480661,77.0909091 C33.4023067,77.0909091 33.2406636,77.1373219 33.0777007,77.2244754 C32.9147377,77.311629 32.7868434,77.4395233 32.6996899,77.6024862 C32.6234305,77.7450788 32.5783633,77.8866609 32.568288,78.2184524 L32.5661235,78.3728517 L32.5661235,80.6089665 C32.5661235,81.0547259 32.6125363,81.216369 32.6996899,81.3793319 C32.7868434,81.5422949 32.9147377,81.6701892 33.0777007,81.7573427 C33.2202933,81.8336021 33.3618753,81.8786693 33.6936668,81.8887446 L33.8480661,81.8909091 L207.493272,81.8909091 C207.939031,81.8909091 208.100674,81.8444963 208.263637,81.7573427 C208.4266,81.6701892 208.554495,81.5422949 208.641648,81.3793319 C208.717907,81.2367394 208.762975,81.0951573 208.77305,80.7633658 L208.775214,80.6089665 L208.775214,78.3728517 C208.775214,77.9270923 208.728802,77.7654492 208.641648,77.6024862 C208.554495,77.4395233 208.4266,77.311629 208.263637,77.2244754 C208.121045,77.1482161 207.979463,77.1031489 207.647671,77.0930736 L207.493272,77.0909091 Z M135.847817,62.6909091 L33.8480661,62.6909091 C33.4023067,62.6909091 33.2406636,62.7373219 33.0777007,62.8244754 C32.9147377,62.911629 32.7868434,63.0395233 32.6996899,63.2024862 C32.6234305,63.3450788 32.5783633,63.4866609 32.568288,63.8184524 L32.5661235,63.9728517 L32.5661235,66.2089665 C32.5661235,66.6547259 32.6125363,66.816369 32.6996899,66.9793319 C32.7868434,67.1422949 32.9147377,67.2701892 33.0777007,67.3573427 C33.2202933,67.4336021 33.3618753,67.4786693 33.6936668,67.4887446 L33.8480661,67.4909091 L135.847817,67.4909091 C136.293577,67.4909091 136.45522,67.4444963 136.618183,67.3573427 C136.781146,67.2701892 136.90904,67.1422949 136.996194,66.9793319 C137.072453,66.8367394 137.11752,66.6951573 137.127595,66.3633658 L137.12976,66.2089665 L137.12976,63.9728517 C137.12976,63.5270923 137.083347,63.3654492 136.996194,63.2024862 C136.90904,63.0395233 136.781146,62.911629 136.618183,62.8244754 C136.47559,62.7482161 136.334008,62.7031489 136.002217,62.6930736 L135.847817,62.6909091 Z M38.9777972,42.0401939 L32.7249563,42.0401939 L32.7249563,51.0401939 L34.4182035,51.0401939 L34.4182035,47.5078105 L38.4687164,47.5078105 L38.4687164,45.9339763 L34.4182035,45.9339763 L34.4182035,43.6256862 L38.9777972,43.6256862 L38.9777972,42.0401939 Z M42.1042177,44.4401939 L40.2283654,44.4401939 L40.2283654,51.0401939 L42.1042177,51.0401939 L42.1042177,44.4401939 Z M44.6053541,42.0401939 L42.7295018,42.0401939 L42.7295018,51.0401939 L44.6053541,51.0401939 L44.6053541,42.0401939 Z M49.0045159,43.8401939 C48.3245379,43.8401939 47.7480348,43.997931 47.2750067,44.3134053 C46.8019785,44.6288795 46.4472074,45.0561673 46.2106933,45.5952688 C45.9741793,46.1343703 45.8559222,46.739362 45.8559222,47.4102439 C45.8559222,48.1050858 45.9778748,48.7260508 46.2217799,49.273139 C46.4656851,49.8202272 46.8315428,50.2515084 47.3193531,50.5669826 C47.8071634,50.8824568 48.3984486,51.0401939 49.0932087,51.0401939 C49.8470973,51.0401939 50.4679467,50.8724735 50.955757,50.5370325 C51.3947863,50.2351357 51.7290472,49.7488662 51.9585397,49.0782239 L52.031157,48.8478478 L50.4901199,48.8478478 C50.386645,49.0874485 50.2184983,49.2711424 49.9856797,49.3989294 C49.7528612,49.5267164 49.4553708,49.5906099 49.0932087,49.5906099 C48.7753929,49.5906099 48.4982279,49.5227231 48.2617139,49.3869493 C48.0251998,49.2511756 47.8441187,49.0674818 47.7184706,48.8358678 C47.6179521,48.6505766 47.5600062,48.4525068 47.5446327,48.2416582 L47.541085,48.0811257 L52.1087631,48.0811257 L52.1087631,47.3383637 C52.1087631,46.6914419 51.9960494,46.1024236 51.7706219,45.5713087 C51.5451944,45.0401939 51.1996622,44.6188961 50.7340251,44.3074152 C50.268388,43.9959344 49.6918849,43.8401939 49.0045159,43.8401939 Z M58.3843053,48.3598061 L56.4479417,48.3598061 L56.4479417,50.7598061 L58.3843053,50.7598061 L58.3843053,48.3598061 Z M49.3129527,45.6401939 C49.6483541,45.6401939 49.9338446,45.7018606 50.1694242,45.8251939 C50.4050037,45.9485273 50.5786938,46.1018606 50.6904942,46.2851939 C50.8022947,46.4685273 50.858195,46.6535273 50.858195,46.8401939 L47.7317745,46.8401939 C47.7317745,46.6535273 47.7896712,46.4685273 47.9054645,46.2851939 C48.0212579,46.1018606 48.1969443,45.9485273 48.4325239,45.8251939 C48.6681035,45.7018606 48.9615797,45.6401939 49.3129527,45.6401939 Z M41.171976,41.4401939 C40.8915455,41.4401939 40.6641695,41.5216754 40.4898479,41.6846384 C40.3155262,41.8476013 40.2283654,42.0661199 40.2283654,42.3401939 C40.2283654,42.5920458 40.317421,42.8050088 40.4955323,42.9790828 C40.6736435,43.1531569 40.8991247,43.2401939 41.171976,43.2401939 C41.4296688,43.2401939 41.6494656,43.1531569 41.8313664,42.9790828 C42.0132673,42.8050088 42.1042177,42.5920458 42.1042177,42.3401939 C42.1042177,42.0735273 42.0151621,41.8568606 41.8370508,41.6901939 C41.6589396,41.5235273 41.437248,41.4401939 41.171976,41.4401939 Z" id="形状"></path>
            <path d="M262.182935,5.17920154e-16 C266.640528,-3.00926524e-16 268.25696,0.464128056 269.886589,1.33566352 C271.516219,2.20719898 272.795162,3.48614185 273.666697,5.11577148 C274.538233,6.74540111 275.002361,8.3618323 275.002361,12.819426 L275.002008,25 L20.2579015,25 C19.8032328,25 19.3855125,25.0060358 19.0000078,25.0180134 L19.0023607,10.2555408 C19.0023607,6.68946584 19.3736632,5.39632089 20.0708915,4.09261719 C20.7681199,2.78891348 21.7912742,1.76575919 23.0949779,1.06853082 C24.3986816,0.371302445 25.6918266,2.4074122e-16 29.2579015,-4.14336123e-16 L262.182935,5.17920154e-16 Z" id="形状结合备份-2" opacity="0.5"></path>
        </g>
    </g>
</svg>