<?xml version="1.0" encoding="UTF-8"?>
<svg width="564px" height="240px" viewBox="0 0 564 240" version="1.1" xmlns="http://www.w3.org/2000/svg" xmlns:xlink="http://www.w3.org/1999/xlink">
    <title>com_android_filemanager_b_s5_2x1_1_sc</title>
    <defs>
        <path d="M61.5332448,-2.48601674e-15 L460.466755,1.45059527e-14 C481.863205,-8.42837627e-15 489.622075,2.22781467 497.444297,6.41118489 C505.266519,10.5945551 511.405445,16.7334809 515.588815,24.5557031 C519.772185,32.3779253 522,40.136795 522,61.5332448 L522,136.466755 C522,157.863205 519.772185,165.622075 515.588815,173.444297 C511.405445,181.266519 505.266519,187.405445 497.444297,191.588815 C489.622075,195.772185 481.863205,198 460.466755,198 L61.5332448,198 C40.136795,198 32.3779253,195.772185 24.5557031,191.588815 C16.7334809,187.405445 10.5945551,181.266519 6.41118489,173.444297 C2.22781467,165.622075 9.62964878e-16,157.863205 -1.65734449e-15,136.466755 L1.65734449e-15,61.5332448 C-9.62964878e-16,40.136795 2.22781467,32.3779253 6.41118489,24.5557031 C10.5945551,16.7334809 16.7334809,10.5945551 24.5557031,6.41118489 C32.3779253,2.22781467 40.136795,1.44444732e-15 61.5332448,-2.48601674e-15 Z" id="path-1"></path>
        <path d="M0,0 L238.461475,0 C243.75497,1.31323047e-14 248.297764,3.77030376 249.273132,8.97316313 L250.353361,14.7353741 C251.240059,19.4652463 255.369872,22.8927951 260.18214,22.8927951 L371.754883,22.8927951 L371.754883,22.8927951 L371.754883,89 C371.754883,115.509668 350.264551,137 323.754883,137 L48,137 C21.490332,137 3.87736348e-14,115.509668 0,89 L0,0 L0,0 Z" id="path-3"></path>
    </defs>
    <g id="com_android_filemanager" stroke="none" stroke-width="1" fill="none" fill-rule="evenodd">
        <g id="编组" transform="translate(21.000000, 21.000000)">
            <mask id="mask-2" fill="white">
                <use xlink:href="#path-1"></use>
            </mask>
            <g id="蒙版"></g>
            <path d="M470.51376,73.6097868 C477.358204,77.2702357 482.729764,82.6417958 486.390213,89.4862402 C490.050662,96.3306847 492,103.119696 492,121.841589 L492,147.158411 C492,165.880304 490.050662,172.669315 486.390213,179.51376 C482.729764,186.358204 477.358204,191.729764 470.51376,195.390213 C463.747093,199.009066 457.034607,200.955476 438.792052,200.999245 L173.841589,201 C155.119696,201 148.330685,199.050662 141.48624,195.390213 C134.641796,191.729764 129.270236,186.358204 125.609787,179.51376 C121.990934,172.747093 120.044524,166.034607 120.000755,147.792052 L120,121.841589 C120,103.119696 121.949338,96.3306847 125.609787,89.4862402 C129.270236,82.6417958 134.641796,77.2702357 141.48624,73.6097868 C146.113925,71.134874 150.716268,69.4421819 158.998668,68.6053426 L159,154.616689 C159,159.965801 159.556954,161.905519 160.602796,163.861074 C161.648639,165.81663 163.18337,167.351361 165.138926,168.397204 C167.094481,169.443046 169.034199,170 174.383311,170 L174.383311,170 L437.616689,170 C442.965801,170 444.905519,169.443046 446.861074,168.397204 C448.81663,167.351361 450.351361,165.81663 451.397204,163.861074 C452.443046,161.905519 453,159.965801 453,154.616689 L453,154.616689 L453.00033,68.6052414 C461.283361,69.4420455 465.885889,71.1347743 470.51376,73.6097868 Z" id="形状结合" fill="#4E4E4E" opacity="0.6" mask="url(#mask-2)"></path>
            <g id="编组-4" mask="url(#mask-2)">
                <g transform="translate(120.166992, 123.000000)" id="矩形备份-8">
                    <mask id="mask-4" fill="white">
                        <use xlink:href="#path-3"></use>
                    </mask>
                    <use id="蒙版" fill="#4E4E4E" xlink:href="#path-3"></use>
                </g>
            </g>
        </g>
    </g>
</svg>