<?xml version="1.0" encoding="UTF-8"?>
<svg width="240px" height="240px" viewBox="0 0 240 240" version="1.1" xmlns="http://www.w3.org/2000/svg" xmlns:xlink="http://www.w3.org/1999/xlink">
    <title>com_android_filemanager_b_s5_1x1_2_mc</title>
    <defs>
        <rect id="path-1" x="0" y="0" width="124" height="31"></rect>
        <path d="M68.6284672,24 C73.9219622,24 78.4647562,27.7703038 79.4401245,32.9731631 L80.5203531,38.7353741 C81.4070515,43.4652463 85.5368643,46.8927951 90.3491324,46.8927951 L150,46.892 L150,89.2333776 C150,99.9316025 148.886093,103.811037 146.794408,107.722148 C144.702722,111.63326 141.63326,114.702722 137.722148,116.794408 C133.811037,118.886093 129.931602,120 119.233378,120 L30.7666224,120 C20.0683975,120 16.1889627,118.886093 12.2778516,116.794408 C8.36674045,114.702722 5.29727756,111.63326 3.20559245,107.722148 C1.14935962,103.877327 0.0380404605,100.063118 0.000959326263,89.7715119 L0,24 L68.6284672,24 Z" id="path-3"></path>
    </defs>
    <g id="com_android_filemanager" stroke="none" stroke-width="1" fill="none" fill-rule="evenodd">
        <g id="编组-3" transform="translate(45.000000, 40.000000)">
            <path d="M109,0 C116.731986,2.1323708e-15 123,6.2680135 123,14 L123.00066,14.4461825 C121.714012,14.1541756 120.375011,14 119,14 L119,14 L31,14 C29.6251863,14 28.2863719,14.1541313 26.999894,14.4460569 L27,14 C27,6.2680135 33.2680135,4.97305656e-15 41,0 L109,0 Z" id="形状结合" fill="#000000" opacity="0.200000003"></path>
            <g id="编组-2" opacity="0.4" transform="translate(13.000000, 14.000000)">
                <mask id="mask-2" fill="white">
                    <use xlink:href="#path-1"></use>
                </mask>
                <g id="矩形"></g>
                <rect id="矩形" fill="#000000" mask="url(#mask-2)" x="0" y="0" width="124" height="71" rx="18"></rect>
            </g>
            <g id="编组" transform="translate(0.000000, 30.000000)">
                <path d="M137.722148,3.20559245 C141.63326,5.29727756 144.702722,8.36674045 146.794408,12.2778516 C148.886093,16.1889627 150,20.0683975 150,30.7666224 L150,46.892 L90.3491324,46.8927951 C85.6294079,46.8927951 81.5661428,43.5958075 80.5750887,39.0067913 L80.5203531,38.7353741 L79.4401245,32.9731631 C78.4647562,27.7703038 73.9219622,24 68.6284672,24 L68.6284672,24 L0.200755293,23.9993301 C0.608140124,18.1551399 1.6291772,15.2254918 3.20559245,12.2778516 C5.29727756,8.36674045 8.36674045,5.29727756 12.2778516,3.20559245 C16.1226726,1.14935962 19.9368822,0.0380404605 30.2284881,0.000959326263 L119.233378,1.24300837e-15 C129.931602,-7.22223659e-16 133.811037,1.11390733 137.722148,3.20559245 Z" id="形状结合" fill="#000000"></path>
                <mask id="mask-4" fill="white">
                    <use xlink:href="#path-3"></use>
                </mask>
                <use id="形状结合" fill="#000000" opacity="0.1" xlink:href="#path-3"></use>
            </g>
        </g>
    </g>
</svg>