<?xml version="1.0" encoding="UTF-8"?>
<svg width="240px" height="240px" viewBox="0 0 240 240" version="1.1" xmlns="http://www.w3.org/2000/svg" xmlns:xlink="http://www.w3.org/1999/xlink">
    <title>com_android_filemanager_b_s5_1x1_1_mc</title>
    <defs>
        <rect id="path-1" x="0" y="0" width="124" height="34"></rect>
        <path d="M68.6284672,34 C73.9219622,34 78.4647562,37.7703038 79.4401245,42.9731631 L80.5203531,48.7353741 C81.4070515,53.4652463 85.5368643,56.8927951 90.3491324,56.8927951 L150,56.892 L150,99.2333776 C150,109.931602 148.886093,113.811037 146.794408,117.722148 C144.702722,121.63326 141.63326,124.702722 137.722148,126.794408 C133.811037,128.886093 129.931602,130 119.233378,130 L30.7666224,130 C20.0683975,130 16.1889627,128.886093 12.2778516,126.794408 C8.36674045,124.702722 5.29727756,121.63326 3.20559245,117.722148 C1.14935962,113.877327 0.0380404605,110.063118 0.000959326263,99.7715119 L0,34 L68.6284672,34 Z" id="path-3"></path>
    </defs>
    <g id="com_android_filemanager" stroke="none" stroke-width="1" fill="none" fill-rule="evenodd">
        <g id="编组-3" transform="translate(45.000000, 41.000000)">
            <g id="编组-2" transform="translate(13.000000, 0.000000)">
                <mask id="mask-2" fill="white">
                    <use xlink:href="#path-1"></use>
                </mask>
                <g id="矩形"></g>
                <rect id="矩形" fill="#000000" opacity="0.4" mask="url(#mask-2)" x="0" y="3" width="124" height="71" rx="18"></rect>
            </g>
            <g id="编组" transform="translate(0.000000, 19.000000)">
                <path d="M137.722148,3.20559245 C141.63326,5.29727756 144.702722,8.36674045 146.794408,12.2778516 C148.886093,16.1889627 150,20.0683975 150,30.7666224 L150,56.892 L90.3491324,56.8927951 C85.6294079,56.8927951 81.5661428,53.5958075 80.5750887,49.0067913 L80.5203531,48.7353741 L79.4401245,42.9731631 C78.4647562,37.7703038 73.9219622,34 68.6284672,34 L68.6284672,34 L0,34 L0.000959326263,30.2284881 C0.0380404605,19.9368822 1.14935962,16.1226726 3.20559245,12.2778516 C5.29727756,8.36674045 8.36674045,5.29727756 12.2778516,3.20559245 C16.1226726,1.14935962 19.9368822,0.0380404605 30.2284881,0.000959326263 L119.233378,1.24300837e-15 C129.931602,-7.22223659e-16 133.811037,1.11390733 137.722148,3.20559245 Z" id="形状结合" fill="#000000"></path>
                <mask id="mask-4" fill="white">
                    <use xlink:href="#path-3"></use>
                </mask>
                <use id="形状结合" fill="#000000" opacity="0.1" xlink:href="#path-3"></use>
            </g>
        </g>
    </g>
</svg>