<?xml version="1.0" encoding="UTF-8"?>
<svg width="564px" height="564px" viewBox="0 0 564 564" version="1.1" xmlns="http://www.w3.org/2000/svg" xmlns:xlink="http://www.w3.org/1999/xlink">
    <title>com_android_filemanager_b_s5_2x2_1_mc</title>
    <g id="com_android_filemanager" stroke="none" stroke-width="1" fill="none" fill-rule="evenodd">
        <g id="主色" transform="translate(186.000000, 118.000000)" fill="#000000">
            <path d="M357,27 L357,160.398 L0,160.398 L0,48.5379279 L0.00918971932,47.6304414 L0.00918971932,47.6304414 L0.0256263058,46.7706185 C0.0290501596,46.6311684 0.0328156372,46.4936156 0.0369218572,46.3579156 L0.0656410361,45.5655965 L0.0656410361,45.5655965 L0.10249573,44.8156189 C0.109313788,44.6940328 0.116469063,44.5741222 0.123960675,44.4558428 L0.17293932,43.7653856 L0.17293932,43.7653856 L0.22994772,43.1119476 L0.22994772,43.1119476 L0.29494357,42.4934 L0.29494357,42.4934 L0.367884566,41.9076139 L0.367884566,41.9076139 L0.448728403,41.3524603 L0.448728403,41.3524603 L0.537432778,40.8258105 C0.568306293,40.6547746 0.600482846,40.4881345 0.633955387,40.3255354 L0.738253925,39.8495064 C0.792340126,39.6171985 0.849326436,39.3931846 0.909189059,39.1762671 L1.03274234,38.751539 L1.03274234,38.751539 L1.16392348,38.3436059 L1.16392348,38.3436059 L1.30269019,37.9503388 C1.32644775,37.8858982 1.35051962,37.8219799 1.37490491,37.7585397 L1.52497063,37.3832799 L1.52497063,37.3832799 L1.68251616,37.0173639 L1.68251616,37.0173639 L1.84749918,36.6586629 L1.84749918,36.6586629 L2.0198774,36.3050479 L2.0198774,36.3050479 L2.1996085,35.9543901 C2.23017407,35.8960753 2.26104425,35.837795 2.29221816,35.7795048 C3.78791628,32.9827925 5.98279248,30.7879163 8.77950481,29.2922182 L9.12948239,29.1088265 L9.12948239,29.1088265 L9.48135269,28.9327665 L9.48135269,28.9327665 L9.83724461,28.7640806 L9.83724461,28.7640806 L10.199287,28.6028111 C10.2602582,28.5765532 10.3215744,28.5506061 10.3832799,28.5249706 L10.7585397,28.3749049 C10.8219799,28.3505196 10.8858982,28.3264478 10.9503388,28.3026902 L11.3436059,28.1639235 L11.3436059,28.1639235 L11.751539,28.0327423 L11.751539,28.0327423 L12.1762671,27.9091891 C12.3931846,27.8493264 12.6171985,27.7923401 12.8495064,27.7382539 L13.3255354,27.6339554 C13.4881345,27.6004828 13.6547746,27.5683063 13.8258105,27.5374328 L14.3524603,27.4487284 L14.3524603,27.4487284 L14.9076139,27.3678846 L14.9076139,27.3678846 L15.4934,27.2949436 L15.4934,27.2949436 L16.1119476,27.2299477 L16.1119476,27.2299477 L16.7653856,27.1729393 L16.7653856,27.1729393 L17.4558428,27.1239607 L17.4558428,27.1239607 L18.1854481,27.0830541 C18.3104296,27.0769113 18.4371309,27.0711067 18.5655965,27.065641 L19.3579156,27.0369219 L19.3579156,27.0369219 L20.1947051,27.0163805 L20.1947051,27.0163805 L21.0780936,27.0040593 C21.2293266,27.0026931 21.3825899,27.0016712 21.5379279,27 L357,27 Z M309.720902,116.893778 L35.6216176,116.893778 C35.1434949,116.893778 34.9701161,116.94356 34.7953216,117.037042 C34.620527,117.130523 34.4833473,117.267702 34.3898661,117.442497 C34.3067718,117.59787 34.2582048,117.752124 34.2466025,118.120286 L34.2466025,118.268793 L34.2466025,124.103238 C34.2466025,124.58136 34.296385,124.754739 34.3898661,124.929534 C34.4833473,125.104328 34.620527,125.241508 34.7953216,125.334989 C34.9506945,125.418084 35.1049488,125.466651 35.4731102,125.476417 L35.6216176,125.478253 L309.720902,125.478253 C310.199025,125.478253 310.372404,125.42847 310.547199,125.334989 C310.721993,125.241508 310.859173,125.104328 310.952654,124.929534 C311.035748,124.774161 311.084315,124.619907 311.095918,124.251745 L311.095918,118.268793 C311.095918,117.79067 311.046135,117.617292 310.952654,117.442497 C310.859173,117.267702 310.721993,117.130523 310.547199,117.037042 C310.372404,116.94356 310.199025,116.893778 309.720902,116.893778 Z M206.707204,91.1403533 L35.6216176,91.1403533 C35.1434949,91.1403533 34.9701161,91.1901358 34.7953216,91.2836169 C34.620527,91.3770981 34.4833473,91.5142778 34.3898661,91.6890724 C34.3067718,91.8444453 34.2582048,91.9986996 34.248438,92.366861 L34.2466025,92.5153684 L34.2466025,98.349813 C34.2466025,98.8279358 34.296385,99.0013146 34.3898661,99.1761091 C34.4833473,99.3509037 34.620527,99.4880834 34.7953216,99.5815646 C34.9506945,99.6646589 35.1049488,99.7132259 35.4731102,99.7229927 L35.6216176,99.7248282 L206.707204,99.7248282 C207.185327,99.7248282 207.358705,99.6750457 207.5335,99.5815646 C207.708294,99.4880834 207.845474,99.3509037 207.938955,99.1761091 C208.02205,99.0207362 208.070617,98.8664819 208.080383,98.4983204 L208.082219,98.349813 L208.082219,92.5153684 C208.082219,92.0372457 208.032436,91.8638669 207.938955,91.6890724 C207.845474,91.5142778 207.708294,91.3770981 207.5335,91.2836169 L207.41382,91.2278368 C207.266599,91.1704686 207.079077,91.1403533 206.707204,91.1403533 Z M45.4424521,56.4082616 L35.0471896,56.4082616 L35.0471896,72.504152 L37.8621899,72.504152 L37.8621899,66.1867235 L44.5961122,66.1867235 L44.5961122,63.3720277 L37.8621899,63.3720277 L37.8621899,59.2438071 L45.4424521,59.2438071 L45.4424521,56.4082616 Z M50.6400834,60.7004991 L47.5215046,60.7004991 L47.5215046,72.504152 L50.6400834,72.504152 L50.6400834,60.7004991 Z M54.7981884,56.4082616 L51.6796096,56.4082616 L51.6796096,72.504152 L54.7981884,72.504152 L54.7981884,56.4082616 Z M62.1117348,59.6274397 C60.9812808,59.6274397 60.0228523,59.9095418 59.2364494,60.4737461 C58.4500466,61.0379503 57.8602445,61.8021257 57.4670431,62.7662722 C57.0738416,63.7304187 56.8772409,64.8124054 56.8772409,66.0122322 C56.8772409,67.2549099 57.0799854,68.3654638 57.4854744,69.343894 C57.8909633,70.3223242 58.4991968,71.0936414 59.3101747,71.6578456 C60.1211526,72.2220499 61.1041562,72.504152 62.2591854,72.504152 C63.5125149,72.504152 64.5446686,72.2041953 65.3556466,71.6042819 C66.1086975,71.0472195 66.6763382,70.1391509 67.0585686,68.8800761 L67.1434843,68.5832895 L64.5815313,68.5832895 C64.4095056,69.0117991 64.129964,69.3403231 63.7429064,69.5688615 C63.3558487,69.7974 62.861275,69.9116692 62.2591854,69.9116692 C61.730821,69.9116692 61.270038,69.7902581 60.8768366,69.547436 C60.4836352,69.304614 60.1825904,68.97609 59.9737021,68.5618641 C59.794655,68.2068133 59.6968562,67.8255272 59.6803056,67.4180059 L59.678801,67.2120589 L67.2725035,67.2120589 L67.2725035,65.8836793 C67.2725035,64.7267035 67.0851184,63.6732841 66.7103483,62.7234213 C66.3355782,61.7735584 65.7611355,61.0200958 64.9870202,60.4630333 C64.2129049,59.9059709 63.2544765,59.6274397 62.1117348,59.6274397 Z M77.7055066,67.7104598 L74.4863285,67.7104598 L74.4863285,72.0026973 L77.7055066,72.0026973 L77.7055066,67.7104598 Z M62.6245068,62.8466178 C63.1821071,62.8466178 63.6567311,62.9569044 64.0483789,63.1774777 C64.4400268,63.3980511 64.7287841,63.6722773 64.9146508,64.0001566 C65.1005176,64.3280358 65.193451,64.6588958 65.193451,64.9927365 L59.9958197,64.9927365 C59.9958197,64.6588958 60.0920721,64.3280358 60.284577,64.0001566 C60.4770818,63.6722773 60.7691582,63.3980511 61.160806,63.1774777 C61.5524538,62.9569044 62.0403541,62.8466178 62.6245068,62.8466178 Z M49.0902442,55.3352023 C48.6240325,55.3352023 48.2460229,55.4809264 47.9562156,55.7723746 C47.6664083,56.0638228 47.5215046,56.4546284 47.5215046,56.9447913 C47.5215046,57.3952113 47.6695584,57.7760811 47.9656658,58.0874008 C48.2617733,58.3987205 48.6366328,58.5543803 49.0902442,58.5543803 C49.5186551,58.5543803 49.8840643,58.3987205 50.1864719,58.0874008 C50.4888796,57.7760811 50.6400834,57.3952113 50.6400834,56.9447913 C50.6400834,56.467876 50.4920297,56.0803824 50.1959222,55.7823103 C49.8998147,55.4842383 49.5312554,55.3352023 49.0902442,55.3352023 Z" id="形状"></path>
            <path d="M343.249849,5.55522576e-16 C348.031076,-3.22774615e-16 349.764864,0.497825024 351.512809,1.43263635 C353.260755,2.36744768 354.632552,3.7392453 355.567364,5.48719051 C356.502175,7.23513571 357,8.96892423 357,13.7501514 L357,27 L27,27 L27,11.0001212 C27,7.17513939 27.39826,5.78810857 28.1461091,4.38975241 C28.8939581,2.99139624 29.9913962,1.89395814 31.3897524,1.14610908 C32.7881086,0.398260019 34.1751394,1.31201319e-15 38.0001212,-2.25808634e-15 L343.249849,5.55522576e-16 Z" id="形状结合备份" opacity="0.5"></path>
        </g>
    </g>
</svg>