<?xml version="1.0" encoding="UTF-8"?>
<svg width="564px" height="564px" viewBox="0 0 564 564" version="1.1" xmlns="http://www.w3.org/2000/svg" xmlns:xlink="http://www.w3.org/1999/xlink">
    <title>com_android_filemanager_b_s5_2x2_2_sc</title>
    <defs>
        <path d="M61.5332448,-2.48601674e-15 L460.466755,2.48601674e-15 C481.863205,-1.44444732e-15 489.622075,2.22781467 497.444297,6.41118489 C505.266519,10.5945551 511.405445,16.7334809 515.588815,24.5557031 C519.772185,32.3779253 522,40.136795 522,61.5332448 L522,460.466755 C522,481.863205 519.772185,489.622075 515.588815,497.444297 C511.405445,505.266519 505.266519,511.405445 497.444297,515.588815 C489.622075,519.772185 481.863205,522 460.466755,522 L61.5332448,522 C40.136795,522 32.3779253,519.772185 24.5557031,515.588815 C16.7334809,511.405445 10.5945551,505.266519 6.41118489,497.444297 C2.22781467,489.622075 9.62964878e-16,481.863205 -1.65734449e-15,460.466755 L1.65734449e-15,61.5332448 C-9.62964878e-16,40.136795 2.22781467,32.3779253 6.41118489,24.5557031 C10.5945551,16.7334809 16.7334809,10.5945551 24.5557031,6.41118489 C32.3779253,2.22781467 40.136795,1.44444732e-15 61.5332448,-2.48601674e-15 Z" id="path-1"></path>
        <path d="M176,190 L176,308.199782 C176,315.084749 176.716868,317.581405 178.062996,320.098446 C179.409125,322.615487 181.384513,324.590875 183.901554,325.937004 C186.418595,327.283132 188.915251,328 195.800218,328 L195.800218,328 L502.199782,328 C509.084749,328 511.581405,327.283132 514.098446,325.937004 C516.615487,324.590875 518.590875,322.615487 519.937004,320.098446 C521.283132,317.581405 522,315.084749 522,308.199782 L522,308.199782 L522.000374,191.953716 C525.325882,192.812447 527.927167,193.946946 530.536914,195.342654 C537.055433,198.828796 542.171204,203.944567 545.657346,210.463086 C549.143488,216.981604 551,223.447329 551,241.277704 L551,470.722296 C551,488.552671 549.143488,495.018396 545.657346,501.536914 C542.171204,508.055433 537.055433,513.171204 530.536914,516.657346 C524.018396,520.143488 517.552671,522 499.722296,522 L173.277704,522 C155.447329,522 148.981604,520.143488 142.463086,516.657346 C135.944567,513.171204 130.828796,508.055433 127.342654,501.536914 C123.897526,495.095084 122.043908,488.704813 122.000771,471.346903 L122,241.277704 C122,223.447329 123.856512,216.981604 127.342654,210.463086 C130.828796,203.944567 135.944567,198.828796 142.463086,195.342654 C148.904916,191.897526 155.295187,190.043908 172.653097,190.000771 L176,190 Z" id="path-3"></path>
        <filter x="0.0%" y="0.0%" width="100.0%" height="100.0%" filterUnits="objectBoundingBox" id="filter-4">
            <feOffset dx="0" dy="0" in="SourceAlpha" result="shadowOffsetInner1"></feOffset>
            <feComposite in="shadowOffsetInner1" in2="SourceAlpha" operator="arithmetic" k2="-1" k3="1" result="shadowInnerInner1"></feComposite>
            <feColorMatrix values="0 0 0 0 0.933333333   0 0 0 0 0.690196078   0 0 0 0 0.192156863  0 0 0 1 0" type="matrix" in="shadowInnerInner1"></feColorMatrix>
        </filter>
    </defs>
    <g id="com_android_filemanager" stroke="none" stroke-width="1" fill="none" fill-rule="evenodd">
        <g id="编组" transform="translate(21.000000, 21.000000)">
            <mask id="mask-2" fill="white">
                <use xlink:href="#path-1"></use>
            </mask>
            <g id="矩形备份-20"></g>
            <g id="形状结合" opacity="0.600000024" mask="url(#mask-2)">
                <use fill="#4E4E4E" fill-rule="evenodd" xlink:href="#path-3"></use>
                <use fill="black" fill-opacity="1" filter="url(#filter-4)" xlink:href="#path-3"></use>
            </g>
            <path d="M122.365678,258.434859 L522.365678,258.434859 L522.365678,474.434859 C522.365678,500.944527 500.875346,522.434859 474.365678,522.434859 L122.365678,522.434859 L122.365678,522.434859 L122.365678,258.434859 Z" id="蒙版备份-2" fill="#4E4E4E" mask="url(#mask-2)"></path>
        </g>
    </g>
</svg>