<?xml version="1.0" encoding="UTF-8"?>
<svg width="564px" height="240px" viewBox="0 0 564 240" version="1.1" xmlns="http://www.w3.org/2000/svg" xmlns:xlink="http://www.w3.org/1999/xlink">
    <title>com_android_filemanager_b_s5_2x1_0_sc</title>
    <defs>
        <path d="M61.5332448,-2.48601674e-15 L460.466755,1.45059527e-14 C481.863205,-8.42837627e-15 489.622075,2.22781467 497.444297,6.41118489 C505.266519,10.5945551 511.405445,16.7334809 515.588815,24.5557031 C519.772185,32.3779253 522,40.136795 522,61.5332448 L522,136.466755 C522,157.863205 519.772185,165.622075 515.588815,173.444297 C511.405445,181.266519 505.266519,187.405445 497.444297,191.588815 C489.622075,195.772185 481.863205,198 460.466755,198 L61.5332448,198 C40.136795,198 32.3779253,195.772185 24.5557031,191.588815 C16.7334809,187.405445 10.5945551,181.266519 6.41118489,173.444297 C2.22781467,165.622075 9.62964878e-16,157.863205 -1.65734449e-15,136.466755 L1.65734449e-15,61.5332448 C-9.62964878e-16,40.136795 2.22781467,32.3779253 6.41118489,24.5557031 C10.5945551,16.7334809 16.7334809,10.5945551 24.5557031,6.41118489 C32.3779253,2.22781467 40.136795,1.44444732e-15 61.5332448,-2.48601674e-15 Z" id="path-1"></path>
        <path d="M0,0 L250.461475,0 C255.75497,8.03957591e-16 260.297764,3.77030376 261.273132,8.97316313 L262.353361,14.7353741 C263.240059,19.4652463 267.369872,22.8927951 272.18214,22.8927951 L371.754883,22.8927951 L371.754883,22.8927951 L371.754883,89 C371.754883,115.509668 350.264551,137 323.754883,137 L48,137 C21.490332,137 3.24649801e-15,115.509668 0,89 L0,0 L0,0 Z" id="path-3"></path>
    </defs>
    <g id="com_android_filemanager" stroke="none" stroke-width="1" fill="none" fill-rule="evenodd">
        <g id="编组-2" transform="translate(21.000000, 21.000000)">
            <mask id="mask-2" fill="white">
                <use xlink:href="#path-1"></use>
            </mask>
            <g id="背景"></g>
            <g id="编组" mask="url(#mask-2)">
                <g transform="translate(120.000000, 68.605241)">
                    <path d="M38.9996699,-2.28261854e-13 L39,95.3947586 L333,95.3947586 L333.001332,0.00010118151 C341.283732,0.836940496 345.886075,2.52963258 350.51376,5.00454534 C357.358204,8.66499429 362.729764,14.0365543 366.390213,20.8809988 C370.050662,27.7254432 372,34.5144542 372,53.2363478 L372,78.5531694 C372,97.2750629 370.050662,104.064074 366.390213,110.908518 C362.729764,117.752963 357.358204,123.124523 350.51376,126.784972 C343.747093,130.403825 337.034607,132.350234 318.792052,132.394004 L53.8415892,132.394759 C35.1196957,132.394759 28.3306847,130.445421 21.4862402,126.784972 C14.6417958,123.124523 9.27023572,117.752963 5.60978678,110.908518 C1.99093384,104.141852 0.0445240922,97.4293658 0.000754817456,79.1868106 L1.45017643e-15,53.2363478 C-8.42594268e-16,34.5144542 1.94933783,27.7254432 5.60978678,20.8809988 C9.27023572,14.0365543 14.6417958,8.66499429 21.4862402,5.00454534 C26.1141113,2.52953283 30.7166393,0.83680405 38.9996699,-2.28261854e-13 Z" id="形状结合" fill="#4E4E4E" opacity="0.600000024"></path>
                    <g id="编组-4" stroke-width="1" fill="none" transform="translate(0.166992, 54.394759)">
                        <g id="矩形备份-8">
                            <mask id="mask-4" fill="white">
                                <use xlink:href="#path-3"></use>
                            </mask>
                            <use id="蒙版" fill="#4E4E4E" xlink:href="#path-3"></use>
                        </g>
                    </g>
                </g>
            </g>
        </g>
    </g>
</svg>