<?xml version="1.0" encoding="UTF-8"?>
<svg width="240px" height="564px" viewBox="0 0 240 564" version="1.1" xmlns="http://www.w3.org/2000/svg" xmlns:xlink="http://www.w3.org/1999/xlink">
    <title>com_android_filemanager_b_s5_1x2_2_mc</title>
    <g id="com_android_filemanager" stroke="none" stroke-width="1" fill="none" fill-rule="evenodd">
        <g id="主色" transform="translate(86.000000, 117.000000)">
            <path d="M133,40 L133,157.892 L114.349132,157.892795 C109.629408,157.892795 105.566143,154.595807 104.575089,150.006791 L104.520353,149.735374 L103.440124,143.973163 C102.48249,138.864901 98.0859754,135.137576 92.9164419,135.003725 L92.6284672,135 L0,135 L4.14336123e-16,55.3833112 C-2.4074122e-16,50.0341988 0.556953667,48.0944813 1.60279622,46.1389258 C2.64863878,44.1833702 4.18337022,42.6486388 6.13892578,41.6027962 C8.09448133,40.5569537 10.0341988,40 15.3833112,40 L133,40 Z M132.915152,100 L24.1970941,100 C23.7513347,100 23.5896916,100.046413 23.4267287,100.133566 C23.2637657,100.22072 23.1358714,100.348614 23.0487179,100.511577 C22.9615643,100.67454 22.9151515,100.836183 22.9151515,101.281943 L22.9151515,101.281943 L22.9151515,103.718057 C22.9151515,104.163817 22.9615643,104.32546 23.0487179,104.488423 C23.1358714,104.651386 23.2637657,104.77928 23.4267287,104.866434 C23.5896916,104.953587 23.7513347,105 24.1970941,105 L24.1970941,105 L132.915152,105 L132.915152,100 Z M102.011155,85 L24.1970941,85 C23.7513347,85 23.5896916,85.0464128 23.4267287,85.1335664 C23.2637657,85.2207199 23.1358714,85.3486142 23.0487179,85.5115771 C22.9615643,85.6745401 22.9151515,85.8361832 22.9151515,86.2819426 L22.9151515,86.2819426 L22.9151515,88.7180574 C22.9151515,89.1638168 22.9615643,89.3254599 23.0487179,89.4884229 C23.1358714,89.6513858 23.2637657,89.7792801 23.4267287,89.8664336 C23.5896916,89.9535872 23.7513347,90 24.1970941,90 L24.1970941,90 L102.011155,90 C102.456914,90 102.618558,89.9535872 102.78152,89.8664336 C102.944483,89.7792801 103.072378,89.6513858 103.159531,89.4884229 C103.246685,89.3254599 103.293098,89.1638168 103.293098,88.7180574 L103.293098,88.7180574 L103.293098,86.2819426 C103.293098,85.8361832 103.246685,85.6745401 103.159531,85.5115771 C103.072378,85.3486142 102.944483,85.2207199 102.78152,85.1335664 C102.618558,85.0464128 102.456914,85 102.011155,85 L102.011155,85 Z M46.8063973,73 L44.9151515,73 L44.9151515,75 L46.8063973,75 L46.8063973,73 Z M38.3060998,67.412 C37.6733921,67.412 37.136966,67.57 36.6968215,67.886 C36.2566771,68.202 35.9265687,68.63 35.7064965,69.17 C35.4864242,69.71 35.3763881,70.316 35.3763881,70.988 C35.3763881,71.684 35.4898629,72.306 35.7168124,72.854 C35.9437618,73.402 36.2841861,73.834 36.7380851,74.15 C37.1919841,74.466 37.7421647,74.624 38.3886269,74.624 C39.0901071,74.624 39.6677967,74.456 40.1216957,74.12 C40.5302048,73.8176 40.8412288,73.33052 41.0547676,72.65876 L41.1223367,72.428 L39.6884285,72.428 C39.5921469,72.668 39.4356893,72.852 39.2190557,72.98 C39.0024221,73.108 38.7256125,73.172 38.3886269,73.172 C38.0929048,73.172 37.8350076,73.104 37.6149354,72.968 C37.3948632,72.832 37.2263704,72.648 37.109457,72.416 C37.0159263,72.2304 36.9620086,72.032 36.9477039,71.8208 L36.9444028,71.66 L41.1945479,71.66 L41.1945479,70.916 C41.1945479,70.268 41.0896697,69.678 40.8799134,69.146 C40.670157,68.614 40.3486452,68.192 39.915378,67.88 C39.4821108,67.568 38.9456847,67.412 38.3060998,67.412 Z M28.7436272,65.156 L22.9151515,65.156 L22.9151515,74.42 L24.4934821,74.42 L24.4934821,70.784 L28.2690964,70.784 L28.2690964,69.164 L24.4934821,69.164 L24.4934821,66.788 L28.7436272,66.788 L28.7436272,65.156 Z M31.4771821,67.688 L29.9297992,67.688 L29.9297992,74.42 L31.4771821,74.42 L31.4771821,67.688 Z M34.3036606,65.156 L32.7562777,65.156 L32.7562777,74.42 L34.3036606,74.42 L34.3036606,65.156 Z M38.3060998,68.864 C38.5949446,68.864 38.8408065,68.938 39.0436856,69.086 C39.2465647,69.234 39.3961451,69.418 39.4924267,69.638 C39.5887083,69.858 39.6368491,70.08 39.6368491,70.304 L36.9444028,70.304 C36.9444028,70.08 36.9942629,69.858 37.0939832,69.638 C37.1937034,69.418 37.345003,69.234 37.5478821,69.086 C37.7507612,68.938 38.0035004,68.864 38.3060998,68.864 Z M30.7034907,65 C30.4490321,65 30.2427144,65.088 30.0845375,65.264 C29.9263606,65.44 29.8472721,65.676 29.8472721,65.972 C29.8472721,66.244 29.9280799,66.474 30.0896954,66.662 C30.251311,66.85 30.4559094,66.944 30.7034907,66.944 C30.9373174,66.944 31.1367579,66.85 31.3018121,66.662 C31.4668662,66.474 31.5493933,66.244 31.5493933,65.972 C31.5493933,65.684 31.4685855,65.45 31.30697,65.27 C31.1453544,65.09 30.9441947,65 30.7034907,65 Z" id="形状结合" fill="#000000"></path>
            <path d="M38.3833112,20 L133,20 L133,20 L133,40 L23,40 L23,35.3833112 C23,30.0341988 23.5569537,28.0944813 24.6027962,26.1389258 C25.6486388,24.1833702 27.1833702,22.6486388 29.1389258,21.6027962 C31.0944813,20.5569537 33.0341988,20 38.3833112,20 Z" id="矩形" fill="#000000" opacity="0.5"></path>
            <path d="M59.3833112,-1.52833832e-15 L133,0 L133,0 L133,20 L44,20 L44,15.3833112 C44,10.0341988 44.5569537,8.09448133 45.6027962,6.13892578 C46.6486388,4.18337022 48.1833702,2.64863878 50.1389258,1.60279622 C52.0944813,0.556953667 54.0341988,8.88008579e-16 59.3833112,-1.52833832e-15 Z" id="矩形备份-2" fill="#000000" opacity="0.300000012"></path>
            <g id="编组-8备份-2" transform="translate(22.915152, 65.000000)"></g>
        </g>
    </g>
</svg>