<?xml version="1.0" encoding="UTF-8"?>
<svg width="564px" height="240px" viewBox="0 0 564 240" version="1.1" xmlns="http://www.w3.org/2000/svg" xmlns:xlink="http://www.w3.org/1999/xlink">
    <title>com_android_filemanager_b_s5_2x1_0_mc</title>
    <g id="com_android_filemanager" stroke="none" stroke-width="1" fill="none" fill-rule="evenodd">
        <g id="主色" transform="translate(179.999992, 63.000000)" fill="#000000">
            <path d="M287.861082,1.60279622 C289.816638,2.64863878 291.351369,4.18337022 292.397212,6.13892578 L292.558272,6.44806547 L292.558272,6.44806547 L292.711147,6.75993819 L292.711147,6.75993819 L292.855778,7.0775402 L292.855778,7.0775402 L292.992104,7.40386778 L292.992104,7.40386778 L293.120067,7.7419172 L293.120067,7.7419172 L293.239606,8.09468471 C293.278042,8.21505982 293.315064,8.33838732 293.350662,8.46516659 L293.453177,8.85635911 C293.485918,8.9905413 293.517225,9.12867465 293.547089,9.27125853 L293.63234,9.71286112 C293.71324,10.168814 293.781059,10.6693161 293.835528,11.2278506 L293.885538,11.8062285 C293.893128,11.9060153 293.900344,12.007539 293.907187,12.1108619 L293.943735,12.7528902 L293.943735,12.7528902 L293.971235,13.4410974 L293.971235,13.4410974 L293.989627,14.1784798 C293.99193,14.3056413 293.993851,14.4349765 293.995389,14.566548 L294,15.3833112 L294,15.3833112 L294,103.057708 L294,103.057708 L293.988278,103.893515 L293.988278,103.893515 L233.34914,103.893515 C228.629416,103.893515 224.566151,100.595807 223.575097,96.0067913 L223.520361,95.7353741 L222.440132,89.9731631 C221.482498,84.8649012 217.085983,81.1375755 211.91645,81.0037251 L211.628475,81 L0,80.999 L0,15.3833112 L0.0046263129,14.566548 L0.0046263129,14.566548 L0.0184421204,13.8034545 C0.0215078894,13.6805782 0.0249543987,13.5598133 0.0287804079,13.4410974 L0.0562805375,12.7528902 L0.0562805375,12.7528902 L0.0928291228,12.1108619 L0.0928291228,12.1108619 L0.138366623,11.5120163 C0.196714086,10.8373876 0.273292356,10.2448062 0.367675965,9.71286112 L0.452926769,9.27125853 C0.482790585,9.12867465 0.514097975,8.9905413 0.546839015,8.85635911 L0.649353163,8.46516659 C0.684951581,8.33838732 0.721973725,8.21505982 0.760409672,8.09468471 L0.879949002,7.7419172 L0.879949002,7.7419172 L1.00791161,7.40386778 L1.00791161,7.40386778 L1.14423796,7.0775402 L1.14423796,7.0775402 L1.28886851,6.75993819 L1.28886851,6.75993819 L1.44174371,6.44806547 L1.44174371,6.44806547 L1.60280404,6.13892578 L1.60280404,6.13892578 C2.64864659,4.18337022 4.18337804,2.64863878 6.13893359,1.60279622 L6.44807328,1.4417359 L6.44807328,1.4417359 L6.759946,1.28886069 L6.759946,1.28886069 L7.07754802,1.14423015 L7.07754802,1.14423015 L7.4038756,1.0079038 L7.4038756,1.0079038 L7.74192501,0.879941189 L7.74192501,0.879941189 L8.09469252,0.76040186 C8.21506763,0.721965912 8.33839513,0.684943768 8.4651744,0.649345351 L8.85636692,0.546831203 C8.99054912,0.514090163 9.12868246,0.482782773 9.27126634,0.452918957 L9.71286893,0.367668152 C10.1688219,0.286767916 10.6693239,0.218949154 11.2278584,0.164479798 L11.8062363,0.114470167 C11.9060231,0.10688017 12.0075468,0.0996634713 12.1108697,0.0928213103 L12.752898,0.056272725 L12.752898,0.056272725 L13.4411052,0.0287725954 L13.4411052,0.0287725954 L14.1784876,0.010380462 C14.3056491,0.00807741398 14.4349844,0.00615634663 14.5665559,0.0046185004 L15.383319,0 L15.383319,0 L278.616697,0 C278.898229,0 279.170317,0.00154280794 279.43346,0.0046185004 L280.196553,0.0184343079 C280.31943,0.0215000769 280.440194,0.0249465862 280.55891,0.0287725954 L281.247118,0.056272725 L281.247118,0.056272725 L281.889146,0.0928213103 L281.889146,0.0928213103 L282.487992,0.138358811 C283.16262,0.196706274 283.755202,0.273284543 284.287147,0.367668152 L284.728749,0.452918957 C284.871333,0.482782773 285.009467,0.514090163 285.143649,0.546831203 L285.534841,0.649345351 C285.66162,0.684943768 285.784948,0.721965912 285.905323,0.76040186 L286.258091,0.879941189 L286.258091,0.879941189 L286.59614,1.0079038 L286.59614,1.0079038 L286.922468,1.14423015 L286.922468,1.14423015 L287.24007,1.28886069 L287.24007,1.28886069 L287.551942,1.4417359 L287.551942,1.4417359 L287.861082,1.60279622 L287.861082,1.60279622 Z M207.493272,56.0909091 L33.8480661,56.0909091 C33.4023067,56.0909091 33.2406636,56.1373219 33.0777007,56.2244754 C32.9147377,56.311629 32.7868434,56.4395233 32.6996899,56.6024862 C32.6234305,56.7450788 32.5783633,56.8866609 32.568288,57.2184524 L32.5661235,57.3728517 L32.5661235,59.6089665 C32.5661235,60.0547259 32.6125363,60.216369 32.6996899,60.3793319 C32.7868434,60.5422949 32.9147377,60.6701892 33.0777007,60.7573427 C33.2202933,60.8336021 33.3618753,60.8786693 33.6936668,60.8887446 L33.8480661,60.8909091 L207.493272,60.8909091 C207.939031,60.8909091 208.100674,60.8444963 208.263637,60.7573427 C208.4266,60.6701892 208.554495,60.5422949 208.641648,60.3793319 C208.717907,60.2367394 208.762975,60.0951573 208.77305,59.7633658 L208.775214,59.6089665 L208.775214,57.3728517 C208.775214,56.9270923 208.728802,56.7654492 208.641648,56.6024862 C208.554495,56.4395233 208.4266,56.311629 208.263637,56.2244754 C208.100674,56.1373219 207.939031,56.0909091 207.493272,56.0909091 Z M135.847817,41.6909091 L33.8480661,41.6909091 C33.4023067,41.6909091 33.2406636,41.7373219 33.0777007,41.8244754 C32.9147377,41.911629 32.7868434,42.0395233 32.6996899,42.2024862 C32.6234305,42.3450788 32.5783633,42.4866609 32.568288,42.8184524 L32.5661235,42.9728517 L32.5661235,45.2089665 C32.5661235,45.6547259 32.6125363,45.816369 32.6996899,45.9793319 C32.7868434,46.1422949 32.9147377,46.2701892 33.0777007,46.3573427 C33.2202933,46.4336021 33.3618753,46.4786693 33.6936668,46.4887446 L33.8480661,46.4909091 L135.847817,46.4909091 C136.293577,46.4909091 136.45522,46.4444963 136.618183,46.3573427 C136.781146,46.2701892 136.90904,46.1422949 136.996194,45.9793319 C137.072453,45.8367394 137.11752,45.6951573 137.127595,45.3633658 L137.12976,45.2089665 L137.12976,42.9728517 C137.12976,42.5270923 137.083347,42.3654492 136.996194,42.2024862 C136.90904,42.0395233 136.781146,41.911629 136.618183,41.8244754 C136.45522,41.7373219 136.293577,41.6909091 135.847817,41.6909091 Z M38.9777972,21.0401939 L32.7249563,21.0401939 L32.7249563,30.0401939 L34.4182035,30.0401939 L34.4182035,26.5078105 L38.4687164,26.5078105 L38.4687164,24.9339763 L34.4182035,24.9339763 L34.4182035,22.6256862 L38.9777972,22.6256862 L38.9777972,21.0401939 Z M42.1042177,23.4401939 L40.2283654,23.4401939 L40.2283654,30.0401939 L42.1042177,30.0401939 L42.1042177,23.4401939 Z M44.6053541,21.0401939 L42.7295018,21.0401939 L42.7295018,30.0401939 L44.6053541,30.0401939 L44.6053541,21.0401939 Z M49.0045159,22.8401939 C48.3245379,22.8401939 47.7480348,22.997931 47.2750067,23.3134053 C46.8019785,23.6288795 46.4472074,24.0561673 46.2106933,24.5952688 C45.9741793,25.1343703 45.8559222,25.739362 45.8559222,26.4102439 C45.8559222,27.1050858 45.9778748,27.7260508 46.2217799,28.273139 C46.4656851,28.8202272 46.8315428,29.2515084 47.3193531,29.5669826 C47.8071634,29.8824568 48.3984486,30.0401939 49.0932087,30.0401939 C49.8470973,30.0401939 50.4679467,29.8724735 50.955757,29.5370325 C51.3947863,29.2351357 51.7290472,28.7488662 51.9585397,28.0782239 L52.031157,27.8478478 L50.4901199,27.8478478 C50.386645,28.0874485 50.2184983,28.2711424 49.9856797,28.3989294 C49.7528612,28.5267164 49.4553708,28.5906099 49.0932087,28.5906099 C48.7753929,28.5906099 48.4982279,28.5227231 48.2617139,28.3869493 C48.0251998,28.2511756 47.8441187,28.0674818 47.7184706,27.8358678 C47.6179521,27.6505766 47.5600062,27.4525068 47.5446327,27.2416582 L47.541085,27.0811257 L52.1087631,27.0811257 L52.1087631,26.3383637 C52.1087631,25.6914419 51.9960494,25.1024236 51.7706219,24.5713087 C51.5451944,24.0401939 51.1996622,23.6188961 50.7340251,23.3074152 C50.268388,22.9959344 49.6918849,22.8401939 49.0045159,22.8401939 Z M58.3843053,27.3598061 L56.4479417,27.3598061 L56.4479417,29.7598061 L58.3843053,29.7598061 L58.3843053,27.3598061 Z M49.3129527,24.6401939 C49.6483541,24.6401939 49.9338446,24.7018606 50.1694242,24.8251939 C50.4050037,24.9485273 50.5786938,25.1018606 50.6904942,25.2851939 C50.8022947,25.4685273 50.858195,25.6535273 50.858195,25.8401939 L47.7317745,25.8401939 C47.7317745,25.6535273 47.7896712,25.4685273 47.9054645,25.2851939 C48.0212579,25.1018606 48.1969443,24.9485273 48.4325239,24.8251939 C48.6681035,24.7018606 48.9615797,24.6401939 49.3129527,24.6401939 Z M41.171976,20.4401939 C40.8915455,20.4401939 40.6641695,20.5216754 40.4898479,20.6846384 C40.3155262,20.8476013 40.2283654,21.0661199 40.2283654,21.3401939 C40.2283654,21.5920458 40.317421,21.8050088 40.4955323,21.9790828 C40.6736435,22.1531569 40.8991247,22.2401939 41.171976,22.2401939 C41.4296688,22.2401939 41.6494656,22.1531569 41.8313664,21.9790828 C42.0132673,21.8050088 42.1042177,21.5920458 42.1042177,21.3401939 C42.1042177,21.0735273 42.0151621,20.8568606 41.8370508,20.6901939 C41.6589396,20.5235273 41.437248,20.4401939 41.171976,20.4401939 Z" id="形状"></path>
        </g>
    </g>
</svg>