<?xml version="1.0" encoding="UTF-8"?>
<svg width="564px" height="240px" viewBox="0 0 564 240" version="1.1" xmlns="http://www.w3.org/2000/svg" xmlns:xlink="http://www.w3.org/1999/xlink">
    <title>com_android_filemanager_b_s5_2x1_2_mc</title>
    <g id="com_android_filemanager" stroke="none" stroke-width="1" fill="none" fill-rule="evenodd">
        <g id="主色" transform="translate(179.999992, 49.000000)" fill="#000000">
            <path d="M287.861082,25.6027962 C289.816638,26.6486388 291.351369,28.1833702 292.397212,30.1389258 C293.443054,32.0944813 294.000008,34.0341988 294.000008,39.3833112 L294,117.892 L221.34914,117.892795 C216.629416,117.892795 212.566151,114.595807 211.575097,110.006791 L211.520361,109.735374 L210.440132,103.973163 C209.464764,98.7703038 204.92197,95 199.628475,95 L199.628475,95 L0,95 L7.81249764e-06,39.3833112 C7.81249764e-06,34.0341988 0.556961479,32.0944813 1.60280404,30.1389258 C2.64864659,28.1833702 4.18337804,26.6486388 6.13893359,25.6027962 C8.09448915,24.5569537 10.0342066,24 15.383319,24 L278.616697,24 C283.965809,24 285.905526,24.5569537 287.861082,25.6027962 Z M207.493272,80.0909091 L33.8480661,80.0909091 C33.4023067,80.0909091 33.2406636,80.1373219 33.0777007,80.2244754 C32.9147377,80.311629 32.7868434,80.4395233 32.6996899,80.6024862 C32.6234305,80.7450788 32.5783633,80.8866609 32.568288,81.2184524 L32.5661235,81.3728517 L32.5661235,83.6089665 C32.5661235,84.0547259 32.6125363,84.216369 32.6996899,84.3793319 C32.7868434,84.5422949 32.9147377,84.6701892 33.0777007,84.7573427 C33.2202933,84.8336021 33.3618753,84.8786693 33.6936668,84.8887446 L33.8480661,84.8909091 L207.493272,84.8909091 C207.939031,84.8909091 208.100674,84.8444963 208.263637,84.7573427 C208.4266,84.6701892 208.554495,84.5422949 208.641648,84.3793319 C208.717907,84.2367394 208.762975,84.0951573 208.77305,83.7633658 L208.775214,83.6089665 L208.775214,81.3728517 C208.775214,80.9270923 208.728802,80.7654492 208.641648,80.6024862 C208.554495,80.4395233 208.4266,80.311629 208.263637,80.2244754 C208.100674,80.1373219 207.939031,80.0909091 207.493272,80.0909091 Z M135.847817,65.6909091 L33.8480661,65.6909091 C33.4023067,65.6909091 33.2406636,65.7373219 33.0777007,65.8244754 C32.9147377,65.911629 32.7868434,66.0395233 32.6996899,66.2024862 C32.6234305,66.3450788 32.5783633,66.4866609 32.568288,66.8184524 L32.5661235,66.9728517 L32.5661235,69.2089665 C32.5661235,69.6547259 32.6125363,69.816369 32.6996899,69.9793319 C32.7868434,70.1422949 32.9147377,70.2701892 33.0777007,70.3573427 C33.2202933,70.4336021 33.3618753,70.4786693 33.6936668,70.4887446 L33.8480661,70.4909091 L135.847817,70.4909091 C136.293577,70.4909091 136.45522,70.4444963 136.618183,70.3573427 C136.781146,70.2701892 136.90904,70.1422949 136.996194,69.9793319 C137.072453,69.8367394 137.11752,69.6951573 137.127595,69.3633658 L137.12976,69.2089665 L137.12976,66.9728517 C137.12976,66.5270923 137.083347,66.3654492 136.996194,66.2024862 C136.90904,66.0395233 136.781146,65.911629 136.618183,65.8244754 C136.45522,65.7373219 136.293577,65.6909091 135.847817,65.6909091 Z M38.9777972,45.0401939 L32.7249563,45.0401939 L32.7249563,54.0401939 L34.4182035,54.0401939 L34.4182035,50.5078105 L38.4687164,50.5078105 L38.4687164,48.9339763 L34.4182035,48.9339763 L34.4182035,46.6256862 L38.9777972,46.6256862 L38.9777972,45.0401939 Z M42.1042177,47.4401939 L40.2283654,47.4401939 L40.2283654,54.0401939 L42.1042177,54.0401939 L42.1042177,47.4401939 Z M44.6053541,45.0401939 L42.7295018,45.0401939 L42.7295018,54.0401939 L44.6053541,54.0401939 L44.6053541,45.0401939 Z M49.0045159,46.8401939 C48.3245379,46.8401939 47.7480348,46.997931 47.2750067,47.3134053 C46.8019785,47.6288795 46.4472074,48.0561673 46.2106933,48.5952688 C45.9741793,49.1343703 45.8559222,49.739362 45.8559222,50.4102439 C45.8559222,51.1050858 45.9778748,51.7260508 46.2217799,52.273139 C46.4656851,52.8202272 46.8315428,53.2515084 47.3193531,53.5669826 C47.8071634,53.8824568 48.3984486,54.0401939 49.0932087,54.0401939 C49.8470973,54.0401939 50.4679467,53.8724735 50.955757,53.5370325 C51.3947863,53.2351357 51.7290472,52.7488662 51.9585397,52.0782239 L52.031157,51.8478478 L50.4901199,51.8478478 C50.386645,52.0874485 50.2184983,52.2711424 49.9856797,52.3989294 C49.7528612,52.5267164 49.4553708,52.5906099 49.0932087,52.5906099 C48.7753929,52.5906099 48.4982279,52.5227231 48.2617139,52.3869493 C48.0251998,52.2511756 47.8441187,52.0674818 47.7184706,51.8358678 C47.6179521,51.6505766 47.5600062,51.4525068 47.5446327,51.2416582 L47.541085,51.0811257 L52.1087631,51.0811257 L52.1087631,50.3383637 C52.1087631,49.6914419 51.9960494,49.1024236 51.7706219,48.5713087 C51.5451944,48.0401939 51.1996622,47.6188961 50.7340251,47.3074152 C50.268388,46.9959344 49.6918849,46.8401939 49.0045159,46.8401939 Z M58.3843053,51.3598061 L56.4479417,51.3598061 L56.4479417,53.7598061 L58.3843053,53.7598061 L58.3843053,51.3598061 Z M49.3129527,48.6401939 C49.6483541,48.6401939 49.9338446,48.7018606 50.1694242,48.8251939 C50.4050037,48.9485273 50.5786938,49.1018606 50.6904942,49.2851939 C50.8022947,49.4685273 50.858195,49.6535273 50.858195,49.8401939 L47.7317745,49.8401939 C47.7317745,49.6535273 47.7896712,49.4685273 47.9054645,49.2851939 C48.0212579,49.1018606 48.1969443,48.9485273 48.4325239,48.8251939 C48.6681035,48.7018606 48.9615797,48.6401939 49.3129527,48.6401939 Z M41.171976,44.4401939 C40.8915455,44.4401939 40.6641695,44.5216754 40.4898479,44.6846384 C40.3155262,44.8476013 40.2283654,45.0661199 40.2283654,45.3401939 C40.2283654,45.5920458 40.317421,45.8050088 40.4955323,45.9790828 C40.6736435,46.1531569 40.8991247,46.2401939 41.171976,46.2401939 C41.4296688,46.2401939 41.6494656,46.1531569 41.8313664,45.9790828 C42.0132673,45.8050088 42.1042177,45.5920458 42.1042177,45.3401939 C42.1042177,45.0735273 42.0151621,44.8568606 41.8370508,44.6901939 C41.6589396,44.5235273 41.437248,44.4401939 41.171976,44.4401939 Z" id="形状结合"></path>
            <path d="M269.180582,11 C273.638176,11 275.254607,11.4641281 276.884236,12.3356635 C278.513866,13.207199 279.792809,14.4861419 280.664344,16.1157715 C281.53588,17.7454011 282.000008,19.3618323 282.000008,23.819426 L281.999655,36 L13.2555486,36 C12.8008799,36 12.3831596,36.0060358 11.9976549,36.0180134 L12.0000078,21.2555408 C12.0000078,17.6894658 12.3713103,16.3963209 13.0685386,15.0926172 C13.765767,13.7889135 14.7889213,12.7657592 16.092625,12.0685308 C17.3963287,11.3713024 18.6894737,11 22.2555486,11 L269.180582,11 Z" id="形状结合备份-2" opacity="0.5"></path>
            <path d="M257.180582,5.17920154e-16 C261.638176,-3.00926524e-16 263.254607,0.464128056 264.884236,1.33566352 C266.513866,2.20719898 267.792809,3.48614185 268.664344,5.11577148 C269.53588,6.74540111 270.000008,8.3618323 270.000008,12.819426 L269.99951,25 L26.221757,25 C25.3591101,25 24.6294692,25.0217277 24.0005101,25.0645407 L24.000533,10.2555408 C24.000533,6.68946584 24.3718354,5.39632089 25.0690638,4.09261719 C25.7662922,2.78891348 26.7894464,1.76575919 28.0931502,1.06853082 C29.3968539,0.371302445 30.6899988,2.4074122e-16 34.2560738,-4.14336123e-16 L257.180582,5.17920154e-16 Z" id="形状结合备份-3" opacity="0.200000003"></path>
        </g>
    </g>
</svg>