<?xml version="1.0" encoding="UTF-8"?>
<svg width="564px" height="564px" viewBox="0 0 564 564" version="1.1" xmlns="http://www.w3.org/2000/svg" xmlns:xlink="http://www.w3.org/1999/xlink">
    <title>com_vivo_vivoconsole_b_s5_2x2_2_bg</title>
    <g id="com_vivo_vivoconsole" stroke="none" stroke-width="1" fill="none" fill-rule="evenodd">
        <path d="M82.5332448,21 L481.466755,21 C502.863205,21 510.622075,23.2278147 518.444297,27.4111849 C526.266519,31.5945551 532.405445,37.7334809 536.588815,45.5557031 C540.772185,53.3779253 543,61.136795 543,82.5332448 L543,481.466755 C543,502.863205 540.772185,510.622075 536.588815,518.444297 C532.405445,526.266519 526.266519,532.405445 518.444297,536.588815 C510.622075,540.772185 502.863205,543 481.466755,543 L82.5332448,543 C61.136795,543 53.3779253,540.772185 45.5557031,536.588815 C37.7334809,532.405445 31.5945551,526.266519 27.4111849,518.444297 C23.2278147,510.622075 21,502.863205 21,481.466755 L21,82.5332448 C21,61.136795 23.2278147,53.3779253 27.4111849,45.5557031 C31.5945551,37.7334809 37.7334809,31.5945551 45.5557031,27.4111849 C53.3779253,23.2278147 61.136795,21 82.5332448,21 Z" id="背景" fill="#CBCBCB"></path>
    </g>
</svg>