<?xml version="1.0" encoding="UTF-8"?>
<svg width="564px" height="564px" viewBox="0 0 564 564" version="1.1" xmlns="http://www.w3.org/2000/svg" xmlns:xlink="http://www.w3.org/1999/xlink">
    <title>com_vivo_gallery_b_s5_2x2_2_sc</title>
    <g id="com_vivo_gallery" stroke="none" stroke-width="1" fill="none" fill-rule="evenodd">
        <g id="辅色" transform="translate(266.737852, 179.152317)" fill="#4E4E4E">
            <path d="M74.1784972,66.0857296 C76.3714897,67.5540756 78.2554252,69.4380111 79.7237712,71.6310036 L122.867989,136.067414 C128.384135,144.305845 126.177287,155.456132 117.938857,160.972278 C114.983693,162.950945 111.507409,164.00728 107.950991,164.00728 L89.6596826,164.006863 C90.7557199,158.6156 89.8836263,152.811958 86.7675108,147.760055 L86.7675108,147.760055 L42.8549045,76.5673447 L46.160525,71.6310036 C52.3661892,62.3627691 64.9102627,59.8800654 74.1784972,66.0857296 Z" id="形状结合"></path>
            <path d="M42.855,76.5683714 L86.7675108,147.760055 C89.8836263,152.811958 90.7557199,158.6156 89.6596826,164.006863 L17.9333055,164.00728 C8.01868968,164.00728 -0.0186944912,155.969896 -0.0186944912,146.05528 C-0.0186944912,142.498861 1.03764009,139.022577 3.01630718,136.067414 L42.855,76.5683714 Z" id="形状结合" opacity="0.100000001"></path>
            <path d="M102.258815,33.700126 C111.564813,33.700126 119.108815,26.1560958 119.108815,16.850063 C119.108815,7.54403017 111.564813,0 102.258815,0 C92.9528167,0 85.4088147,7.54403017 85.4088147,16.850063 C85.4088147,26.1560958 92.9528167,33.700126 102.258815,33.700126 Z" id="太阳"></path>
        </g>
    </g>
</svg>