<?xml version="1.0" encoding="UTF-8"?>
<svg width="240px" height="564px" viewBox="0 0 240 564" version="1.1" xmlns="http://www.w3.org/2000/svg" xmlns:xlink="http://www.w3.org/1999/xlink">
    <title>com_vivo_gallery_b_s5_1x2_3_mc</title>
    <g id="com_vivo_gallery" stroke="none" stroke-width="1" fill="none" fill-rule="evenodd">
        <g id="主色" transform="translate(42.120000, 221.200000)" fill="#000000">
            <g id="山">
                <path d="M78.3581409,20.0351679 L119.583489,86.8702013 C123.410711,93.0749402 121.483353,101.207451 115.278614,105.034674 C113.195549,106.319554 110.796278,107 108.348815,107 L23.6511849,107 C16.3610262,107 10.4511849,101.090159 10.4511849,93.8 C10.4511849,91.3525367 11.1316304,88.9532658 12.4165113,86.8702013 L53.6418591,20.0351679 C57.8518034,13.2099551 66.7975657,11.0898611 73.6227785,15.2998055 C75.5486444,16.4877227 77.1702237,18.109302 78.3581409,20.0351679 Z"></path>
            </g>
            <path d="M93.7971534,45.0665901 L95.5250806,45.4130524 L119.583489,84.4123276 L119.583489,86.8702013 C121.419076,89.8460773 121.930942,93.2653969 121.28206,96.4404975 L79.1791534,96.4404975 C73.3470264,96.4404975 68.6191534,91.712127 68.6191534,85.88 C68.6191534,83.7879829 69.2405303,81.7431041 70.4044586,80.0047696 L93.7971534,45.0665901 Z" id="路径"></path>
            <path d="M119.782004,83.9026535 C123.026804,88.7487836 122.606969,89.9574697 123.023402,91.5375336 C123.439835,93.1175974 123.439835,93.793372 122.753253,95.1764114 L121.28206,96.4404975 C121.90691,93.3829932 120.401134,91.3997464 118.727738,88.5033653 L118.727738,87.3185738 L116.499186,84.7102631 L119.782004,83.9026535 Z" id="路径"></path>
        </g>
    </g>
</svg>